<svg width="541" height="547" viewBox="0 0 541 547" fill="none" xmlns="http://www.w3.org/2000/svg">
<rect width="541" height="547" rx="12" fill="#192126"/>
<path d="M0 296.315H541V535C541 541.627 535.627 547 529 547H12C5.37259 547 0 541.627 0 535V296.315Z" fill="#E0FE10"/>
<path d="M37.7508 76.5414H51.5116C53.8198 76.5414 55.9519 76.9229 57.9079 77.6857C59.8836 78.429 61.4777 79.6222 62.6905 81.2653C63.9033 82.9084 64.5096 85.0014 64.5096 87.5442C64.5096 88.7961 64.2847 89.9893 63.8348 91.1238C63.3849 92.2388 62.7785 93.207 62.0157 94.0285C61.2724 94.8501 60.4508 95.476 59.551 95.9064C60.8811 96.3563 62.0743 97.1093 63.1306 98.1656C64.2064 99.2219 65.0378 100.454 65.6246 101.863C66.231 103.251 66.5341 104.689 66.5341 106.176C66.5341 108.621 65.9278 110.743 64.715 112.543C63.5218 114.323 61.9081 115.682 59.8738 116.621C57.8395 117.54 55.59 118 53.1254 118H37.7508V76.5414ZM52.4212 93.7351C54.2403 93.7351 55.7367 93.2657 56.9104 92.3268C58.1035 91.3879 58.7001 89.9111 58.7001 87.8963C58.7001 86.0772 58.0546 84.6786 56.7637 83.7006C55.4922 82.7226 53.7807 82.2335 51.629 82.2335H44.0591V93.7351H52.4212ZM53.2134 111.985C55.5216 111.985 57.282 111.447 58.4948 110.371C59.7271 109.276 60.3432 107.643 60.3432 105.471C60.3432 104.278 60.0596 103.212 59.4923 102.273C58.9251 101.315 58.1133 100.562 57.0571 100.014C56.0008 99.4664 54.7685 99.1925 53.3601 99.1925H44.0591V111.985H53.2134ZM75.7319 76.5414H103.166V82.3509H82.0402V94.322H101.464V100.131H82.0402V112.044H103.166V118H75.7319V76.5414ZM129.792 118.557C125.547 118.557 121.948 117.619 118.994 115.741C116.041 113.843 113.83 111.291 112.363 108.083C110.896 104.855 110.163 101.246 110.163 97.256C110.163 93.2461 110.896 89.6372 112.363 86.4293C113.83 83.2018 116.041 80.6491 118.994 78.7713C121.948 76.874 125.567 75.9253 129.85 75.9253C133.978 75.9253 137.557 76.9229 140.589 78.918C143.621 80.9132 145.949 83.8082 147.572 87.6029L141.645 89.9502C140.022 84.6101 136.071 81.9401 129.792 81.9401C126.819 81.9401 124.334 82.5856 122.339 83.8766C120.344 85.1676 118.857 86.9476 117.879 89.2167C116.901 91.4661 116.412 94.0579 116.412 96.992C116.412 100.024 116.882 102.704 117.821 105.031C118.779 107.359 120.256 109.198 122.251 110.547C124.246 111.878 126.76 112.543 129.792 112.543C132.726 112.543 135.161 111.897 137.098 110.606C139.054 109.315 140.609 107.251 141.763 104.415L147.631 106.821C145.988 110.616 143.631 113.521 140.56 115.535C137.489 117.55 133.899 118.557 129.792 118.557ZM172.203 118.557C167.9 118.557 164.272 117.599 161.318 115.682C158.364 113.746 156.154 111.164 154.687 107.936C153.239 104.709 152.516 101.149 152.516 97.256C152.516 93.3635 153.239 89.8133 154.687 86.6053C156.154 83.3778 158.364 80.8056 161.318 78.8887C164.272 76.9522 167.9 75.9839 172.203 75.9839C176.507 75.9839 180.135 76.9522 183.089 78.8887C186.042 80.8056 188.243 83.3778 189.69 86.6053C191.158 89.8133 191.891 93.3635 191.891 97.256C191.891 101.149 191.158 104.709 189.69 107.936C188.243 111.164 186.042 113.746 183.089 115.682C180.135 117.599 176.507 118.557 172.203 118.557ZM172.203 112.953C175.196 112.953 177.661 112.249 179.597 110.841C181.553 109.432 182.981 107.555 183.881 105.207C184.781 102.841 185.231 100.19 185.231 97.256C185.231 94.322 184.781 91.6813 183.881 89.334C182.981 86.9672 181.553 85.0894 179.597 83.7006C177.661 82.2922 175.196 81.588 172.203 81.588C169.211 81.588 166.736 82.2922 164.78 83.7006C162.844 85.0894 161.425 86.9672 160.526 89.334C159.626 91.6813 159.176 94.322 159.176 97.256C159.176 100.19 159.626 102.841 160.526 105.207C161.425 107.555 162.844 109.432 164.78 110.841C166.736 112.249 169.211 112.953 172.203 112.953ZM242.166 76.5414V118H236.092V85.2556L224.708 114.479H218.576L207.192 85.2556V118H201.118V76.5414H209.656L221.657 107.408L233.628 76.5414H242.166ZM254.298 76.5414H281.731V82.3509H260.606V94.322H280.03V100.131H260.606V112.044H281.731V118H254.298V76.5414ZM318.494 76.5414H323.336L339.473 118H332.666L329.292 108.67H312.626L309.193 118H302.298L318.494 76.5414ZM327.297 103.242L320.959 85.7251L314.592 103.242H327.297Z" fill="#FAFAFA"/>
<path d="M78.7986 139.541V181H72.7251V148.256L61.3408 177.479H55.2086L43.8244 148.256V181H37.7508V139.541H46.289L58.2894 170.408L70.2604 139.541H78.7986ZM102.285 139.541H107.127L123.264 181H116.457L113.083 171.67H96.4172L92.9843 181H86.0892L102.285 139.541ZM111.088 166.242L104.75 148.725L98.383 166.242H111.088ZM141.704 181.44C139.22 181.44 136.882 180.99 134.692 180.09C132.52 179.171 130.682 177.821 129.176 176.041C127.689 174.242 126.74 172.071 126.33 169.528L132.579 167.943C132.892 170.525 133.88 172.491 135.543 173.841C137.225 175.171 139.318 175.836 141.822 175.836C143.386 175.836 144.746 175.572 145.9 175.044C147.074 174.496 147.964 173.763 148.57 172.843C149.176 171.904 149.479 170.858 149.479 169.704C149.479 168.374 149.088 167.249 148.306 166.33C147.523 165.391 146.545 164.618 145.372 164.012C144.198 163.405 142.604 162.711 140.589 161.928C138.085 160.95 136.071 160.041 134.545 159.2C133.019 158.359 131.709 157.205 130.613 155.738C129.537 154.251 129 152.383 129 150.133C129 147.864 129.557 145.889 130.672 144.207C131.787 142.505 133.293 141.214 135.19 140.334C137.107 139.434 139.21 138.984 141.499 138.984C144.139 138.984 146.516 139.571 148.629 140.744C150.741 141.898 152.472 143.669 153.822 146.055L148.599 149.283C147.797 147.757 146.77 146.593 145.518 145.791C144.267 144.989 142.858 144.588 141.293 144.588C140.178 144.588 139.161 144.813 138.242 145.263C137.323 145.713 136.599 146.339 136.071 147.141C135.562 147.923 135.308 148.813 135.308 149.811C135.308 150.984 135.67 151.982 136.393 152.803C137.137 153.625 138.056 154.31 139.151 154.857C140.266 155.405 141.792 156.051 143.729 156.794C146.311 157.811 148.394 158.75 149.978 159.611C151.582 160.471 152.951 161.684 154.086 163.249C155.22 164.794 155.788 166.76 155.788 169.146C155.788 171.611 155.162 173.772 153.91 175.631C152.678 177.489 150.986 178.927 148.834 179.944C146.682 180.941 144.306 181.44 141.704 181.44ZM172.966 145.204H159.469V139.541H192.742V145.204H179.274V181H172.966V145.204ZM200.121 139.541H227.554V145.351H206.429V157.322H225.852V163.131H206.429V175.044H227.554V181H200.121V139.541ZM237.574 139.541H250.366C253.007 139.541 255.403 140.021 257.555 140.979C259.706 141.918 261.408 143.297 262.66 145.116C263.912 146.916 264.538 149.048 264.538 151.512C264.538 154.134 263.775 156.393 262.249 158.29C260.743 160.188 258.728 161.518 256.205 162.281L267.736 181H260.518L250.102 162.926L247.579 162.955H243.882V181H237.574V139.541ZM250.924 157.791C253.251 157.713 255.061 157.136 256.352 156.06C257.643 154.965 258.288 153.488 258.288 151.63C258.288 149.654 257.584 148.089 256.176 146.935C254.767 145.781 252.85 145.204 250.425 145.204H243.94V157.791H250.924ZM307.521 181.557C303.218 181.557 299.589 180.599 296.635 178.682C293.682 176.746 291.471 174.164 290.004 170.936C288.557 167.709 287.833 164.149 287.833 160.256C287.833 156.363 288.557 152.813 290.004 149.605C291.471 146.378 293.682 143.806 296.635 141.889C299.589 139.952 303.218 138.984 307.521 138.984C311.824 138.984 315.453 139.952 318.406 141.889C321.36 143.806 323.561 146.378 325.008 149.605C326.475 152.813 327.209 156.363 327.209 160.256C327.209 164.149 326.475 167.709 325.008 170.936C323.561 174.164 321.36 176.746 318.406 178.682C315.453 180.599 311.824 181.557 307.521 181.557ZM307.521 175.953C310.514 175.953 312.978 175.249 314.915 173.841C316.871 172.432 318.299 170.555 319.199 168.207C320.098 165.841 320.548 163.19 320.548 160.256C320.548 157.322 320.098 154.681 319.199 152.334C318.299 149.967 316.871 148.089 314.915 146.701C312.978 145.292 310.514 144.588 307.521 144.588C304.528 144.588 302.054 145.292 300.098 146.701C298.161 148.089 296.743 149.967 295.843 152.334C294.943 154.681 294.494 157.322 294.494 160.256C294.494 163.19 294.943 165.841 295.843 168.207C296.743 170.555 298.161 172.432 300.098 173.841C302.054 175.249 304.528 175.953 307.521 175.953ZM336.436 139.541H365.366V145.351H342.744V157.322H362.666V163.131H342.744V181H336.436V139.541ZM48.1375 226.951L32.4988 201.541H40.1274L51.3356 220.877L62.6025 201.541H70.2898L54.6805 226.951V243H48.1375V226.951ZM91.0772 243.557C86.7738 243.557 83.1454 242.599 80.1917 240.682C77.2381 238.746 75.0277 236.164 73.5607 232.936C72.1132 229.709 71.3895 226.149 71.3895 222.256C71.3895 218.363 72.1132 214.813 73.5607 211.605C75.0277 208.378 77.2381 205.806 80.1917 203.889C83.1454 201.952 86.7738 200.984 91.0772 200.984C95.3805 200.984 99.009 201.952 101.963 203.889C104.916 205.806 107.117 208.378 108.564 211.605C110.031 214.813 110.765 218.363 110.765 222.256C110.765 226.149 110.031 229.709 108.564 232.936C107.117 236.164 104.916 238.746 101.963 240.682C99.009 242.599 95.3805 243.557 91.0772 243.557ZM91.0772 237.953C94.0699 237.953 96.5345 237.249 98.471 235.841C100.427 234.432 101.855 232.555 102.755 230.207C103.655 227.841 104.104 225.19 104.104 222.256C104.104 219.322 103.655 216.681 102.755 214.334C101.855 211.967 100.427 210.089 98.471 208.701C96.5345 207.292 94.0699 206.588 91.0772 206.588C88.0844 206.588 85.61 207.292 83.6539 208.701C81.7174 210.089 80.2993 211.967 79.3995 214.334C78.4997 216.681 78.0498 219.322 78.0498 222.256C78.0498 225.19 78.4997 227.841 79.3995 230.207C80.2993 232.555 81.7174 234.432 83.6539 235.841C85.61 237.249 88.0844 237.953 91.0772 237.953ZM134.574 243.557C129.352 243.557 125.459 242.11 122.897 239.215C120.354 236.32 119.082 232.261 119.082 227.039V201.541H125.391V226.334C125.391 228.799 125.674 230.843 126.242 232.467C126.828 234.09 127.797 235.332 129.146 236.193C130.496 237.034 132.305 237.455 134.574 237.455C136.863 237.455 138.682 237.034 140.032 236.193C141.381 235.332 142.35 234.09 142.936 232.467C143.523 230.824 143.817 228.76 143.817 226.276V201.541H150.125V226.745C150.125 232.085 148.834 236.222 146.252 239.156C143.69 242.09 139.797 243.557 134.574 243.557ZM161.318 201.541H174.111C176.751 201.541 179.147 202.021 181.299 202.979C183.451 203.918 185.152 205.297 186.404 207.116C187.656 208.916 188.282 211.048 188.282 213.512C188.282 216.134 187.519 218.393 185.994 220.29C184.487 222.188 182.473 223.518 179.949 224.281L191.48 243H184.262L173.846 224.926L171.323 224.955H167.626V243H161.318V201.541ZM174.668 219.791C176.996 219.713 178.805 219.136 180.096 218.06C181.387 216.965 182.033 215.488 182.033 213.63C182.033 211.654 181.328 210.089 179.92 208.935C178.512 207.781 176.595 207.204 174.169 207.204H167.685V219.791H174.668ZM214.453 201.541H228.214C230.522 201.541 232.654 201.923 234.61 202.686C236.586 203.429 238.18 204.622 239.393 206.265C240.605 207.908 241.212 210.001 241.212 212.544C241.212 213.796 240.987 214.989 240.537 216.124C240.087 217.239 239.481 218.207 238.718 219.029C237.975 219.85 237.153 220.476 236.253 220.906C237.583 221.356 238.777 222.109 239.833 223.166C240.909 224.222 241.74 225.454 242.327 226.863C242.933 228.251 243.236 229.689 243.236 231.176C243.236 233.621 242.63 235.743 241.417 237.543C240.224 239.323 238.61 240.682 236.576 241.621C234.542 242.54 232.292 243 229.828 243H214.453V201.541ZM229.123 218.735C230.943 218.735 232.439 218.266 233.613 217.327C234.806 216.388 235.402 214.911 235.402 212.896C235.402 211.077 234.757 209.679 233.466 208.701C232.194 207.723 230.483 207.234 228.331 207.234H220.761V218.735H229.123ZM229.916 236.985C232.224 236.985 233.984 236.447 235.197 235.371C236.429 234.276 237.045 232.643 237.045 230.471C237.045 229.278 236.762 228.212 236.195 227.273C235.627 226.315 234.815 225.562 233.759 225.014C232.703 224.466 231.471 224.193 230.062 224.193H220.761V236.985H229.916ZM269.246 243.557C264.943 243.557 261.315 242.599 258.361 240.682C255.407 238.746 253.197 236.164 251.73 232.936C250.282 229.709 249.559 226.149 249.559 222.256C249.559 218.363 250.282 214.813 251.73 211.605C253.197 208.378 255.407 205.806 258.361 203.889C261.315 201.952 264.943 200.984 269.246 200.984C273.55 200.984 277.178 201.952 280.132 203.889C283.085 205.806 285.286 208.378 286.733 211.605C288.201 214.813 288.934 218.363 288.934 222.256C288.934 226.149 288.201 229.709 286.733 232.936C285.286 236.164 283.085 238.746 280.132 240.682C277.178 242.599 273.55 243.557 269.246 243.557ZM269.246 237.953C272.239 237.953 274.704 237.249 276.64 235.841C278.596 234.432 280.024 232.555 280.924 230.207C281.824 227.841 282.274 225.19 282.274 222.256C282.274 219.322 281.824 216.681 280.924 214.334C280.024 211.967 278.596 210.089 276.64 208.701C274.704 207.292 272.239 206.588 269.246 206.588C266.254 206.588 263.779 207.292 261.823 208.701C259.887 210.089 258.468 211.967 257.569 214.334C256.669 216.681 256.219 219.322 256.219 222.256C256.219 225.19 256.669 227.841 257.569 230.207C258.468 232.555 259.887 234.432 261.823 235.841C263.779 237.249 266.254 237.953 269.246 237.953ZM298.161 201.541H309.897C314.533 201.541 318.445 202.363 321.634 204.006C324.842 205.63 327.257 208.016 328.881 211.165C330.524 214.295 331.346 218.099 331.346 222.579C331.346 226.882 330.514 230.559 328.852 233.611C327.189 236.662 324.744 238.99 321.516 240.594C318.309 242.198 314.416 243 309.839 243H298.161V201.541ZM309.252 237.191C314.357 237.191 318.26 236.007 320.959 233.64C323.678 231.273 325.037 227.498 325.037 222.315C325.037 218.813 324.509 215.967 323.453 213.777C322.397 211.586 320.754 209.972 318.524 208.935C316.294 207.879 313.389 207.351 309.809 207.351H304.469V237.191H309.252ZM348.113 226.951L332.475 201.541H340.103L351.311 220.877L362.578 201.541H370.266L354.656 226.951V243H348.113V226.951Z" fill="#E0FE10"/>
<mask id="mask0_1045_756" style="mask-type:alpha" maskUnits="userSpaceOnUse" x="0" y="296" width="541" height="251">
<path d="M0 296.315H541V535C541 541.627 535.627 547 529 547H12C5.37259 547 0 541.627 0 535V296.315Z" fill="#E0FE10"/>
</mask>
<g mask="url(#mask0_1045_756)">
<g filter="url(#filter0_f_1045_756)">
<path d="M-21.6144 470.695C-20.8979 457.655 -18.8821 444.735 -15.6193 432.076C-13.7085 424.662 -11.728 416.974 -4.88396 412.697C13.0072 401.515 32.4463 411.807 51.9994 409.35C72.6007 406.762 82.4622 390.007 92.989 374.217C102.32 360.22 111.102 345.003 124.08 333.924C138.7 321.443 161.132 318.353 179.569 321.655C197.119 324.798 208.718 321.322 220.001 307.295C225.294 300.714 231.629 295.305 236.871 288.752" stroke="white" stroke-width="2" stroke-linecap="round"/>
<path d="M-10.3213 500.81C-9.44675 479.821 3.63661 469.139 22.4424 462.609C31.0946 459.605 40.4094 457.419 49.6294 458.357C61.2262 459.536 71.576 465.728 83.0902 466.931C114.041 470.165 132.259 439.614 147.084 417.576C158.862 400.068 173.441 390.886 194.138 385.579C205.584 382.644 217.41 382.861 229.133 382.861C238.5 382.861 249.095 384.24 257.923 380.351C277.583 371.691 284.366 347.133 292.011 328.975C295.49 320.712 297.981 311.698 301.84 303.67C303.344 300.543 305.493 292.712 308.393 291.262" stroke="white" stroke-width="2" stroke-linecap="round"/>
<path d="M19.7935 577.352C19.7935 559.646 28.2779 543.17 41.7521 531.692C47.1404 527.102 54.5892 524.86 61.3407 523.396C83.2653 518.641 104.666 518.455 127.008 518.377C135.287 518.348 144.061 518.939 152.173 516.843C167.099 512.988 180.946 503.491 192.814 493.978C206.17 483.273 217.089 470.599 227.39 457.102C234.81 447.379 244.035 438.616 253.043 430.403C263.399 420.961 272.325 419.268 286.504 418.831C299.774 418.422 314.281 420.231 327.285 416.809C343.291 412.597 355.135 396.368 364.649 383.976C371.411 375.168 378.721 365.442 382.146 354.698C384.342 347.81 385.073 340.501 386.887 333.506C388.889 325.781 391.379 316.225 396.228 309.665C399.131 305.737 402.054 305.89 406.824 305.064C416.856 303.328 426.735 301.007 436.799 299.418C442.697 298.486 448.211 297.754 452.763 293.771C454.888 291.912 457.35 291.408 458.967 289.031C460.068 287.411 459.891 285.78 461.476 284.988" stroke="white" stroke-width="2" stroke-linecap="round"/>
<path d="M206.227 573.078C206.227 548.224 229.922 520.521 251.818 509.293C274.802 497.506 305.04 505.158 326.826 490.332C353.263 472.34 367.802 440.055 385.591 414.557C409.258 380.634 457.626 396.157 491.341 381.793C526.769 366.7 534.489 325.121 560.075 299.535" stroke="white" stroke-width="2" stroke-linecap="round"/>
<path d="M346.037 564.804C346.037 538.881 359.342 528.027 384.447 526.533C395.793 525.858 407.782 526.728 418.953 524.372C432.076 521.605 438.912 505.98 444.328 495.233C453.894 476.25 459.514 454.805 477.37 441.278C492.476 429.834 515.826 434.442 533.557 432.773C550.464 431.182 560.036 421.983 569.388 407.956" stroke="white" stroke-width="2" stroke-linecap="round"/>
<path d="M425.088 579.861C425.088 567.869 437.456 545.982 451.438 545.982C464.617 545.982 475.012 563.1 487.13 549.468C496.113 539.362 503.971 526.201 515.85 519.214C521.654 515.799 531.999 514.502 538.576 513.637C546.619 512.578 572.508 513.39 576.916 504.574" stroke="white" stroke-width="2" stroke-linecap="round"/>
<path d="M-58.0029 362.784C-51.5664 362.784 -45.1298 362.784 -38.6932 362.784C-34.7421 362.784 -25.4753 364.72 -22.172 362.017C-15.2186 356.328 -10.5934 349.894 -5.99922 342.15C-2.42345 336.122 0.972136 327.962 6.82743 323.746C23.7209 311.583 46.8394 327.292 62.0378 314.545C66.9654 310.412 99.2429 274.521 97.5899 273.695" stroke="white" stroke-width="2" stroke-linecap="round"/>
</g>
</g>
<path d="M54.5992 337.058V372.667C54.5992 374.768 54.3086 376.579 53.7274 378.099C53.191 379.619 52.4309 380.871 51.4474 381.854C50.5086 382.793 49.3685 383.508 48.0273 384C46.6861 384.447 45.2108 384.671 43.6014 384.671C42.0366 384.671 40.5837 384.447 39.2425 384C37.9013 383.553 36.7389 382.838 35.7554 381.854C34.7718 380.871 33.9894 379.641 33.4083 378.166C32.8718 376.646 32.6035 374.813 32.6035 372.667V364.486H37.9683V373.002C37.9683 375.595 38.5495 377.406 39.7119 378.434C40.8743 379.462 42.2155 379.976 43.7355 379.976C45.2108 379.976 46.485 379.462 47.5579 378.434C48.6756 377.406 49.2344 375.595 49.2344 373.002V337.058H54.5992ZM58.8319 348.391C58.8319 346.245 59.1225 344.435 59.7036 342.959C60.3295 341.439 61.1566 340.187 62.1849 339.204C63.2131 338.22 64.4425 337.505 65.8732 337.058C67.3038 336.611 68.8238 336.387 70.4332 336.387C72.0427 336.387 73.5404 336.611 74.9263 337.058C76.3569 337.505 77.6087 338.22 78.6816 339.204C79.7546 340.187 80.5817 341.439 81.1628 342.959C81.7887 344.479 82.1017 346.29 82.1017 348.391V372.667C82.1017 374.768 81.7887 376.579 81.1628 378.099C80.5817 379.619 79.7546 380.871 78.6816 381.854C77.6087 382.793 76.3569 383.508 74.9263 384C73.5404 384.447 72.0427 384.671 70.4332 384.671C68.8238 384.671 67.3038 384.447 65.8732 384C64.4425 383.553 63.2131 382.838 62.1849 381.854C61.1566 380.871 60.3295 379.641 59.7036 378.166C59.1225 376.646 58.8319 374.813 58.8319 372.667V348.391ZM64.1967 373.002C64.1967 374.299 64.3755 375.394 64.7331 376.288C65.0908 377.182 65.5602 377.898 66.1414 378.434C66.7673 378.97 67.4379 379.373 68.1532 379.641C68.9132 379.865 69.6956 379.976 70.5003 379.976C71.305 379.976 72.065 379.865 72.7803 379.641C73.5404 379.373 74.211 378.97 74.7921 378.434C75.3733 377.898 75.8427 377.182 76.2004 376.288C76.5581 375.394 76.7369 374.299 76.7369 373.002V348.056C76.7369 346.759 76.5581 345.664 76.2004 344.77C75.8427 343.876 75.3733 343.16 74.7921 342.624C74.211 342.088 73.5404 341.707 72.7803 341.484C72.065 341.216 71.305 341.082 70.5003 341.082C69.6956 341.082 68.9132 341.216 68.1532 341.484C67.4379 341.707 66.7673 342.088 66.1414 342.624C65.5602 343.16 65.0908 343.876 64.7331 344.77C64.3755 345.664 64.1967 346.759 64.1967 348.056V373.002ZM91.9061 337.058V384H86.5413V337.058H91.9061ZM119.163 337.058V384H112.659L101.057 345.575H100.722L101.728 384H96.3629V337.058H102.868L114.603 375.55H114.939L113.799 337.058H119.163ZM155.899 341.752H147.784V384H142.42V341.752H134.238V337.058H155.899V341.752ZM180.761 337.058V384H175.396V362.273H164.465V384H159.101V337.058H164.465V357.578H175.396V337.058H180.761ZM190.661 341.752V357.31H201.457V362.004H190.661V379.306H202.329V384H185.296V337.058H201.927V341.752H190.661ZM39.6448 401.752V418.249H50.3074V422.943H39.6448V444H34.28V397.058H50.9109V401.752H39.6448ZM59.6203 397.058V444H54.2555V397.058H59.6203ZM83.927 401.752H75.8127V444H70.4479V401.752H62.2666V397.058H83.927V401.752ZM109.929 397.058V444H103.425L91.8233 405.575H91.488L92.4939 444H87.1291V397.058H93.6339L105.369 435.55H105.705L104.565 397.058H109.929ZM119.802 401.752V417.31H130.599V422.004H119.802V439.306H131.471V444H114.438V397.058H131.069V401.752H119.802ZM152.306 414.427V408.056C152.306 405.821 151.769 404.099 150.696 402.892C149.623 401.685 148.126 401.082 146.203 401.082C144.325 401.082 142.85 401.685 141.777 402.892C140.704 404.099 140.168 405.821 140.168 408.056V410.336C140.168 411.364 140.28 412.281 140.503 413.085C140.727 413.845 141.084 414.538 141.576 415.164C142.113 415.79 142.828 416.371 143.722 416.908C144.616 417.4 145.734 417.891 147.075 418.383L149.959 419.322C152.775 420.305 154.787 421.714 155.994 423.547C157.246 425.38 157.872 427.95 157.872 431.259V432.667C157.872 436.467 156.843 439.418 154.787 441.519C152.73 443.62 149.847 444.671 146.136 444.671C142.47 444.671 139.631 443.62 137.619 441.519C135.608 439.418 134.602 436.467 134.602 432.667V426.631H139.967V433.002C139.967 435.237 140.503 436.959 141.576 438.166C142.694 439.373 144.236 439.976 146.203 439.976C148.215 439.976 149.757 439.373 150.83 438.166C151.948 436.959 152.507 435.237 152.507 433.002V430.521C152.507 429.493 152.395 428.599 152.172 427.839C151.948 427.034 151.568 426.319 151.031 425.693C150.495 425.067 149.78 424.508 148.886 424.016C147.991 423.48 146.896 422.988 145.6 422.541L142.448 421.401C139.721 420.417 137.754 419.009 136.547 417.176C135.384 415.298 134.803 412.728 134.803 409.464V408.391C134.803 404.546 135.787 401.596 137.754 399.539C139.721 397.438 142.515 396.387 146.136 396.387C149.757 396.387 152.574 397.438 154.586 399.539C156.642 401.64 157.67 404.591 157.67 408.391V414.427H152.306ZM179.68 414.427V408.056C179.68 405.821 179.143 404.099 178.07 402.892C176.997 401.685 175.5 401.082 173.577 401.082C171.7 401.082 170.224 401.685 169.151 402.892C168.078 404.099 167.542 405.821 167.542 408.056V410.336C167.542 411.364 167.654 412.281 167.877 413.085C168.101 413.845 168.458 414.538 168.95 415.164C169.487 415.79 170.202 416.371 171.096 416.908C171.99 417.4 173.108 417.891 174.449 418.383L177.333 419.322C180.149 420.305 182.161 421.714 183.368 423.547C184.62 425.38 185.246 427.95 185.246 431.259V432.667C185.246 436.467 184.217 439.418 182.161 441.519C180.104 443.62 177.221 444.671 173.51 444.671C169.844 444.671 167.005 443.62 164.994 441.519C162.982 439.418 161.976 436.467 161.976 432.667V426.631H167.341V433.002C167.341 435.237 167.877 436.959 168.95 438.166C170.068 439.373 171.61 439.976 173.577 439.976C175.589 439.976 177.131 439.373 178.204 438.166C179.322 436.959 179.881 435.237 179.881 433.002V430.521C179.881 429.493 179.769 428.599 179.546 427.839C179.322 427.034 178.942 426.319 178.406 425.693C177.869 425.067 177.154 424.508 176.26 424.016C175.366 423.48 174.27 422.988 172.974 422.541L169.822 421.401C167.095 420.417 165.128 419.009 163.921 417.176C162.758 415.298 162.177 412.728 162.177 409.464V408.391C162.177 404.546 163.161 401.596 165.128 399.539C167.095 397.438 169.889 396.387 173.51 396.387C177.131 396.387 179.948 397.438 181.96 399.539C184.016 401.64 185.045 404.591 185.045 408.391V414.427H179.68ZM39.3766 493.069C39.3766 494.366 39.5554 495.461 39.9131 496.355C40.2707 497.249 40.7402 497.965 41.3213 498.501C41.9025 499.038 42.5731 499.44 43.3331 499.708C44.0932 499.932 44.8755 500.043 45.6802 500.043C46.485 500.043 47.245 499.932 47.9603 499.708C48.7203 499.44 49.3909 499.038 49.9721 498.501C50.5533 497.965 51.0227 497.249 51.3803 496.355C51.738 495.461 51.9168 494.366 51.9168 493.069V484.15H57.2816V492.667C57.2816 494.768 56.9687 496.579 56.3428 498.099C55.7616 499.619 54.9345 500.871 53.8616 501.854C52.7886 502.838 51.5368 503.553 50.1062 504C48.6756 504.492 47.1556 504.738 45.5461 504.738C43.9367 504.738 42.4167 504.492 40.986 504C39.6001 503.553 38.3931 502.86 37.3648 501.921C36.3365 500.938 35.5095 499.686 34.8836 498.166C34.3024 496.646 34.0118 494.813 34.0118 492.667V468.391C34.0118 466.29 34.3024 464.479 34.8836 462.959C35.5095 461.439 36.3365 460.21 37.3648 459.271C38.3931 458.287 39.6001 457.572 40.986 457.125C42.4167 456.678 43.9367 456.454 45.5461 456.454C47.1556 456.454 48.6756 456.678 50.1062 457.125C51.5368 457.572 52.7886 458.287 53.8616 459.271C54.9345 460.255 55.7616 461.506 56.3428 463.026C56.9687 464.502 57.2816 466.29 57.2816 468.391V476.975H51.9168V468.123C51.9168 466.782 51.738 465.664 51.3803 464.77C51.0227 463.876 50.5533 463.16 49.9721 462.624C49.3909 462.088 48.7203 461.707 47.9603 461.484C47.245 461.26 46.485 461.149 45.6802 461.149C44.8755 461.149 44.0932 461.26 43.3331 461.484C42.5731 461.707 41.9025 462.088 41.3213 462.624C40.7402 463.16 40.2707 463.876 39.9131 464.77C39.5554 465.664 39.3766 466.782 39.3766 468.123V493.069ZM61.3859 468.391C61.3859 466.245 61.6765 464.435 62.2577 462.959C62.8836 461.439 63.7106 460.187 64.7389 459.204C65.7672 458.22 66.9966 457.505 68.4272 457.058C69.8578 456.611 71.3778 456.387 72.9873 456.387C74.5967 456.387 76.0944 456.611 77.4803 457.058C78.9109 457.505 80.1627 458.22 81.2357 459.204C82.3086 460.187 83.1357 461.439 83.7169 462.959C84.3428 464.479 84.6557 466.29 84.6557 468.391V492.667C84.6557 494.768 84.3428 496.579 83.7169 498.099C83.1357 499.619 82.3086 500.871 81.2357 501.854C80.1627 502.793 78.9109 503.508 77.4803 504C76.0944 504.447 74.5967 504.671 72.9873 504.671C71.3778 504.671 69.8578 504.447 68.4272 504C66.9966 503.553 65.7672 502.838 64.7389 501.854C63.7106 500.871 62.8836 499.641 62.2577 498.166C61.6765 496.646 61.3859 494.813 61.3859 492.667V468.391ZM66.7507 493.002C66.7507 494.299 66.9295 495.394 67.2872 496.288C67.6448 497.182 68.1143 497.898 68.6954 498.434C69.3213 498.97 69.9919 499.373 70.7072 499.641C71.4673 499.865 72.2496 499.976 73.0543 499.976C73.8591 499.976 74.6191 499.865 75.3344 499.641C76.0944 499.373 76.765 498.97 77.3462 498.434C77.9274 497.898 78.3968 497.182 78.7544 496.288C79.1121 495.394 79.2909 494.299 79.2909 493.002V468.056C79.2909 466.759 79.1121 465.664 78.7544 464.77C78.3968 463.876 77.9274 463.16 77.3462 462.624C76.765 462.088 76.0944 461.707 75.3344 461.484C74.6191 461.216 73.8591 461.082 73.0543 461.082C72.2496 461.082 71.4673 461.216 70.7072 461.484C69.9919 461.707 69.3213 462.088 68.6954 462.624C68.1143 463.16 67.6448 463.876 67.2872 464.77C66.9295 465.664 66.7507 466.759 66.7507 468.056V493.002ZM94.393 457.058V499.306H105.659V504H89.0282V457.058H94.393ZM113.712 457.058V499.306H124.978V504H108.347V457.058H113.712ZM133.031 461.752V477.31H143.828V482.004H133.031V499.306H144.7V504H127.666V457.058H144.297V461.752H133.031ZM153.195 493.069C153.195 494.366 153.374 495.461 153.732 496.355C154.089 497.249 154.559 497.965 155.14 498.501C155.721 499.038 156.392 499.44 157.152 499.708C157.912 499.932 158.694 500.043 159.499 500.043C160.304 500.043 161.064 499.932 161.779 499.708C162.539 499.44 163.21 499.038 163.791 498.501C164.372 497.965 164.841 497.249 165.199 496.355C165.557 495.461 165.735 494.366 165.735 493.069V484.15H171.1V492.667C171.1 494.768 170.787 496.579 170.161 498.099C169.58 499.619 168.753 500.871 167.68 501.854C166.607 502.838 165.355 503.553 163.925 504C162.494 504.492 160.974 504.738 159.365 504.738C157.755 504.738 156.235 504.492 154.805 504C153.419 503.553 152.212 502.86 151.183 501.921C150.155 500.938 149.328 499.686 148.702 498.166C148.121 496.646 147.83 494.813 147.83 492.667V468.391C147.83 466.29 148.121 464.479 148.702 462.959C149.328 461.439 150.155 460.21 151.183 459.271C152.212 458.287 153.419 457.572 154.805 457.125C156.235 456.678 157.755 456.454 159.365 456.454C160.974 456.454 162.494 456.678 163.925 457.125C165.355 457.572 166.607 458.287 167.68 459.271C168.753 460.255 169.58 461.506 170.161 463.026C170.787 464.502 171.1 466.29 171.1 468.391V476.975H165.735V468.123C165.735 466.782 165.557 465.664 165.199 464.77C164.841 463.876 164.372 463.16 163.791 462.624C163.21 462.088 162.539 461.707 161.779 461.484C161.064 461.26 160.304 461.149 159.499 461.149C158.694 461.149 157.912 461.26 157.152 461.484C156.392 461.707 155.721 462.088 155.14 462.624C154.559 463.16 154.089 463.876 153.732 464.77C153.374 465.664 153.195 466.782 153.195 468.123V493.069ZM194.93 461.752H186.815V504H181.451V461.752H173.269V457.058H194.93V461.752ZM203.564 457.058V504H198.199V457.058H203.564ZM211.575 457.058L218.482 498.434H218.884L225.858 457.058H231.223L222.908 504H214.391L206.21 457.058H211.575ZM239.515 461.752V477.31H250.312V482.004H239.515V499.306H251.184V504H234.15V457.058H250.781V461.752H239.515Z" fill="#27272A"/>
<path d="M418.4 482.6L464.802 436.198" stroke="#27272A" stroke-width="7" stroke-linecap="round" stroke-linejoin="round"/>
<path d="M418.4 436.198H464.802V482.6" stroke="#27272A" stroke-width="7" stroke-linecap="round" stroke-linejoin="round"/>
<defs>
<filter id="filter0_f_1045_756" x="-62.0029" y="269.694" width="642.919" height="314.167" filterUnits="userSpaceOnUse" color-interpolation-filters="sRGB">
<feFlood flood-opacity="0" result="BackgroundImageFix"/>
<feBlend mode="normal" in="SourceGraphic" in2="BackgroundImageFix" result="shape"/>
<feGaussianBlur stdDeviation="1.5" result="effect1_foregroundBlur_1045_756"/>
</filter>
</defs>
</svg>
