<svg width="525" height="363" viewBox="0 0 525 363" fill="none" xmlns="http://www.w3.org/2000/svg">
<g clip-path="url(#clip0_4156_846)">
<path d="M345.85 108.691V253.857C345.85 283.301 328.271 300.293 298.828 300.293H183.18C186.955 290.359 188.965 279.631 188.965 268.506C188.965 216.65 146.338 174.023 94.4824 174.023V108.691C94.4824 79.3945 113.379 62.4023 141.504 62.4023H300.293C329.736 62.4023 345.85 79.3945 345.85 108.691ZM454.102 105.176V257.52C454.102 269.531 446.631 277.881 435.205 277.881C429.932 277.881 424.072 275.098 419.092 270.703L365.771 224.561V137.988L419.092 91.9922C424.072 87.5977 429.932 84.8145 435.205 84.8145C446.631 84.8145 454.102 93.1641 454.102 105.176Z" fill="black"/>
<path d="M168.896 268.506C168.896 309.082 134.766 342.92 94.4824 342.92C53.7598 342.92 20.0684 309.375 20.0684 268.506C20.0684 227.637 53.7598 194.092 94.4824 194.092C135.352 194.092 168.896 227.637 168.896 268.506ZM85.5469 230.859V259.424H56.8359C51.5625 259.424 47.9004 262.939 47.9004 268.506C47.9004 273.926 51.5625 277.441 56.8359 277.441H85.5469V306.152C85.5469 311.426 89.0625 315.088 94.4824 315.088C99.9023 315.088 103.418 311.426 103.418 306.152V277.441H132.129C137.402 277.441 141.064 273.926 141.064 268.506C141.064 262.939 137.402 259.424 132.129 259.424H103.418V230.859C103.418 225.586 99.9023 221.924 94.4824 221.924C89.0625 221.924 85.5469 225.586 85.5469 230.859Z" fill="black"/>
</g>
<defs>
<clipPath id="clip0_4156_846">
<rect width="524.414" height="362.842" fill="white"/>
</clipPath>
</defs>
</svg>
