<svg width="299" height="299" viewBox="0 0 299 299" fill="none" xmlns="http://www.w3.org/2000/svg">
<g clip-path="url(#clip0_4156_800)">
<path d="M298.828 149.414C298.828 231.738 231.885 298.828 149.414 298.828C67.0898 298.828 0 231.738 0 149.414C0 66.9434 67.0898 0 149.414 0C231.885 0 298.828 66.9434 298.828 149.414ZM116.309 197.021L88.0371 224.854C83.7891 229.102 84.668 234.521 88.0371 237.598C91.2598 240.088 95.8008 240.527 100.049 236.426L127.002 209.619C129.492 207.275 129.932 206.836 131.25 203.174L143.262 173.438L140.186 171.973C134.473 168.604 129.492 165.527 126.416 161.279L116.309 197.021ZM145.605 98.1445L116.309 100.195C111.768 100.488 108.545 103.564 107.959 108.398L103.857 138.135C103.125 143.262 105.762 146.924 110.449 147.363C114.99 147.803 117.92 145.02 118.799 139.893L122.168 115.576L134.18 114.697C136.523 114.551 139.307 116.309 138.428 119.531L131.543 143.408C127.441 157.617 136.67 161.572 143.848 165.527L175.635 183.398L154.98 201.123C150.732 204.785 150.732 209.766 153.516 212.695C156.299 215.918 161.133 216.504 165.674 212.549L194.531 188.086C198.486 184.863 197.754 177.686 193.213 174.609L161.719 154.102L168.018 132.422C168.896 129.346 172.412 129.053 174.17 131.689L183.398 145.02C185.449 148.096 189.551 149.268 193.213 147.803L219.434 136.084C224.121 133.887 226.025 129.785 223.975 125.537C221.924 121.289 217.969 120.117 213.135 122.168L192.188 131.543L177.832 111.475C170.361 101.221 160.986 97.1191 145.605 98.1445ZM154.248 74.707C154.248 84.8145 162.305 93.0176 172.412 93.0176C182.52 93.0176 190.43 84.8145 190.43 74.707C190.43 64.7461 182.52 56.543 172.412 56.543C162.305 56.543 154.248 64.7461 154.248 74.707Z" fill="#E0FE0F"/>
</g>
<defs>
<clipPath id="clip0_4156_800">
<rect width="298.828" height="298.975" fill="white"/>
</clipPath>
</defs>
</svg>
