<svg width="299" height="299" viewBox="0 0 299 299" fill="none" xmlns="http://www.w3.org/2000/svg">
<g clip-path="url(#clip0_4156_790)">
<path d="M149.414 298.828C231.885 298.828 298.828 231.885 298.828 149.414C298.828 66.9434 231.885 0 149.414 0C66.9434 0 0 66.9434 0 149.414C0 231.885 66.9434 298.828 149.414 298.828ZM149.414 273.926C80.5664 273.926 24.9023 218.262 24.9023 149.414C24.9023 80.5664 80.5664 24.9023 149.414 24.9023C218.262 24.9023 273.926 80.5664 273.926 149.414C273.926 218.262 218.262 273.926 149.414 273.926Z" fill="white"/>
<path d="M171.68 94.6289C181.494 94.6289 189.258 86.7188 189.258 76.9043C189.258 67.2363 181.494 59.3262 171.68 59.3262C162.012 59.3262 154.102 67.2363 154.102 76.9043C154.102 86.7188 162.012 94.6289 171.68 94.6289ZM143.994 164.941L174.902 182.373L154.98 199.512C150.732 203.027 150.879 207.861 153.516 210.791C156.152 213.867 160.986 214.453 165.234 210.645L193.213 186.914C197.021 183.691 196.289 176.807 191.895 173.877L161.426 153.955L167.432 132.861C168.311 129.932 171.826 129.639 173.438 132.129L182.52 145.166C184.57 148.096 188.379 149.268 191.895 147.803L217.383 136.377C221.924 134.326 223.682 130.371 221.777 126.27C219.727 122.168 215.918 120.996 211.23 122.9L191.016 131.982L176.953 112.646C169.775 102.686 160.693 98.7305 145.898 99.6094L117.48 101.66C112.939 101.953 109.863 104.883 109.277 109.57L105.322 138.428C104.736 143.408 107.227 146.924 111.621 147.363C116.016 147.803 118.945 145.166 119.678 140.186L123.193 116.602L134.619 115.723C137.109 115.576 139.6 117.334 138.721 120.41L132.129 143.555C128.174 157.324 137.109 161.133 143.994 164.941ZM89.9414 234.814C93.0176 237.305 97.4121 237.744 101.66 233.789L127.881 207.715C130.078 205.518 130.518 205.078 131.836 201.562L143.408 172.705L140.479 171.24C134.912 168.018 130.078 164.941 127.295 160.84L117.334 195.557L89.9414 222.51C85.8398 226.611 86.7188 231.885 89.9414 234.814Z" fill="white"/>
</g>
<defs>
<clipPath id="clip0_4156_790">
<rect width="298.828" height="298.975" fill="white"/>
</clipPath>
</defs>
</svg>
