<svg width="144" height="144" viewBox="0 0 144 144" fill="none" xmlns="http://www.w3.org/2000/svg">
<circle cx="72" cy="72" r="72" fill="white"/>
<path d="M60.2045 64.7894L64.8846 66.8496M60.7642 76.2101L69.0048 57.4897M69.3743 88.3803L83.7954 55.6196" stroke="#0F172A" stroke-width="6" stroke-linecap="round" stroke-linejoin="round"/>
<path d="M20.8887 61.0954L11.5474 58.6376L13.2903 52.0135L14.8307 52.4188L13.5296 57.3637L15.8897 57.9847L17.0377 53.6215L18.5781 54.0268L17.43 58.39L21.3305 59.4163L20.8887 61.0954Z" fill="#0F172A"/>
<path d="M24.7111 49.7489L15.9876 45.6018L16.733 44.0336L25.4566 48.1807L24.7111 49.7489Z" fill="#0F172A"/>
<path d="M23.965 32.712L24.9589 31.3725L32.7159 37.1283L31.6813 38.5227L23.8185 37.7277L29.2698 41.7726L28.2759 43.1121L20.5189 37.3563L21.5454 35.9729L29.3889 36.7366L23.965 32.712Z" fill="#0F172A"/>
<path d="M36.4712 33.3623L30.3288 25.9078L32.4918 24.1255C35.0295 22.0345 37.491 22.2915 39.4863 24.7131C41.399 27.0344 41.1296 29.5239 38.6237 31.5887L36.4712 33.3623ZM36.7983 31.029L37.4789 30.4682C39.1249 29.1119 39.633 27.6215 38.0985 25.7592C36.6422 23.9918 35.3195 23.8593 33.4836 25.3721L32.6817 26.0329L36.7983 31.029Z" fill="#0F172A"/>
<path d="M56.7292 21.8654C53.6871 22.8336 51.5776 21.0515 50.7795 18.5436C49.9814 16.0357 50.6729 13.3622 53.715 12.3941C56.757 11.4259 58.8665 13.208 59.6647 15.7159C60.4628 18.2238 59.7712 20.8973 56.7292 21.8654ZM56.2628 20.3998C58.2365 19.7717 58.4724 18.0108 57.9189 16.2715C57.3675 14.5388 56.1572 13.2381 54.1835 13.8662C52.2097 14.4944 51.9738 16.2553 52.5253 17.988C53.0788 19.7272 54.289 21.0279 56.2628 20.3998Z" fill="#0F172A"/>
<path d="M69.5657 19.5746C66.9791 19.7215 65.793 18.2484 65.6588 15.8869L65.3246 10.0038L67.0513 9.90573L67.3743 15.5909C67.4627 17.147 67.9215 17.9905 69.4707 17.9025C71.0268 17.814 71.3802 16.9244 71.2918 15.3683L70.9688 9.68314L72.7023 9.58465L73.0327 15.3995C73.1708 17.8292 72.1524 19.4276 69.5657 19.5746Z" fill="#0F172A"/>
<path d="M80.7325 20.0521L82.171 12.0733L79.1908 11.536L79.4661 10.0088L87.1287 11.3904L86.8533 12.9175L83.8798 12.3814L82.4413 20.3602L80.7325 20.0521Z" fill="#0F172A"/>
<path d="M108.052 20.9619L110.033 22.2027L104.907 30.3892L103.493 29.504L107.321 23.3916L101.912 27.5216L100.486 26.6291L101.84 19.9595L98.0123 26.0719L96.5986 25.1866L101.725 17.0001L103.706 18.2409L102.233 25.4241L108.052 20.9619Z" fill="#0F172A"/>
<path d="M110.94 36.6266C108.779 34.2772 109.504 31.6127 111.441 29.8308C113.378 28.0489 116.093 27.5476 118.255 29.8969C120.416 32.2462 119.691 34.9108 117.754 36.6927C115.817 38.4746 113.102 38.9759 110.94 36.6266ZM112.072 35.5852C113.475 37.1095 115.171 36.5802 116.514 35.3445C117.852 34.1133 118.52 32.4672 117.118 30.9429C115.716 29.4186 114.02 29.9479 112.681 31.179C111.338 32.4148 110.67 34.0609 112.072 35.5852Z" fill="#0F172A"/>
<path d="M116.913 44.1724L125.425 39.6059L126.902 42.3588C127.755 43.949 127.572 45.7924 125.976 46.6488C124.904 47.224 123.716 46.9616 122.867 46.1755L120.348 50.5756L119.408 48.8227L121.922 44.7745L121.657 44.2805L121.372 43.7504L117.734 45.7024L116.913 44.1724ZM122.626 43.0935L123.35 44.4428C123.822 45.2366 124.502 45.4923 125.141 45.1498C125.846 44.7716 126.009 43.9779 125.541 43.1044L124.885 41.8816L122.626 43.0935Z" fill="#0F172A"/>
<path d="M122.225 55.765L131.566 53.3072L133.201 59.5215L131.661 59.9267L130.468 55.3916L128.108 56.0126L129.219 60.237L127.679 60.6423L126.567 56.4179L124.253 57.0267L125.447 61.5618L123.86 61.9793L122.225 55.765Z" fill="#0F172A"/>
<path d="M123.627 83.7239L132.969 86.1817L131.226 92.8059L129.685 92.4006L130.986 87.4556L128.626 86.8346L127.478 91.1978L125.938 90.7926L127.086 86.4293L123.185 85.4031L123.627 83.7239Z" fill="#0F172A"/>
<path d="M119.805 95.0704L128.528 99.2176L127.783 100.786L119.059 96.6386L119.805 95.0704Z" fill="#0F172A"/>
<path d="M120.551 112.107L119.557 113.447L111.8 107.691L112.835 106.297L120.697 107.092L115.246 103.047L116.24 101.707L123.997 107.463L122.971 108.846L115.127 108.083L120.551 112.107Z" fill="#0F172A"/>
<path d="M108.045 111.457L114.187 118.912L112.024 120.694C109.487 122.785 107.025 122.528 105.03 120.106C103.117 117.785 103.386 115.295 105.892 113.231L108.045 111.457ZM107.718 113.79L107.037 114.351C105.391 115.707 104.883 117.198 106.418 119.06C107.874 120.828 109.196 120.96 111.032 119.447L111.834 118.786L107.718 113.79Z" fill="#0F172A"/>
<path d="M87.7868 122.954C90.8289 121.986 92.9384 123.768 93.7365 126.276C94.5346 128.784 93.8431 131.457 90.801 132.425C87.759 133.393 85.6495 131.611 84.8513 129.103C84.0532 126.596 84.7448 123.922 87.7868 122.954ZM88.2532 124.42C86.2795 125.048 86.0436 126.809 86.5971 128.548C87.1485 130.281 88.3587 131.581 90.3325 130.953C92.3062 130.325 92.5421 128.564 91.9907 126.831C91.4372 125.092 90.227 123.791 88.2532 124.42Z" fill="#0F172A"/>
<path d="M74.9503 125.245C77.5369 125.098 78.723 126.571 78.8571 128.932L79.1914 134.815L77.4647 134.914L77.1417 129.228C77.0533 127.672 76.5945 126.829 75.0453 126.917C73.4892 127.005 73.1358 127.895 73.2242 129.451L73.5472 135.136L71.8137 135.235L71.4833 129.42C71.3452 126.99 72.3636 125.392 74.9503 125.245Z" fill="#0F172A"/>
<path d="M63.7835 124.767L62.345 132.746L65.3252 133.283L65.0499 134.81L57.3873 133.429L57.6626 131.902L60.6362 132.438L62.0747 124.459L63.7835 124.767Z" fill="#0F172A"/>
<path d="M36.4642 123.857L34.4828 122.617L39.6092 114.43L41.0228 115.315L37.1953 121.428L42.6044 117.298L44.0297 118.19L42.6762 124.86L46.5037 118.747L47.9174 119.633L42.791 127.819L40.8095 126.578L42.283 119.395L36.4642 123.857Z" fill="#0F172A"/>
<path d="M33.5757 108.193C35.7372 110.542 35.0118 113.207 33.075 114.989C31.1381 116.77 28.4225 117.272 26.2611 114.922C24.0996 112.573 24.825 109.909 26.7618 108.127C28.6987 106.345 31.4143 105.843 33.5757 108.193ZM32.4438 109.234C31.0414 107.71 29.3454 108.239 28.0022 109.475C26.6641 110.706 25.9956 112.352 27.398 113.876C28.8004 115.401 30.4964 114.871 31.8345 113.64C33.1777 112.405 33.8462 110.758 32.4438 109.234Z" fill="#0F172A"/>
<path d="M27.6029 100.647L19.0913 105.213L17.6144 102.461C16.7612 100.87 16.9437 99.0269 18.54 98.1705C19.6122 97.5953 20.8003 97.8578 21.6487 98.6438L24.1676 94.2437L25.108 95.9966L22.5943 100.045L22.8593 100.539L23.1437 101.069L26.7821 99.1169L27.6029 100.647ZM21.8903 101.726L21.1664 100.377C20.694 99.5827 20.0138 99.327 19.3752 99.6696C18.6705 100.048 18.5067 100.841 18.9754 101.715L19.6314 102.938L21.8903 101.726Z" fill="#0F172A"/>
<path d="M22.2911 89.0543L12.9498 91.5122L11.3147 85.2979L12.8551 84.8926L14.0483 89.4277L16.4084 88.8067L15.2969 84.5823L16.8373 84.177L17.9488 88.4014L20.2626 87.7926L19.0694 83.2575L20.656 82.8401L22.2911 89.0543Z" fill="#0F172A"/>
<path d="M12.568 75.5554L12.6667 72.8394L10.3704 74.2962L9.77783 73.2592L12.1976 71.9999L9.77783 70.7406L10.3704 69.7036L12.6667 71.1604L12.568 68.4443H13.7531L13.6544 71.1604L15.9507 69.7036L16.5433 70.7406L14.1235 71.9999L16.5433 73.2592L15.9507 74.2962L13.6544 72.8394L13.7531 75.5554H12.568Z" fill="#0F172A"/>
<path d="M130.79 75.5554L130.889 72.8394L128.593 74.2962L128 73.2592L130.42 71.9999L128 70.7406L128.593 69.7036L130.889 71.1604L130.79 68.4443H131.975L131.877 71.1604L134.173 69.7036L134.765 70.7406L132.346 71.9999L134.765 73.2592L134.173 74.2962L131.877 72.8394L131.975 75.5554H130.79Z" fill="#0F172A"/>
</svg>
