<svg width="144" height="145" viewBox="0 0 144 145" fill="none" xmlns="http://www.w3.org/2000/svg">
<circle cx="72" cy="72.9353" r="72" fill="#E0FE10" fill-opacity="0.16"/>
<path d="M60.2045 65.7247L64.8846 67.7849M60.7642 77.1454L69.0048 58.425M69.3743 89.3156L83.7954 56.5549" stroke="#0F172A" stroke-width="6" stroke-linecap="round" stroke-linejoin="round"/>
<path d="M20.8887 62.0305L11.5474 59.5727L13.2903 52.9485L14.8307 53.3538L13.5296 58.2988L15.8897 58.9198L17.0377 54.5565L18.5781 54.9618L17.43 59.325L21.3305 60.3513L20.8887 62.0305Z" fill="#0F172A"/>
<path d="M24.7111 50.6842L15.9876 46.5371L16.733 44.9689L25.4566 49.116L24.7111 50.6842Z" fill="#0F172A"/>
<path d="M23.965 33.6471L24.9589 32.3076L32.7159 38.0633L31.6813 39.4577L23.8185 38.6627L29.2698 42.7076L28.2759 44.0471L20.5189 38.2914L21.5454 36.908L29.3889 37.6716L23.965 33.6471Z" fill="#0F172A"/>
<path d="M36.4712 34.2974L30.3288 26.8428L32.4918 25.0605C35.0295 22.9696 37.491 23.2266 39.4863 25.6481C41.399 27.9694 41.1296 30.459 38.6237 32.5238L36.4712 34.2974ZM36.7983 31.964L37.4789 31.4032C39.1249 30.047 39.633 28.5566 38.0985 26.6943C36.6422 24.9269 35.3195 24.7944 33.4836 26.3072L32.6817 26.9679L36.7983 31.964Z" fill="#0F172A"/>
<path d="M56.7292 22.8007C53.6871 23.7689 51.5776 21.9868 50.7795 19.4789C49.9814 16.971 50.6729 14.2975 53.715 13.3294C56.757 12.3612 58.8665 14.1433 59.6647 16.6512C60.4628 19.1591 59.7712 21.8326 56.7292 22.8007ZM56.2628 21.3351C58.2365 20.707 58.4724 18.9461 57.9189 17.2068C57.3675 15.4741 56.1572 14.1734 54.1835 14.8015C52.2097 15.4297 51.9738 17.1906 52.5253 18.9233C53.0788 20.6625 54.289 21.9632 56.2628 21.3351Z" fill="#0F172A"/>
<path d="M69.5657 20.5099C66.9791 20.6568 65.793 19.1837 65.6588 16.8222L65.3246 10.9391L67.0513 10.841L67.3743 16.5262C67.4627 18.0823 67.9215 18.9258 69.4707 18.8378C71.0268 18.7493 71.3802 17.8597 71.2918 16.3036L70.9688 10.6184L72.7023 10.52L73.0327 16.3348C73.1708 18.7645 72.1524 20.3629 69.5657 20.5099Z" fill="#0F172A"/>
<path d="M80.7325 20.9876L82.171 13.0089L79.1908 12.4715L79.4661 10.9444L87.1287 12.3259L86.8533 13.8531L83.8798 13.3169L82.4413 21.2957L80.7325 20.9876Z" fill="#0F172A"/>
<path d="M108.052 21.8969L110.033 23.1377L104.907 31.3243L103.493 30.4391L107.321 24.3267L101.912 28.4566L100.486 27.5641L101.84 20.8945L98.0123 27.0069L96.5986 26.1217L101.725 17.9351L103.706 19.1759L102.233 26.3592L108.052 21.8969Z" fill="#0F172A"/>
<path d="M110.94 37.5619C108.779 35.2125 109.504 32.548 111.441 30.7661C113.378 28.9842 116.093 28.4829 118.255 30.8322C120.416 33.1815 119.691 35.8461 117.754 37.628C115.817 39.4099 113.102 39.9112 110.94 37.5619ZM112.072 36.5205C113.475 38.0448 115.171 37.5155 116.514 36.2798C117.852 35.0486 118.52 33.4025 117.118 31.8782C115.716 30.3539 114.02 30.8832 112.681 32.1143C111.338 33.3501 110.67 34.9962 112.072 36.5205Z" fill="#0F172A"/>
<path d="M116.913 45.1079L125.425 40.5414L126.902 43.2943C127.755 44.8846 127.572 46.7279 125.976 47.5843C124.904 48.1596 123.716 47.8971 122.867 47.1111L120.348 51.5112L119.408 49.7583L121.922 45.71L121.657 45.2161L121.372 44.686L117.734 46.6379L116.913 45.1079ZM122.626 44.029L123.35 45.3784C123.822 46.1722 124.502 46.4279 125.141 46.0853C125.846 45.7072 126.009 44.9134 125.541 44.04L124.885 42.8171L122.626 44.029Z" fill="#0F172A"/>
<path d="M122.225 56.7003L131.566 54.2425L133.201 60.4568L131.661 60.862L130.468 56.3269L128.108 56.9479L129.219 61.1723L127.679 61.5776L126.567 57.3532L124.253 57.962L125.447 62.4971L123.86 62.9146L122.225 56.7003Z" fill="#0F172A"/>
<path d="M123.627 84.6597L132.969 87.1175L131.226 93.7417L129.685 93.3364L130.986 88.3914L128.626 87.7704L127.478 92.1336L125.938 91.7284L127.086 87.3651L123.185 86.3389L123.627 84.6597Z" fill="#0F172A"/>
<path d="M119.805 96.006L128.528 100.153L127.783 101.721L119.059 97.5741L119.805 96.006Z" fill="#0F172A"/>
<path d="M120.551 113.043L119.557 114.383L111.8 108.627L112.835 107.232L120.697 108.027L115.246 103.983L116.24 102.643L123.997 108.399L122.971 109.782L115.127 109.019L120.551 113.043Z" fill="#0F172A"/>
<path d="M108.045 112.393L114.187 119.847L112.024 121.63C109.487 123.721 107.025 123.464 105.03 121.042C103.117 118.721 103.386 116.231 105.892 114.166L108.045 112.393ZM107.718 114.726L107.037 115.287C105.391 116.643 104.883 118.134 106.418 119.996C107.874 121.763 109.196 121.896 111.032 120.383L111.834 119.722L107.718 114.726Z" fill="#0F172A"/>
<path d="M87.7868 123.889C90.8289 122.921 92.9384 124.703 93.7365 127.211C94.5346 129.719 93.8431 132.393 90.801 133.361C87.759 134.329 85.6495 132.547 84.8513 130.039C84.0532 127.531 84.7448 124.858 87.7868 123.889ZM88.2532 125.355C86.2795 125.983 86.0436 127.744 86.5971 129.483C87.1485 131.216 88.3587 132.517 90.3325 131.889C92.3062 131.261 92.5421 129.5 91.9907 127.767C91.4372 126.028 90.227 124.727 88.2532 125.355Z" fill="#0F172A"/>
<path d="M74.9503 126.18C77.5369 126.033 78.723 127.507 78.8571 129.868L79.1914 135.751L77.4647 135.849L77.1417 130.164C77.0533 128.608 76.5945 127.764 75.0453 127.852C73.4892 127.941 73.1358 128.83 73.2242 130.387L73.5472 136.072L71.8137 136.17L71.4833 130.355C71.3452 127.926 72.3636 126.327 74.9503 126.18Z" fill="#0F172A"/>
<path d="M63.7835 125.703L62.345 133.681L65.3252 134.219L65.0499 135.746L57.3873 134.364L57.6626 132.837L60.6362 133.373L62.0747 125.394L63.7835 125.703Z" fill="#0F172A"/>
<path d="M36.4642 124.793L34.4828 123.552L39.6092 115.366L41.0228 116.251L37.1953 122.364L42.6044 118.234L44.0297 119.126L42.6762 125.796L46.5037 119.683L47.9174 120.568L42.791 128.755L40.8095 127.514L42.283 120.331L36.4642 124.793Z" fill="#0F172A"/>
<path d="M33.5757 109.128C35.7372 111.478 35.0118 114.142 33.075 115.924C31.1381 117.706 28.4225 118.207 26.2611 115.858C24.0996 113.509 24.825 110.844 26.7618 109.062C28.6987 107.28 31.4143 106.779 33.5757 109.128ZM32.4438 110.17C31.0414 108.645 29.3454 109.175 28.0022 110.41C26.6641 111.642 25.9956 113.288 27.398 114.812C28.8004 116.336 30.4964 115.807 31.8345 114.576C33.1777 113.34 33.8462 111.694 32.4438 110.17Z" fill="#0F172A"/>
<path d="M27.6029 101.582L19.0913 106.149L17.6144 103.396C16.7612 101.806 16.9437 99.9623 18.54 99.1058C19.6122 98.5306 20.8003 98.7931 21.6487 99.5791L24.1676 95.179L25.108 96.9319L22.5943 100.98L22.8593 101.474L23.1437 102.004L26.7821 100.052L27.6029 101.582ZM21.8903 102.661L21.1664 101.312C20.694 100.518 20.0138 100.262 19.3752 100.605C18.6705 100.983 18.5067 101.777 18.9754 102.65L19.6314 103.873L21.8903 102.661Z" fill="#0F172A"/>
<path d="M22.2911 89.9899L12.9498 92.4477L11.3147 86.2334L12.8551 85.8281L14.0483 90.3632L16.4084 89.7423L15.2969 85.5179L16.8373 85.1126L17.9488 89.337L20.2626 88.7282L19.0694 84.1931L20.656 83.7756L22.2911 89.9899Z" fill="#0F172A"/>
<path d="M12.568 76.4907L12.6667 73.7747L10.3704 75.2315L9.77783 74.1945L12.1976 72.9352L9.77783 71.6759L10.3704 70.6389L12.6667 72.0957L12.568 69.3796H13.7531L13.6544 72.0957L15.9507 70.6389L16.5433 71.6759L14.1235 72.9352L16.5433 74.1945L15.9507 75.2315L13.6544 73.7747L13.7531 76.4907H12.568Z" fill="#0F172A"/>
<path d="M130.79 76.4907L130.889 73.7747L128.593 75.2315L128 74.1945L130.42 72.9352L128 71.6759L128.593 70.6389L130.889 72.0957L130.79 69.3796H131.975L131.877 72.0957L134.173 70.6389L134.765 71.6759L132.346 72.9352L134.765 74.1945L134.173 75.2315L131.877 73.7747L131.975 76.4907H130.79Z" fill="#0F172A"/>
</svg>
