<svg width="541" height="547" viewBox="0 0 541 547" fill="none" xmlns="http://www.w3.org/2000/svg">
<rect width="541" height="280" rx="12" fill="#192126"/>
<path d="M45.34 116.5V75.0414H52.7926V92.3525H70.9546V75.0414H78.4071V116.5H70.9546V99.1889H52.7926V116.5H45.34ZM106.794 117.087C93.0916 117.087 86.7834 107.052 86.7834 95.756C86.7834 84.4598 93.0916 74.4253 106.794 74.4253C120.496 74.4253 126.804 84.4598 126.804 95.756C126.804 107.052 120.496 117.087 106.794 117.087ZM106.794 110.485C115.684 110.485 118.941 103.59 118.941 95.756C118.941 87.9514 115.684 81.0563 106.794 81.0563C97.9035 81.0563 94.6467 87.9514 94.6467 95.756C94.6467 103.59 97.9035 110.485 106.794 110.485ZM141.577 116.5L129.136 75.0414H136.882L145.714 105.556L154.897 77.4474H160.678L169.861 105.556L178.693 75.0414H186.439L173.998 116.5H166.81L157.773 89.213L148.765 116.5H141.577ZM216.483 116.5V81.7018H203.485V75.0414H236.904V81.7018H223.935V116.5H216.483ZM259.364 117.087C245.662 117.087 239.353 107.052 239.353 95.756C239.353 84.4598 245.662 74.4253 259.364 74.4253C273.066 74.4253 279.374 84.4598 279.374 95.756C279.374 107.052 273.066 117.087 259.364 117.087ZM259.364 110.485C268.254 110.485 271.511 103.59 271.511 95.756C271.511 87.9514 268.254 81.0563 259.364 81.0563C250.473 81.0563 247.217 87.9514 247.217 95.756C247.217 103.59 250.473 110.485 259.364 110.485ZM322.123 94.0836H338.759V116.5H332.861L332.216 110.661C329.986 114.564 325.467 117.087 319.951 117.087C306.308 117.087 299.882 107.14 299.882 95.756C299.882 84.4011 306.19 74.3666 319.893 74.3666C328.049 74.3666 334.622 78.533 337.967 86.279L331.365 89.037C329.458 83.4036 325.115 80.8802 319.834 80.8802C311.061 80.8802 307.276 87.7753 307.276 95.4626C307.276 103.707 311.061 110.426 319.951 110.426C326.436 110.426 331.013 106.847 331.248 100.098H322.123V94.0836ZM348.426 116.5V75.0414H376.006V81.8778H355.879V92.3525H374.627V99.1889H355.879V109.458H376.006V116.5H348.426ZM394.593 116.5V81.7018H381.595V75.0414H415.014V81.7018H402.046V116.5H394.593ZM57.1937 199.969C49.8585 199.969 42.6407 195.95 41.3203 187.793L48.7142 185.915C49.2424 191.079 52.91 193.368 57.3111 193.368C61.7415 193.368 64.1475 191.021 64.1475 188.086C64.1475 179.49 44.0784 182.365 44.0784 168.868C44.0784 161.533 50.0346 157.425 57.0177 157.425C62.123 157.425 66.7882 159.655 69.6342 164.702L63.4433 168.487C62.0056 165.67 59.541 164.056 56.7536 164.056C53.8195 164.056 51.5309 165.846 51.5309 168.487C51.5309 176.291 71.6001 173.651 71.6001 187.412C71.6001 195.246 65.1157 199.969 57.1937 199.969ZM87.4582 199.5V164.702H74.4602V158.041H107.879V164.702H94.9108V199.5H87.4582ZM105.517 199.5L122.124 158.041H127.699L144.217 199.5H136.178L132.863 190.492H116.989L113.644 199.5H105.517ZM119.336 184.125H130.515L124.941 168.986L119.336 184.125ZM150.54 199.5V158.041H163.949C171.695 158.041 178.296 162.472 178.296 170.247C178.296 175.47 174.893 179.431 170.198 181.045L181.729 199.5H173.191L162.98 181.778H160.574H157.992V199.5H150.54ZM158.051 175.705H164.623C168.584 175.529 170.932 173.475 170.932 170.365C170.932 166.932 168.262 164.702 164.007 164.702H158.051V175.705ZM196.59 199.5V164.702H183.592V158.041H217.011V164.702H204.042V199.5H196.59ZM223.568 199.5V158.041H251.148V164.878H231.02V175.353H249.769V182.189H231.02V192.458H251.148V199.5H223.568ZM260.727 199.5V158.041H272.757C286.87 158.041 294.323 165.611 294.323 179.079C294.323 191.989 286.635 199.5 272.699 199.5H260.727ZM268.18 192.664H271.965C281.119 192.664 286.87 189.113 286.87 178.756C286.87 168.927 282.85 164.878 272.64 164.878H268.18V192.664Z" fill="#FAFAFA"/>
<rect y="296.315" width="541" height="250.685" rx="12" fill="#E0FE10"/>
<path d="M115.903 432.657H108.551V410.96H116.052C118.206 410.96 120.056 411.394 121.603 412.263C123.157 413.124 124.351 414.364 125.184 415.981C126.018 417.599 126.434 419.534 126.434 421.787C126.434 424.047 126.014 425.99 125.174 427.614C124.34 429.239 123.136 430.485 121.561 431.354C119.993 432.223 118.107 432.657 115.903 432.657ZM112.481 429.256H115.713C117.224 429.256 118.485 428.981 119.495 428.43C120.505 427.872 121.264 427.042 121.773 425.94C122.281 424.831 122.536 423.447 122.536 421.787C122.536 420.127 122.281 418.75 121.773 417.655C121.264 416.554 120.512 415.731 119.516 415.187C118.527 414.636 117.298 414.36 115.829 414.36H112.481V429.256ZM149.557 421.808C149.557 424.146 149.119 426.149 148.243 427.816C147.375 429.475 146.188 430.747 144.684 431.63C143.186 432.513 141.488 432.954 139.588 432.954C137.688 432.954 135.985 432.513 134.481 431.63C132.984 430.74 131.797 429.465 130.921 427.805C130.052 426.138 129.618 424.139 129.618 421.808C129.618 419.471 130.052 417.472 130.921 415.812C131.797 414.145 132.984 412.87 134.481 411.987C135.985 411.104 137.688 410.663 139.588 410.663C141.488 410.663 143.186 411.104 144.684 411.987C146.188 412.87 147.375 414.145 148.243 415.812C149.119 417.472 149.557 419.471 149.557 421.808ZM145.605 421.808C145.605 420.163 145.348 418.775 144.832 417.645C144.323 416.508 143.617 415.649 142.713 415.07C141.809 414.484 140.767 414.191 139.588 414.191C138.408 414.191 137.366 414.484 136.462 415.07C135.558 415.649 134.848 416.508 134.333 417.645C133.824 418.775 133.57 420.163 133.57 421.808C133.57 423.454 133.824 424.846 134.333 425.983C134.848 427.113 135.558 427.971 136.462 428.557C137.366 429.136 138.408 429.426 139.588 429.426C140.767 429.426 141.809 429.136 142.713 428.557C143.617 427.971 144.323 427.113 144.832 425.983C145.348 424.846 145.605 423.454 145.605 421.808ZM157.286 432.657L151.162 410.96H155.389L159.299 426.904H159.5L163.674 410.96H167.52L171.705 426.915H171.896L175.805 410.96H180.032L173.909 432.657H170.031L165.687 417.433H165.518L161.163 432.657H157.286ZM200.589 410.96V432.657H197.092L186.869 417.878H186.689V432.657H182.758V410.96H186.275L196.489 425.75H196.679V410.96H200.589ZM204.871 432.657V410.96H208.802V429.362H218.358V432.657H204.871ZM240.313 421.808C240.313 424.146 239.875 426.149 238.999 427.816C238.131 429.475 236.944 430.747 235.44 431.63C233.942 432.513 232.243 432.954 230.344 432.954C228.444 432.954 226.741 432.513 225.237 431.63C223.74 430.74 222.553 429.465 221.677 427.805C220.808 426.138 220.374 424.139 220.374 421.808C220.374 419.471 220.808 417.472 221.677 415.812C222.553 414.145 223.74 412.87 225.237 411.987C226.741 411.104 228.444 410.663 230.344 410.663C232.243 410.663 233.942 411.104 235.44 411.987C236.944 412.87 238.131 414.145 238.999 415.812C239.875 417.472 240.313 419.471 240.313 421.808ZM236.361 421.808C236.361 420.163 236.103 418.775 235.588 417.645C235.079 416.508 234.373 415.649 233.469 415.07C232.565 414.484 231.523 414.191 230.344 414.191C229.164 414.191 228.122 414.484 227.218 415.07C226.314 415.649 225.604 416.508 225.089 417.645C224.58 418.775 224.326 420.163 224.326 421.808C224.326 423.454 224.58 424.846 225.089 425.983C225.604 427.113 226.314 427.971 227.218 428.557C228.122 429.136 229.164 429.426 230.344 429.426C231.523 429.426 232.565 429.136 233.469 428.557C234.373 427.971 235.079 427.113 235.588 425.983C236.103 424.846 236.361 423.454 236.361 421.808ZM245.65 432.657H241.455L249.093 410.96H253.946L261.595 432.657H257.399L251.604 415.409H251.435L245.65 432.657ZM245.788 424.15H257.23V427.307H245.788V424.15ZM271.805 432.657H264.453V410.96H271.954C274.108 410.96 275.959 411.394 277.505 412.263C279.059 413.124 280.253 414.364 281.086 415.981C281.92 417.599 282.336 419.534 282.336 421.787C282.336 424.047 281.916 425.99 281.076 427.614C280.242 429.239 279.038 430.485 277.463 431.354C275.895 432.223 274.009 432.657 271.805 432.657ZM268.383 429.256H271.615C273.126 429.256 274.387 428.981 275.397 428.43C276.407 427.872 277.166 427.042 277.675 425.94C278.183 424.831 278.438 423.447 278.438 421.787C278.438 420.127 278.183 418.75 277.675 417.655C277.166 416.554 276.414 415.731 275.418 415.187C274.429 414.636 273.2 414.36 271.731 414.36H268.383V429.256ZM296.258 432.657H292.062L299.701 410.96H304.553L312.203 432.657H308.007L302.212 415.409H302.042L296.258 432.657ZM296.396 424.15H307.838V427.307H296.396V424.15ZM315.061 432.657V410.96H323.197C324.864 410.96 326.263 411.27 327.393 411.892C328.53 412.513 329.388 413.368 329.967 414.456C330.553 415.536 330.846 416.765 330.846 418.143C330.846 419.534 330.553 420.77 329.967 421.851C329.381 422.932 328.516 423.783 327.371 424.404C326.227 425.019 324.818 425.326 323.144 425.326H317.752V422.095H322.614C323.589 422.095 324.387 421.925 325.009 421.586C325.63 421.247 326.09 420.781 326.386 420.188C326.69 419.594 326.842 418.913 326.842 418.143C326.842 417.373 326.69 416.695 326.386 416.109C326.09 415.522 325.627 415.067 324.998 414.742C324.377 414.41 323.575 414.244 322.593 414.244H318.991V432.657H315.061ZM334.261 432.657V410.96H342.397C344.064 410.96 345.463 411.27 346.593 411.892C347.73 412.513 348.588 413.368 349.167 414.456C349.753 415.536 350.047 416.765 350.047 418.143C350.047 419.534 349.753 420.77 349.167 421.851C348.581 422.932 347.716 423.783 346.572 424.404C345.427 425.019 344.018 425.326 342.344 425.326H336.952V422.095H341.815C342.789 422.095 343.587 421.925 344.209 421.586C344.83 421.247 345.29 420.781 345.586 420.188C345.89 419.594 346.042 418.913 346.042 418.143C346.042 417.373 345.89 416.695 345.586 416.109C345.29 415.522 344.827 415.067 344.198 414.742C343.577 414.41 342.775 414.244 341.793 414.244H338.191V432.657H334.261Z" fill="black"/>
<path d="M407.04 429.427L422.578 413.888" stroke="#111111" stroke-width="3.7293" stroke-linecap="round" stroke-linejoin="round"/>
<path d="M407.04 413.888H422.578V429.427" stroke="#111111" stroke-width="3.7293" stroke-linecap="round" stroke-linejoin="round"/>
</svg>
