<svg width="18" height="19" viewBox="0 0 18 19" fill="none" xmlns="http://www.w3.org/2000/svg">
<g clip-path="url(#clip0_3565_413)">
<path d="M9 1.63364C11.4047 1.63364 11.6895 1.64419 12.6352 1.68638C13.5141 1.72505 13.9887 1.87271 14.3051 1.99575C14.7234 2.15747 15.0258 2.35435 15.3387 2.66724C15.6551 2.98364 15.8484 3.28247 16.0102 3.70083C16.1332 4.01724 16.2809 4.49536 16.3195 5.37075C16.3617 6.31997 16.3723 6.60474 16.3723 9.00591C16.3723 11.4106 16.3617 11.6954 16.3195 12.6411C16.2809 13.52 16.1332 13.9946 16.0102 14.311C15.8484 14.7293 15.6516 15.0317 15.3387 15.3446C15.0223 15.661 14.7234 15.8543 14.3051 16.0161C13.9887 16.1391 13.5105 16.2868 12.6352 16.3254C11.6859 16.3676 11.4012 16.3782 9 16.3782C6.59531 16.3782 6.31055 16.3676 5.36484 16.3254C4.48594 16.2868 4.01133 16.1391 3.69492 16.0161C3.27656 15.8543 2.97422 15.6575 2.66133 15.3446C2.34492 15.0282 2.15156 14.7293 1.98984 14.311C1.8668 13.9946 1.71914 13.5165 1.68047 12.6411C1.63828 11.6918 1.62773 11.4071 1.62773 9.00591C1.62773 6.60122 1.63828 6.31645 1.68047 5.37075C1.71914 4.49185 1.8668 4.01724 1.98984 3.70083C2.15156 3.28247 2.34844 2.98013 2.66133 2.66724C2.97773 2.35083 3.27656 2.15747 3.69492 1.99575C4.01133 1.87271 4.48945 1.72505 5.36484 1.68638C6.31055 1.64419 6.59531 1.63364 9 1.63364ZM9 0.0129395C6.55664 0.0129395 6.25078 0.0234863 5.29102 0.0656738C4.33477 0.107861 3.67734 0.262549 3.10781 0.484033C2.51367 0.716064 2.01094 1.02192 1.51172 1.52466C1.00898 2.02388 0.703125 2.52661 0.471094 3.11724C0.249609 3.69028 0.0949219 4.34419 0.0527344 5.30044C0.0105469 6.26372 0 6.56958 0 9.01294C0 11.4563 0.0105469 11.7622 0.0527344 12.7219C0.0949219 13.6782 0.249609 14.3356 0.471094 14.9051C0.703125 15.4993 1.00898 16.002 1.51172 16.5012C2.01094 17.0004 2.51367 17.3098 3.1043 17.5383C3.67734 17.7598 4.33125 17.9145 5.2875 17.9567C6.24727 17.9989 6.55312 18.0094 8.99648 18.0094C11.4398 18.0094 11.7457 17.9989 12.7055 17.9567C13.6617 17.9145 14.3191 17.7598 14.8887 17.5383C15.4793 17.3098 15.982 17.0004 16.4813 16.5012C16.9805 16.002 17.2898 15.4993 17.5184 14.9086C17.7398 14.3356 17.8945 13.6817 17.9367 12.7254C17.9789 11.7657 17.9895 11.4598 17.9895 9.01645C17.9895 6.5731 17.9789 6.26724 17.9367 5.30747C17.8945 4.35122 17.7398 3.6938 17.5184 3.12427C17.2969 2.52661 16.991 2.02388 16.4883 1.52466C15.9891 1.02544 15.4863 0.716064 14.8957 0.487549C14.3227 0.266064 13.6688 0.111377 12.7125 0.0691895C11.7492 0.0234863 11.4434 0.0129395 9 0.0129395Z" fill="white"/>
<path d="M9 4.38989C6.44766 4.38989 4.37695 6.4606 4.37695 9.01294C4.37695 11.5653 6.44766 13.636 9 13.636C11.5523 13.636 13.623 11.5653 13.623 9.01294C13.623 6.4606 11.5523 4.38989 9 4.38989ZM9 12.0118C7.34414 12.0118 6.00117 10.6688 6.00117 9.01294C6.00117 7.35708 7.34414 6.01411 9 6.01411C10.6559 6.01411 11.9988 7.35708 11.9988 9.01294C11.9988 10.6688 10.6559 12.0118 9 12.0118Z" fill="white"/>
<path d="M14.8852 4.20711C14.8852 4.80476 14.4 5.2864 13.8059 5.2864C13.2082 5.2864 12.7266 4.80125 12.7266 4.20711C12.7266 3.60945 13.2117 3.12781 13.8059 3.12781C14.4 3.12781 14.8852 3.61296 14.8852 4.20711Z" fill="white"/>
</g>
<defs>
<clipPath id="clip0_3565_413">
<rect width="18" height="18" fill="white" transform="translate(0 0.0129395)"/>
</clipPath>
</defs>
</svg>
