<svg width="333" height="307" viewBox="0 0 333 307" fill="none" xmlns="http://www.w3.org/2000/svg">
<g clip-path="url(#clip0_4156_836)">
<path d="M63.5742 306.885C83.3496 306.885 123.779 286.963 153.516 265.723C255.615 268.506 332.227 209.912 332.227 133.154C332.227 59.4727 258.398 0 166.113 0C73.8281 0 0 59.4727 0 133.154C0 181.201 30.7617 223.828 77.0508 245.215C70.459 257.959 58.1543 275.244 51.5625 283.887C43.7988 294.141 48.4863 306.885 63.5742 306.885ZM78.9551 282.568C77.7832 283.008 77.3438 282.129 78.0762 281.104C86.2793 270.996 97.998 255.762 102.979 246.387C107.08 238.77 106.055 232.031 96.6797 227.637C50.6836 206.25 24.3164 172.119 24.3164 133.154C24.3164 73.0957 87.1582 24.1699 166.113 24.1699C245.215 24.1699 308.057 73.0957 308.057 133.154C308.057 193.066 245.215 241.992 166.113 241.992C163.184 241.992 158.643 241.846 152.783 241.699C146.631 241.699 141.943 243.604 136.377 247.998C118.359 261.035 92.2852 277.148 78.9551 282.568Z" fill="white"/>
</g>
<defs>
<clipPath id="clip0_4156_836">
<rect width="332.227" height="306.885" fill="white"/>
</clipPath>
</defs>
</svg>
