<svg width="299" height="299" viewBox="0 0 299 299" fill="none" xmlns="http://www.w3.org/2000/svg">
<g clip-path="url(#clip0_4156_827)">
<path d="M298.828 149.561C298.828 232.031 231.885 298.975 149.414 298.975C67.0898 298.975 0 232.031 0 149.561C0 67.2363 67.0898 0.146484 149.414 0.146484C231.885 0.146484 298.828 67.2363 298.828 149.561ZM65.918 145.02C65.918 168.75 80.8594 189.111 102.979 202.002C104.883 203.027 104.883 204.785 104.004 206.396C101.514 211.377 97.1191 216.064 94.043 219.58C89.7949 224.561 90.9668 229.688 97.5586 229.688C105.908 229.688 120.996 223.389 135.938 214.453C137.549 213.281 138.428 212.842 140.039 212.988C142.969 213.135 146.045 213.281 149.414 213.281C196.289 213.281 232.91 182.666 232.91 145.02C232.91 107.373 196.289 76.9043 149.414 76.9043C102.539 76.9043 65.918 107.373 65.918 145.02Z" fill="#E0FE0F"/>
</g>
<defs>
<clipPath id="clip0_4156_827">
<rect width="298.828" height="298.975" fill="white"/>
</clipPath>
</defs>
</svg>
