<svg width="262" height="75" viewBox="0 0 262 75" fill="none" xmlns="http://www.w3.org/2000/svg">
<path d="M101.432 22.2458C102.476 20.6174 103.917 19.302 105.754 18.2999C107.591 17.2978 109.741 16.7967 112.205 16.7967C115.086 16.7967 117.696 17.5274 120.034 18.9889C122.373 20.4503 124.21 22.5381 125.546 25.2522C126.924 27.9664 127.613 31.1189 127.613 34.7099C127.613 38.3009 126.924 41.4744 125.546 44.2303C124.21 46.9444 122.373 49.053 120.034 50.5563C117.696 52.0177 115.086 52.7484 112.205 52.7484C109.783 52.7484 107.633 52.2474 105.754 51.2452C103.917 50.2431 102.476 48.9487 101.432 47.3619V68.9079H90.7217V17.2978H101.432V22.2458ZM116.715 34.7099C116.715 32.0376 115.963 29.9498 114.46 28.4466C112.998 26.9016 111.182 26.1291 109.011 26.1291C106.881 26.1291 105.065 26.9016 103.562 28.4466C102.1 29.9915 101.369 32.1002 101.369 34.7726C101.369 37.4449 102.1 39.5536 103.562 41.0986C105.065 42.6435 106.881 43.416 109.011 43.416C111.14 43.416 112.957 42.6435 114.46 41.0986C115.963 39.5118 116.715 37.3823 116.715 34.7099Z" fill="white"/>
<path d="M167.743 17.2978V52.2474H157.033V47.4872C155.947 49.0322 154.465 50.2848 152.586 51.2452C150.748 52.1639 148.702 52.6232 146.448 52.6232C143.775 52.6232 141.416 52.0386 139.37 50.8694C137.324 49.6585 135.737 47.9256 134.61 45.6708C133.482 43.416 132.919 40.7645 132.919 37.7163V17.2978H143.566V36.2758C143.566 38.6141 144.172 40.4305 145.383 41.7249C146.594 43.0193 148.222 43.6665 150.268 43.6665C152.356 43.6665 154.005 43.0193 155.216 41.7249C156.427 40.4305 157.033 38.6141 157.033 36.2758V17.2978H167.743Z" fill="white"/>
<path d="M186.147 5.89844V52.2474H175.436V5.89844H186.147Z" fill="white"/>
<path d="M208.126 52.7484C205.078 52.7484 202.364 52.2265 199.984 51.1826C197.604 50.1387 195.725 48.719 194.347 46.9235C192.969 45.0862 192.196 43.0402 192.029 40.7854H202.614C202.74 41.9963 203.303 42.9776 204.305 43.7292C205.308 44.4808 206.539 44.8566 208.001 44.8566C209.337 44.8566 210.36 44.6061 211.07 44.105C211.821 43.5622 212.197 42.8732 212.197 42.0381C212.197 41.0359 211.675 40.3052 210.631 39.8459C209.588 39.3448 207.896 38.802 205.558 38.2174C203.053 37.6328 200.965 37.0274 199.295 36.401C197.624 35.7329 196.184 34.7099 194.973 33.332C193.762 31.9123 193.157 30.0124 193.157 27.6323C193.157 25.628 193.699 23.8117 194.785 22.1832C195.912 20.513 197.541 19.1977 199.671 18.2373C201.842 17.2769 204.41 16.7967 207.374 16.7967C211.759 16.7967 215.204 17.8823 217.709 20.0536C220.256 22.225 221.718 25.1061 222.093 28.6971H212.197C212.03 27.4862 211.487 26.5258 210.569 25.8159C209.692 25.1061 208.523 24.7512 207.061 24.7512C205.809 24.7512 204.848 25.0017 204.18 25.5028C203.512 25.9621 203.178 26.6093 203.178 27.4444C203.178 28.4466 203.7 29.1982 204.744 29.6992C205.829 30.2003 207.5 30.7014 209.755 31.2024C212.343 31.8705 214.452 32.5386 216.081 33.2067C217.709 33.8331 219.129 34.877 220.34 36.3384C221.592 37.7581 222.24 39.6789 222.281 42.1007C222.281 44.1467 221.697 45.984 220.528 47.6125C219.4 49.1992 217.751 50.4519 215.579 51.3705C213.45 52.2891 210.965 52.7484 208.126 52.7484Z" fill="white"/>
<path d="M261.779 34.2089C261.779 35.211 261.717 36.2549 261.591 37.3405H237.352C237.519 39.5118 238.208 41.1821 239.419 42.3512C240.672 43.4786 242.196 44.0424 243.991 44.0424C246.664 44.0424 248.522 42.9149 249.566 40.6601H260.965C260.38 42.9567 259.316 45.0236 257.771 46.8609C256.267 48.6981 254.368 50.1387 252.071 51.1826C249.774 52.2265 247.206 52.7484 244.367 52.7484C240.943 52.7484 237.895 52.0177 235.222 50.5563C232.55 49.0948 230.462 47.007 228.959 44.2929C227.456 41.5788 226.704 38.4053 226.704 34.7726C226.704 31.1398 227.435 27.9664 228.896 25.2522C230.4 22.5381 232.487 20.4503 235.16 18.9889C237.832 17.5274 240.901 16.7967 244.367 16.7967C247.749 16.7967 250.756 17.5065 253.386 18.9262C256.017 20.3459 258.063 22.3711 259.524 25.0017C261.028 27.6323 261.779 30.7014 261.779 34.2089ZM250.818 31.3903C250.818 29.5531 250.192 28.0916 248.939 27.006C247.687 25.9203 246.121 25.3775 244.242 25.3775C242.446 25.3775 240.922 25.8995 239.669 26.9434C238.459 27.9872 237.707 29.4696 237.415 31.3903H250.818Z" fill="white"/>
<path fill-rule="evenodd" clip-rule="evenodd" d="M37.9557 74.6622C58.4359 74.6622 75.0384 58.0597 75.0384 37.5795C75.0384 17.0993 58.4359 0.496826 37.9557 0.496826C17.4755 0.496826 0.873047 17.0993 0.873047 37.5795C0.873047 58.0597 17.4755 74.6622 37.9557 74.6622ZM59.3214 39.9373L57.6352 43.6722L59.8275 44.4945C60.8306 44.8707 61.3388 45.9889 60.9625 46.9921C60.5863 47.9952 59.4681 48.5034 58.4649 48.1271L56.0353 47.2158L54.2405 51.1913C53.7808 52.2095 52.5828 52.6622 51.5646 52.2025C50.5465 51.7429 50.0938 50.5449 50.5534 49.5267L55.6344 38.2727C56.0941 37.2545 57.2921 36.8018 58.3102 37.2615C59.3284 37.7211 59.7811 38.9192 59.3214 39.9373ZM47.4618 22.3721C48.0833 20.8363 47.342 19.0874 45.8062 18.4659C44.2703 17.8443 42.5214 18.5856 41.8999 20.1214L28.2262 53.9118C27.6047 55.4477 28.346 57.1966 29.8818 57.8181C31.4177 58.4396 33.1666 57.6984 33.7881 56.1625L47.4618 22.3721ZM17.8544 31.3861L16.2272 35.3537C15.8033 36.3873 16.2975 37.5687 17.3311 37.9926C18.3646 38.4165 19.5461 37.9223 19.97 36.8887L24.7439 25.2487C25.1678 24.2151 24.6735 23.0336 23.64 22.6097C22.6064 22.1859 21.4249 22.6801 21.0011 23.7136L19.3272 27.7949L16.9577 26.9061C15.9546 26.5298 14.8364 27.038 14.4601 28.0411C14.0839 29.0443 14.592 30.1625 15.5952 30.5387L17.8544 31.3861Z" fill="white"/>
</svg>
