<svg width="487" height="196" viewBox="0 0 487 196" fill="none" xmlns="http://www.w3.org/2000/svg">
<path d="M187.942 82.8371C189.886 79.8048 192.568 77.3556 195.989 75.4896C199.41 73.6235 203.415 72.6905 208.002 72.6905C213.367 72.6905 218.226 74.0512 222.58 76.7725C226.934 79.4938 230.356 83.3814 232.844 88.4353C235.409 93.4892 236.692 99.3594 236.692 106.046C236.692 112.733 235.409 118.642 232.844 123.774C230.356 128.827 226.934 132.754 222.58 135.553C218.226 138.274 213.367 139.635 208.002 139.635C203.492 139.635 199.488 138.702 195.989 136.836C192.568 134.97 189.886 132.56 187.942 129.605V169.725H167.999V73.6235H187.942V82.8371ZM216.399 106.046C216.399 101.07 215 97.1824 212.2 94.3833C209.479 91.5065 206.097 90.0681 202.054 90.0681C198.088 90.0681 194.706 91.5065 191.907 94.3833C189.186 97.2601 187.825 101.187 187.825 106.163C187.825 111.139 189.186 115.065 191.907 117.942C194.706 120.819 198.088 122.257 202.054 122.257C206.019 122.257 209.401 120.819 212.2 117.942C215 114.988 216.399 111.022 216.399 106.046ZM311.417 73.6235V138.702H291.474V129.838C289.452 132.715 286.692 135.048 283.193 136.836C279.772 138.546 275.962 139.402 271.764 139.402C266.787 139.402 262.394 138.313 258.585 136.136C254.775 133.881 251.82 130.655 249.721 126.456C247.622 122.257 246.572 117.32 246.572 111.644V73.6235H266.399V108.962C266.399 113.316 267.526 116.698 269.781 119.108C272.036 121.519 275.068 122.724 278.878 122.724C282.766 122.724 285.837 121.519 288.092 119.108C290.346 116.698 291.474 113.316 291.474 108.962V73.6235H311.417ZM345.686 52.3973V138.702H325.742V52.3973H345.686ZM386.613 139.635C380.937 139.635 375.883 138.663 371.451 136.719C367.019 134.775 363.521 132.132 360.955 128.789C358.389 125.367 356.951 121.558 356.64 117.359H376.35C376.583 119.614 377.633 121.441 379.499 122.841C381.365 124.24 383.658 124.94 386.38 124.94C388.868 124.94 390.773 124.473 392.094 123.54C393.494 122.53 394.194 121.247 394.194 119.692C394.194 117.826 393.222 116.465 391.278 115.61C389.334 114.677 386.185 113.666 381.831 112.577C377.166 111.489 373.278 110.361 370.168 109.195C367.058 107.951 364.376 106.046 362.121 103.48C359.866 100.837 358.739 97.299 358.739 92.8671C358.739 89.1351 359.75 85.7528 361.771 82.7205C363.87 79.6104 366.903 77.1613 370.868 75.373C374.911 73.5847 379.693 72.6905 385.213 72.6905C393.377 72.6905 399.792 74.7121 404.457 78.7552C409.2 82.7983 411.921 88.1632 412.621 94.8498H394.194C393.883 92.595 392.872 90.8067 391.161 89.4849C389.529 88.1632 387.352 87.5023 384.63 87.5023C382.298 87.5023 380.509 87.9688 379.265 88.9018C378.021 89.7571 377.399 90.9622 377.399 92.5173C377.399 94.3833 378.371 95.7828 380.315 96.7159C382.337 97.6489 385.447 98.5819 389.645 99.5149C394.466 100.759 398.392 102.003 401.425 103.247C404.457 104.413 407.101 106.357 409.355 109.078C411.688 111.722 412.893 115.299 412.971 119.808C412.971 123.618 411.882 127.039 409.705 130.071C407.606 133.026 404.535 135.359 400.492 137.069C396.526 138.78 391.9 139.635 386.613 139.635ZM486.518 105.113C486.518 106.979 486.402 108.923 486.168 110.944H441.033C441.344 114.988 442.627 118.098 444.882 120.275C447.215 122.374 450.053 123.424 453.396 123.424C458.372 123.424 461.832 121.324 463.776 117.126H485.002C483.914 121.402 481.931 125.251 479.054 128.672C476.255 132.093 472.717 134.775 468.441 136.719C464.165 138.663 459.383 139.635 454.096 139.635C447.72 139.635 442.044 138.274 437.068 135.553C432.092 132.832 428.204 128.944 425.405 123.89C422.606 118.836 421.207 112.927 421.207 106.163C421.207 99.3983 422.567 93.4892 425.289 88.4353C428.088 83.3814 431.975 79.4938 436.952 76.7725C441.928 74.0512 447.642 72.6905 454.096 72.6905C460.394 72.6905 465.992 74.0123 470.89 76.6559C475.789 79.2994 479.598 83.0704 482.32 87.9688C485.119 92.8671 486.518 98.5819 486.518 105.113ZM466.108 99.8648C466.108 96.4437 464.942 93.7224 462.61 91.7009C460.277 89.6793 457.361 88.6685 453.863 88.6685C450.519 88.6685 447.681 89.6404 445.349 91.5842C443.094 93.528 441.694 96.2882 441.15 99.8648H466.108Z" fill="#27272A"/>
<path fill-rule="evenodd" clip-rule="evenodd" d="M69.7466 180.233C107.882 180.233 138.797 149.318 138.797 111.182C138.797 73.0469 107.882 42.1321 69.7466 42.1321C31.6112 42.1321 0.696289 73.0469 0.696289 111.182C0.696289 149.318 31.6112 180.233 69.7466 180.233ZM109.53 115.573L106.391 122.527L110.473 124.058C112.341 124.759 113.287 126.841 112.587 128.709C111.886 130.577 109.804 131.523 107.936 130.823L103.412 129.126L100.069 136.528C99.2134 138.424 96.9826 139.267 95.0868 138.411C93.1909 137.555 92.3479 135.325 93.2039 133.429L102.665 112.473C103.521 110.577 105.752 109.734 107.647 110.59C109.543 111.446 110.386 113.677 109.53 115.573ZM86.904 82.6453C87.9398 80.0855 86.7044 77.1707 84.1446 76.1348C81.5848 75.099 78.67 76.3344 77.6342 78.8942L52.173 141.814C51.1371 144.374 52.3725 147.289 54.9323 148.324C57.4921 149.36 60.4069 148.125 61.4427 145.565L86.904 82.6453ZM32.3166 99.6495L29.2866 107.038C28.4973 108.962 29.4175 111.162 31.3421 111.951C33.2666 112.741 35.4666 111.82 36.256 109.896L45.1453 88.2214C45.9346 86.2968 45.0143 84.0968 43.0897 83.3075C41.1652 82.5182 38.9652 83.4385 38.1759 85.363L35.0592 92.9624L30.6472 91.3075C28.7793 90.6069 26.6971 91.5532 25.9965 93.4211C25.2959 95.289 26.2422 97.3711 28.1101 98.0717L32.3166 99.6495Z" fill="#27272A"/>
</svg>
