<svg width="261" height="75" viewBox="0 0 261 75" fill="none" xmlns="http://www.w3.org/2000/svg">
<path d="M100.559 21.749C101.603 20.1205 103.043 18.8052 104.881 17.8031C106.718 16.8009 108.868 16.2999 111.332 16.2999C114.213 16.2999 116.823 17.0306 119.161 18.4921C121.5 19.9535 123.337 22.0413 124.673 24.7554C126.051 27.4695 126.74 30.6221 126.74 34.2131C126.74 37.8041 126.051 40.9775 124.673 43.7334C123.337 46.4476 121.5 48.5562 119.161 50.0594C116.823 51.5209 114.213 52.2516 111.332 52.2516C108.91 52.2516 106.76 51.7505 104.881 50.7484C103.043 49.7463 101.603 48.4518 100.559 46.8651V68.4111H89.8486V16.8009H100.559V21.749ZM115.842 34.2131C115.842 31.5407 115.09 29.4529 113.587 27.9497C112.125 26.4048 110.309 25.6323 108.138 25.6323C106.008 25.6323 104.192 26.4048 102.689 27.9497C101.227 29.4947 100.496 31.6034 100.496 34.2757C100.496 36.9481 101.227 39.0568 102.689 40.6017C104.192 42.1467 106.008 42.9192 108.138 42.9192C110.267 42.9192 112.084 42.1467 113.587 40.6017C115.09 39.015 115.842 36.8855 115.842 34.2131Z" fill="#E0FE10"/>
<path d="M166.87 16.8009V51.7505H156.16V46.9904C155.074 48.5353 153.592 49.788 151.713 50.7484C149.875 51.667 147.829 52.1263 145.575 52.1263C142.902 52.1263 140.543 51.5418 138.497 50.3726C136.451 49.1617 134.864 47.4288 133.737 45.174C132.609 42.9192 132.046 40.2677 132.046 37.2195V16.8009H142.693V35.7789C142.693 38.1173 143.299 39.9336 144.51 41.2281C145.721 42.5225 147.349 43.1697 149.395 43.1697C151.483 43.1697 153.132 42.5225 154.343 41.2281C155.554 39.9336 156.16 38.1173 156.16 35.7789V16.8009H166.87Z" fill="#E0FE10"/>
<path d="M185.273 5.40161V51.7505H174.563V5.40161H185.273Z" fill="#E0FE10"/>
<path d="M207.253 52.2516C204.205 52.2516 201.491 51.7297 199.111 50.6858C196.731 49.6419 194.852 48.2222 193.474 46.4267C192.096 44.5894 191.323 42.5434 191.156 40.2886H201.741C201.867 41.4995 202.43 42.4808 203.432 43.2324C204.435 43.984 205.666 44.3598 207.128 44.3598C208.464 44.3598 209.487 44.1092 210.197 43.6082C210.948 43.0653 211.324 42.3764 211.324 41.5412C211.324 40.5391 210.802 39.8084 209.758 39.3491C208.714 38.848 207.023 38.3052 204.685 37.7206C202.18 37.136 200.092 36.5306 198.422 35.9042C196.751 35.2361 195.311 34.2131 194.1 32.8352C192.889 31.4155 192.284 29.5156 192.284 27.1355C192.284 25.1312 192.826 23.3148 193.912 21.6864C195.039 20.0161 196.668 18.7008 198.797 17.7404C200.969 16.7801 203.537 16.2999 206.501 16.2999C210.886 16.2999 214.331 17.3855 216.836 19.5568C219.383 21.7281 220.845 24.6093 221.22 28.2003H211.324C211.157 26.9894 210.614 26.029 209.696 25.3191C208.819 24.6093 207.65 24.2543 206.188 24.2543C204.936 24.2543 203.975 24.5049 203.307 25.006C202.639 25.4653 202.305 26.1125 202.305 26.9476C202.305 27.9497 202.827 28.7013 203.871 29.2024C204.956 29.7035 206.627 30.2045 208.882 30.7056C211.47 31.3737 213.579 32.0418 215.208 32.7099C216.836 33.3362 218.256 34.3801 219.467 35.8416C220.719 37.2613 221.366 39.182 221.408 41.6039C221.408 43.6499 220.824 45.4872 219.654 47.1156C218.527 48.7024 216.878 49.955 214.706 50.8737C212.577 51.7923 210.092 52.2516 207.253 52.2516Z" fill="#E0FE10"/>
<path d="M260.906 33.712C260.906 34.7142 260.843 35.7581 260.718 36.8437H236.479C236.646 39.015 237.335 40.6853 238.546 41.8544C239.799 42.9818 241.323 43.5455 243.118 43.5455C245.791 43.5455 247.649 42.4181 248.693 40.1633H260.092C259.507 42.4599 258.443 44.5268 256.898 46.364C255.394 48.2013 253.494 49.6419 251.198 50.6858C248.901 51.7297 246.333 52.2516 243.494 52.2516C240.07 52.2516 237.022 51.5209 234.349 50.0594C231.677 48.598 229.589 46.5102 228.086 43.7961C226.583 41.0819 225.831 37.9085 225.831 34.2757C225.831 30.643 226.562 27.4695 228.023 24.7554C229.527 22.0413 231.614 19.9535 234.287 18.4921C236.959 17.0306 240.028 16.2999 243.494 16.2999C246.876 16.2999 249.883 17.0097 252.513 18.4294C255.144 19.8491 257.19 21.8743 258.651 24.5049C260.155 27.1355 260.906 30.2046 260.906 33.712ZM249.945 30.8935C249.945 29.0563 249.319 27.5948 248.066 26.5092C246.814 25.4235 245.248 24.8807 243.369 24.8807C241.573 24.8807 240.049 25.4026 238.796 26.4465C237.586 27.4904 236.834 28.9728 236.542 30.8935H249.945Z" fill="#E0FE10"/>
<path d="M37.083 0C57.563 0.000183484 74.165 16.6029 74.165 37.083C74.1649 57.5629 57.5629 74.1649 37.083 74.165C16.6029 74.165 0.000183495 57.563 0 37.083C0 16.6028 16.6028 0 37.083 0ZM44.9336 17.9688C43.3977 17.3472 41.6479 18.0891 41.0264 19.625L27.3525 53.415C26.7313 54.9508 27.474 56.6998 29.0098 57.3213C30.4973 57.9227 32.1845 57.2464 32.8535 55.8076L32.915 55.665L46.5889 21.875C47.2101 20.3393 46.4691 18.5903 44.9336 17.9688ZM57.4375 36.7646C56.4831 36.3338 55.3697 36.7041 54.8555 37.5908L54.7617 37.7754L49.6807 49.0303C49.2212 50.0483 49.6734 51.2464 50.6914 51.7061C51.7095 52.1657 52.9075 51.7124 53.3672 50.6943L55.1611 46.7188L57.5918 47.6309L57.7812 47.6904C58.732 47.9409 59.7371 47.4355 60.0898 46.4951C60.4424 45.5547 60.0177 44.5127 59.1367 44.0762L58.9551 43.9971L56.7617 43.1738L58.4482 39.4404L58.5244 39.2471C58.8492 38.2751 58.3916 37.1956 57.4375 36.7646ZM22.7666 22.1133C21.7977 21.7161 20.6987 22.1251 20.2158 23.0293L20.1289 23.2168L18.4541 27.2969L16.085 26.4092L15.8955 26.3486C14.9448 26.0982 13.9397 26.6037 13.5869 27.5439C13.2342 28.4844 13.659 29.5264 14.54 29.9629L14.7217 30.042L16.9814 30.8896L15.3545 34.8564C14.9307 35.8899 15.4247 37.0711 16.458 37.4951C17.4267 37.8924 18.5258 37.484 19.0088 36.5801L19.0967 36.3916L23.8701 24.752L23.9395 24.5566C24.2306 23.5737 23.7355 22.5107 22.7666 22.1133Z" fill="#E0FE10"/>
</svg>
