<svg width="261" height="75" viewBox="0 0 261 75" fill="none" xmlns="http://www.w3.org/2000/svg">
<path d="M100.558 21.749C101.602 20.1205 103.042 18.8052 104.88 17.8031C106.717 16.8009 108.867 16.2999 111.331 16.2999C114.212 16.2999 116.822 17.0306 119.16 18.4921C121.499 19.9535 123.336 22.0413 124.672 24.7554C126.05 27.4695 126.739 30.6221 126.739 34.2131C126.739 37.8041 126.05 40.9775 124.672 43.7334C123.336 46.4476 121.499 48.5562 119.16 50.0594C116.822 51.5209 114.212 52.2516 111.331 52.2516C108.909 52.2516 106.759 51.7505 104.88 50.7484C103.042 49.7463 101.602 48.4518 100.558 46.8651V68.4111H89.8477V16.8009H100.558V21.749ZM115.841 34.2131C115.841 31.5407 115.089 29.4529 113.586 27.9497C112.124 26.4048 110.308 25.6323 108.137 25.6323C106.007 25.6323 104.191 26.4048 102.688 27.9497C101.226 29.4947 100.495 31.6034 100.495 34.2757C100.495 36.9481 101.226 39.0568 102.688 40.6017C104.191 42.1467 106.007 42.9192 108.137 42.9192C110.266 42.9192 112.083 42.1467 113.586 40.6017C115.089 39.015 115.841 36.8855 115.841 34.2131Z" fill="#27272A"/>
<path d="M166.869 16.8009V51.7505H156.159V46.9904C155.073 48.5353 153.591 49.788 151.712 50.7484C149.874 51.667 147.828 52.1263 145.574 52.1263C142.901 52.1263 140.542 51.5418 138.496 50.3726C136.45 49.1617 134.863 47.4288 133.736 45.174C132.608 42.9192 132.045 40.2677 132.045 37.2195V16.8009H142.692V35.7789C142.692 38.1173 143.298 39.9336 144.509 41.2281C145.72 42.5225 147.348 43.1697 149.394 43.1697C151.482 43.1697 153.131 42.5225 154.342 41.2281C155.553 39.9336 156.159 38.1173 156.159 35.7789V16.8009H166.869Z" fill="#27272A"/>
<path d="M185.273 5.40161V51.7505H174.562V5.40161H185.273Z" fill="#27272A"/>
<path d="M207.252 52.2516C204.204 52.2516 201.49 51.7297 199.11 50.6858C196.73 49.6419 194.851 48.2222 193.473 46.4267C192.095 44.5894 191.322 42.5434 191.155 40.2886H201.74C201.866 41.4995 202.429 42.4808 203.431 43.2324C204.434 43.984 205.665 44.3598 207.127 44.3598C208.463 44.3598 209.486 44.1092 210.196 43.6082C210.947 43.0653 211.323 42.3764 211.323 41.5412C211.323 40.5391 210.801 39.8084 209.757 39.3491C208.714 38.848 207.022 38.3052 204.684 37.7206C202.179 37.136 200.091 36.5306 198.421 35.9042C196.75 35.2361 195.31 34.2131 194.099 32.8352C192.888 31.4155 192.283 29.5156 192.283 27.1355C192.283 25.1312 192.825 23.3148 193.911 21.6864C195.038 20.0161 196.667 18.7008 198.797 17.7404C200.968 16.7801 203.536 16.2999 206.5 16.2999C210.885 16.2999 214.33 17.3855 216.835 19.5568C219.382 21.7281 220.844 24.6093 221.219 28.2003H211.323C211.156 26.9894 210.613 26.029 209.695 25.3191C208.818 24.6093 207.649 24.2543 206.187 24.2543C204.935 24.2543 203.974 24.5049 203.306 25.006C202.638 25.4653 202.304 26.1125 202.304 26.9476C202.304 27.9497 202.826 28.7013 203.87 29.2024C204.955 29.7035 206.626 30.2045 208.881 30.7056C211.469 31.3737 213.578 32.0418 215.207 32.7099C216.835 33.3362 218.255 34.3801 219.466 35.8416C220.718 37.2613 221.365 39.182 221.407 41.6039C221.407 43.6499 220.823 45.4872 219.654 47.1156C218.526 48.7024 216.877 49.955 214.705 50.8737C212.576 51.7923 210.091 52.2516 207.252 52.2516Z" fill="#27272A"/>
<path d="M260.905 33.712C260.905 34.7142 260.842 35.7581 260.717 36.8437H236.478C236.645 39.015 237.334 40.6853 238.545 41.8544C239.798 42.9818 241.322 43.5455 243.117 43.5455C245.79 43.5455 247.648 42.4181 248.692 40.1633H260.091C259.506 42.4599 258.442 44.5268 256.897 46.364C255.393 48.2013 253.493 49.6419 251.197 50.6858C248.9 51.7297 246.332 52.2516 243.493 52.2516C240.069 52.2516 237.021 51.5209 234.348 50.0594C231.676 48.598 229.588 46.5102 228.085 43.7961C226.582 41.0819 225.83 37.9085 225.83 34.2757C225.83 30.643 226.561 27.4695 228.022 24.7554C229.526 22.0413 231.613 19.9535 234.286 18.4921C236.958 17.0306 240.027 16.2999 243.493 16.2999C246.875 16.2999 249.882 17.0097 252.512 18.4294C255.143 19.8491 257.189 21.8743 258.65 24.5049C260.154 27.1355 260.905 30.2045 260.905 33.712ZM249.944 30.8935C249.944 29.0563 249.318 27.5948 248.065 26.5092C246.813 25.4235 245.247 24.8807 243.368 24.8807C241.572 24.8807 240.048 25.4026 238.795 26.4465C237.585 27.4904 236.833 28.9728 236.541 30.8935H249.944Z" fill="#27272A"/>
<path d="M37.085 0C57.5663 0 74.1699 16.6036 74.1699 37.085C74.1699 57.5664 57.5664 74.1699 37.085 74.1699C16.6037 74.1697 0 57.5662 0 37.085C6.49509e-05 16.6037 16.6038 0.000187122 37.085 0ZM33.3516 21.6367C32.3704 21.6369 31.5045 22.2571 31.1816 23.1689L31.125 23.3555L28.1982 34.5283H22.0967C20.8254 34.5285 19.795 35.5588 19.7949 36.8301C19.7951 38.1012 20.8255 39.1317 22.0967 39.1318H29.9756C31.0221 39.1317 31.9368 38.4254 32.2021 37.4131L33.3516 33.0234L37.8779 50.3047C38.1432 51.317 39.058 52.0243 40.1045 52.0244C41.1511 52.0244 42.0657 51.3171 42.3311 50.3047L45.2578 39.1318H52.4844C53.7556 39.1318 54.7859 38.1013 54.7861 36.8301C54.7861 35.5588 53.7557 34.5284 52.4844 34.5283H43.4805C42.4995 34.5286 41.6344 35.149 41.3115 36.0605L41.2539 36.2471L40.1045 40.6357L35.5791 23.3555C35.3139 22.3428 34.3983 21.6367 33.3516 21.6367ZM14.4238 27.7012C12.9407 27.7013 11.7383 28.9035 11.7383 30.3867V34.1455H10.127C8.64387 34.1457 7.44059 35.348 7.44043 36.8311C7.44043 38.3143 8.64378 39.5164 10.127 39.5166H11.7383V43.2783C11.7384 44.7614 12.9407 45.9637 14.4238 45.9639C15.9071 45.9639 17.1092 44.7615 17.1094 43.2783V30.3867C17.1094 28.9034 15.9071 27.7012 14.4238 27.7012ZM59.5459 27.7012C58.0626 27.7012 56.8604 28.9034 56.8604 30.3867V43.2783C56.8605 44.7615 58.0627 45.9639 59.5459 45.9639C61.0291 45.9638 62.2313 44.7615 62.2314 43.2783V39.5166H63.8428C65.3261 39.5166 66.5293 38.3144 66.5293 36.8311C66.5291 35.3479 65.326 34.1455 63.8428 34.1455H62.2314V30.3867C62.2314 28.9034 61.0292 27.7012 59.5459 27.7012Z" fill="#141A1E"/>
</svg>
