<svg width="261" height="75" viewBox="0 0 261 75" fill="none" xmlns="http://www.w3.org/2000/svg">
<path d="M100.56 21.749C101.604 20.1205 103.044 18.8052 104.882 17.8031C106.719 16.8009 108.869 16.2999 111.333 16.2999C114.214 16.2999 116.824 17.0306 119.162 18.4921C121.5 19.9535 123.338 22.0413 124.674 24.7554C126.052 27.4695 126.741 30.6221 126.741 34.2131C126.741 37.8041 126.052 40.9775 124.674 43.7334C123.338 46.4476 121.5 48.5562 119.162 50.0594C116.824 51.5209 114.214 52.2516 111.333 52.2516C108.911 52.2516 106.761 51.7505 104.882 50.7484C103.044 49.7463 101.604 48.4518 100.56 46.8651V68.4111H89.8496V16.8009H100.56V21.749ZM115.843 34.2131C115.843 31.5407 115.091 29.4529 113.588 27.9497C112.126 26.4048 110.31 25.6323 108.139 25.6323C106.009 25.6323 104.193 26.4048 102.69 27.9497C101.228 29.4947 100.497 31.6034 100.497 34.2757C100.497 36.9481 101.228 39.0568 102.69 40.6017C104.193 42.1467 106.009 42.9192 108.139 42.9192C110.268 42.9192 112.085 42.1467 113.588 40.6017C115.091 39.015 115.843 36.8855 115.843 34.2131Z" fill="white"/>
<path d="M166.871 16.8009V51.7505H156.161V46.9904C155.075 48.5353 153.593 49.788 151.714 50.7484C149.876 51.667 147.83 52.1263 145.575 52.1263C142.903 52.1263 140.544 51.5418 138.498 50.3726C136.452 49.1617 134.865 47.4288 133.738 45.174C132.61 42.9192 132.047 40.2677 132.047 37.2195V16.8009H142.694V35.7789C142.694 38.1173 143.3 39.9336 144.511 41.2281C145.722 42.5225 147.35 43.1697 149.396 43.1697C151.484 43.1697 153.133 42.5225 154.344 41.2281C155.555 39.9336 156.161 38.1173 156.161 35.7789V16.8009H166.871Z" fill="white"/>
<path d="M185.274 5.40161V51.7505H174.564V5.40161H185.274Z" fill="white"/>
<path d="M207.254 52.2516C204.206 52.2516 201.492 51.7297 199.112 50.6858C196.732 49.6419 194.853 48.2222 193.475 46.4267C192.097 44.5894 191.324 42.5434 191.157 40.2886H201.742C201.868 41.4995 202.431 42.4808 203.433 43.2324C204.435 43.984 205.667 44.3598 207.129 44.3598C208.465 44.3598 209.488 44.1092 210.198 43.6082C210.949 43.0653 211.325 42.3764 211.325 41.5412C211.325 40.5391 210.803 39.8084 209.759 39.3491C208.715 38.848 207.024 38.3052 204.686 37.7206C202.181 37.136 200.093 36.5306 198.423 35.9042C196.752 35.2361 195.312 34.2131 194.101 32.8352C192.89 31.4155 192.285 29.5156 192.285 27.1355C192.285 25.1312 192.827 23.3148 193.913 21.6864C195.04 20.0161 196.669 18.7008 198.798 17.7404C200.97 16.7801 203.538 16.2999 206.502 16.2999C210.887 16.2999 214.332 17.3855 216.837 19.5568C219.384 21.7281 220.846 24.6093 221.221 28.2003H211.325C211.158 26.9894 210.615 26.029 209.697 25.3191C208.82 24.6093 207.651 24.2543 206.189 24.2543C204.937 24.2543 203.976 24.5049 203.308 25.006C202.64 25.4653 202.306 26.1125 202.306 26.9476C202.306 27.9497 202.828 28.7013 203.872 29.2024C204.957 29.7035 206.628 30.2045 208.882 30.7056C211.471 31.3737 213.58 32.0418 215.208 32.7099C216.837 33.3362 218.257 34.3801 219.468 35.8416C220.72 37.2613 221.367 39.182 221.409 41.6039C221.409 43.6499 220.825 45.4872 219.655 47.1156C218.528 48.7024 216.879 49.955 214.707 50.8737C212.578 51.7923 210.093 52.2516 207.254 52.2516Z" fill="white"/>
<path d="M260.907 33.712C260.907 34.7142 260.844 35.7581 260.719 36.8437H236.48C236.647 39.015 237.336 40.6853 238.547 41.8544C239.8 42.9818 241.324 43.5455 243.119 43.5455C245.792 43.5455 247.65 42.4181 248.694 40.1633H260.093C259.508 42.4599 258.444 44.5268 256.899 46.364C255.395 48.2013 253.495 49.6419 251.199 50.6858C248.902 51.7297 246.334 52.2516 243.495 52.2516C240.071 52.2516 237.023 51.5209 234.35 50.0594C231.678 48.598 229.59 46.5102 228.087 43.7961C226.584 41.0819 225.832 37.9085 225.832 34.2757C225.832 30.643 226.563 27.4695 228.024 24.7554C229.528 22.0413 231.615 19.9535 234.288 18.4921C236.96 17.0306 240.029 16.2999 243.495 16.2999C246.877 16.2999 249.884 17.0097 252.514 18.4294C255.145 19.8491 257.191 21.8743 258.652 24.5049C260.155 27.1355 260.907 30.2045 260.907 33.712ZM249.946 30.8935C249.946 29.0563 249.32 27.5948 248.067 26.5092C246.815 25.4235 245.249 24.8807 243.37 24.8807C241.574 24.8807 240.05 25.4026 238.797 26.4465C237.586 27.4904 236.835 28.9728 236.543 30.8935H249.946Z" fill="white"/>
<path d="M37.085 0C57.5663 0 74.1699 16.6036 74.1699 37.085C74.1699 57.5664 57.5664 74.1699 37.085 74.1699C16.6037 74.1697 0 57.5662 0 37.085C6.49509e-05 16.6037 16.6038 0.000187122 37.085 0ZM33.3516 21.6367C32.3704 21.6369 31.5045 22.2571 31.1816 23.1689L31.125 23.3555L28.1982 34.5283H22.0967C20.8254 34.5285 19.795 35.5588 19.7949 36.8301C19.7951 38.1012 20.8255 39.1317 22.0967 39.1318H29.9756C31.0221 39.1317 31.9368 38.4254 32.2021 37.4131L33.3516 33.0234L37.8779 50.3047C38.1432 51.317 39.058 52.0243 40.1045 52.0244C41.1511 52.0244 42.0657 51.3171 42.3311 50.3047L45.2578 39.1318H52.4844C53.7556 39.1318 54.7859 38.1013 54.7861 36.8301C54.7861 35.5588 53.7557 34.5284 52.4844 34.5283H43.4805C42.4995 34.5286 41.6344 35.149 41.3115 36.0605L41.2539 36.2471L40.1045 40.6357L35.5791 23.3555C35.3139 22.3428 34.3983 21.6367 33.3516 21.6367ZM14.4238 27.7012C12.9407 27.7013 11.7383 28.9035 11.7383 30.3867V34.1455H10.127C8.64387 34.1457 7.44059 35.348 7.44043 36.8311C7.44043 38.3143 8.64378 39.5164 10.127 39.5166H11.7383V43.2783C11.7384 44.7614 12.9407 45.9637 14.4238 45.9639C15.9071 45.9639 17.1092 44.7615 17.1094 43.2783V30.3867C17.1094 28.9034 15.9071 27.7012 14.4238 27.7012ZM59.5459 27.7012C58.0626 27.7012 56.8604 28.9034 56.8604 30.3867V43.2783C56.8605 44.7615 58.0627 45.9639 59.5459 45.9639C61.0291 45.9638 62.2313 44.7615 62.2314 43.2783V39.5166H63.8428C65.3261 39.5166 66.5293 38.3144 66.5293 36.8311C66.5291 35.3479 65.326 34.1455 63.8428 34.1455H62.2314V30.3867C62.2314 28.9034 61.0292 27.7012 59.5459 27.7012Z" fill="white"/>
</svg>
