<svg width="1024" height="1024" viewBox="0 0 1024 1024" fill="none" xmlns="http://www.w3.org/2000/svg">
<rect width="1024" height="1024" rx="200" fill="url(#paint0_linear_7732_474)"/>
<path d="M512 211.876C677.753 211.877 812.123 346.246 812.123 511.999C812.123 677.753 677.754 812.123 512 812.123C346.246 812.123 211.876 677.753 211.876 511.999C211.876 346.246 346.246 211.876 512 211.876ZM481.788 386.976C473.449 386.976 466.144 392.515 463.87 400.504L463.766 400.886L440.084 491.307H390.702C380.413 491.307 372.071 499.649 372.071 509.938C372.071 520.227 380.413 528.569 390.702 528.569H454.464C462.935 528.568 470.34 522.852 472.486 514.658L481.788 479.14L518.415 618.989C520.561 627.184 527.966 632.9 536.438 632.9C544.909 632.9 552.314 627.184 554.46 618.989L578.142 528.569H636.625C646.914 528.569 655.256 520.227 655.256 509.938C655.256 499.649 646.914 491.307 636.625 491.307H563.763C555.424 491.307 548.118 496.846 545.845 504.835L545.74 505.217L536.438 540.735L499.811 400.886C497.664 392.692 490.259 386.976 481.788 386.976ZM328.61 436.049C316.606 436.049 306.875 445.78 306.875 457.785V488.212H293.833C281.829 488.212 272.098 497.944 272.098 509.948C272.098 521.952 281.829 531.683 293.833 531.683H306.875V562.116C306.875 574.12 316.606 583.851 328.61 583.851C340.614 583.851 350.346 574.12 350.346 562.116V457.785C350.345 445.781 340.614 436.049 328.61 436.049ZM693.775 436.049C681.771 436.049 672.04 445.78 672.04 457.785V509.547C672.038 509.68 672.035 509.814 672.035 509.948C672.035 510.081 672.038 510.215 672.04 510.348V562.116C672.04 574.12 681.771 583.851 693.775 583.851C705.78 583.851 715.511 574.12 715.511 562.116V531.683H728.548C740.552 531.683 750.283 521.952 750.283 509.948C750.283 497.944 740.552 488.213 728.548 488.212H715.511V457.785C715.511 445.781 705.779 436.049 693.775 436.049Z" fill="#141A1E"/>
<path d="M605.491 471.179C604.268 471.61 602.255 471.61 601.032 471.179C590.605 467.619 567.306 452.77 567.306 427.6C567.306 416.49 576.259 407.501 587.297 407.501C593.841 407.501 599.63 410.665 603.262 415.555C606.893 410.665 612.718 407.501 619.226 407.501C630.265 407.501 639.218 416.49 639.218 427.6C639.218 452.77 615.918 467.619 605.491 471.179Z" fill="#6F95FA"/>
<defs>
<linearGradient id="paint0_linear_7732_474" x1="1.30652e-07" y1="52.9691" x2="1017.01" y2="1017.01" gradientUnits="userSpaceOnUse">
<stop stop-color="#6A9AFA"/>
<stop offset="1" stop-color="#A05EF8"/>
</linearGradient>
</defs>
</svg>
