<svg width="287" height="290" viewBox="0 0 287 290" fill="none" xmlns="http://www.w3.org/2000/svg">
<g clip-path="url(#clip0_4156_809)">
<path d="M0 116.895C0 181.348 52.4414 233.789 116.895 233.789C142.383 233.789 165.674 225.586 184.863 211.816L256.934 284.033C260.303 287.402 264.697 289.014 269.385 289.014C279.346 289.014 286.23 281.543 286.23 271.729C286.23 267.041 284.473 262.793 281.396 259.717L209.766 187.646C224.854 168.018 233.789 143.555 233.789 116.895C233.789 52.4414 181.348 0 116.895 0C52.4414 0 0 52.4414 0 116.895ZM25.0488 116.895C25.0488 66.2109 66.2109 25.0488 116.895 25.0488C167.578 25.0488 208.74 66.2109 208.74 116.895C208.74 167.578 167.578 208.74 116.895 208.74C66.2109 208.74 25.0488 167.578 25.0488 116.895Z" fill="white"/>
</g>
<defs>
<clipPath id="clip0_4156_809">
<rect width="286.23" height="289.014" fill="white"/>
</clipPath>
</defs>
</svg>
