<svg width="299" height="299" viewBox="0 0 299 299" fill="none" xmlns="http://www.w3.org/2000/svg">
<g clip-path="url(#clip0_4156_818)">
<path d="M298.828 149.414C298.828 231.738 231.885 298.828 149.414 298.828C67.0898 298.828 0 231.738 0 149.414C0 66.9434 67.0898 0 149.414 0C231.885 0 298.828 66.9434 298.828 149.414ZM70.3125 132.129C70.3125 166.553 98.584 194.971 133.154 194.971C145.312 194.971 156.738 191.162 166.406 185.156L205.078 223.682C208.154 226.904 211.377 228.369 215.771 228.369C223.096 228.369 228.076 222.949 228.076 215.332C228.076 211.963 226.465 208.74 223.975 206.104L185.156 166.992C191.895 157.178 195.996 145.02 195.996 132.129C195.996 97.4121 167.725 69.1406 133.154 69.1406C98.584 69.1406 70.3125 97.5586 70.3125 132.129ZM175.195 132.129C175.195 155.127 156.152 174.316 133.154 174.316C110.01 174.316 90.9668 155.127 90.9668 132.129C90.9668 108.984 110.01 89.7949 133.154 89.7949C156.152 89.7949 175.195 108.838 175.195 132.129Z" fill="#E0FE0F"/>
</g>
<defs>
<clipPath id="clip0_4156_818">
<rect width="298.828" height="298.975" fill="white"/>
</clipPath>
</defs>
</svg>
