<svg width="18" height="14" viewBox="0 0 18 14" fill="none" xmlns="http://www.w3.org/2000/svg">
<path d="M17.8207 3.39998C17.8207 3.39998 17.6449 2.15896 17.1035 1.61404C16.418 0.896851 15.6516 0.893335 15.3 0.851147C12.7828 0.668335 9.00352 0.668335 9.00352 0.668335H8.99648C8.99648 0.668335 5.21719 0.668335 2.7 0.851147C2.34844 0.893335 1.58203 0.896851 0.896484 1.61404C0.355078 2.15896 0.182812 3.39998 0.182812 3.39998C0.182812 3.39998 0 4.85896 0 6.31443V7.67849C0 9.13396 0.179297 10.5929 0.179297 10.5929C0.179297 10.5929 0.355078 11.834 0.892969 12.3789C1.57852 13.0961 2.47852 13.0715 2.8793 13.1488C4.3207 13.2859 9 13.3281 9 13.3281C9 13.3281 12.7828 13.3211 15.3 13.1418C15.6516 13.0996 16.418 13.0961 17.1035 12.3789C17.6449 11.834 17.8207 10.5929 17.8207 10.5929C17.8207 10.5929 18 9.13748 18 7.67849V6.31443C18 4.85896 17.8207 3.39998 17.8207 3.39998ZM7.14023 9.33435V4.27537L12.0023 6.81365L7.14023 9.33435Z" fill="white"/>
</svg>
