<svg width="168" height="168" viewBox="0 0 168 168" fill="none" xmlns="http://www.w3.org/2000/svg">
<g clip-path="url(#clip0_203_768)">
<rect width="168" height="168" rx="16" fill="#141A1E"/>
<path d="M67.185 132V121.818H70.9137C71.6362 121.818 72.2345 121.937 72.7085 122.176C73.1824 122.411 73.5371 122.731 73.7724 123.136C74.0077 123.537 74.1254 123.989 74.1254 124.493C74.1254 124.917 74.0475 125.275 73.8917 125.567C73.7359 125.855 73.5271 126.087 73.2653 126.263C73.0067 126.435 72.7217 126.561 72.4102 126.641V126.74C72.7482 126.757 73.078 126.866 73.3995 127.068C73.7243 127.267 73.9928 127.55 74.2049 127.918C74.417 128.286 74.5231 128.734 74.5231 129.261C74.5231 129.781 74.4004 130.248 74.1552 130.663C73.9132 131.074 73.5387 131.4 73.0316 131.642C72.5245 131.881 71.8765 132 71.0877 132H67.185ZM68.7212 130.683H70.9386C71.6744 130.683 72.2013 130.54 72.5195 130.255C72.8377 129.97 72.9968 129.614 72.9968 129.186C72.9968 128.865 72.9156 128.57 72.7532 128.301C72.5908 128.033 72.3588 127.819 72.0572 127.66C71.7589 127.501 71.4042 127.421 70.9933 127.421H68.7212V130.683ZM68.7212 126.223H70.7795C71.1242 126.223 71.4341 126.157 71.7092 126.024C71.9876 125.892 72.208 125.706 72.3704 125.467C72.5361 125.225 72.619 124.94 72.619 124.612C72.619 124.191 72.4715 123.838 72.1765 123.553C71.8815 123.268 71.4291 123.126 70.8192 123.126H68.7212V126.223ZM78.4482 132.169C77.9643 132.169 77.5268 132.08 77.1357 131.901C76.7446 131.718 76.4347 131.455 76.206 131.11C75.9806 130.765 75.8679 130.343 75.8679 129.842C75.8679 129.411 75.9508 129.057 76.1165 128.778C76.2822 128.5 76.5059 128.28 76.7876 128.117C77.0694 127.955 77.3842 127.832 77.7322 127.749C78.0803 127.666 78.4349 127.603 78.7962 127.56C79.2536 127.507 79.6248 127.464 79.9098 127.431C80.1948 127.395 80.402 127.337 80.5312 127.257C80.6605 127.178 80.7251 127.048 80.7251 126.869V126.835C80.7251 126.4 80.6025 126.064 80.3572 125.825C80.1153 125.587 79.754 125.467 79.2734 125.467C78.773 125.467 78.3786 125.578 78.0902 125.8C77.8052 126.019 77.608 126.263 77.4986 126.531L76.1016 126.213C76.2673 125.749 76.5092 125.375 76.8274 125.089C77.1489 124.801 77.5185 124.592 77.9361 124.463C78.3537 124.33 78.7929 124.264 79.2536 124.264C79.5585 124.264 79.8816 124.301 80.223 124.374C80.5677 124.443 80.8892 124.572 81.1875 124.761C81.4891 124.95 81.736 125.22 81.9283 125.572C82.1205 125.92 82.2166 126.372 82.2166 126.929V132H80.7649V130.956H80.7053C80.6091 131.148 80.465 131.337 80.2727 131.523C80.0805 131.708 79.8336 131.862 79.532 131.985C79.2304 132.108 78.8691 132.169 78.4482 132.169ZM78.7713 130.976C79.1823 130.976 79.5336 130.895 79.8253 130.732C80.1203 130.57 80.344 130.358 80.4964 130.096C80.6522 129.831 80.7301 129.547 80.7301 129.246V128.261C80.6771 128.314 80.5743 128.364 80.4219 128.411C80.2727 128.454 80.102 128.492 79.9098 128.525C79.7176 128.555 79.5303 128.583 79.348 128.609C79.1657 128.633 79.0133 128.652 78.8906 128.669C78.6023 128.705 78.3388 128.767 78.1001 128.853C77.8648 128.939 77.6759 129.063 77.5334 129.226C77.3942 129.385 77.3246 129.597 77.3246 129.862C77.3246 130.23 77.4605 130.509 77.7322 130.697C78.004 130.883 78.3504 130.976 78.7713 130.976ZM87.4132 132.154C86.6741 132.154 86.0377 131.987 85.5041 131.652C84.9738 131.314 84.5661 130.848 84.2811 130.255C83.996 129.662 83.8535 128.982 83.8535 128.217C83.8535 127.441 83.9993 126.757 84.291 126.163C84.5827 125.567 84.9937 125.101 85.524 124.766C86.0543 124.432 86.679 124.264 87.3983 124.264C87.9783 124.264 88.4953 124.372 88.9494 124.587C89.4035 124.799 89.7697 125.098 90.0481 125.482C90.3298 125.867 90.4972 126.316 90.5502 126.83H89.1035C89.024 126.472 88.8417 126.163 88.5566 125.905C88.2749 125.646 87.8971 125.517 87.4231 125.517C87.0088 125.517 86.6459 125.626 86.3343 125.845C86.0261 126.061 85.7858 126.369 85.6135 126.77C85.4411 127.168 85.3549 127.638 85.3549 128.182C85.3549 128.739 85.4395 129.219 85.6085 129.624C85.7775 130.028 86.0162 130.341 86.3244 130.563C86.6359 130.785 87.0022 130.896 87.4231 130.896C87.7048 130.896 87.96 130.845 88.1887 130.742C88.4208 130.636 88.6146 130.485 88.7704 130.29C88.9295 130.094 89.0405 129.859 89.1035 129.584H90.5502C90.4972 130.078 90.3365 130.518 90.068 130.906C89.7995 131.294 89.4399 131.599 88.9892 131.821C88.5417 132.043 88.0164 132.154 87.4132 132.154ZM93.5071 129.41L93.4972 127.595H93.7557L96.7983 124.364H98.5781L95.108 128.043H94.8743L93.5071 129.41ZM92.1399 132V121.818H93.6264V132H92.1399ZM96.9624 132L94.228 128.371L95.2521 127.332L98.7869 132H96.9624Z" fill="white"/>
<circle cx="84" cy="24" r="55" fill="#22282C"/>
<path d="M76.5 -5.5V-9L78.6956 -13.7572C79.186 -14.8196 80.2493 -15.5 81.4195 -15.5H83V-9V49C83 51.5 74 63 71.5 63.5C69.1667 61.5 64.3 56.3 63.5 51.5C62.5 45.5 58 46 57.5 39C57.1 33.4 56.3333 29 56 27.5C57.8333 26 62.4 21.7 66 16.5C64 13.3 59.1667 10.8333 57 10C57.8 7.2 70.3333 -1.5 76.5 -5.5Z" fill="#E0FE10"/>
<path d="M66 16.5C64 13.3 59.1667 10.8333 57 10C57.8 7.2 70.3333 -1.5 76.5 -5.5V-9L78.6956 -13.7572C79.186 -14.8196 80.2493 -15.5 81.4195 -15.5H83V-9V49M66 16.5C68.5 20.5 72.5 32.5 75 35.5M66 16.5C62.4 21.7 57.8333 26 56 27.5M75 35.5C77.5 38.5 83 46.5 83 49M75 35.5C73.6667 33 68 27.9 56 27.5M83 49C83 51.5 74 63 71.5 63.5C69.1667 61.5 64.3 56.3 63.5 51.5C62.5 45.5 58 46 57.5 39C57.1 33.4 56.3333 29 56 27.5" stroke="#83878B" stroke-width="0.4"/>
<path d="M83 49C83 46.5 77.5 38.5 75 35.5C73.6667 33 68 27.9 56 27.5C56.3333 29 57.1 33.4 57.5 39C58 46 62.5 45.5 63.5 51.5C64.3 56.3 69.1667 61.5 71.5 63.5C74 63 83 51.5 83 49Z" fill="#E0FE10" stroke="#83878B" stroke-width="0.4"/>
<path d="M66 16.5C68.2526 20.1042 71.7231 30.2036 74.2168 34.3616C74.5603 34.7766 74.8198 35.162 75 35.5C74.7526 35.2032 74.4906 34.8182 74.2168 34.3616C72.0189 31.707 66.3778 27.8459 56 27.5C57.8333 26 62.4 21.7 66 16.5Z" fill="#E0FE10" stroke="#83878B" stroke-width="0.4"/>
<path d="M56.0002 27.5C56.3336 29 57.1002 33.4 57.5002 39C56.5002 42 52.5002 48.5 44.5002 50.5C43.3336 49 41.5002 44.6 43.5002 39C45.5002 33.4 47.5729 31.4769 49.7761 30.3398C51.7105 29.7243 53.8639 28.8147 56.0002 27.5Z" fill="#5A606A" stroke="#83878B" stroke-width="0.4"/>
<path d="M66.0002 16.5C64.0002 13.3 59.1669 10.8333 57.0002 10C54.6669 10 49.3002 10.8 46.5002 14C43.0002 18 42.0002 22.5 43.5002 31.5C45.5003 31.5 50.8004 30.7 56.0002 27.5C57.8335 26 62.4002 21.7 66.0002 16.5Z" fill="#64696E" stroke="#83878B" stroke-width="0.4"/>
<path d="M36.2503 47.8191C35.0989 40.6608 40.4979 34.0281 43.5001 31.5C44.6784 31.5 47.0025 31.2222 49.7761 30.3398C47.573 31.4769 45.5003 33.4 43.5003 39C42.9647 40.4996 42.704 41.9131 42.6318 43.2079L42.5 43.5C40.8074 43.0384 37.4669 43.3439 36.6492 47.8005C36.6084 48.0229 36.2862 48.0423 36.2503 47.8191Z" fill="#64696E" stroke="#83878B" stroke-width="0.4"/>
<path d="M36.6839 47.6205C37.5574 43.3357 40.8303 43.0446 42.4998 43.5L42.6146 43.6269C42.5301 46.9575 43.6798 49.4454 44.5001 50.5L38.5864 56.4134C38.4765 56.2072 38.3587 56.0134 38.2363 55.8326C37.5686 54.847 36.3613 54.4355 35.1721 54.492C34.6505 54.5167 34.1511 54.5654 33.6729 54.6364L33.9998 54L35.8777 50.2442C36.2884 49.4227 36.5004 48.5204 36.6839 47.6205Z" fill="#64696E"/>
<path d="M38.4998 56.5L38.5864 56.4134M38.5864 56.4134C38.4765 56.2072 38.3587 56.0134 38.2363 55.8326C37.5686 54.847 36.3613 54.4355 35.1721 54.492C34.6505 54.5167 34.1511 54.5654 33.6729 54.6364L33.9998 54L35.8777 50.2442C36.2884 49.4227 36.5004 48.5204 36.6839 47.6205C37.5574 43.3357 40.8303 43.0446 42.4998 43.5L42.6146 43.6269C42.5301 46.9575 43.6798 49.4454 44.5001 50.5L38.5864 56.4134Z" stroke="#83878B" stroke-width="0.4"/>
<path d="M28 57C28.8 52.2 33.6667 48.3333 36 47L36.1401 46.9301C36.1659 47.2253 36.2024 47.5217 36.2503 47.819C36.284 48.0285 36.5698 48.0243 36.6386 47.8392C36.4648 48.6661 36.2552 49.4893 35.8777 50.2442L33.9998 54L33.6729 54.6364C31.3193 54.9862 29.4762 55.8793 28 57.1459V57Z" fill="#64696E"/>
<path d="M36.6492 47.8004C36.6084 48.0228 36.2862 48.0423 36.2503 47.819C36.2024 47.5217 36.1659 47.2253 36.1401 46.9301L36 47C33.6667 48.3333 28.8 52.2 28 57V57.1459C29.4762 55.8793 31.3193 54.9862 33.6729 54.6364L33.9998 54L35.8777 50.2442C36.2611 49.4775 36.4713 48.6403 36.6468 47.8004" stroke="#83878B" stroke-width="0.4"/>
<path d="M22.5 67.5C20.9 73.1 18.8333 78.8333 18 81L22 81C22 78.2 26.6667 71.8333 29 69C32.4676 64.4654 36.0301 61.5435 39.3079 59.4753C39.3527 57.9856 38.8531 56.7429 38.2365 55.8326C37.5688 54.847 36.3615 54.4355 35.1723 54.492C27.1016 54.8753 24.3657 60.9701 22.5 67.5Z" fill="#64696E" stroke="#83878B" stroke-width="0.4"/>
<path d="M46.9999 55.5C50.9999 52.3197 52.6666 47.8416 52.9999 46L53.1402 45.6207C51.0518 47.6825 48.2049 49.5738 44.5001 50.5L38.5864 56.4135C39.0299 57.2461 39.3437 58.2814 39.3078 59.4753C42.1742 57.6667 44.8228 56.5108 46.9999 55.5Z" fill="#5A606A" stroke="#83878B" stroke-width="0.4"/>
<path d="M35 72C43 67.2 46.3333 59 47 55.5C42.3333 57.6667 35.5 60.5 29 69C26.6667 71.8333 22 78.2 22 81L23 81.5L24 82.5H25C26 80.5 30.5 74.7 35 72Z" fill="#5A606A" stroke="#83878B" stroke-width="0.4"/>
<path d="M13.7532 102.617H7.73539C6.20417 101.851 7.54944 97.1587 9.17354 93C9.81889 91.3475 10.5083 89.7792 11.0787 88.575C10.1871 88.575 7.86912 88.7087 5.72946 89.2436C3.05488 89.9123 3.05488 87.9063 3.72352 87.2377C4.39217 86.569 8.40404 85.9004 10.41 83.8945C12.0147 82.2897 16.8735 80.997 19.1024 80.5512C23.3817 80.0163 24.4515 81.6656 24.4515 82.5572C24.9864 83.0921 24.2286 87.6834 23.7829 89.9123C23.0782 91.3216 21.5741 93.3842 19.8822 95.5C17.721 98.2024 15.2533 100.991 13.7532 102.617Z" fill="#5A606A"/>
<path d="M11.0787 88.575C10.1871 88.575 7.86912 88.7087 5.72946 89.2436C3.05488 89.9123 3.05488 87.9063 3.72352 87.2377C4.39217 86.569 8.40404 85.9004 10.41 83.8945C12.0147 82.2897 16.8735 80.997 19.1024 80.5512C23.3817 80.0163 24.4515 81.6656 24.4515 82.5572C24.9864 83.0921 24.2286 87.6834 23.7829 89.9123C23.0782 91.3216 21.5741 93.3842 19.8822 95.5M11.0787 88.575C11.9702 88.1292 14.2882 87.3714 16.4279 87.9063L19.7711 85.2317M11.0787 88.575C10.5083 89.7792 9.81889 91.3475 9.17354 93M9.17354 93C7.54944 97.1587 6.20417 101.851 7.73539 102.617H13.7532C15.2533 100.991 17.721 98.2024 19.8822 95.5M9.17354 93L10.41 93.5L11.5 94.5L13 95L14 95.5H19.8822" stroke="#8281A1" stroke-width="0.668645"/>
<path d="M89.5 -5.5V-9L87.3044 -13.7572C86.814 -14.8196 85.7507 -15.5 84.5805 -15.5H83V-9V49C83 51.5 92 63 94.5 63.5C96.8333 61.5 101.7 56.3 102.5 51.5C103.5 45.5 108 46 108.5 39C108.9 33.4 109.667 29 110 27.5C108.167 26 103.6 21.7 100 16.5C102 13.3 106.833 10.8333 109 10C108.2 7.2 95.6667 -1.5 89.5 -5.5Z" fill="#E0FE10"/>
<path d="M100 16.5C102 13.3 106.833 10.8333 109 10C108.2 7.2 95.6667 -1.5 89.5 -5.5V-9L87.3044 -13.7572C86.814 -14.8196 85.7507 -15.5 84.5805 -15.5H83V-9V49M100 16.5C97.5 20.5 93.5 32.5 91 35.5M100 16.5C103.6 21.7 108.167 26 110 27.5M91 35.5C88.5 38.5 83 46.5 83 49M91 35.5C92.3333 33 98 27.9 110 27.5M83 49C83 51.5 92 63 94.5 63.5C96.8333 61.5 101.7 56.3 102.5 51.5C103.5 45.5 108 46 108.5 39C108.9 33.4 109.667 29 110 27.5" stroke="#83878B" stroke-width="0.4"/>
<path d="M83 49C83 46.5 88.5 38.5 91 35.5C92.3333 33 98 27.9 110 27.5C109.667 29 108.9 33.4 108.5 39C108 46 103.5 45.5 102.5 51.5C101.7 56.3 96.8333 61.5 94.5 63.5C92 63 83 51.5 83 49Z" fill="#E0FE10" stroke="#83878B" stroke-width="0.4"/>
<path d="M100 16.5C97.7474 20.1042 94.2769 30.2036 91.7832 34.3616C91.4397 34.7766 91.1802 35.162 91 35.5C91.2474 35.2032 91.5094 34.8182 91.7832 34.3616C93.9811 31.707 99.6222 27.8459 110 27.5C108.167 26 103.6 21.7 100 16.5Z" fill="#E0FE10" stroke="#83878B" stroke-width="0.4"/>
<path d="M110 27.5C109.666 29 108.9 33.4 108.5 39C109.5 42 113.5 48.5 121.5 50.5C122.666 49 124.5 44.6 122.5 39C120.5 33.4 118.427 31.4769 116.224 30.3398C114.289 29.7243 112.136 28.8147 110 27.5Z" fill="#5A606A" stroke="#83878B" stroke-width="0.4"/>
<path d="M99.9998 16.5C102 13.3 106.833 10.8333 109 10C111.333 10 116.7 10.8 119.5 14C123 18 124 22.5 122.5 31.5C120.5 31.5 115.2 30.7 110 27.5C108.166 26 103.6 21.7 99.9998 16.5Z" fill="#64696E" stroke="#83878B" stroke-width="0.4"/>
<path d="M129.75 47.8191C130.901 40.6608 125.502 34.0281 122.5 31.5C121.322 31.5 118.998 31.2222 116.224 30.3398C118.427 31.4769 120.5 33.4 122.5 39C123.035 40.4996 123.296 41.9131 123.368 43.2079L123.5 43.5C125.193 43.0384 128.533 43.3439 129.351 47.8005C129.392 48.0229 129.714 48.0423 129.75 47.8191Z" fill="#64696E" stroke="#83878B" stroke-width="0.4"/>
<path d="M129.316 47.6205C128.443 43.3357 125.17 43.0446 123.5 43.5L123.385 43.6269C123.47 46.9575 122.32 49.4454 121.5 50.5L127.414 56.4134C127.523 56.2072 127.641 56.0134 127.764 55.8326C128.431 54.847 129.639 54.4355 130.828 54.492C131.35 54.5167 131.849 54.5654 132.327 54.6364L132 54L130.122 50.2442C129.712 49.4227 129.5 48.5204 129.316 47.6205Z" fill="#64696E"/>
<path d="M127.5 56.5L127.414 56.4134M127.414 56.4134C127.523 56.2072 127.641 56.0134 127.764 55.8326C128.431 54.847 129.639 54.4355 130.828 54.492C131.35 54.5167 131.849 54.5654 132.327 54.6364L132 54L130.122 50.2442C129.712 49.4227 129.5 48.5204 129.316 47.6205C128.443 43.3357 125.17 43.0446 123.5 43.5L123.385 43.6269C123.47 46.9575 122.32 49.4454 121.5 50.5L127.414 56.4134Z" stroke="#83878B" stroke-width="0.4"/>
<path d="M138 57C137.2 52.2 132.333 48.3333 130 47L129.86 46.9301C129.834 47.2253 129.798 47.5217 129.75 47.819C129.716 48.0285 129.43 48.0243 129.361 47.8392C129.535 48.6661 129.745 49.4893 130.122 50.2442L132 54L132.327 54.6364C134.681 54.9862 136.524 55.8793 138 57.1459V57Z" fill="#64696E"/>
<path d="M129.351 47.8004C129.392 48.0228 129.714 48.0423 129.75 47.819C129.798 47.5217 129.834 47.2253 129.86 46.9301L130 47C132.333 48.3333 137.2 52.2 138 57V57.1459C136.524 55.8793 134.681 54.9862 132.327 54.6364L132 54L130.122 50.2442C129.739 49.4775 129.529 48.6403 129.353 47.8004" stroke="#83878B" stroke-width="0.4"/>
<path d="M143.5 67.5C145.1 73.1 147.167 78.8333 148 81L144 81C144 78.2 139.333 71.8333 137 69C133.532 64.4654 129.97 61.5435 126.692 59.4753C126.647 57.9856 127.147 56.7429 127.764 55.8326C128.431 54.847 129.639 54.4355 130.828 54.492C138.898 54.8753 141.634 60.9701 143.5 67.5Z" fill="#64696E" stroke="#83878B" stroke-width="0.4"/>
<path d="M119 55.5C115 52.3197 113.333 47.8416 113 46L112.86 45.6207C114.948 47.6825 117.795 49.5738 121.5 50.5L127.414 56.4135C126.97 57.2461 126.656 58.2814 126.692 59.4753C123.826 57.6667 121.177 56.5108 119 55.5Z" fill="#5A606A" stroke="#83878B" stroke-width="0.4"/>
<path d="M131 72C123 67.2 119.667 59 119 55.5C123.667 57.6667 130.5 60.5 137 69C139.333 71.8333 144 78.2 144 81L143 81.5L142 82.5H141C140 80.5 135.5 74.7 131 72Z" fill="#5A606A" stroke="#83878B" stroke-width="0.4"/>
<path d="M152.247 102.617H158.265C159.796 101.851 158.451 97.1587 156.826 93C156.181 91.3475 155.492 89.7792 154.921 88.575C155.813 88.575 158.131 88.7087 160.271 89.2436C162.945 89.9123 162.945 87.9063 162.276 87.2377C161.608 86.569 157.596 85.9004 155.59 83.8945C153.985 82.2897 149.126 80.997 146.898 80.5512C142.618 80.0163 141.548 81.6656 141.548 82.5572C141.014 83.0921 141.771 87.6834 142.217 89.9123C142.922 91.3216 144.426 93.3842 146.118 95.5C148.279 98.2024 150.747 100.991 152.247 102.617Z" fill="#5A606A"/>
<path d="M154.921 88.575C155.813 88.575 158.131 88.7087 160.271 89.2436C162.945 89.9123 162.945 87.9063 162.276 87.2377C161.608 86.569 157.596 85.9004 155.59 83.8945C153.985 82.2897 149.126 80.997 146.898 80.5512C142.618 80.0163 141.548 81.6656 141.548 82.5572C141.014 83.0921 141.771 87.6834 142.217 89.9123C142.922 91.3216 144.426 93.3842 146.118 95.5M154.921 88.575C154.03 88.1292 151.712 87.3714 149.572 87.9063L146.229 85.2317M154.921 88.575C155.492 89.7792 156.181 91.3475 156.826 93M156.826 93C158.451 97.1587 159.796 101.851 158.265 102.617H152.247C150.747 100.991 148.279 98.2024 146.118 95.5M156.826 93L155.59 93.5L154.5 94.5L153 95L152 95.5H146.118" stroke="#8281A1" stroke-width="0.668645"/>
<path d="M71.5 63.5C70.7 65.9 65.5 68.8333 63 70C61.4673 62.7197 63.4828 57.3053 64.8271 55.251C66.6531 58.7811 69.7716 62.0185 71.5 63.5Z" fill="#64696E" stroke="#83878B" stroke-width="0.4"/>
<path d="M59.4998 89.5C57.8998 74.3 64.4998 67.8333 67.9998 66.5C68.9998 66.5 71.3 66.8 72.5 68C74 69.5 83 83 83 90.5C83 94.9746 80.4046 98.0588 78.1171 99.7525C76.811 100.72 75.162 101 73.5369 101H69.668C64.481 101 60.1551 97.034 59.7056 91.8665L59.4998 89.5Z" fill="#64696E" stroke="#83878B" stroke-width="0.4"/>
<path d="M106.754 89.5C108.354 74.3 101.754 67.8333 98.2541 66.5C97.2541 66.5 94.9539 66.8 93.7539 68C92.2539 69.5 83.2539 83 83.2539 90.5C83.2539 94.9746 85.8493 98.0588 88.1368 99.7525C89.4429 100.72 91.0919 101 92.717 101H96.5859C101.773 101 106.099 97.034 106.548 91.8665L106.754 89.5Z" fill="#64696E" stroke="#83878B" stroke-width="0.4"/>
<path d="M94.5 63.5C95.3 65.9 100.5 68.8333 103 70C104.533 62.7197 102.517 57.3053 101.173 55.251C99.3469 58.7811 96.2284 62.0185 94.5 63.5Z" fill="#64696E" stroke="#83878B" stroke-width="0.4"/>
<path d="M71.4998 63.6596C73.9998 63.1596 82.9998 51.6596 82.9998 49.1596C82.9998 51.6596 91.9998 63.1596 94.4998 63.6596C94.8263 64.6389 95.8853 65.707 97.1945 66.7076C96.0579 66.8311 94.4405 67.2187 93.4996 68.1596C91.9996 69.6596 83 83.1596 83 90.6596C83 83.1596 74 69.6596 72.5 68.1596C71.5591 67.2187 69.9418 66.8311 68.8052 66.7076C70.1144 65.707 71.1734 64.6389 71.4998 63.6596Z" fill="#5A606A"/>
<path d="M82.9998 49.1596C82.9998 51.6596 73.9998 63.1596 71.4998 63.6596C71.1734 64.6389 70.1144 65.707 68.8052 66.7076C69.9418 66.8311 71.5591 67.2187 72.5 68.1596C74 69.6596 83 83.1596 83 90.6596M82.9998 49.1596C82.9998 51.6596 91.9998 63.1596 94.4998 63.6596C94.8263 64.6389 95.8853 65.707 97.1945 66.7076C96.0579 66.8311 94.4405 67.2187 93.4996 68.1596C91.9996 69.6596 83 83.1596 83 90.6596M82.9998 49.1596L83 90.6596" stroke="#83878B" stroke-width="0.4"/>
</g>
<defs>
<clipPath id="clip0_203_768">
<rect width="168" height="168" rx="16" fill="white"/>
</clipPath>
</defs>
</svg>
