<svg width="168" height="168" viewBox="0 0 168 168" fill="none" xmlns="http://www.w3.org/2000/svg">
<g clip-path="url(#clip0_119_2338)">
<rect width="168" height="168" rx="16" fill="#141A1E"/>
<circle cx="84" cy="24" r="55" fill="#22282C"/>
<path d="M63.1186 132V121.818H66.8473C67.5698 121.818 68.1681 121.937 68.642 122.176C69.116 122.411 69.4706 122.731 69.706 123.136C69.9413 123.537 70.0589 123.989 70.0589 124.493C70.0589 124.917 69.9811 125.275 69.8253 125.567C69.6695 125.855 69.4607 126.087 69.1989 126.263C68.9403 126.435 68.6553 126.561 68.3438 126.641V126.74C68.6818 126.757 69.0116 126.866 69.3331 127.068C69.6579 127.267 69.9264 127.55 70.1385 127.918C70.3506 128.286 70.4567 128.734 70.4567 129.261C70.4567 129.781 70.334 130.248 70.0888 130.663C69.8468 131.074 69.4723 131.4 68.9652 131.642C68.4581 131.881 67.8101 132 67.0213 132H63.1186ZM64.6548 130.683H66.8722C67.608 130.683 68.1349 130.54 68.4531 130.255C68.7713 129.97 68.9304 129.614 68.9304 129.186C68.9304 128.865 68.8492 128.57 68.6868 128.301C68.5244 128.033 68.2924 127.819 67.9908 127.66C67.6925 127.501 67.3378 127.421 66.9268 127.421H64.6548V130.683ZM64.6548 126.223H66.7131C67.0578 126.223 67.3677 126.157 67.6428 126.024C67.9212 125.892 68.1416 125.706 68.304 125.467C68.4697 125.225 68.5526 124.94 68.5526 124.612C68.5526 124.191 68.4051 123.838 68.1101 123.553C67.8151 123.268 67.3627 123.126 66.7528 123.126H64.6548V126.223ZM72.1594 132V124.364H73.646V132H72.1594ZM72.9102 123.185C72.6516 123.185 72.4296 123.099 72.244 122.927C72.0617 122.751 71.9705 122.542 71.9705 122.3C71.9705 122.055 72.0617 121.846 72.244 121.674C72.4296 121.498 72.6516 121.411 72.9102 121.411C73.1687 121.411 73.3891 121.498 73.5714 121.674C73.757 121.846 73.8498 122.055 73.8498 122.3C73.8498 122.542 73.757 122.751 73.5714 122.927C73.3891 123.099 73.1687 123.185 72.9102 123.185ZM78.8624 132.154C78.1233 132.154 77.4869 131.987 76.9533 131.652C76.423 131.314 76.0153 130.848 75.7303 130.255C75.4453 129.662 75.3027 128.982 75.3027 128.217C75.3027 127.441 75.4486 126.757 75.7402 126.163C76.0319 125.567 76.4429 125.101 76.9732 124.766C77.5035 124.432 78.1283 124.264 78.8475 124.264C79.4275 124.264 79.9445 124.372 80.3986 124.587C80.8527 124.799 81.2189 125.098 81.4973 125.482C81.7791 125.867 81.9464 126.316 81.9995 126.83H80.5527C80.4732 126.472 80.2909 126.163 80.0059 125.905C79.7241 125.646 79.3463 125.517 78.8723 125.517C78.458 125.517 78.0951 125.626 77.7836 125.845C77.4753 126.061 77.235 126.369 77.0627 126.77C76.8903 127.168 76.8042 127.638 76.8042 128.182C76.8042 128.739 76.8887 129.219 77.0577 129.624C77.2267 130.028 77.4654 130.341 77.7736 130.563C78.0852 130.785 78.4514 130.896 78.8723 130.896C79.1541 130.896 79.4093 130.845 79.638 130.742C79.87 130.636 80.0639 130.485 80.2196 130.29C80.3787 130.094 80.4898 129.859 80.5527 129.584H81.9995C81.9464 130.078 81.7857 130.518 81.5172 130.906C81.2488 131.294 80.8891 131.599 80.4384 131.821C79.9909 132.043 79.4656 132.154 78.8624 132.154ZM86.8803 132.154C86.128 132.154 85.48 131.993 84.9364 131.672C84.3962 131.347 83.9786 130.891 83.6836 130.305C83.3919 129.715 83.2461 129.024 83.2461 128.232C83.2461 127.449 83.3919 126.76 83.6836 126.163C83.9786 125.567 84.3896 125.101 84.9165 124.766C85.4469 124.432 86.0666 124.264 86.7759 124.264C87.2068 124.264 87.6244 124.335 88.0288 124.478C88.4331 124.621 88.796 124.844 89.1175 125.149C89.439 125.454 89.6926 125.85 89.8782 126.337C90.0638 126.821 90.1566 127.41 90.1566 128.102V128.629H84.0863V127.516H88.6999C88.6999 127.125 88.6204 126.778 88.4613 126.477C88.3022 126.172 88.0785 125.931 87.7901 125.756C87.5051 125.58 87.1703 125.492 86.7859 125.492C86.3683 125.492 86.0037 125.595 85.6921 125.8C85.3839 126.003 85.1452 126.268 84.9762 126.596C84.8105 126.921 84.7276 127.274 84.7276 127.655V128.525C84.7276 129.035 84.8171 129.469 84.9961 129.827C85.1784 130.185 85.4319 130.459 85.7567 130.648C86.0816 130.833 86.4611 130.926 86.8952 130.926C87.177 130.926 87.4338 130.886 87.6658 130.807C87.8978 130.724 88.0984 130.601 88.2674 130.439C88.4364 130.277 88.5657 130.076 88.6552 129.837L90.0621 130.091C89.9495 130.505 89.7473 130.868 89.4556 131.18C89.1673 131.488 88.8043 131.728 88.3668 131.901C87.9326 132.07 87.4371 132.154 86.8803 132.154ZM91.8059 134.864V124.364H93.2576V125.602H93.3819C93.4681 125.442 93.5924 125.259 93.7548 125.05C93.9172 124.841 94.1426 124.659 94.4309 124.503C94.7193 124.344 95.1004 124.264 95.5744 124.264C96.1909 124.264 96.7411 124.42 97.225 124.732C97.7089 125.043 98.0884 125.492 98.3635 126.079C98.6419 126.665 98.7811 127.371 98.7811 128.197C98.7811 129.022 98.6435 129.73 98.3684 130.32C98.0933 130.906 97.7155 131.359 97.2349 131.677C96.7543 131.992 96.2058 132.149 95.5893 132.149C95.1253 132.149 94.7458 132.071 94.4508 131.915C94.1592 131.76 93.9305 131.577 93.7647 131.369C93.599 131.16 93.4714 130.974 93.3819 130.812H93.2924V134.864H91.8059ZM93.2626 128.182C93.2626 128.719 93.3405 129.189 93.4963 129.594C93.652 129.998 93.8774 130.315 94.1724 130.543C94.4674 130.769 94.8287 130.881 95.2562 130.881C95.7003 130.881 96.0716 130.764 96.3699 130.528C96.6681 130.29 96.8935 129.967 97.046 129.559C97.2018 129.151 97.2797 128.692 97.2797 128.182C97.2797 127.678 97.2034 127.226 97.051 126.825C96.9018 126.424 96.6764 126.107 96.3748 125.875C96.0765 125.643 95.7037 125.527 95.2562 125.527C94.8253 125.527 94.4608 125.638 94.1625 125.86C93.8675 126.082 93.6438 126.392 93.4913 126.79C93.3388 127.187 93.2626 127.652 93.2626 128.182ZM106.169 126.228L104.822 126.467C104.765 126.294 104.676 126.13 104.553 125.974C104.434 125.819 104.271 125.691 104.066 125.592C103.86 125.492 103.604 125.442 103.295 125.442C102.874 125.442 102.523 125.537 102.241 125.726C101.96 125.911 101.819 126.152 101.819 126.447C101.819 126.702 101.913 126.907 102.102 127.063C102.291 127.219 102.596 127.347 103.017 127.446L104.23 127.724C104.933 127.887 105.456 128.137 105.801 128.475C106.146 128.813 106.318 129.252 106.318 129.793C106.318 130.25 106.185 130.658 105.92 131.016C105.658 131.37 105.292 131.649 104.822 131.851C104.354 132.053 103.812 132.154 103.196 132.154C102.341 132.154 101.643 131.972 101.103 131.607C100.563 131.239 100.231 130.717 100.108 130.041L101.545 129.822C101.635 130.197 101.819 130.48 102.097 130.673C102.376 130.862 102.738 130.956 103.186 130.956C103.673 130.956 104.063 130.855 104.354 130.653C104.646 130.447 104.792 130.197 104.792 129.902C104.792 129.663 104.702 129.463 104.523 129.3C104.348 129.138 104.077 129.015 103.713 128.933L102.42 128.649C101.708 128.487 101.181 128.228 100.839 127.874C100.501 127.519 100.332 127.07 100.332 126.526C100.332 126.076 100.458 125.681 100.71 125.343C100.962 125.005 101.31 124.741 101.754 124.553C102.198 124.36 102.707 124.264 103.28 124.264C104.106 124.264 104.755 124.443 105.229 124.801C105.703 125.156 106.016 125.631 106.169 126.228Z" fill="white"/>
<path d="M71.3194 4.4885L77.8225 -7.86734C77.9258 -8.06372 78.0915 -8.22013 78.2936 -8.31196L84.4713 -11.12C84.961 -11.3426 85.539 -11.138 85.7796 -10.6569L90.7062 -0.803587L97.3657 17.8429C97.3906 17.9128 97.4077 17.9852 97.4167 18.0589L100.066 39.9171C100.077 40.0041 100.076 40.0921 100.063 40.1789L95.4372 72.5622C95.4091 72.7586 95.3232 72.9422 95.1905 73.0897L84.0247 85.4961C83.649 85.9136 83.0032 85.9399 82.5948 85.5542L71.4941 75.0701C71.3574 74.9411 71.2599 74.7761 71.2127 74.5941L66.615 56.86C66.603 56.8139 66.5943 56.7669 66.5891 56.7195L64.5994 38.8121C64.5917 38.7434 64.5912 38.6741 64.5979 38.6053L66.5854 18.0682C66.5931 17.9884 66.6104 17.9098 66.6369 17.8341L71.2604 4.6239C71.2767 4.57738 71.2964 4.53212 71.3194 4.4885Z" fill="#5A606A"/>
<path d="M33.5252 81.9832L32.9014 81.3594C32.622 81.08 32.5333 80.6622 32.6752 80.2934L38.9874 63.8816C39.0843 63.6297 39.2788 63.4277 39.5268 63.3214L47.648 59.8409C48.1347 59.6323 48.6869 59.8538 48.7225 60.3821C48.8492 62.2612 47.8445 65.7204 45.1662 67.5059C42.1966 69.4856 37.8553 76.9521 35.099 81.7743C34.7718 82.3468 33.9915 82.4495 33.5252 81.9832Z" fill="#64696E" stroke="#83878B" stroke-width="0.4" stroke-linejoin="round"/>
<path d="M48.6825 59.2004C51.8814 53.9641 50.7775 49.4328 49.5607 47.3206C49.3537 46.9614 48.9212 46.8203 48.5226 46.9342L44.9022 47.9686C44.6428 48.0427 44.4244 48.2185 44.2965 48.456L39.9564 56.516C39.8602 56.6949 39.8206 56.8987 39.843 57.1006L40.331 61.4923C40.4046 62.155 41.094 62.5614 41.7095 62.3049L48.2245 59.5904C48.4134 59.5116 48.5758 59.3751 48.6825 59.2004Z" fill="#5A606A" stroke="#83878B" stroke-width="0.4" stroke-linejoin="round"/>
<path d="M58.5117 31.0572C57.3803 39.4893 51.9876 45.4496 48.9906 47.7376C48.7004 47.9591 48.3117 47.983 47.9851 47.8197L47.8398 47.747C47.4453 47.5498 47.2266 47.1174 47.3015 46.6827L50.4315 28.5287C50.4891 28.1949 50.7117 27.9129 51.023 27.7795L54.4719 26.3014C54.9038 26.1163 55.4064 26.2569 55.6795 26.6393L58.3356 30.3579C58.4801 30.5602 58.5448 30.8108 58.5117 31.0572Z" fill="#5A606A" stroke="#83878B" stroke-width="0.4" stroke-linejoin="round"/>
<path d="M38.0843 47.7614C31.206 55.084 29.2457 71.4488 29.1024 79.9042C29.0931 80.4564 29.5415 80.8999 30.0937 80.8999H33.1636C33.5424 80.8999 33.8835 80.6899 34.0333 80.3421C35.2241 77.5767 39.309 67.1099 41.1484 62.8179C42.5813 59.4745 40.927 52.3343 39.6022 48.1353C39.39 47.463 38.567 47.2475 38.0843 47.7614Z" fill="#64696E" stroke="#83878B" stroke-width="0.4" stroke-linejoin="round"/>
<path d="M79.9908 -3.48241C79.455 0.803675 81.5534 6.33987 82.6696 8.5722C83.114 9.18318 83.3698 9.29918 83.8128 8.5722C84.929 6.33987 87.0274 0.803675 86.4916 -3.48241C86.298 -5.03096 86.2152 -6.04334 86.1989 -6.68378C86.1824 -7.32842 86.9662 -7.89609 87.4616 -8.30891L90.3649 -10.7283C90.4606 -10.8081 90.5705 -10.8693 90.6888 -10.9088L91.0362 -11.0246C91.7285 -11.2553 92.4326 -10.6902 92.3931 -9.9615C92.2767 -7.81507 92.3475 -4.99322 93.1886 -4.15211C97.5873 -2.19714 104.921 3.62186 108.886 7.0007C109.404 7.44254 109.329 8.25657 108.733 8.58688C102.903 11.8197 91.3201 16.9365 83.3393 15.9389C75.4791 14.9564 64.0153 10.8957 58.0347 8.50695C57.347 8.23226 57.2022 7.33519 57.7667 6.85585C61.7682 3.45799 68.9573 -2.2248 73.2938 -4.15211C74.1349 -4.99322 74.2057 -7.81507 74.0893 -9.9615C74.0498 -10.6902 74.7539 -11.2553 75.4462 -11.0246L75.7936 -10.9088C75.9119 -10.8693 76.0218 -10.8081 76.1175 -10.7283L79.0208 -8.30891C79.5162 -7.89609 80.3 -7.32842 80.2835 -6.68378C80.2672 -6.04334 80.1844 -5.03096 79.9908 -3.48241Z" fill="#64696E"/>
<path d="M73.2938 -4.15211C68.9573 -2.2248 61.7682 3.45799 57.7667 6.85585C57.2022 7.33519 57.347 8.23226 58.0347 8.50695C64.0153 10.8957 75.4791 14.9564 83.3393 15.9389C91.3201 16.9365 102.903 11.8197 108.733 8.58688C109.329 8.25657 109.404 7.44254 108.886 7.0007C104.921 3.62186 97.5873 -2.19714 93.1886 -4.15211M73.2938 -4.15211C74.1349 -4.99322 74.2057 -7.81507 74.0893 -9.9615C74.0498 -10.6902 74.7539 -11.2553 75.4462 -11.0246L75.7936 -10.9088C75.9119 -10.8693 76.0218 -10.8081 76.1175 -10.7283L79.0208 -8.30891C79.5162 -7.89609 80.3 -7.32842 80.2835 -6.68378C80.2672 -6.04334 80.1844 -5.03096 79.9908 -3.48241C79.455 0.803675 81.5534 6.33987 82.6696 8.5722M73.2938 -4.15211C75.1451 -0.133913 79.612 8.03643 82.6696 8.5722M82.6696 8.5722C83.114 9.18318 83.3698 9.29918 83.8128 8.5722M83.8128 8.5722C84.929 6.33987 87.0274 0.803674 86.4916 -3.48241C86.298 -5.03096 86.2152 -6.04334 86.1989 -6.68378C86.1824 -7.32842 86.9662 -7.89609 87.4616 -8.30891L90.3649 -10.7283C90.4606 -10.8081 90.5705 -10.8693 90.6888 -10.9088L91.0362 -11.0246C91.7285 -11.2553 92.4326 -10.6902 92.3931 -9.9615C92.2767 -7.81507 92.3475 -4.99322 93.1886 -4.15211M83.8128 8.5722C85.7989 8.03643 90.8909 -0.133913 93.1886 -4.15211" stroke="#83878B" stroke-width="0.4" stroke-linejoin="round"/>
<path d="M64.5876 9.91156C63.9179 9.24186 55.8818 5.22365 47.8454 10.5813C42.1765 14.3605 43.0335 23.6243 44.5397 29.2822C44.6541 29.7118 45.0446 29.9684 45.4697 29.8387C46.9821 29.3771 50.1734 28.0528 51.8633 27.3238C61.9088 22.6359 65.2573 10.5813 64.5876 9.91156Z" fill="#64696E" stroke="#83878B" stroke-width="0.4" stroke-linejoin="round"/>
<path d="M79.3207 9.24192C75.79 7.22438 68.8166 9.00561 65.218 10.3388C64.8346 10.4808 64.5917 10.8498 64.5646 11.2578C64.1762 17.108 58.8865 22.9115 55.7555 25.5417C55.4323 25.8133 55.2969 26.2547 55.454 26.6466C58.404 34.0075 67.1628 33.766 71.2842 32.6814C76.4747 31.1243 80.8271 26.5082 82.5145 24.1918C82.6171 24.0509 82.6776 23.8821 82.6935 23.7085C83.3543 16.4952 83.9517 11.8882 79.3207 9.24192Z" fill="#64696E" stroke="#83878B" stroke-width="0.4" stroke-linejoin="round"/>
<path d="M132.957 81.9832L133.581 81.3594C133.86 81.08 133.949 80.6622 133.807 80.2934L127.495 63.8816C127.398 63.6297 127.204 63.4277 126.956 63.3214L118.834 59.8409C118.348 59.6323 117.796 59.8538 117.76 60.3821C117.633 62.2612 118.638 65.7204 121.316 67.5059C124.286 69.4856 128.627 76.9521 131.383 81.7743C131.711 82.3468 132.491 82.4495 132.957 81.9832Z" fill="#64696E" stroke="#83878B" stroke-width="0.4" stroke-linejoin="round"/>
<path d="M117.799 59.2004C114.601 53.9641 115.704 49.4328 116.921 47.3206C117.128 46.9614 117.561 46.8203 117.959 46.9342L121.58 47.9686C121.839 48.0427 122.058 48.2185 122.185 48.456L126.525 56.516C126.622 56.6949 126.661 56.8987 126.639 57.1006L126.151 61.4923C126.077 62.155 125.388 62.5614 124.772 62.3049L118.257 59.5904C118.069 59.5116 117.906 59.3751 117.799 59.2004Z" fill="#5A606A" stroke="#83878B" stroke-width="0.4" stroke-linejoin="round"/>
<path d="M107.971 31.0572C109.102 39.4893 114.495 45.4496 117.492 47.7376C117.782 47.9591 118.171 47.983 118.497 47.8197L118.643 47.747C119.037 47.5498 119.256 47.1174 119.181 46.6827L116.051 28.5287C115.993 28.1949 115.771 27.9129 115.459 27.7795L112.011 26.3014C111.579 26.1163 111.076 26.2569 110.803 26.6393L108.147 30.3579C108.002 30.5602 107.938 30.8108 107.971 31.0572Z" fill="#5A606A" stroke="#83878B" stroke-width="0.4" stroke-linejoin="round"/>
<path d="M128.398 47.7614C135.276 55.084 137.237 71.4488 137.38 79.9042C137.389 80.4564 136.941 80.8999 136.389 80.8999H133.319C132.94 80.8999 132.599 80.6899 132.449 80.3421C131.258 77.5767 127.173 67.1099 125.334 62.8179C123.901 59.4745 125.555 52.3343 126.88 48.1353C127.092 47.463 127.915 47.2475 128.398 47.7614Z" fill="#64696E" stroke="#83878B" stroke-width="0.4" stroke-linejoin="round"/>
<path d="M101.895 9.91156C102.565 9.24186 110.601 5.22365 118.637 10.5813C124.306 14.3605 123.449 23.6243 121.943 29.2822C121.828 29.7118 121.438 29.9684 121.013 29.8387C119.5 29.3771 116.309 28.0528 114.619 27.3238C104.574 22.6359 101.225 10.5813 101.895 9.91156Z" fill="#64696E" stroke="#83878B" stroke-width="0.4" stroke-linejoin="round"/>
<path d="M87.1613 9.24192C90.692 7.22438 97.6653 9.00561 101.264 10.3388C101.647 10.4808 101.89 10.8498 101.917 11.2578C102.306 17.108 107.595 22.9115 110.726 25.5417C111.05 25.8133 111.185 26.2547 111.028 26.6466C108.078 34.0075 99.3192 33.766 95.1977 32.6814C90.0072 31.1243 85.6549 26.5082 83.9675 24.1918C83.8648 24.0509 83.8043 23.8821 83.7884 23.7085C83.1276 16.4952 82.5302 11.8882 87.1613 9.24192Z" fill="#64696E" stroke="#83878B" stroke-width="0.4" stroke-linejoin="round"/>
<path d="M66.339 33.5363C61.2391 37.3055 61.2499 43.4402 61.9087 46.0754C62.6895 49.5891 65.6515 52.605 68.1513 54.501C68.9131 55.0788 69.9892 54.2266 69.831 53.2837C68.937 47.9555 69.7227 39.4692 70.4388 34.5096C70.5267 33.9006 70.0573 33.3511 69.442 33.3511H66.9118C66.7066 33.3511 66.504 33.4144 66.339 33.5363Z" fill="#5A606A" stroke="#83878B" stroke-width="0.4" stroke-linejoin="round"/>
<path d="M61.0697 45.1296C59.8853 43.4087 57.8318 39.7405 56.6421 37.5381C56.5812 37.4253 56.5438 37.3038 56.5296 37.1764L55.9654 32.0983C55.9157 31.6514 56.1704 31.2263 56.5879 31.0594L58.9627 30.1094C59.1373 30.0396 59.328 30.0204 59.513 30.054L65.7754 31.1927C66.2509 31.2791 66.5966 31.6933 66.5966 32.1765V32.8304C66.5966 33.1567 66.4348 33.4609 66.1756 33.6592C61.9202 36.9165 61.3463 41.8481 61.6866 44.8165C61.7606 45.4628 61.4385 45.6655 61.0697 45.1296Z" fill="#5A606A" stroke="#83878B" stroke-width="0.4" stroke-linejoin="round"/>
<path d="M69.8716 46.6682C73.0587 46.363 78.3293 47.3615 80.9868 48.0005C81.2101 48.0541 81.4049 48.1848 81.5427 48.3685L83.139 50.4966C83.2688 50.6697 83.339 50.8803 83.339 51.0967V55.8004C83.339 56.0089 83.2739 56.2121 83.1527 56.3817L80.6167 59.9321C80.2787 60.4054 79.6092 60.4934 79.1367 60.1542C77.4686 58.9568 74.4563 57.1715 71.0596 56.2377C70.7781 56.1603 70.5383 55.9725 70.4179 55.7066C69.5777 53.8503 68.4351 50.2311 69.1122 47.3244C69.1963 46.9636 69.5029 46.7035 69.8716 46.6682Z" fill="#64696E" stroke="#83878B" stroke-width="0.4" stroke-linejoin="round"/>
<path d="M70.6147 39.3784C72.157 36.8078 77.934 36.4984 80.9626 36.6749C81.2009 36.6887 81.4227 36.7924 81.5915 36.9611L83.0463 38.4158C83.2338 38.6033 83.3392 38.8577 83.3392 39.1229V44.459C83.3392 44.6403 83.2899 44.8181 83.1967 44.9735L81.7111 47.4492C81.4847 47.8266 81.0403 48.0112 80.6115 47.9119C77.9731 47.3007 73.3249 46.4514 70.2635 46.6378C69.7144 46.6712 69.1975 46.3065 69.1664 45.7573C69.0621 43.9134 69.4348 41.8814 69.6971 40.8682C69.7231 40.7677 69.7662 40.6736 69.8231 40.5867L70.6147 39.3784Z" fill="#64696E" stroke="#83878B" stroke-width="0.4" stroke-linejoin="round"/>
<path d="M71.5254 32.6068C74.4156 31.6829 77.0345 29.8268 79.0616 27.978C79.4562 27.6182 80.0625 27.6106 80.4526 27.9752L83.0218 30.3759C83.2242 30.565 83.3391 30.8296 83.3391 31.1066V34.2763C83.3391 34.5416 83.2337 34.7959 83.0462 34.9835L81.6552 36.3744C81.4488 36.5809 81.1646 36.6857 80.8731 36.6699C77.8216 36.5047 72.1421 36.833 70.6148 39.3785C70.3839 39.7309 69.8412 39.5425 69.8825 39.1232C70.0876 37.0427 70.3353 35.1476 70.5646 33.6708C70.5969 33.4627 70.6951 33.271 70.844 33.122L71.1062 32.8598C71.2232 32.7427 71.3677 32.6572 71.5254 32.6068Z" fill="#64696E" stroke="#83878B" stroke-width="0.4" stroke-linejoin="round"/>
<path d="M100.339 33.5363C105.439 37.3055 105.428 43.4402 104.77 46.0754C103.989 49.5891 101.027 52.605 98.5269 54.501C97.7651 55.0788 96.6891 54.2266 96.8473 53.2837C97.7412 47.9555 96.9555 39.4692 96.2394 34.5096C96.1515 33.9006 96.6209 33.3511 97.2362 33.3511H99.7664C99.9716 33.3511 100.174 33.4144 100.339 33.5363Z" fill="#5A606A" stroke="#83878B" stroke-width="0.4" stroke-linejoin="round"/>
<path d="M105.609 45.1296C106.793 43.4087 108.847 39.7405 110.037 37.5381C110.098 37.4253 110.135 37.3038 110.149 37.1764L110.713 32.0983C110.763 31.6514 110.508 31.2263 110.091 31.0594L107.716 30.1094C107.541 30.0396 107.351 30.0204 107.166 30.054L100.903 31.1927C100.428 31.2791 100.082 31.6933 100.082 32.1765V32.8304C100.082 33.1567 100.244 33.4609 100.503 33.6592C104.759 36.9165 105.332 41.8481 104.992 44.8165C104.918 45.4628 105.24 45.6655 105.609 45.1296Z" fill="#5A606A" stroke="#83878B" stroke-width="0.4" stroke-linejoin="round"/>
<path d="M96.8071 46.6682C93.62 46.363 88.3495 47.3615 85.6919 48.0005C85.4686 48.0541 85.2738 48.1848 85.136 48.3685L83.5397 50.4966C83.4099 50.6697 83.3397 50.8803 83.3397 51.0967V55.8004C83.3397 56.0089 83.4048 56.2121 83.526 56.3817L86.062 59.9321C86.4 60.4054 87.0695 60.4934 87.542 60.1542C89.2102 58.9568 92.2224 57.1715 95.6191 56.2377C95.9006 56.1603 96.1404 55.9725 96.2608 55.7066C97.101 53.8503 98.2436 50.2311 97.5665 47.3244C97.4824 46.9636 97.1758 46.7035 96.8071 46.6682Z" fill="#64696E" stroke="#83878B" stroke-width="0.4" stroke-linejoin="round"/>
<path d="M96.0635 39.3784C94.5212 36.8078 88.7442 36.4984 85.7156 36.6749C85.4773 36.6887 85.2556 36.7924 85.0868 36.9611L83.632 38.4158C83.4444 38.6033 83.339 38.8577 83.339 39.1229V44.459C83.339 44.6403 83.3883 44.8181 83.4816 44.9735L84.9671 47.4492C85.1936 47.8266 85.6379 48.0112 86.0667 47.9119C88.7052 47.3007 93.3533 46.4514 96.4147 46.6378C96.9638 46.6712 97.4808 46.3065 97.5118 45.7573C97.6161 43.9134 97.2434 41.8814 96.9812 40.8682C96.9551 40.7677 96.912 40.6736 96.8551 40.5867L96.0635 39.3784Z" fill="#64696E" stroke="#83878B" stroke-width="0.4" stroke-linejoin="round"/>
<path d="M95.1534 32.6068C92.2631 31.6829 89.6443 29.8268 87.6171 27.978C87.2225 27.6182 86.6163 27.6106 86.2261 27.9752L83.6569 30.3759C83.4545 30.565 83.3396 30.8296 83.3396 31.1066V34.2763C83.3396 34.5416 83.445 34.7959 83.6325 34.9835L85.0235 36.3744C85.2299 36.5809 85.5141 36.6857 85.8056 36.6699C88.8572 36.5047 94.5367 36.833 96.0639 39.3785C96.2948 39.7309 96.8376 39.5425 96.7962 39.1232C96.5911 37.0427 96.3434 35.1476 96.1141 33.6708C96.0818 33.4627 95.9836 33.271 95.8347 33.122L95.5725 32.8598C95.4555 32.7427 95.311 32.6572 95.1534 32.6068Z" fill="#64696E" stroke="#83878B" stroke-width="0.4" stroke-linejoin="round"/>
<path d="M61.9087 46.0754C62.5784 47.8613 63.7839 52.3706 63.2481 56.121C62.5784 60.8089 61.9087 64.1574 62.5784 67.5059C63.238 70.804 76.8919 88.3959 81.782 91.4839C81.9291 91.5768 82.0913 91.6151 82.2653 91.6151H83.6088C83.8656 91.6151 84.1086 91.5205 84.2936 91.3424C89.0809 86.7338 98.9957 76.0043 102.711 67.618C102.744 67.5426 102.767 67.467 102.78 67.3856C103.219 64.6843 103.802 58.9053 102.799 56.2202C102.774 56.1529 102.754 56.0825 102.742 56.0116C102.11 52.1095 103.177 52.4457 104.77 46.0754C103.714 50.8266 98.67 54.6675 96.1732 56.0604C96.0991 56.1018 96.0216 56.1313 95.9394 56.1524C92.4122 57.0589 89.2619 58.9193 87.5414 60.1543C87.0689 60.4934 86.3994 60.4054 86.0614 59.9321L84.1528 57.2602C83.754 56.7018 82.9242 56.7018 82.5254 57.2602L80.6168 59.9321C80.2788 60.4054 79.6093 60.4934 79.1368 60.1543C77.4163 58.9193 74.2661 57.0589 70.7389 56.1524C70.6566 56.1313 70.5792 56.1018 70.5051 56.0604C68.0083 54.6675 62.9645 50.8266 61.9087 46.0754Z" stroke="#83878B" stroke-width="0.4" stroke-linejoin="round"/>
<path d="M86.6879 60.8089C87.8736 59.8208 90.9488 57.748 94.6125 56.5419C95.2931 56.3179 95.9392 56.9018 95.8126 57.607C94.2264 66.4489 89.9178 81.7332 83.339 82.2393C75.121 82.8715 69.8868 63.215 70.4523 57.0664C70.5017 56.5293 71.0312 56.2226 71.5475 56.3783C75.4376 57.5513 78.7496 59.7745 79.9909 60.8089L82.5256 57.2602C82.9244 56.7018 83.7543 56.7018 84.1531 57.2602L86.6879 60.8089Z" fill="#64696E"/>
<path d="M86.6879 60.8089C87.8736 59.8208 90.9488 57.748 94.6125 56.5419C95.2931 56.3179 95.9392 56.9018 95.8126 57.607C94.2264 66.4489 89.9178 81.7332 83.339 82.2393M86.6879 60.8089L84.1531 57.2602C83.7543 56.7018 82.9244 56.7018 82.5256 57.2602L79.9909 60.8089M86.6879 60.8089L83.339 64.1574M79.9909 60.8089C78.7496 59.7745 75.4376 57.5513 71.5475 56.3783C71.0312 56.2226 70.5017 56.5293 70.4523 57.0664C69.8868 63.215 75.121 82.8715 83.339 82.2393M79.9909 60.8089L83.339 64.1574M83.339 82.2393V64.1574" stroke="#83878B" stroke-width="0.4" stroke-linejoin="round"/>
<path d="M61.9087 46.0754C62.0616 46.4831 62.2423 47.0326 62.4239 47.6826C63.9585 51.3534 67.6252 54.3068 69.9246 55.7196C70.3232 55.9645 70.5228 56.4317 70.4696 56.8965C69.7884 62.8434 75.0437 82.8774 83.3391 82.2393C90.175 81.7134 94.5595 65.2314 95.9859 56.6009C96.0365 56.2947 96.2225 56.0363 96.4898 55.8786C98.9715 54.4139 103.391 50.9233 104.633 46.6103C104.678 46.4374 104.724 46.2592 104.77 46.0754C104.73 46.2551 104.684 46.4334 104.633 46.6103C103.117 52.4298 102.129 52.2221 102.742 56.0116C102.754 56.0825 102.774 56.1529 102.799 56.2202C103.802 58.9053 103.219 64.6843 102.78 67.3856C102.767 67.467 102.744 67.5426 102.711 67.618C98.9957 76.0043 89.0809 86.7338 84.2936 91.3424C84.1086 91.5205 83.8656 91.6151 83.6088 91.6151H82.2653C82.0913 91.6151 81.9291 91.5768 81.782 91.4839C76.8919 88.3959 63.238 70.804 62.5784 67.5059C61.9087 64.1574 62.5784 60.8089 63.2481 56.121C63.6616 53.2266 63.038 49.8803 62.4239 47.6826C62.2057 47.1606 62.0306 46.6241 61.9087 46.0754Z" fill="#5A606A" stroke="#83878B" stroke-width="0.4" stroke-linejoin="round"/>
<path d="M23.2981 103H17.9447C17.7894 103 17.6296 102.971 17.5132 102.868C15.7956 101.352 19.1149 93.0367 21.0572 88.9363C20.1642 88.9363 17.8426 89.0703 15.6995 89.606C13.0207 90.2757 13.0207 88.2666 13.6904 87.5969C14.3601 86.9272 18.3783 86.2575 20.3874 84.2484C21.9947 82.6411 26.8612 81.3464 29.0935 80.8999C32.7864 80.4383 34.0929 81.6007 34.3839 82.5024C34.4653 82.7548 34.5528 83.0297 34.5951 83.2915C34.7964 84.537 34.1987 88.162 33.8072 90.1459C33.79 90.2331 33.7631 90.3132 33.7222 90.3921C32.0975 93.5309 26.7823 99.6727 24.0312 102.679C23.8428 102.885 23.5772 103 23.2981 103Z" fill="#5A606A"/>
<path d="M21.0572 88.9363C20.1642 88.9363 17.8426 89.0703 15.6995 89.606C13.0207 90.2757 13.0207 88.2666 13.6904 87.5969C14.3601 86.9272 18.3783 86.2575 20.3874 84.2484C21.9947 82.6411 26.8612 81.3464 29.0935 80.8999C32.7864 80.4383 34.0929 81.6007 34.3839 82.5024C34.4653 82.7548 34.5528 83.0297 34.5951 83.2915C34.7964 84.537 34.1987 88.162 33.8072 90.1459C33.79 90.2331 33.7631 90.3132 33.7222 90.3921C32.0975 93.5309 26.7823 99.6727 24.0312 102.679C23.8428 102.885 23.5772 103 23.2981 103H17.9447C17.7894 103 17.6296 102.971 17.5132 102.868C15.7956 101.352 19.1149 93.0367 21.0572 88.9363ZM21.0572 88.9363C21.8831 88.5234 23.9312 87.8431 25.9296 88.1671C26.2377 88.2171 26.5578 88.1522 26.8015 87.9572L29.7633 85.5878" stroke="#83878B" stroke-width="0.4" stroke-linejoin="round"/>
<path d="M142.895 103H148.249C148.404 103 148.564 102.971 148.68 102.868C150.398 101.352 147.078 93.0367 145.136 88.9363C146.029 88.9363 148.351 89.0703 150.494 89.606C153.173 90.2757 153.173 88.2666 152.503 87.5969C151.833 86.9272 147.815 86.2575 145.806 84.2484C144.199 82.6411 139.332 81.3464 137.1 80.8999C133.407 80.4383 132.1 81.6007 131.809 82.5024C131.728 82.7548 131.641 83.0297 131.598 83.2915C131.397 84.537 131.995 88.162 132.386 90.1459C132.403 90.2331 132.43 90.3132 132.471 90.3921C134.096 93.5309 139.411 99.6727 142.162 102.679C142.351 102.885 142.616 103 142.895 103Z" fill="#5A606A"/>
<path d="M145.136 88.9363C146.029 88.9363 148.351 89.0703 150.494 89.606C153.173 90.2757 153.173 88.2666 152.503 87.5969C151.833 86.9272 147.815 86.2575 145.806 84.2484C144.199 82.6411 139.332 81.3464 137.1 80.8999C133.407 80.4383 132.1 81.6007 131.809 82.5024C131.728 82.7548 131.641 83.0297 131.598 83.2915C131.397 84.537 131.995 88.162 132.386 90.1459C132.403 90.2331 132.43 90.3132 132.471 90.3921C134.096 93.5309 139.411 99.6727 142.162 102.679C142.351 102.885 142.616 103 142.895 103H148.249C148.404 103 148.564 102.971 148.68 102.868C150.398 101.352 147.078 93.0367 145.136 88.9363ZM145.136 88.9363C144.31 88.5234 142.262 87.8431 140.264 88.1671C139.956 88.2171 139.636 88.1522 139.392 87.9572L136.43 85.5878" stroke="#83878B" stroke-width="0.4" stroke-linejoin="round"/>
<path d="M86.1953 60.1195L84.153 57.2602C83.7541 56.7018 82.9243 56.7018 82.5255 57.2602L80.4831 60.1196C80.199 60.5173 80.244 61.0622 80.5897 61.4079L82.6318 63.4502C83.0223 63.8408 83.6555 63.8408 84.0461 63.4503L86.0887 61.4079C86.4344 61.0622 86.4795 60.5173 86.1953 60.1195Z" fill="#5A606A" stroke="#83878B" stroke-width="0.4" stroke-linejoin="round"/>
<path d="M50.2523 27.6404C37.9828 32.1302 38.2326 46.8438 40.1498 54.8646C40.3027 55.5042 41.0348 55.7878 41.5823 55.4234C53.2359 47.6676 53.1823 34.7376 51.4691 28.267C51.329 27.7378 50.7663 27.4523 50.2523 27.6404Z" fill="#64696E" stroke="#83878B" stroke-width="0.4" stroke-linejoin="round"/>
<path d="M116.23 27.6404C128.499 32.1302 128.249 46.8438 126.332 54.8646C126.179 55.5042 125.447 55.7878 124.9 55.4234C113.246 47.6676 113.3 34.7376 115.013 28.267C115.153 27.7378 115.716 27.4523 116.23 27.6404Z" fill="#64696E" stroke="#83878B" stroke-width="0.4" stroke-linejoin="round"/>
<path d="M50.2523 27.6404C37.9828 32.1302 38.2326 46.8438 40.1498 54.8646C40.3027 55.5042 41.0348 55.7878 41.5823 55.4234C53.2359 47.6676 53.1823 34.7376 51.4691 28.267C51.329 27.7378 50.7663 27.4523 50.2523 27.6404Z" fill="#E0FE10" stroke="#83878B" stroke-width="0.4" stroke-linejoin="round"/>
<path d="M116.23 27.6404C128.499 32.1302 128.249 46.8438 126.332 54.8646C126.179 55.5042 125.447 55.7878 124.9 55.4234C113.246 47.6676 113.3 34.7376 115.013 28.267C115.153 27.7378 115.716 27.4523 116.23 27.6404Z" fill="#E0FE10" stroke="#83878B" stroke-width="0.4" stroke-linejoin="round"/>
</g>
<defs>
<clipPath id="clip0_119_2338">
<rect width="168" height="168" rx="16" fill="white"/>
</clipPath>
</defs>
</svg>
