<svg width="168" height="168" viewBox="0 0 168 168" fill="none" xmlns="http://www.w3.org/2000/svg">
<g clip-path="url(#clip0_119_2100)">
<rect width="168" height="168" rx="16" fill="#141A1E"/>
<circle cx="84" cy="24" r="55" fill="#22282C"/>
<path d="M70.4858 132V121.818H72.022V130.678H76.6357V132H70.4858ZM81.56 132.154C80.8076 132.154 80.1597 131.993 79.6161 131.672C79.0759 131.347 78.6583 130.891 78.3633 130.305C78.0716 129.715 77.9258 129.024 77.9258 128.232C77.9258 127.449 78.0716 126.76 78.3633 126.163C78.6583 125.567 79.0692 125.101 79.5962 124.766C80.1265 124.432 80.7463 124.264 81.4556 124.264C81.8865 124.264 82.3041 124.335 82.7085 124.478C83.1128 124.621 83.4757 124.844 83.7972 125.149C84.1187 125.454 84.3723 125.85 84.5579 126.337C84.7435 126.821 84.8363 127.41 84.8363 128.102V128.629H78.766V127.516H83.3796C83.3796 127.125 83.3001 126.778 83.141 126.477C82.9819 126.172 82.7582 125.931 82.4698 125.756C82.1848 125.58 81.85 125.492 81.4656 125.492C81.0479 125.492 80.6834 125.595 80.3718 125.8C80.0636 126.003 79.8249 126.268 79.6559 126.596C79.4902 126.921 79.4073 127.274 79.4073 127.655V128.525C79.4073 129.035 79.4968 129.469 79.6758 129.827C79.8581 130.185 80.1116 130.459 80.4364 130.648C80.7612 130.833 81.1407 130.926 81.5749 130.926C81.8567 130.926 82.1135 130.886 82.3455 130.807C82.5775 130.724 82.7781 130.601 82.9471 130.439C83.1161 130.277 83.2454 130.076 83.3349 129.837L84.7418 130.091C84.6291 130.505 84.427 130.868 84.1353 131.18C83.8469 131.488 83.484 131.728 83.0465 131.901C82.6123 132.07 82.1168 132.154 81.56 132.154ZM89.6873 135.023C89.0808 135.023 88.5588 134.943 88.1213 134.784C87.6871 134.625 87.3324 134.415 87.0574 134.153C86.7823 133.891 86.5768 133.604 86.4409 133.293L87.7186 132.766C87.8081 132.911 87.9274 133.066 88.0765 133.228C88.229 133.394 88.4345 133.535 88.693 133.651C88.9548 133.767 89.2913 133.825 89.7022 133.825C90.2657 133.825 90.7314 133.687 91.0993 133.412C91.4672 133.14 91.6511 132.706 91.6511 132.109V130.608H91.5566C91.4672 130.77 91.3379 130.951 91.1689 131.15C91.0031 131.349 90.7744 131.521 90.4828 131.667C90.1911 131.813 89.8116 131.886 89.3443 131.886C88.7411 131.886 88.1975 131.745 87.7136 131.463C87.233 131.178 86.8519 130.759 86.5701 130.205C86.2917 129.648 86.1525 128.964 86.1525 128.152C86.1525 127.34 86.2901 126.644 86.5652 126.064C86.8436 125.484 87.2247 125.04 87.7086 124.732C88.1925 124.42 88.7411 124.264 89.3542 124.264C89.8282 124.264 90.211 124.344 90.5027 124.503C90.7943 124.659 91.0214 124.841 91.1838 125.05C91.3495 125.259 91.4771 125.442 91.5666 125.602H91.676V124.364H93.1326V132.169C93.1326 132.825 92.9802 133.364 92.6752 133.785C92.3703 134.206 91.9577 134.517 91.4373 134.719C90.9203 134.922 90.3369 135.023 89.6873 135.023ZM89.6724 130.653C90.1 130.653 90.4612 130.553 90.7562 130.354C91.0545 130.152 91.2799 129.864 91.4324 129.489C91.5881 129.112 91.666 128.659 91.666 128.132C91.666 127.618 91.5898 127.166 91.4373 126.775C91.2849 126.384 91.0611 126.079 90.7662 125.86C90.4712 125.638 90.1066 125.527 89.6724 125.527C89.225 125.527 88.8521 125.643 88.5538 125.875C88.2555 126.104 88.0301 126.415 87.8777 126.81C87.7285 127.204 87.6539 127.645 87.6539 128.132C87.6539 128.633 87.7302 129.072 87.8826 129.45C88.0351 129.827 88.2605 130.122 88.5588 130.335C88.8604 130.547 89.2316 130.653 89.6724 130.653ZM100.849 126.228L99.5012 126.467C99.4449 126.294 99.3554 126.13 99.2328 125.974C99.1135 125.819 98.9511 125.691 98.7456 125.592C98.5401 125.492 98.2832 125.442 97.975 125.442C97.554 125.442 97.2027 125.537 96.921 125.726C96.6393 125.911 96.4984 126.152 96.4984 126.447C96.4984 126.702 96.5929 126.907 96.7818 127.063C96.9707 127.219 97.2756 127.347 97.6966 127.446L98.9096 127.724C99.6123 127.887 100.136 128.137 100.481 128.475C100.825 128.813 100.998 129.252 100.998 129.793C100.998 130.25 100.865 130.658 100.6 131.016C100.338 131.37 99.9719 131.649 99.5012 131.851C99.0339 132.053 98.492 132.154 97.8755 132.154C97.0204 132.154 96.3227 131.972 95.7825 131.607C95.2422 131.239 94.9108 130.717 94.7882 130.041L96.225 129.822C96.3145 130.197 96.4984 130.48 96.7768 130.673C97.0552 130.862 97.4181 130.956 97.8656 130.956C98.3528 130.956 98.7422 130.855 99.0339 130.653C99.3256 130.447 99.4714 130.197 99.4714 129.902C99.4714 129.663 99.3819 129.463 99.2029 129.3C99.0273 129.138 98.7572 129.015 98.3926 128.933L97.1 128.649C96.3874 128.487 95.8604 128.228 95.519 127.874C95.1809 127.519 95.0119 127.07 95.0119 126.526C95.0119 126.076 95.1378 125.681 95.3897 125.343C95.6416 125.005 95.9896 124.741 96.4338 124.553C96.8779 124.36 97.3867 124.264 97.96 124.264C98.7853 124.264 99.435 124.443 99.9089 124.801C100.383 125.156 100.696 125.631 100.849 126.228Z" fill="white"/>
<path d="M57.5002 2C54.7002 -14 57.6669 -27.3333 59.5002 -32L64 -20L63 -7.5L57.5002 2Z" fill="#5A606A" stroke="#83878B" stroke-width="0.4"/>
<path d="M73 31C80.5378 20.006 80.5143 -2.99098 78 -14.5L73 -10L69 8L68 31H73Z" fill="#5A606A" stroke="#83878B" stroke-width="0.4"/>
<path d="M59.9998 16.5C55.5998 3.7 58.8331 -12.5 60.9998 -19H72H77C77.6667 -17.6667 78.6 -14.4 77 -12C75 -9 70.5 4 72 28C70.1434 26.1667 66.4441 21.1 66.5 15.5C66.1 21.1 62.3333 26.1667 60.5 28C61.7 24 60.6665 18.6667 59.9998 16.5Z" fill="#64696E"/>
<path d="M66.5 15.5C66.1 21.1 62.3333 26.1667 60.5 28C61.7 24 60.6665 18.6667 59.9998 16.5C55.5998 3.7 58.8331 -12.5 60.9998 -19H72M66.5 15.5C67 8.5 65.5 -1 68 -10C70 -17.2 71.5 -19 72 -19M66.5 15.5C66.4441 21.1 70.1434 26.1667 72 28C70.5 4 75 -9 77 -12C78.6 -14.4 77.6667 -17.6667 77 -19H72" stroke="#83878B" stroke-width="0.4"/>
<path d="M61 76L62.5 74.5H65V72.5L64.5 71L63.5 69L63 67L62 65.5L61 64L60.5 62L60 60L59.5 59.5L59 56.5V55.5L59.5 52.5L66 50.5L73 56V59V61.5V63.5L72.5 66L72 68V71.5V76L72.5 80.5V82L74 85V86.5V88.5V91L72 92.5H70H67.5L66 91L64.5 90L64.3 89.5L63.5 87.5H62.5L61 85.5L60 85L59.5 84L58.5 82V79L60 77.5L61 76Z" fill="#5A606A"/>
<path d="M65 74.5H66V75.5V76.5L66.5 78L67 79.5V82V85V86.5H66.5L66 87.5L64.3 89.5M65 74.5H62.5L61 76L60 77.5L58.5 79V82L59.5 84L60 85L61 85.5L62.5 87.5H63.5L64.3 89.5M65 74.5V72.5L64.5 71L63.5 69L63 67L62 65.5L61 64L60.5 62L60 60L59.5 59.5L59 56.5V55.5L59.5 52.5L66 50.5L73 56V59V61.5V63.5L72.5 66L72 68V71.5V76L72.5 80.5V82L74 85V86.5V88.5V91L72 92.5H70H67.5L66 91L64.5 90L64.3 89.5" stroke="#83878B" stroke-width="0.4"/>
<path d="M108.5 2C111.3 -14 108.333 -27.3333 106.5 -32L102 -20L103 -7.5L108.5 2Z" fill="#5A606A" stroke="#83878B" stroke-width="0.4"/>
<path d="M93 31C85.4622 20.006 85.4857 -2.99098 88 -14.5L93 -10L97 8L98 31H93Z" fill="#5A606A" stroke="#83878B" stroke-width="0.4"/>
<path d="M106 16.5C110.4 3.7 107.167 -12.5 105 -19H94H89C88.3333 -17.6667 87.4 -14.4 89 -12C91 -9 95.5 4 94 28C95.8566 26.1667 99.5559 21.1 99.5 15.5C99.9 21.1 103.667 26.1667 105.5 28C104.3 24 105.333 18.6667 106 16.5Z" fill="#64696E"/>
<path d="M99.5 15.5C99.9 21.1 103.667 26.1667 105.5 28C104.3 24 105.333 18.6667 106 16.5C110.4 3.7 107.167 -12.5 105 -19H94M99.5 15.5C99 8.5 100.5 -1 98 -10C96 -17.2 94.5 -19 94 -19M99.5 15.5C99.5559 21.1 95.8566 26.1667 94 28C95.5 4 91 -9 89 -12C87.4 -14.4 88.3333 -17.6667 89 -19H94" stroke="#83878B" stroke-width="0.4"/>
<path d="M105 76L103.5 74.5H101V72.5L101.5 71L102.5 69L103 67L104 65.5L105 64L105.5 62L106 60L106.5 59.5L107 56.5V55.5L106.5 52.5L100 50.5L93 56V59V61.5V63.5L93.5 66L94 68V71.5V76L93.5 80.5V82L92 85V86.5V88.5V91L94 92.5H96H98.5L100 91L101.5 90L101.7 89.5L102.5 87.5H103.5L105 85.5L106 85L106.5 84L107.5 82V79L106 77.5L105 76Z" fill="#5A606A"/>
<path d="M101 74.5H100V75.5V76.5L99.5 78L99 79.5V82V85V86.5H99.5L100 87.5L101.7 89.5M101 74.5H103.5L105 76L106 77.5L107.5 79V82L106.5 84L106 85L105 85.5L103.5 87.5H102.5L101.7 89.5M101 74.5V72.5L101.5 71L102.5 69L103 67L104 65.5L105 64L105.5 62L106 60L106.5 59.5L107 56.5V55.5L106.5 52.5L100 50.5L93 56V59V61.5V63.5L93.5 66L94 68V71.5V76L93.5 80.5V82L92 85V86.5V88.5V91L94 92.5H96H98.5L100 91L101.5 90L101.7 89.5" stroke="#83878B" stroke-width="0.4"/>
<path d="M60.5002 28C62.3335 26.1667 66.1002 21.1 66.5002 15.5C66.4442 21.1 70.1435 26.1667 72.0002 28C73.3859 33.4671 74.36 43.3589 75.0002 46C75.8071 49.3296 74.9585 53.2963 73.9562 55.5894C73.6996 56.1764 73.1214 56.5522 72.4829 56.5013C70.5516 56.3474 67.4958 55.326 65.5002 52C64.6668 54 62.2002 57.4 59.0002 55C55.0002 52 55.5002 42.5 60.5002 28Z" fill="#E0FE10"/>
<path d="M66.5002 15.5C66.1002 21.1 62.3335 26.1667 60.5002 28C55.5002 42.5 55.0002 52 59.0002 55C62.2002 57.4 64.6668 54 65.5002 52M66.5002 15.5C66.4442 21.1 70.1435 26.1667 72.0002 28C73.3859 33.4671 74.36 43.3589 75.0002 46C75.8071 49.3296 74.9585 53.2963 73.9562 55.5894C73.6996 56.1764 73.1214 56.5522 72.4829 56.5013C70.5516 56.3474 67.4958 55.326 65.5002 52M66.5002 15.5L65.5002 52" stroke="#83878B" stroke-width="0.4"/>
<path d="M105.5 28C103.667 26.1667 99.8998 21.1 99.4998 15.5C99.5558 21.1 95.8565 26.1667 93.9998 28C92.6141 33.4671 91.64 43.3589 90.9998 46C90.1929 49.3296 91.0415 53.2963 92.0438 55.5894C92.3004 56.1764 92.8786 56.5522 93.5171 56.5013C95.4484 56.3474 98.5042 55.326 100.5 52C101.333 54 103.8 57.4 107 55C111 52 110.5 42.5 105.5 28Z" fill="#E0FE10"/>
<path d="M99.4998 15.5C99.8998 21.1 103.667 26.1667 105.5 28C110.5 42.5 111 52 107 55C103.8 57.4 101.333 54 100.5 52M99.4998 15.5C99.5558 21.1 95.8565 26.1667 93.9998 28C92.6141 33.4671 91.64 43.3589 90.9998 46C90.1929 49.3296 91.0415 53.2963 92.0438 55.5894C92.3004 56.1764 92.8786 56.5522 93.5171 56.5013C95.4484 56.3474 98.5042 55.326 100.5 52M99.4998 15.5L100.5 52" stroke="#83878B" stroke-width="0.4"/>
</g>
<defs>
<clipPath id="clip0_119_2100">
<rect width="168" height="168" rx="16" fill="white"/>
</clipPath>
</defs>
</svg>
