<svg width="168" height="168" viewBox="0 0 168 168" fill="none" xmlns="http://www.w3.org/2000/svg">
<g clip-path="url(#clip0_203_802)">
<rect width="168" height="168" rx="16" fill="#141A1E"/>
<circle cx="84" cy="24" r="55" fill="#22282C"/>
<path d="M71.8956 -1.12081V2.19683C71.8956 2.94991 71.5192 3.65316 70.8926 4.07089C70.266 4.48862 69.8896 5.19188 69.8896 5.94495V7.62369C69.8896 8.78973 70.2678 9.92431 70.9675 10.8571L71.6463 11.7623C71.8123 11.9836 71.9938 12.1928 72.1893 12.3884L72.9198 13.1188C73.5484 13.7474 73.9015 14.6 73.9015 15.4889C73.9015 16.317 74.208 17.1157 74.762 17.7312L78.1375 21.4818C79.2717 22.742 80.8874 23.4616 82.5828 23.4616C84.2911 23.4616 85.9178 22.7311 87.0527 21.4543L89.1977 19.0412C90.1382 17.9832 90.9019 16.7805 91.4595 15.4794L92.153 13.8613C92.4653 13.1326 92.8746 12.4495 93.3698 11.8305L94.1405 10.8671C94.8899 9.93039 95.2982 8.7665 95.2982 7.56689V5.94495C95.2982 5.19187 94.9218 4.48862 94.2952 4.07089C93.6686 3.65316 93.2922 2.9499 93.2922 2.19683V-1.31187C93.2922 -3.44547 92.5178 -5.50655 91.1128 -7.11225L89.9452 -8.44669C89.0611 -9.45704 88.0494 -10.3686 86.846 -10.9639C83.977 -12.383 81.7921 -12.3564 78.7457 -10.8097C77.728 -10.293 76.8368 -9.56267 76.0297 -8.75562L74.3709 -7.09686C72.786 -5.51191 71.8956 -3.36226 71.8956 -1.12081Z" fill="#5A606A" stroke="#8281A1" stroke-width="0.668645" stroke-linejoin="round"/>
<path d="M76.5 21.6596V18.1596L78.6956 13.4024C79.186 12.34 80.2493 11.6596 81.4195 11.6596H83V18.1596V76.1596C83 78.6596 74 90.1596 71.5 90.6596C69.1667 88.6596 64.3 83.4596 63.5 78.6596C62.5 72.6596 58 73.1596 57.5 66.1596C57.1 60.5596 56.3333 56.1596 56 54.6596C57.8333 53.1596 62.4 48.8596 66 43.6596C64 40.4596 59.1667 37.9929 57 37.1596C57.8 34.3596 70.3333 25.6596 76.5 21.6596Z" fill="#E0FE10"/>
<path d="M66 43.6596C64 40.4596 59.1667 37.9929 57 37.1596C57.8 34.3596 70.3333 25.6596 76.5 21.6596V18.1596L78.6956 13.4024C79.186 12.34 80.2493 11.6596 81.4195 11.6596H83V18.1596V76.1596M66 43.6596C68.5 47.6596 72.5 59.6596 75 62.6596M66 43.6596C62.4 48.8596 57.8333 53.1596 56 54.6596M75 62.6596C77.5 65.6596 83 73.6596 83 76.1596M75 62.6596C73.6667 60.1596 68 55.0596 56 54.6596M83 76.1596C83 78.6596 74 90.1596 71.5 90.6596C69.1667 88.6596 64.3 83.4596 63.5 78.6596C62.5 72.6596 58 73.1596 57.5 66.1596C57.1 60.5596 56.3333 56.1596 56 54.6596" stroke="#83878B" stroke-width="0.4"/>
<path d="M83 76.1596C83 73.6596 77.5 65.6596 75 62.6596C73.6667 60.1596 68 55.0596 56 54.6596C56.3333 56.1596 57.1 60.5596 57.5 66.1596C58 73.1596 62.5 72.6596 63.5 78.6596C64.3 83.4596 69.1667 88.6596 71.5 90.6596C74 90.1596 83 78.6596 83 76.1596Z" fill="#5A606A" stroke="#83878B" stroke-width="0.4"/>
<path d="M66 43.6596C68.2526 47.2638 71.7231 57.3632 74.2168 61.5212C74.5603 61.9362 74.8198 62.3216 75 62.6596C74.7526 62.3628 74.4906 61.9778 74.2168 61.5212C72.0189 58.8666 66.3778 55.0055 56 54.6596C57.8333 53.1596 62.4 48.8596 66 43.6596Z" fill="#64696E" stroke="#83878B" stroke-width="0.4"/>
<path d="M56.0002 54.6596C56.3336 56.1596 57.1002 60.5596 57.5002 66.1596C56.5002 69.1596 52.5002 75.6596 44.5002 77.6596C43.3336 76.1596 41.5002 71.7596 43.5002 66.1596C45.5002 60.5596 47.5729 58.6365 49.7761 57.4994C51.7105 56.8839 53.8639 55.9743 56.0002 54.6596Z" fill="#5A606A" stroke="#83878B" stroke-width="0.4"/>
<path d="M66.0002 43.6596C64.0002 40.4596 59.1669 37.9929 57.0002 37.1596C54.6669 37.1596 49.3002 37.9596 46.5002 41.1596C43.0002 45.1596 42.0002 49.6596 43.5002 58.6596C45.5003 58.6596 50.8004 57.8596 56.0002 54.6596C57.8335 53.1596 62.4002 48.8596 66.0002 43.6596Z" fill="#64696E" stroke="#83878B" stroke-width="0.4"/>
<path d="M36.2503 74.9787C35.0989 67.8204 40.4979 61.1877 43.5001 58.6596C44.6784 58.6596 47.0025 58.3818 49.7761 57.4994C47.573 58.6365 45.5003 60.5596 43.5003 66.1596C42.9647 67.6592 42.704 69.0727 42.6318 70.3675L42.5 70.6596C40.8074 70.198 37.4669 70.5035 36.6492 74.9601C36.6084 75.1824 36.2862 75.2019 36.2503 74.9787Z" fill="#64696E" stroke="#83878B" stroke-width="0.4"/>
<path d="M36.6839 74.7801C37.5574 70.4953 40.8303 70.2043 42.4998 70.6596L42.6146 70.7866C42.5301 74.1171 43.6798 76.605 44.5001 77.6596L38.5864 83.5731C38.4765 83.3668 38.3587 83.173 38.2363 82.9923C37.5686 82.0066 36.3613 81.5951 35.1721 81.6516C34.6505 81.6764 34.1511 81.725 33.6729 81.7961L33.9998 81.1596L35.8777 77.4038C36.2884 76.5824 36.5004 75.68 36.6839 74.7801Z" fill="#64696E"/>
<path d="M38.4998 83.6596L38.5864 83.5731M38.5864 83.5731C38.4765 83.3668 38.3587 83.173 38.2363 82.9923C37.5686 82.0066 36.3613 81.5951 35.1721 81.6516C34.6505 81.6764 34.1511 81.725 33.6729 81.7961L33.9998 81.1596L35.8777 77.4038C36.2884 76.5824 36.5004 75.68 36.6839 74.7801C37.5574 70.4953 40.8303 70.2043 42.4998 70.6596L42.6146 70.7866C42.5301 74.1171 43.6798 76.605 44.5001 77.6596L38.5864 83.5731Z" stroke="#83878B" stroke-width="0.4"/>
<path d="M28 84.1596C28.8 79.3596 33.6667 75.4929 36 74.1596L36.1401 74.0897C36.1659 74.3849 36.2024 74.6813 36.2503 74.9787C36.284 75.1881 36.5698 75.1839 36.6386 74.9988C36.4648 75.8257 36.2552 76.6489 35.8777 77.4038L33.9998 81.1596L33.6729 81.7961C31.3193 82.1458 29.4762 83.0389 28 84.3055V84.1596Z" fill="#64696E"/>
<path d="M36.6492 74.9601C36.6084 75.1824 36.2862 75.2019 36.2503 74.9787C36.2024 74.6813 36.1659 74.3849 36.1401 74.0897L36 74.1596C33.6667 75.4929 28.8 79.3596 28 84.1596V84.3055C29.4762 83.0389 31.3193 82.1458 33.6729 81.7961L33.9998 81.1596L35.8777 77.4038C36.2611 76.6371 36.4713 75.7999 36.6468 74.9601" stroke="#83878B" stroke-width="0.4"/>
<path d="M22.5 94.6596C20.9 100.26 18.8333 105.993 18 108.16L22 108.16C22 105.36 26.6667 98.9929 29 96.1596C32.4676 91.625 36.0301 88.7032 39.3079 86.6349C39.3527 85.1453 38.8531 83.9025 38.2365 82.9923C37.5688 82.0066 36.3615 81.5951 35.1723 81.6516C27.1016 82.0349 24.3657 88.1297 22.5 94.6596Z" fill="#64696E" stroke="#83878B" stroke-width="0.4"/>
<path d="M46.9999 82.6596C50.9999 79.4793 52.6666 75.0011 52.9999 73.1596L53.1402 72.7803C51.0518 74.8421 48.2049 76.7334 44.5001 77.6596L38.5864 83.5731C39.0299 84.4057 39.3437 85.441 39.3078 86.6349C42.1742 84.8263 44.8228 83.6704 46.9999 82.6596Z" fill="#5A606A" stroke="#83878B" stroke-width="0.4"/>
<path d="M35 99.1596C43 94.3596 46.3333 86.1596 47 82.6596C42.3333 84.8263 35.5 87.6596 29 96.1596C26.6667 98.9929 22 105.36 22 108.16L23 108.66L24 109.66H25C26 107.66 30.5 101.86 35 99.1596Z" fill="#5A606A" stroke="#83878B" stroke-width="0.4"/>
<path d="M13.7532 129.776H7.73539C6.20417 129.011 7.54944 124.318 9.17354 120.16C9.81889 118.507 10.5083 116.939 11.0787 115.735C10.1871 115.735 7.86912 115.868 5.72946 116.403C3.05488 117.072 3.05488 115.066 3.72352 114.397C4.39217 113.729 8.40404 113.06 10.41 111.054C12.0147 109.449 16.8735 108.157 19.1024 107.711C23.3817 107.176 24.4515 108.825 24.4515 109.717C24.9864 110.252 24.2286 114.843 23.7829 117.072C23.0782 118.481 21.5741 120.544 19.8822 122.66C17.721 125.362 15.2533 128.151 13.7532 129.776Z" fill="#5A606A"/>
<path d="M11.0787 115.735C10.1871 115.735 7.86912 115.868 5.72946 116.403C3.05488 117.072 3.05488 115.066 3.72352 114.397C4.39217 113.729 8.40404 113.06 10.41 111.054C12.0147 109.449 16.8735 108.157 19.1024 107.711C23.3817 107.176 24.4515 108.825 24.4515 109.717C24.9864 110.252 24.2286 114.843 23.7829 117.072C23.0782 118.481 21.5741 120.544 19.8822 122.66M11.0787 115.735C11.9702 115.289 14.2882 114.531 16.4279 115.066L19.7711 112.391M11.0787 115.735C10.5083 116.939 9.81889 118.507 9.17354 120.16M9.17354 120.16C7.54944 124.318 6.20417 129.011 7.73539 129.776H13.7532C15.2533 128.151 17.721 125.362 19.8822 122.66M9.17354 120.16L10.41 120.66L11.5 121.66L13 122.16L14 122.66H19.8822" stroke="#8281A1" stroke-width="0.668645"/>
<path d="M89.5 21.6596V18.1596L87.3044 13.4024C86.814 12.34 85.7507 11.6596 84.5805 11.6596H83V18.1596V76.1596C83 78.6596 92 90.1596 94.5 90.6596C96.8333 88.6596 101.7 83.4596 102.5 78.6596C103.5 72.6596 108 73.1596 108.5 66.1596C108.9 60.5596 109.667 56.1596 110 54.6596C108.167 53.1596 103.6 48.8596 100 43.6596C102 40.4596 106.833 37.9929 109 37.1596C108.2 34.3596 95.6667 25.6596 89.5 21.6596Z" fill="#E0FE10"/>
<path d="M100 43.6596C102 40.4596 106.833 37.9929 109 37.1596C108.2 34.3596 95.6667 25.6596 89.5 21.6596V18.1596L87.3044 13.4024C86.814 12.34 85.7507 11.6596 84.5805 11.6596H83V18.1596V76.1596M100 43.6596C97.5 47.6596 93.5 59.6596 91 62.6596M100 43.6596C103.6 48.8596 108.167 53.1596 110 54.6596M91 62.6596C88.5 65.6596 83 73.6596 83 76.1596M91 62.6596C92.3333 60.1596 98 55.0596 110 54.6596M83 76.1596C83 78.6596 92 90.1596 94.5 90.6596C96.8333 88.6596 101.7 83.4596 102.5 78.6596C103.5 72.6596 108 73.1596 108.5 66.1596C108.9 60.5596 109.667 56.1596 110 54.6596" stroke="#83878B" stroke-width="0.4"/>
<path d="M83 76.1596C83 73.6596 88.5 65.6596 91 62.6596C92.3333 60.1596 98 55.0596 110 54.6596C109.667 56.1596 108.9 60.5596 108.5 66.1596C108 73.1596 103.5 72.6596 102.5 78.6596C101.7 83.4596 96.8333 88.6596 94.5 90.6596C92 90.1596 83 78.6596 83 76.1596Z" fill="#5A606A" stroke="#83878B" stroke-width="0.4"/>
<path d="M100 43.6596C97.7474 47.2638 94.2769 57.3632 91.7832 61.5212C91.4397 61.9362 91.1802 62.3216 91 62.6596C91.2474 62.3628 91.5094 61.9778 91.7832 61.5212C93.9811 58.8666 99.6222 55.0055 110 54.6596C108.167 53.1596 103.6 48.8596 100 43.6596Z" fill="#64696E" stroke="#83878B" stroke-width="0.4"/>
<path d="M110 54.6596C109.666 56.1596 108.9 60.5596 108.5 66.1596C109.5 69.1596 113.5 75.6596 121.5 77.6596C122.666 76.1596 124.5 71.7596 122.5 66.1596C120.5 60.5596 118.427 58.6365 116.224 57.4994C114.289 56.8839 112.136 55.9743 110 54.6596Z" fill="#5A606A" stroke="#83878B" stroke-width="0.4"/>
<path d="M99.9998 43.6596C102 40.4596 106.833 37.9929 109 37.1596C111.333 37.1596 116.7 37.9596 119.5 41.1596C123 45.1596 124 49.6596 122.5 58.6596C120.5 58.6596 115.2 57.8596 110 54.6596C108.166 53.1596 103.6 48.8596 99.9998 43.6596Z" fill="#64696E" stroke="#83878B" stroke-width="0.4"/>
<path d="M129.75 74.9787C130.901 67.8204 125.502 61.1877 122.5 58.6596C121.322 58.6596 118.998 58.3818 116.224 57.4994C118.427 58.6365 120.5 60.5596 122.5 66.1596C123.035 67.6592 123.296 69.0727 123.368 70.3675L123.5 70.6596C125.193 70.198 128.533 70.5035 129.351 74.9601C129.392 75.1824 129.714 75.2019 129.75 74.9787Z" fill="#64696E" stroke="#83878B" stroke-width="0.4"/>
<path d="M129.316 74.7801C128.443 70.4953 125.17 70.2043 123.5 70.6596L123.385 70.7866C123.47 74.1171 122.32 76.605 121.5 77.6596L127.414 83.5731C127.523 83.3668 127.641 83.173 127.764 82.9923C128.431 82.0066 129.639 81.5951 130.828 81.6516C131.35 81.6764 131.849 81.725 132.327 81.7961L132 81.1596L130.122 77.4038C129.712 76.5824 129.5 75.68 129.316 74.7801Z" fill="#64696E"/>
<path d="M127.5 83.6596L127.414 83.5731M127.414 83.5731C127.523 83.3668 127.641 83.173 127.764 82.9923C128.431 82.0066 129.639 81.5951 130.828 81.6516C131.35 81.6764 131.849 81.725 132.327 81.7961L132 81.1596L130.122 77.4038C129.712 76.5824 129.5 75.68 129.316 74.7801C128.443 70.4953 125.17 70.2043 123.5 70.6596L123.385 70.7866C123.47 74.1171 122.32 76.605 121.5 77.6596L127.414 83.5731Z" stroke="#83878B" stroke-width="0.4"/>
<path d="M138 84.1596C137.2 79.3596 132.333 75.4929 130 74.1596L129.86 74.0897C129.834 74.3849 129.798 74.6813 129.75 74.9787C129.716 75.1881 129.43 75.1839 129.361 74.9988C129.535 75.8257 129.745 76.6489 130.122 77.4038L132 81.1596L132.327 81.7961C134.681 82.1458 136.524 83.0389 138 84.3055V84.1596Z" fill="#64696E"/>
<path d="M129.351 74.9601C129.392 75.1824 129.714 75.2019 129.75 74.9787C129.798 74.6813 129.834 74.3849 129.86 74.0897L130 74.1596C132.333 75.4929 137.2 79.3596 138 84.1596V84.3055C136.524 83.0389 134.681 82.1458 132.327 81.7961L132 81.1596L130.122 77.4038C129.739 76.6371 129.529 75.7999 129.353 74.9601" stroke="#83878B" stroke-width="0.4"/>
<path d="M143.5 94.6596C145.1 100.26 147.167 105.993 148 108.16L144 108.16C144 105.36 139.333 98.9929 137 96.1596C133.532 91.625 129.97 88.7032 126.692 86.6349C126.647 85.1453 127.147 83.9025 127.764 82.9923C128.431 82.0066 129.639 81.5951 130.828 81.6516C138.898 82.0349 141.634 88.1297 143.5 94.6596Z" fill="#64696E" stroke="#83878B" stroke-width="0.4"/>
<path d="M119 82.6596C115 79.4793 113.333 75.0011 113 73.1596L112.86 72.7803C114.948 74.8421 117.795 76.7334 121.5 77.6596L127.414 83.5731C126.97 84.4057 126.656 85.441 126.692 86.6349C123.826 84.8263 121.177 83.6704 119 82.6596Z" fill="#5A606A" stroke="#83878B" stroke-width="0.4"/>
<path d="M131 99.1596C123 94.3596 119.667 86.1596 119 82.6596C123.667 84.8263 130.5 87.6596 137 96.1596C139.333 98.9929 144 105.36 144 108.16L143 108.66L142 109.66H141C140 107.66 135.5 101.86 131 99.1596Z" fill="#5A606A" stroke="#83878B" stroke-width="0.4"/>
<path d="M152.247 129.776H158.265C159.796 129.011 158.451 124.318 156.826 120.16C156.181 118.507 155.492 116.939 154.921 115.735C155.813 115.735 158.131 115.868 160.271 116.403C162.945 117.072 162.945 115.066 162.276 114.397C161.608 113.729 157.596 113.06 155.59 111.054C153.985 109.449 149.126 108.157 146.898 107.711C142.618 107.176 141.548 108.825 141.548 109.717C141.014 110.252 141.771 114.843 142.217 117.072C142.922 118.481 144.426 120.544 146.118 122.66C148.279 125.362 150.747 128.151 152.247 129.776Z" fill="#5A606A"/>
<path d="M154.921 115.735C155.813 115.735 158.131 115.868 160.271 116.403C162.945 117.072 162.945 115.066 162.276 114.397C161.608 113.729 157.596 113.06 155.59 111.054C153.985 109.449 149.126 108.157 146.898 107.711C142.618 107.176 141.548 108.825 141.548 109.717C141.014 110.252 141.771 114.843 142.217 117.072C142.922 118.481 144.426 120.544 146.118 122.66M154.921 115.735C154.03 115.289 151.712 114.531 149.572 115.066L146.229 112.391M154.921 115.735C155.492 116.939 156.181 118.507 156.826 120.16M156.826 120.16C158.451 124.318 159.796 129.011 158.265 129.776H152.247C150.747 128.151 148.279 125.362 146.118 122.66M156.826 120.16L155.59 120.66L154.5 121.66L153 122.16L152 122.66H146.118" stroke="#8281A1" stroke-width="0.668645"/>
<path d="M71.5 90.6596C71.0621 91.9732 69.3062 93.4465 67.3963 94.7025C65.2438 96.118 62.4687 94.733 62.4503 92.1569C62.4165 87.4232 63.8129 83.9605 64.8271 82.4107C66.6531 85.9407 69.7716 89.1781 71.5 90.6596Z" fill="#64696E" stroke="#83878B" stroke-width="0.4"/>
<path d="M94.5 90.6596C94.9379 91.9732 96.6938 93.4465 98.6037 94.7025C100.756 96.118 103.531 94.733 103.55 92.1569C103.583 87.4232 102.187 83.9605 101.173 82.4107C99.3469 85.9407 96.2284 89.1781 94.5 90.6596Z" fill="#64696E" stroke="#83878B" stroke-width="0.4"/>
<path d="M71.4998 90.6596C73.9998 90.1596 82.9998 78.6596 82.9998 76.1596C82.9998 78.6596 91.9998 90.1596 94.4998 90.6596C94.8263 91.6389 95.8853 92.707 97.1945 93.7076C96.0579 93.8311 94.4405 94.2187 93.4996 95.1596C90.4294 97.6351 82.2202 101.071 73.3379 95.6922C72.7734 95.3503 72.281 94.8941 71.7084 94.5661C70.7994 94.0454 69.6648 93.801 68.8052 93.7076C70.1144 92.707 71.1734 91.6389 71.4998 90.6596Z" fill="#5A606A" stroke="#83878B" stroke-width="0.4"/>
<path d="M66.7425 123.141V121.818H74.6224V123.141H71.4456V132H69.9143V123.141H66.7425ZM75.4514 132V124.364H76.8882V125.577H76.9678C77.107 125.166 77.3522 124.843 77.7036 124.607C78.0582 124.369 78.4593 124.249 78.9067 124.249C78.9995 124.249 79.1089 124.253 79.2348 124.259C79.3641 124.266 79.4652 124.274 79.5381 124.284V125.706C79.4784 125.689 79.3724 125.671 79.2199 125.651C79.0674 125.628 78.915 125.616 78.7625 125.616C78.4112 125.616 78.098 125.691 77.8229 125.84C77.5511 125.986 77.3357 126.19 77.1766 126.452C77.0175 126.71 76.9379 127.005 76.9379 127.337V132H75.4514ZM82.9784 132.169C82.4945 132.169 82.057 132.08 81.6659 131.901C81.2748 131.718 80.9649 131.455 80.7362 131.11C80.5109 130.765 80.3982 130.343 80.3982 129.842C80.3982 129.411 80.481 129.057 80.6468 128.778C80.8125 128.5 81.0362 128.28 81.3179 128.117C81.5996 127.955 81.9145 127.832 82.2625 127.749C82.6105 127.666 82.9652 127.603 83.3264 127.56C83.7838 127.507 84.155 127.464 84.4401 127.431C84.7251 127.395 84.9323 127.337 85.0615 127.257C85.1908 127.178 85.2554 127.048 85.2554 126.869V126.835C85.2554 126.4 85.1328 126.064 84.8875 125.825C84.6456 125.587 84.2843 125.467 83.8037 125.467C83.3032 125.467 82.9088 125.578 82.6205 125.8C82.3354 126.019 82.1382 126.263 82.0289 126.531L80.6318 126.213C80.7976 125.749 81.0395 125.375 81.3577 125.089C81.6792 124.801 82.0487 124.592 82.4664 124.463C82.884 124.33 83.3231 124.264 83.7838 124.264C84.0887 124.264 84.4119 124.301 84.7533 124.374C85.098 124.443 85.4195 124.572 85.7178 124.761C86.0194 124.95 86.2663 125.22 86.4585 125.572C86.6508 125.92 86.7469 126.372 86.7469 126.929V132H85.2952V130.956H85.2355C85.1394 131.148 84.9952 131.337 84.803 131.523C84.6108 131.708 84.3638 131.862 84.0622 131.985C83.7606 132.108 83.3994 132.169 82.9784 132.169ZM83.3016 130.976C83.7126 130.976 84.0639 130.895 84.3556 130.732C84.6505 130.57 84.8743 130.358 85.0267 130.096C85.1825 129.831 85.2604 129.547 85.2604 129.246V128.261C85.2074 128.314 85.1046 128.364 84.9521 128.411C84.803 128.454 84.6323 128.492 84.4401 128.525C84.2478 128.555 84.0606 128.583 83.8783 128.609C83.696 128.633 83.5435 128.652 83.4209 128.669C83.1325 128.705 82.8691 128.767 82.6304 128.853C82.3951 128.939 82.2062 129.063 82.0637 129.226C81.9244 129.385 81.8548 129.597 81.8548 129.862C81.8548 130.23 81.9907 130.509 82.2625 130.697C82.5343 130.883 82.8807 130.976 83.3016 130.976ZM88.7268 134.864V124.364H90.1785V125.602H90.3028C90.389 125.442 90.5133 125.259 90.6757 125.05C90.8381 124.841 91.0635 124.659 91.3518 124.503C91.6402 124.344 92.0213 124.264 92.4953 124.264C93.1118 124.264 93.662 124.42 94.1459 124.732C94.6298 125.043 95.0093 125.492 95.2844 126.079C95.5628 126.665 95.702 127.371 95.702 128.197C95.702 129.022 95.5644 129.73 95.2893 130.32C95.0142 130.906 94.6364 131.359 94.1558 131.677C93.6752 131.992 93.1267 132.149 92.5102 132.149C92.0462 132.149 91.6667 132.071 91.3717 131.915C91.08 131.76 90.8514 131.577 90.6856 131.369C90.5199 131.16 90.3923 130.974 90.3028 130.812H90.2133V134.864H88.7268ZM90.1835 128.182C90.1835 128.719 90.2614 129.189 90.4172 129.594C90.5729 129.998 90.7983 130.315 91.0933 130.543C91.3883 130.769 91.7496 130.881 92.1771 130.881C92.6212 130.881 92.9925 130.764 93.2907 130.528C93.589 130.29 93.8144 129.967 93.9669 129.559C94.1227 129.151 94.2006 128.692 94.2006 128.182C94.2006 127.678 94.1243 127.226 93.9719 126.825C93.8227 126.424 93.5973 126.107 93.2957 125.875C92.9974 125.643 92.6246 125.527 92.1771 125.527C91.7462 125.527 91.3817 125.638 91.0834 125.86C90.7884 126.082 90.5647 126.392 90.4122 126.79C90.2597 127.187 90.1835 127.652 90.1835 128.182ZM103.09 126.228L101.742 126.467C101.686 126.294 101.597 126.13 101.474 125.974C101.355 125.819 101.192 125.691 100.987 125.592C100.781 125.492 100.524 125.442 100.216 125.442C99.7952 125.442 99.4439 125.537 99.1622 125.726C98.8805 125.911 98.7396 126.152 98.7396 126.447C98.7396 126.702 98.8341 126.907 99.023 127.063C99.2119 127.219 99.5168 127.347 99.9378 127.446L101.151 127.724C101.853 127.887 102.377 128.137 102.722 128.475C103.067 128.813 103.239 129.252 103.239 129.793C103.239 130.25 103.106 130.658 102.841 131.016C102.579 131.37 102.213 131.649 101.742 131.851C101.275 132.053 100.733 132.154 100.117 132.154C99.2616 132.154 98.564 131.972 98.0237 131.607C97.4835 131.239 97.152 130.717 97.0294 130.041L98.4662 129.822C98.5557 130.197 98.7396 130.48 99.018 130.673C99.2964 130.862 99.6594 130.956 100.107 130.956C100.594 130.956 100.983 130.855 101.275 130.653C101.567 130.447 101.713 130.197 101.713 129.902C101.713 129.663 101.623 129.463 101.444 129.3C101.268 129.138 100.998 129.015 100.634 128.933L99.3412 128.649C98.6286 128.487 98.1016 128.228 97.7602 127.874C97.4221 127.519 97.2531 127.07 97.2531 126.526C97.2531 126.076 97.3791 125.681 97.6309 125.343C97.8828 125.005 98.2309 124.741 98.675 124.553C99.1191 124.36 99.6279 124.264 100.201 124.264C101.027 124.264 101.676 124.443 102.15 124.801C102.624 125.156 102.937 125.631 103.09 126.228Z" fill="white"/>
</g>
<defs>
<clipPath id="clip0_203_802">
<rect width="168" height="168" rx="16" fill="white"/>
</clipPath>
</defs>
</svg>
