<svg width="168" height="168" viewBox="0 0 168 168" fill="none" xmlns="http://www.w3.org/2000/svg">
<g clip-path="url(#clip0_119_2055)">
<rect width="168" height="168" rx="16" fill="#141A1E"/>
<path d="M68.6069 132V121.818H70.1431V126.243H75.2191V121.818H76.7603V132H75.2191V127.56H70.1431V132H68.6069ZM78.8782 132V124.364H80.3647V132H78.8782ZM79.6289 123.185C79.3704 123.185 79.1483 123.099 78.9627 122.927C78.7804 122.751 78.6893 122.542 78.6893 122.3C78.6893 122.055 78.7804 121.846 78.9627 121.674C79.1483 121.498 79.3704 121.411 79.6289 121.411C79.8874 121.411 80.1078 121.498 80.2901 121.674C80.4757 121.846 80.5685 122.055 80.5685 122.3C80.5685 122.542 80.4757 122.751 80.2901 122.927C80.1078 123.099 79.8874 123.185 79.6289 123.185ZM82.3645 134.864V124.364H83.8162V125.602H83.9405C84.0267 125.442 84.151 125.259 84.3134 125.05C84.4758 124.841 84.7012 124.659 84.9895 124.503C85.2779 124.344 85.659 124.264 86.133 124.264C86.7495 124.264 87.2997 124.42 87.7836 124.732C88.2675 125.043 88.647 125.492 88.9221 126.079C89.2005 126.665 89.3397 127.371 89.3397 128.197C89.3397 129.022 89.2021 129.73 88.927 130.32C88.6519 130.906 88.2741 131.359 87.7935 131.677C87.3129 131.992 86.7644 132.149 86.1479 132.149C85.6839 132.149 85.3044 132.071 85.0094 131.915C84.7177 131.76 84.4891 131.577 84.3233 131.369C84.1576 131.16 84.03 130.974 83.9405 130.812H83.851V134.864H82.3645ZM83.8212 128.182C83.8212 128.719 83.8991 129.189 84.0549 129.594C84.2106 129.998 84.436 130.315 84.731 130.543C85.026 130.769 85.3873 130.881 85.8148 130.881C86.2589 130.881 86.6301 130.764 86.9284 130.528C87.2267 130.29 87.4521 129.967 87.6046 129.559C87.7604 129.151 87.8382 128.692 87.8382 128.182C87.8382 127.678 87.762 127.226 87.6096 126.825C87.4604 126.424 87.235 126.107 86.9334 125.875C86.6351 125.643 86.2623 125.527 85.8148 125.527C85.3839 125.527 85.0194 125.638 84.7211 125.86C84.4261 126.082 84.2024 126.392 84.0499 126.79C83.8974 127.187 83.8212 127.652 83.8212 128.182ZM96.7275 126.228L95.3801 126.467C95.3238 126.294 95.2343 126.13 95.1117 125.974C94.9924 125.819 94.83 125.691 94.6245 125.592C94.419 125.492 94.1621 125.442 93.8539 125.442C93.4329 125.442 93.0816 125.537 92.7999 125.726C92.5182 125.911 92.3773 126.152 92.3773 126.447C92.3773 126.702 92.4718 126.907 92.6607 127.063C92.8496 127.219 93.1545 127.347 93.5755 127.446L94.7885 127.724C95.4912 127.887 96.0149 128.137 96.3596 128.475C96.7042 128.813 96.8766 129.252 96.8766 129.793C96.8766 130.25 96.744 130.658 96.4789 131.016C96.217 131.37 95.8508 131.649 95.3801 131.851C94.9128 132.053 94.3709 132.154 93.7544 132.154C92.8993 132.154 92.2016 131.972 91.6614 131.607C91.1212 131.239 90.7897 130.717 90.6671 130.041L92.1039 129.822C92.1934 130.197 92.3773 130.48 92.6557 130.673C92.9341 130.862 93.2971 130.956 93.7445 130.956C94.2317 130.956 94.6212 130.855 94.9128 130.653C95.2045 130.447 95.3503 130.197 95.3503 129.902C95.3503 129.663 95.2608 129.463 95.0819 129.3C94.9062 129.138 94.6361 129.015 94.2715 128.933L92.9789 128.649C92.2663 128.487 91.7393 128.228 91.3979 127.874C91.0598 127.519 90.8908 127.07 90.8908 126.526C90.8908 126.076 91.0167 125.681 91.2686 125.343C91.5205 125.005 91.8685 124.741 92.3127 124.553C92.7568 124.36 93.2656 124.264 93.839 124.264C94.6642 124.264 95.3139 124.443 95.7878 124.801C96.2618 125.156 96.575 125.631 96.7275 126.228Z" fill="white"/>
<circle cx="84" cy="24" r="55" fill="#22282C"/>
<path d="M92.059 87.4833L91.3919 84.281C90.8551 81.7047 91.9691 79.0651 94.1892 77.6523C97.8052 75.3513 102.615 77.2353 103.705 81.3802L104.85 85.7286C105.847 89.5185 104.618 94.2499 100.747 94.8654C99.381 95.0827 98.1854 94.8472 96.9778 94.3281C94.2653 93.162 92.6612 90.3737 92.059 87.4833Z" fill="#5A606A" stroke="#83878B" stroke-width="0.4"/>
<path d="M73.941 87.4833L74.6081 84.281C75.1449 81.7047 74.0309 79.0651 71.8108 77.6523C68.1948 75.3513 63.3854 77.2353 62.2947 81.3802L61.1504 85.7286C60.153 89.5185 61.3823 94.2499 65.2526 94.8654C66.619 95.0827 67.8146 94.8472 69.0222 94.3281C71.7347 93.162 73.3388 90.3737 73.941 87.4833Z" fill="#5A606A" stroke="#83878B" stroke-width="0.4"/>
<path d="M78.5 52.5C81.7 47.7 81.8333 39.1667 81.5 35.5H73V49.5L78.5 52.5Z" fill="#5A606A" stroke="#83878B" stroke-width="0.4"/>
<path d="M76.5 -65.5V-69L78.6956 -73.7572C79.186 -74.8196 80.2493 -75.5 81.4195 -75.5H83V-69V-11C83 -8.5 74 3 71.5 3.5C69.1667 1.5 64.3 -3.7 63.5 -8.5C62.5 -14.5 58 -14 57.5 -21C57.1 -26.6 56.3333 -31 56 -32.5C57.8333 -34 62.4 -38.3 66 -43.5C64 -46.7 59.1667 -49.1667 57 -50C57.8 -52.8 70.3333 -61.5 76.5 -65.5Z" fill="#64696E"/>
<path d="M66 -43.5C64 -46.7 59.1667 -49.1667 57 -50C57.8 -52.8 70.3333 -61.5 76.5 -65.5V-69L78.6956 -73.7572C79.186 -74.8196 80.2493 -75.5 81.4195 -75.5H83V-69V-11M66 -43.5C68.5 -39.5 72.5 -27.5 75 -24.5M66 -43.5C62.4 -38.3 57.8333 -34 56 -32.5M75 -24.5C77.5 -21.5 83 -13.5 83 -11M75 -24.5C73.6667 -27 68 -32.1 56 -32.5M83 -11C83 -8.5 74 3 71.5 3.5C69.1667 1.5 64.3 -3.7 63.5 -8.5C62.5 -14.5 58 -14 57.5 -21C57.1 -26.6 56.3333 -31 56 -32.5" stroke="#83878B" stroke-width="0.4"/>
<path d="M83 -11C83 -13.5 77.5 -21.5 75 -24.5C73.6667 -27 68 -32.1 56 -32.5C56.3333 -31 57.1 -26.6 57.5 -21C58 -14 62.5 -14.5 63.5 -8.5C64.3 -3.7 69.1667 1.5 71.5 3.5C74 3 83 -8.5 83 -11Z" fill="#5A606A" stroke="#83878B" stroke-width="0.4"/>
<path d="M22.5 7.49996C20.9 13.1 18.8333 18.8333 18 21L22 21C22 18.2 26.6667 11.8333 29 8.99997C32.4676 4.46538 36.0301 1.54354 39.3079 -0.524708C39.3527 -2.01436 38.8531 -3.25708 38.2365 -4.16737C37.5688 -5.15304 36.3615 -5.56451 35.1723 -5.50803C27.1016 -5.12473 24.3657 0.970063 22.5 7.49996Z" fill="#64696E" stroke="#83878B" stroke-width="0.4"/>
<path d="M35 12C43 7.2 46.3333 -1 47 -4.5C42.3333 -2.33333 35.5 0.5 29 9C26.6667 11.8333 22 18.2 22 21L23 21.5L24 22.5H25C26 20.5 30.5 14.7 35 12Z" fill="#5A606A" stroke="#83878B" stroke-width="0.4"/>
<path d="M13.7532 42.6165H7.73539C6.20417 41.8509 7.54944 37.1587 9.17354 33C9.81889 31.3475 10.5083 29.7792 11.0787 28.575C10.1871 28.575 7.86912 28.7087 5.72946 29.2436C3.05488 29.9123 3.05488 27.9063 3.72352 27.2377C4.39217 26.569 8.40404 25.9004 10.41 23.8945C12.0147 22.2897 16.8735 20.997 19.1024 20.5512C23.3817 20.0163 24.4515 21.6656 24.4515 22.5572C24.9864 23.0921 24.2286 27.6834 23.7829 29.9123C23.0782 31.3216 21.5741 33.3842 19.8822 35.5C17.721 38.2024 15.2533 40.9914 13.7532 42.6165Z" fill="#5A606A"/>
<path d="M11.0787 28.575C10.1871 28.575 7.86912 28.7087 5.72946 29.2436C3.05488 29.9123 3.05488 27.9063 3.72352 27.2377C4.39217 26.569 8.40404 25.9004 10.41 23.8945C12.0147 22.2897 16.8735 20.997 19.1024 20.5512C23.3817 20.0163 24.4515 21.6656 24.4515 22.5572C24.9864 23.0921 24.2286 27.6834 23.7829 29.9123C23.0782 31.3216 21.5741 33.3842 19.8822 35.5M11.0787 28.575C11.9702 28.1292 14.2882 27.3714 16.4279 27.9063L19.7711 25.2317M11.0787 28.575C10.5083 29.7792 9.81889 31.3475 9.17354 33M9.17354 33C7.54944 37.1587 6.20417 41.8509 7.73539 42.6165H13.7532C15.2533 40.9914 17.721 38.2024 19.8822 35.5M9.17354 33L10.41 33.5L11.5 34.5L13 35L14 35.5H19.8822" stroke="#8281A1" stroke-width="0.668645"/>
<path d="M89.5 -65.5V-69L87.3044 -73.7572C86.814 -74.8196 85.7507 -75.5 84.5805 -75.5H83V-69V-11C83 -8.5 92 3 94.5 3.5C96.8333 1.5 101.7 -3.7 102.5 -8.5C103.5 -14.5 108 -14 108.5 -21C108.9 -26.6 109.667 -31 110 -32.5C108.167 -34 103.6 -38.3 100 -43.5C102 -46.7 106.833 -49.1667 109 -50C108.2 -52.8 95.6667 -61.5 89.5 -65.5Z" fill="#64696E"/>
<path d="M100 -43.5C102 -46.7 106.833 -49.1667 109 -50C108.2 -52.8 95.6667 -61.5 89.5 -65.5V-69L87.3044 -73.7572C86.814 -74.8196 85.7507 -75.5 84.5805 -75.5H83V-69V-11M100 -43.5C97.5 -39.5 93.5 -27.5 91 -24.5M100 -43.5C103.6 -38.3 108.167 -34 110 -32.5M91 -24.5C88.5 -21.5 83 -13.5 83 -11M91 -24.5C92.3333 -27 98 -32.1 110 -32.5M83 -11C83 -8.5 92 3 94.5 3.5C96.8333 1.5 101.7 -3.7 102.5 -8.5C103.5 -14.5 108 -14 108.5 -21C108.9 -26.6 109.667 -31 110 -32.5" stroke="#83878B" stroke-width="0.4"/>
<path d="M83 -11C83 -13.5 88.5 -21.5 91 -24.5C92.3333 -27 98 -32.1 110 -32.5C109.667 -31 108.9 -26.6 108.5 -21C108 -14 103.5 -14.5 102.5 -8.5C101.7 -3.7 96.8333 1.5 94.5 3.5C92 3 83 -8.5 83 -11Z" fill="#5A606A" stroke="#83878B" stroke-width="0.4"/>
<path d="M143.5 7.49996C145.1 13.1 147.167 18.8333 148 21L144 21C144 18.2 139.333 11.8333 137 8.99997C133.532 4.46538 129.97 1.54354 126.692 -0.524708C126.647 -2.01436 127.147 -3.25708 127.764 -4.16737C128.431 -5.15304 129.639 -5.56451 130.828 -5.50803C138.898 -5.12473 141.634 0.970063 143.5 7.49996Z" fill="#64696E" stroke="#83878B" stroke-width="0.4"/>
<path d="M131 12C123 7.2 119.667 -1 119 -4.5C123.667 -2.33333 130.5 0.5 137 9C139.333 11.8333 144 18.2 144 21L143 21.5L142 22.5H141C140 20.5 135.5 14.7 131 12Z" fill="#5A606A" stroke="#83878B" stroke-width="0.4"/>
<path d="M152.247 42.6165H158.265C159.796 41.8509 158.451 37.1587 156.826 33C156.181 31.3475 155.492 29.7792 154.921 28.575C155.813 28.575 158.131 28.7087 160.271 29.2436C162.945 29.9123 162.945 27.9063 162.276 27.2377C161.608 26.569 157.596 25.9004 155.59 23.8945C153.985 22.2897 149.126 20.997 146.898 20.5512C142.618 20.0163 141.548 21.6656 141.548 22.5572C141.014 23.0921 141.771 27.6834 142.217 29.9123C142.922 31.3216 144.426 33.3842 146.118 35.5C148.279 38.2024 150.747 40.9914 152.247 42.6165Z" fill="#5A606A"/>
<path d="M154.921 28.575C155.813 28.575 158.131 28.7087 160.271 29.2436C162.945 29.9123 162.945 27.9063 162.276 27.2377C161.608 26.569 157.596 25.9004 155.59 23.8945C153.985 22.2897 149.126 20.997 146.898 20.5512C142.618 20.0163 141.548 21.6656 141.548 22.5572C141.014 23.0921 141.771 27.6834 142.217 29.9123C142.922 31.3216 144.426 33.3842 146.118 35.5M154.921 28.575C154.03 28.1292 151.712 27.3714 149.572 27.9063L146.229 25.2317M154.921 28.575C155.492 29.7792 156.181 31.3475 156.826 33M156.826 33C158.451 37.1587 159.796 41.8509 158.265 42.6165H152.247C150.747 40.9914 148.279 38.2024 146.118 35.5M156.826 33L155.59 33.5L154.5 34.5L153 35L152 35.5H146.118" stroke="#8281A1" stroke-width="0.668645"/>
<path d="M57.5002 62C54.7002 46 57.6669 32.6667 59.5002 28L64 40L63 52.5L57.5002 62Z" fill="#5A606A" stroke="#83878B" stroke-width="0.4"/>
<path d="M73 91C80.5378 80.006 80.5143 57.009 78 45.5L73 50L69 68L68 91H73Z" fill="#5A606A" stroke="#83878B" stroke-width="0.4"/>
<path d="M71.5 3.49996C70.7 5.89996 65.5 8.83329 63 9.99996C61.4673 2.71969 63.4828 -2.69474 64.8271 -4.74896C66.6531 -1.21894 69.7716 2.01845 71.5 3.49996Z" fill="#64696E" stroke="#83878B" stroke-width="0.4"/>
<path d="M59.4998 29.5C57.8998 14.3 64.4998 7.83333 67.9998 6.5C68.9998 6.5 71.3 6.8 72.5 8C74 9.5 83 23 83 30.5C83 36.5 78.3333 40 76 41H60.5L59.4998 29.5Z" fill="#64696E"/>
<path d="M59.9998 76.5C56.3579 65.9053 57.9456 52.9813 59.8294 45.1565C60.4339 42.6456 62.7418 41 65.3244 41H72H77C77.6667 42.3333 78.6 45.6 77 48C75 51 70.5 64 72 88C70.1434 86.1667 66.4441 81.1 66.5 75.5C66.1 81.1 62.3333 86.1667 60.5 88C61.7 84 60.6665 78.6667 59.9998 76.5Z" fill="#64696E"/>
<path d="M66.5 75.5C66.1 81.1 62.3333 86.1667 60.5 88C61.7 84 60.6665 78.6667 59.9998 76.5C56.3579 65.9053 57.9456 52.9813 59.8294 45.1565C60.4339 42.6456 62.7418 41 65.3244 41H72M66.5 75.5C67 68.5 65.5 59 68 50C70 42.8 71.5 41 72 41M66.5 75.5C66.4441 81.1 70.1434 86.1667 72 88C70.5 64 75 51 77 48C78.6 45.6 77.6667 42.3333 77 41H72" stroke="#83878B" stroke-width="0.4"/>
<path d="M108.5 62C111.3 46 108.333 32.6667 106.5 28L102 40L103 52.5L108.5 62Z" fill="#5A606A" stroke="#83878B" stroke-width="0.4"/>
<path d="M93 91C85.4622 80.006 85.4857 57.009 88 45.5L93 50L97 68L98 91H93Z" fill="#5A606A" stroke="#83878B" stroke-width="0.4"/>
<path d="M94.5 3.49996C95.3 5.89996 100.5 8.83329 103 9.99996C104.533 2.71969 102.517 -2.69474 101.173 -4.74896C99.3469 -1.21894 96.2284 2.01845 94.5 3.49996Z" fill="#64696E" stroke="#83878B" stroke-width="0.4"/>
<path d="M106.5 29.5C108.1 14.3 101.5 7.83333 98.0002 6.5C97.0002 6.5 94.7 6.8 93.5 8C92 9.5 83 23 83 30.5C83 36.5 87.6667 40 90 41H105.5L106.5 29.5Z" fill="#64696E"/>
<path d="M106 76.5C109.535 66.2166 108.143 53.7388 106.336 45.8592C105.662 42.9225 102.968 41 99.9549 41H94H89C88.3333 42.3333 87.4 45.6 89 48C91 51 95.5 64 94 88C95.8566 86.1667 99.5559 81.1 99.5 75.5C99.9 81.1 103.667 86.1667 105.5 88C104.3 84 105.333 78.6667 106 76.5Z" fill="#64696E"/>
<path d="M99.5 75.5C99.9 81.1 103.667 86.1667 105.5 88C104.3 84 105.333 78.6667 106 76.5C109.535 66.2166 108.143 53.7388 106.336 45.8592C105.662 42.9225 102.968 41 99.9549 41H94M99.5 75.5C99 68.5 100.5 59 98 50C96 42.8 94.5 41 94 41M99.5 75.5C99.5559 81.1 95.8566 86.1667 94 88C95.5 64 91 51 89 48C87.4 45.6 88.3333 42.3333 89 41H94" stroke="#83878B" stroke-width="0.4"/>
<path d="M71.4998 3.5C73.9998 3 82.9998 -8.5 82.9998 -11C82.9998 -8.5 91.9998 3 94.4998 3.5C94.8263 4.47928 95.8853 5.54736 97.1945 6.54798C96.0579 6.67148 94.4405 7.05907 93.4996 8C91.9996 9.5 83 23 83 30.5C83 23 74 9.5 72.5 8C71.5591 7.05907 69.9418 6.67148 68.8052 6.54799C70.1144 5.54736 71.1734 4.47928 71.4998 3.5Z" fill="#5A606A" stroke="#83878B" stroke-width="0.4"/>
<path d="M59.4998 29.6596C57.8998 14.4596 64.4998 7.99294 67.9998 6.65961C68.9998 6.65961 71.3 6.95961 72.5 8.15961C74 9.65961 83 23.1596 83 30.6596C83 35.1342 80.4046 38.2184 78.1171 39.9121C76.811 40.8792 75.162 41.1596 73.5369 41.1596H69.668C64.481 41.1596 60.1551 37.1936 59.7056 32.0261L59.4998 29.6596Z" fill="#E0FE10" stroke="#83878B" stroke-width="0.4"/>
<path d="M106.754 29.6596C108.354 14.4596 101.754 7.99294 98.2541 6.65961C97.2541 6.65961 94.9539 6.95961 93.7539 8.15961C92.2539 9.65961 83.2539 23.1596 83.2539 30.6596C83.2539 35.1342 85.8493 38.2184 88.1368 39.9121C89.4429 40.8792 91.0919 41.1596 92.717 41.1596H96.5859C101.773 41.1596 106.099 37.1936 106.548 32.0261L106.754 29.6596Z" fill="#E0FE10" stroke="#83878B" stroke-width="0.4"/>
</g>
<defs>
<clipPath id="clip0_119_2055">
<rect width="168" height="168" rx="16" fill="white"/>
</clipPath>
</defs>
</svg>
