<svg width="168" height="168" viewBox="0 0 168 168" fill="none" xmlns="http://www.w3.org/2000/svg">
<g clip-path="url(#clip0_119_2421)">
<rect width="168" height="168" rx="16" fill="#141A1E"/>
<circle cx="84" cy="24" r="55" fill="#22282C"/>
<path d="M78.5 13.5C81.7 8.7 81.8333 0.166667 81.5 -3.5H73V10.5L78.5 13.5Z" fill="#5A606A" stroke="#83878B" stroke-width="0.4"/>
<path d="M13.7532 3.61653H7.73539C6.20417 2.85092 7.54944 -1.8413 9.17354 -6.00003C9.81889 -7.65254 10.5083 -9.22081 11.0787 -10.425C10.1871 -10.425 7.86912 -10.2913 5.72946 -9.75638C3.05488 -9.08774 3.05488 -11.0937 3.72352 -11.7623C4.39217 -12.431 8.40404 -13.0996 10.41 -15.1055C12.0147 -16.7103 16.8735 -18.003 19.1024 -18.4488C23.3817 -18.9837 24.4515 -17.3344 24.4515 -16.4428C24.9864 -15.9079 24.2286 -11.3166 23.7829 -9.08773C23.0782 -7.67838 21.5741 -5.61576 19.8822 -3.50003C17.721 -0.797646 15.2533 1.9914 13.7532 3.61653Z" fill="#5A606A"/>
<path d="M11.0787 -10.425C10.1871 -10.425 7.86912 -10.2913 5.72946 -9.75638C3.05488 -9.08773 3.05488 -11.0937 3.72352 -11.7623C4.39217 -12.431 8.40404 -13.0996 10.41 -15.1055C12.0147 -16.7103 16.8735 -18.003 19.1024 -18.4488C23.3817 -18.9837 24.4515 -17.3344 24.4515 -16.4428C24.9864 -15.9079 24.2286 -11.3166 23.7829 -9.08773C23.0782 -7.67838 21.5741 -5.61576 19.8822 -3.50003M11.0787 -10.425C11.9702 -10.8708 14.2882 -11.6286 16.4279 -11.0937L19.7711 -13.7683M11.0787 -10.425C10.5083 -9.22081 9.81889 -7.65254 9.17354 -6.00003M9.17354 -6.00003C7.54944 -1.8413 6.20417 2.85092 7.73539 3.61653H13.7532C15.2533 1.9914 17.721 -0.797646 19.8822 -3.50003M9.17354 -6.00003L10.41 -5.50003L11.5 -4.50003L13 -4.00003L14 -3.50003H19.8822" stroke="#8281A1" stroke-width="0.668645"/>
<path d="M152.247 3.61653H158.265C159.796 2.85092 158.451 -1.8413 156.826 -6.00003C156.181 -7.65254 155.492 -9.22081 154.921 -10.425C155.813 -10.425 158.131 -10.2913 160.271 -9.75638C162.945 -9.08774 162.945 -11.0937 162.276 -11.7623C161.608 -12.431 157.596 -13.0996 155.59 -15.1055C153.985 -16.7103 149.126 -18.003 146.898 -18.4488C142.618 -18.9837 141.548 -17.3344 141.548 -16.4428C141.014 -15.9079 141.771 -11.3166 142.217 -9.08773C142.922 -7.67838 144.426 -5.61576 146.118 -3.50003C148.279 -0.797646 150.747 1.9914 152.247 3.61653Z" fill="#5A606A"/>
<path d="M154.921 -10.425C155.813 -10.425 158.131 -10.2913 160.271 -9.75638C162.945 -9.08773 162.945 -11.0937 162.276 -11.7623C161.608 -12.431 157.596 -13.0996 155.59 -15.1055C153.985 -16.7103 149.126 -18.003 146.898 -18.4488C142.618 -18.9837 141.548 -17.3344 141.548 -16.4428C141.014 -15.9079 141.771 -11.3166 142.217 -9.08773C142.922 -7.67838 144.426 -5.61576 146.118 -3.50003M154.921 -10.425C154.03 -10.8708 151.712 -11.6286 149.572 -11.0937L146.229 -13.7683M154.921 -10.425C155.492 -9.22081 156.181 -7.65254 156.826 -6.00003M156.826 -6.00003C158.451 -1.8413 159.796 2.85092 158.265 3.61653H152.247C150.747 1.9914 148.279 -0.797646 146.118 -3.50003M156.826 -6.00003L155.59 -5.50003L154.5 -4.50003L153 -4.00003L152 -3.50003H146.118" stroke="#8281A1" stroke-width="0.668645"/>
<path d="M57.5002 23C54.7002 7 57.6669 -6.33333 59.5002 -11L64 1L63 13.5L57.5002 23Z" fill="#5A606A" stroke="#83878B" stroke-width="0.4"/>
<path d="M73 52C80.5378 41.006 80.5143 18.009 78 6.5L73 11L69 29L68 52H73Z" fill="#5A606A" stroke="#83878B" stroke-width="0.4"/>
<path d="M59.4998 -9.5C57.8998 -24.7 64.4998 -31.1667 67.9998 -32.5C68.9998 -32.5 71.3 -32.2 72.5 -31C74 -29.5 83 -16 83 -8.5C83 -2.5 78.3333 1 76 2H60.5L59.4998 -9.5Z" fill="#64696E" stroke="#83878B" stroke-width="0.4"/>
<path d="M59.9998 37.5C55.5998 24.7 58.8331 8.5 60.9998 2H72H77C77.6667 3.33333 78.6 6.6 77 9C75 12 70.5 25 72 49C70.1434 47.1667 66.4441 42.1 66.5 36.5C66.1 42.1 62.3333 47.1667 60.5 49C61.7 45 60.6665 39.6667 59.9998 37.5Z" fill="#E0FE10"/>
<path d="M66.5 36.5C66.1 42.1 62.3333 47.1667 60.5 49C61.7 45 60.6665 39.6667 59.9998 37.5C55.5998 24.7 58.8331 8.5 60.9998 2H72M66.5 36.5C67 29.5 65.5 20 68 11C70 3.8 71.5 2 72 2M66.5 36.5C66.4441 42.1 70.1434 47.1667 72 49C70.5 25 75 12 77 9C78.6 6.6 77.6667 3.33333 77 2H72" stroke="#83878B" stroke-width="0.4"/>
<path d="M108.5 23C111.3 7 108.333 -6.33333 106.5 -11L102 1L103 13.5L108.5 23Z" fill="#5A606A" stroke="#83878B" stroke-width="0.4"/>
<path d="M93 52C85.4622 41.006 85.4857 18.009 88 6.5L93 11L97 29L98 52H93Z" fill="#5A606A" stroke="#83878B" stroke-width="0.4"/>
<path d="M106.5 -9.5C108.1 -24.7 101.5 -31.1667 98.0002 -32.5C97.0002 -32.5 94.7 -32.2 93.5 -31C92 -29.5 83 -16 83 -8.5C83 -2.5 87.6667 1 90 2H105.5L106.5 -9.5Z" fill="#64696E" stroke="#83878B" stroke-width="0.4"/>
<path d="M106 37.5C110.4 24.7 107.167 8.5 105 2H94H89C88.3333 3.33333 87.4 6.6 89 9C91 12 95.5 25 94 49C95.8566 47.1667 99.5559 42.1 99.5 36.5C99.9 42.1 103.667 47.1667 105.5 49C104.3 45 105.333 39.6667 106 37.5Z" fill="#E0FE10"/>
<path d="M99.5 36.5C99.9 42.1 103.667 47.1667 105.5 49C104.3 45 105.333 39.6667 106 37.5C110.4 24.7 107.167 8.5 105 2H94M99.5 36.5C99 29.5 100.5 20 98 11C96 3.8 94.5 2 94 2M99.5 36.5C99.5559 42.1 95.8566 47.1667 94 49C95.5 25 91 12 89 9C87.4 6.6 88.3333 3.33333 89 2H94" stroke="#83878B" stroke-width="0.4"/>
<path d="M60.5002 49C62.3335 47.1667 66.1002 42.1 66.5002 36.5C66.4442 42.1 70.1435 47.1667 72.0002 49C73.3859 54.4671 74.36 64.3589 75.0002 67C75.8071 70.3296 74.9585 74.2963 73.9562 76.5894C73.6996 77.1764 73.1125 77.5676 72.5957 77.946C70.6724 79.3543 67.5351 83.3916 65.5002 80C64.6668 82 62.2002 78.4 59.0002 76C55.0002 73 55.5002 63.5 60.5002 49Z" fill="#64696E"/>
<path d="M66.5002 36.5C66.1002 42.1 62.3335 47.1667 60.5002 49C55.5002 63.5 55.0002 73 59.0002 76C62.2002 78.4 64.6668 82 65.5002 80M66.5002 36.5C66.4442 42.1 70.1435 47.1667 72.0002 49C73.3859 54.4671 74.36 64.3589 75.0002 67C75.8071 70.3296 74.9585 74.2963 73.9562 76.5894C73.6996 77.1764 73.1125 77.5676 72.5957 77.946C70.6724 79.3543 67.5351 83.3916 65.5002 80M66.5002 36.5L65.5002 80" stroke="#83878B" stroke-width="0.4"/>
<path d="M105.5 49C103.667 47.1667 99.8998 42.1 99.4998 36.5C99.5558 42.1 95.8565 47.1667 93.9998 49C92.6141 54.4671 91.64 64.3589 90.9998 67C90.1929 70.3296 91.0415 74.2963 92.0438 76.5894C92.3004 77.1764 92.8864 77.56 93.4297 77.8994C95.3551 79.1022 98.4738 82.3767 100.5 79C101.333 81 103.8 78.4 107 76C111 73 110.5 63.5 105.5 49Z" fill="#64696E"/>
<path d="M99.4998 36.5C99.8998 42.1 103.667 47.1667 105.5 49C110.5 63.5 111 73 107 76C103.8 78.4 101.333 81 100.5 79M99.4998 36.5C99.5558 42.1 95.8565 47.1667 93.9998 49C92.6141 54.4671 91.64 64.3589 90.9998 67C90.1929 70.3296 91.0415 74.2963 92.0438 76.5894C92.3004 77.1764 92.8864 77.56 93.4297 77.8994C95.3551 79.1022 98.4738 82.3767 100.5 79M99.4998 36.5L100.5 79" stroke="#83878B" stroke-width="0.4"/>
<path d="M51.4604 132V121.818H52.9966V126.243H58.0726V121.818H59.6138V132H58.0726V127.56H52.9966V132H51.4604ZM63.954 132.169C63.4701 132.169 63.0326 132.08 62.6415 131.901C62.2504 131.718 61.9405 131.455 61.7118 131.11C61.4864 130.765 61.3738 130.343 61.3738 129.842C61.3738 129.411 61.4566 129.057 61.6223 128.778C61.7881 128.5 62.0118 128.28 62.2935 128.117C62.5752 127.955 62.8901 127.832 63.2381 127.749C63.5861 127.666 63.9408 127.603 64.302 127.56C64.7594 127.507 65.1306 127.464 65.4157 127.431C65.7007 127.395 65.9078 127.337 66.0371 127.257C66.1664 127.178 66.231 127.048 66.231 126.869V126.835C66.231 126.4 66.1084 126.064 65.8631 125.825C65.6212 125.587 65.2599 125.467 64.7793 125.467C64.2788 125.467 63.8844 125.578 63.5961 125.8C63.311 126.019 63.1138 126.263 63.0044 126.531L61.6074 126.213C61.7731 125.749 62.0151 125.375 62.3333 125.089C62.6548 124.801 63.0243 124.592 63.4419 124.463C63.8596 124.33 64.2987 124.264 64.7594 124.264C65.0643 124.264 65.3875 124.301 65.7289 124.374C66.0736 124.443 66.3951 124.572 66.6934 124.761C66.995 124.95 67.2419 125.22 67.4341 125.572C67.6264 125.92 67.7225 126.372 67.7225 126.929V132H66.2708V130.956H66.2111C66.115 131.148 65.9708 131.337 65.7786 131.523C65.5864 131.708 65.3394 131.862 65.0378 131.985C64.7362 132.108 64.3749 132.169 63.954 132.169ZM64.2772 130.976C64.6882 130.976 65.0395 130.895 65.3311 130.732C65.6261 130.57 65.8498 130.358 66.0023 130.096C66.1581 129.831 66.236 129.547 66.236 129.246V128.261C66.1829 128.314 66.0802 128.364 65.9277 128.411C65.7786 128.454 65.6079 128.492 65.4157 128.525C65.2234 128.555 65.0362 128.583 64.8539 128.609C64.6716 128.633 64.5191 128.652 64.3965 128.669C64.1081 128.705 63.8446 128.767 63.606 128.853C63.3707 128.939 63.1818 129.063 63.0392 129.226C62.9 129.385 62.8304 129.597 62.8304 129.862C62.8304 130.23 62.9663 130.509 63.2381 130.697C63.5099 130.883 63.8562 130.976 64.2772 130.976ZM69.7024 132V124.364H71.1293V125.607H71.2237C71.3828 125.186 71.643 124.857 72.0043 124.622C72.3655 124.384 72.7981 124.264 73.3018 124.264C73.8123 124.264 74.2398 124.384 74.5845 124.622C74.9325 124.861 75.1894 125.189 75.3551 125.607H75.4347C75.617 125.199 75.907 124.874 76.3047 124.632C76.7024 124.387 77.1764 124.264 77.7266 124.264C78.4193 124.264 78.9844 124.481 79.4219 124.915C79.8627 125.35 80.0831 126.004 80.0831 126.879V132H78.5966V127.018C78.5966 126.501 78.4557 126.127 78.174 125.895C77.8923 125.663 77.5559 125.547 77.1648 125.547C76.6809 125.547 76.3047 125.696 76.0362 125.994C75.7678 126.289 75.6335 126.669 75.6335 127.133V132H74.152V126.924C74.152 126.51 74.0227 126.177 73.7642 125.925C73.5057 125.673 73.1693 125.547 72.755 125.547C72.4732 125.547 72.2131 125.621 71.9744 125.771C71.7391 125.916 71.5485 126.12 71.4027 126.382C71.2602 126.644 71.1889 126.947 71.1889 127.292V132H69.7024ZM87.7978 126.228L86.4505 126.467C86.3941 126.294 86.3046 126.13 86.182 125.974C86.0627 125.819 85.9003 125.691 85.6948 125.592C85.4893 125.492 85.2324 125.442 84.9242 125.442C84.5033 125.442 84.1519 125.537 83.8702 125.726C83.5885 125.911 83.4476 126.152 83.4476 126.447C83.4476 126.702 83.5421 126.907 83.731 127.063C83.9199 127.219 84.2248 127.347 84.6458 127.446L85.8588 127.724C86.5615 127.887 87.0852 128.137 87.4299 128.475C87.7746 128.813 87.9469 129.252 87.9469 129.793C87.9469 130.25 87.8143 130.658 87.5492 131.016C87.2873 131.37 86.9211 131.649 86.4505 131.851C85.9831 132.053 85.4412 132.154 84.8248 132.154C83.9696 132.154 83.272 131.972 82.7317 131.607C82.1915 131.239 81.86 130.717 81.7374 130.041L83.1742 129.822C83.2637 130.197 83.4476 130.48 83.726 130.673C84.0044 130.862 84.3674 130.956 84.8148 130.956C85.302 130.956 85.6915 130.855 85.9831 130.653C86.2748 130.447 86.4206 130.197 86.4206 129.902C86.4206 129.663 86.3311 129.463 86.1522 129.3C85.9765 129.138 85.7064 129.015 85.3418 128.933L84.0492 128.649C83.3366 128.487 82.8096 128.228 82.4682 127.874C82.1301 127.519 81.9611 127.07 81.9611 126.526C81.9611 126.076 82.0871 125.681 82.339 125.343C82.5908 125.005 82.9389 124.741 83.383 124.553C83.8271 124.36 84.3359 124.264 84.9093 124.264C85.7346 124.264 86.3842 124.443 86.8581 124.801C87.3321 125.156 87.6453 125.631 87.7978 126.228ZM93.146 124.364V125.557H88.9748V124.364H93.146ZM90.0934 122.534H91.5799V129.758C91.5799 130.046 91.623 130.263 91.7092 130.409C91.7953 130.552 91.9064 130.649 92.0423 130.702C92.1815 130.752 92.3323 130.777 92.4947 130.777C92.614 130.777 92.7184 130.769 92.8079 130.752C92.8974 130.736 92.967 130.722 93.0167 130.712L93.2852 131.94C93.199 131.973 93.0763 132.007 92.9173 132.04C92.7582 132.076 92.5593 132.096 92.3207 132.099C91.9296 132.106 91.565 132.036 91.2269 131.891C90.8888 131.745 90.6154 131.519 90.4066 131.214C90.1978 130.91 90.0934 130.527 90.0934 130.066V122.534ZM94.7903 132V124.364H96.2271V125.577H96.3066C96.4458 125.166 96.6911 124.843 97.0424 124.607C97.3971 124.369 97.7981 124.249 98.2456 124.249C98.3384 124.249 98.4477 124.253 98.5737 124.259C98.7029 124.266 98.804 124.274 98.877 124.284V125.706C98.8173 125.689 98.7112 125.671 98.5588 125.651C98.4063 125.628 98.2538 125.616 98.1014 125.616C97.7501 125.616 97.4368 125.691 97.1618 125.84C96.89 125.986 96.6745 126.19 96.5154 126.452C96.3564 126.71 96.2768 127.005 96.2768 127.337V132H94.7903ZM100.163 132V124.364H101.65V132H100.163ZM100.914 123.185C100.656 123.185 100.433 123.099 100.248 122.927C100.066 122.751 99.9744 122.542 99.9744 122.3C99.9744 122.055 100.066 121.846 100.248 121.674C100.433 121.498 100.656 121.411 100.914 121.411C101.173 121.411 101.393 121.498 101.575 121.674C101.761 121.846 101.854 122.055 101.854 122.3C101.854 122.542 101.761 122.751 101.575 122.927C101.393 123.099 101.173 123.185 100.914 123.185ZM105.136 127.466V132H103.65V124.364H105.077V125.607H105.171C105.347 125.202 105.622 124.877 105.996 124.632C106.374 124.387 106.85 124.264 107.423 124.264C107.943 124.264 108.399 124.374 108.79 124.592C109.181 124.808 109.485 125.129 109.7 125.557C109.916 125.984 110.023 126.513 110.023 127.143V132H108.537V127.322C108.537 126.768 108.393 126.336 108.104 126.024C107.816 125.709 107.42 125.552 106.916 125.552C106.571 125.552 106.265 125.626 105.996 125.776C105.731 125.925 105.521 126.143 105.365 126.432C105.212 126.717 105.136 127.062 105.136 127.466ZM115.219 135.023C114.612 135.023 114.09 134.943 113.653 134.784C113.218 134.625 112.864 134.415 112.589 134.153C112.314 133.891 112.108 133.604 111.972 133.293L113.25 132.766C113.339 132.911 113.459 133.066 113.608 133.228C113.76 133.394 113.966 133.535 114.224 133.651C114.486 133.767 114.823 133.825 115.233 133.825C115.797 133.825 116.263 133.687 116.631 133.412C116.998 133.14 117.182 132.706 117.182 132.109V130.608H117.088C116.998 130.77 116.869 130.951 116.7 131.15C116.534 131.349 116.306 131.521 116.014 131.667C115.722 131.813 115.343 131.886 114.876 131.886C114.272 131.886 113.729 131.745 113.245 131.463C112.764 131.178 112.383 130.759 112.101 130.205C111.823 129.648 111.684 128.964 111.684 128.152C111.684 127.34 111.821 126.644 112.096 126.064C112.375 125.484 112.756 125.04 113.24 124.732C113.724 124.42 114.272 124.264 114.885 124.264C115.359 124.264 115.742 124.344 116.034 124.503C116.326 124.659 116.553 124.841 116.715 125.05C116.881 125.259 117.008 125.442 117.098 125.602H117.207V124.364H118.664V132.169C118.664 132.825 118.511 133.364 118.206 133.785C117.902 134.206 117.489 134.517 116.969 134.719C116.452 134.922 115.868 135.023 115.219 135.023ZM115.204 130.653C115.631 130.653 115.992 130.553 116.287 130.354C116.586 130.152 116.811 129.864 116.964 129.489C117.119 129.112 117.197 128.659 117.197 128.132C117.197 127.618 117.121 127.166 116.969 126.775C116.816 126.384 116.592 126.079 116.297 125.86C116.002 125.638 115.638 125.527 115.204 125.527C114.756 125.527 114.383 125.643 114.085 125.875C113.787 126.104 113.561 126.415 113.409 126.81C113.26 127.204 113.185 127.645 113.185 128.132C113.185 128.633 113.261 129.072 113.414 129.45C113.566 129.827 113.792 130.122 114.09 130.335C114.392 130.547 114.763 130.653 115.204 130.653Z" fill="white"/>
</g>
<defs>
<clipPath id="clip0_119_2421">
<rect width="168" height="168" rx="16" fill="white"/>
</clipPath>
</defs>
</svg>
