<svg width="168" height="168" viewBox="0 0 168 168" fill="none" xmlns="http://www.w3.org/2000/svg">
<g clip-path="url(#clip0_198_452)">
<rect width="168" height="168" rx="16" fill="#141A1E"/>
<path d="M72.9614 121.818V132H71.4749V121.818H72.9614ZM77.1835 132.169C76.6996 132.169 76.2621 132.08 75.871 131.901C75.4799 131.718 75.17 131.455 74.9413 131.11C74.7159 130.765 74.6032 130.343 74.6032 129.842C74.6032 129.411 74.6861 129.057 74.8518 128.778C75.0175 128.5 75.2413 128.28 75.523 128.117C75.8047 127.955 76.1196 127.832 76.4676 127.749C76.8156 127.666 77.1702 127.603 77.5315 127.56C77.9889 127.507 78.3601 127.464 78.6452 127.431C78.9302 127.395 79.1373 127.337 79.2666 127.257C79.3959 127.178 79.4605 127.048 79.4605 126.869V126.835C79.4605 126.4 79.3379 126.064 79.0926 125.825C78.8506 125.587 78.4894 125.467 78.0088 125.467C77.5083 125.467 77.1139 125.578 76.8256 125.8C76.5405 126.019 76.3433 126.263 76.2339 126.531L74.8369 126.213C75.0026 125.749 75.2446 125.375 75.5628 125.089C75.8843 124.801 76.2538 124.592 76.6714 124.463C77.089 124.33 77.5282 124.264 77.9889 124.264C78.2938 124.264 78.617 124.301 78.9584 124.374C79.3031 124.443 79.6246 124.572 79.9229 124.761C80.2245 124.95 80.4714 125.22 80.6636 125.572C80.8559 125.92 80.952 126.372 80.952 126.929V132H79.5003V130.956H79.4406C79.3445 131.148 79.2003 131.337 79.0081 131.523C78.8158 131.708 78.5689 131.862 78.2673 131.985C77.9657 132.108 77.6044 132.169 77.1835 132.169ZM77.5067 130.976C77.9176 130.976 78.269 130.895 78.5606 130.732C78.8556 130.57 79.0793 130.358 79.2318 130.096C79.3876 129.831 79.4655 129.547 79.4655 129.246V128.261C79.4124 128.314 79.3097 128.364 79.1572 128.411C79.0081 128.454 78.8374 128.492 78.6452 128.525C78.4529 128.555 78.2657 128.583 78.0834 128.609C77.9011 128.633 77.7486 128.652 77.626 128.669C77.3376 128.705 77.0741 128.767 76.8355 128.853C76.6002 128.939 76.4113 129.063 76.2687 129.226C76.1295 129.385 76.0599 129.597 76.0599 129.862C76.0599 130.23 76.1958 130.509 76.4676 130.697C76.7394 130.883 77.0857 130.976 77.5067 130.976ZM86.4965 124.364V125.557H82.3254V124.364H86.4965ZM83.444 122.534H84.9305V129.758C84.9305 130.046 84.9736 130.263 85.0597 130.409C85.1459 130.552 85.257 130.649 85.3928 130.702C85.532 130.752 85.6829 130.777 85.8453 130.777C85.9646 130.777 86.069 130.769 86.1585 130.752C86.248 130.736 86.3176 130.722 86.3673 130.712L86.6357 131.94C86.5496 131.973 86.4269 132.007 86.2678 132.04C86.1088 132.076 85.9099 132.096 85.6713 132.099C85.2802 132.106 84.9156 132.036 84.5775 131.891C84.2394 131.745 83.966 131.519 83.7572 131.214C83.5484 130.91 83.444 130.527 83.444 130.066V122.534ZM93.7401 126.228L92.3928 126.467C92.3365 126.294 92.247 126.13 92.1244 125.974C92.0051 125.819 91.8427 125.691 91.6372 125.592C91.4317 125.492 91.1748 125.442 90.8666 125.442C90.4456 125.442 90.0943 125.537 89.8126 125.726C89.5309 125.911 89.39 126.152 89.39 126.447C89.39 126.702 89.4845 126.907 89.6734 127.063C89.8623 127.219 90.1672 127.347 90.5882 127.446L91.8012 127.724C92.5039 127.887 93.0276 128.137 93.3722 128.475C93.7169 128.813 93.8893 129.252 93.8893 129.793C93.8893 130.25 93.7567 130.658 93.4916 131.016C93.2297 131.37 92.8635 131.649 92.3928 131.851C91.9255 132.053 91.3836 132.154 90.7671 132.154C89.912 132.154 89.2143 131.972 88.6741 131.607C88.1338 131.239 87.8024 130.717 87.6798 130.041L89.1166 129.822C89.2061 130.197 89.39 130.48 89.6684 130.673C89.9468 130.862 90.3097 130.956 90.7572 130.956C91.2444 130.956 91.6338 130.855 91.9255 130.653C92.2172 130.447 92.363 130.197 92.363 129.902C92.363 129.663 92.2735 129.463 92.0945 129.3C91.9189 129.138 91.6488 129.015 91.2842 128.933L89.9916 128.649C89.279 128.487 88.752 128.228 88.4106 127.874C88.0725 127.519 87.9035 127.07 87.9035 126.526C87.9035 126.076 88.0294 125.681 88.2813 125.343C88.5332 125.005 88.8812 124.741 89.3254 124.553C89.7695 124.36 90.2783 124.264 90.8517 124.264C91.6769 124.264 92.3266 124.443 92.8005 124.801C93.2745 125.156 93.5877 125.631 93.7401 126.228Z" fill="white"/>
<circle cx="84" cy="24" r="55" fill="#22282C"/>
<path d="M76.5 -18.3404V-21.8404L78.6956 -26.5976C79.186 -27.66 80.2493 -28.3404 81.4195 -28.3404H83V-21.8404V36.1596C83 38.6596 74 50.1596 71.5 50.6596C69.1667 48.6596 64.3 43.4596 63.5 38.6596C62.5 32.6596 58 33.1596 57.5 26.1596C57.1 20.5596 56.3333 16.1596 56 14.6596C57.8333 13.1596 62.4 8.85959 66 3.65959C64 0.459591 59.1667 -2.00707 57 -2.84041C57.8 -5.64041 70.3333 -14.3404 76.5 -18.3404Z" fill="#64696E"/>
<path d="M66 3.65959C64 0.459592 59.1667 -2.00708 57 -2.84041C57.8 -5.64041 70.3333 -14.3404 76.5 -18.3404V-21.8404L78.6956 -26.5976C79.186 -27.66 80.2493 -28.3404 81.4195 -28.3404H83V-21.8404V36.1596M66 3.65959C68.5 7.65959 72.5 19.6596 75 22.6596M66 3.65959C62.4 8.85959 57.8333 13.1596 56 14.6596M75 22.6596C77.5 25.6596 83 33.6596 83 36.1596M75 22.6596C73.6667 20.1596 68 15.0596 56 14.6596M83 36.1596C83 38.6596 74 50.1596 71.5 50.6596C69.1667 48.6596 64.3 43.4596 63.5 38.6596C62.5 32.6596 58 33.1596 57.5 26.1596C57.1 20.5596 56.3333 16.1596 56 14.6596" stroke="#83878B" stroke-width="0.4"/>
<path d="M83 36.1596C83 33.6596 77.5 25.6596 75 22.6596C73.6667 20.1596 68 15.0596 56 14.6596C56.3333 16.1596 57.1 20.5596 57.5 26.1596C58 33.1596 62.5 32.6596 63.5 38.6596C64.3 43.4596 69.1667 48.6596 71.5 50.6596C74 50.1596 83 38.6596 83 36.1596Z" fill="#E0FE10" stroke="#83878B" stroke-width="0.4"/>
<path d="M66 3.65959C68.2526 7.26381 71.7231 17.3632 74.2168 21.5212C74.5603 21.9362 74.8198 22.3216 75 22.6596C74.7526 22.3628 74.4906 21.9778 74.2168 21.5212C72.0189 18.8666 66.3778 15.0055 56 14.6596C57.8333 13.1596 62.4 8.85959 66 3.65959Z" fill="#64696E" stroke="#83878B" stroke-width="0.4"/>
<path d="M56.0002 14.6596C56.3336 16.1596 57.1002 20.5596 57.5002 26.1596C56.5002 29.1596 52.5002 35.6596 44.5002 37.6596C43.3336 36.1596 41.5002 31.7596 43.5002 26.1596C45.5002 20.5596 47.5729 18.6365 49.7761 17.4994C51.7105 16.8839 53.8639 15.9743 56.0002 14.6596Z" fill="#5A606A" stroke="#83878B" stroke-width="0.4"/>
<path d="M66.0002 3.65959C64.0002 0.459592 59.1669 -2.00708 57.0002 -2.84041C54.6669 -2.84041 49.3002 -2.04041 46.5002 1.15959C43.0002 5.15959 42.0002 9.65959 43.5002 18.6596C45.5003 18.6596 50.8004 17.8596 56.0002 14.6596C57.8335 13.1596 62.4002 8.85959 66.0002 3.65959Z" fill="#64696E" stroke="#83878B" stroke-width="0.4"/>
<path d="M36.2503 34.9787C35.0989 27.8204 40.4979 21.1877 43.5001 18.6596C44.6784 18.6596 47.0025 18.3818 49.7761 17.4994C47.573 18.6365 45.5003 20.5596 43.5003 26.1596C42.9647 27.6592 42.704 29.0727 42.6318 30.3675L42.5 30.6596C40.8074 30.198 37.4669 30.5035 36.6492 34.9601C36.6084 35.1824 36.2862 35.2019 36.2503 34.9787Z" fill="#64696E" stroke="#83878B" stroke-width="0.4"/>
<path d="M36.6839 34.7801C37.5574 30.4953 40.8303 30.2043 42.4998 30.6596L42.6146 30.7866C42.5301 34.1171 43.6798 36.605 44.5001 37.6596L38.5864 43.5731C38.4765 43.3668 38.3587 43.173 38.2363 42.9923C37.5686 42.0066 36.3613 41.5951 35.1721 41.6516C34.6505 41.6764 34.1511 41.725 33.6729 41.7961L33.9998 41.1596L35.8777 37.4038C36.2884 36.5824 36.5004 35.68 36.6839 34.7801Z" fill="#64696E"/>
<path d="M38.4998 43.6596L38.5864 43.5731M38.5864 43.5731C38.4765 43.3668 38.3587 43.173 38.2363 42.9923C37.5686 42.0066 36.3613 41.5951 35.1721 41.6516C34.6505 41.6764 34.1511 41.725 33.6729 41.7961L33.9998 41.1596L35.8777 37.4038C36.2884 36.5824 36.5004 35.68 36.6839 34.7801C37.5574 30.4953 40.8303 30.2043 42.4998 30.6596L42.6146 30.7866C42.5301 34.1171 43.6798 36.605 44.5001 37.6596L38.5864 43.5731Z" stroke="#83878B" stroke-width="0.4"/>
<path d="M28 44.1596C28.8 39.3596 33.6667 35.4929 36 34.1596L36.1401 34.0897C36.1659 34.3849 36.2024 34.6813 36.2503 34.9787C36.284 35.1881 36.5698 35.1839 36.6386 34.9988C36.4648 35.8257 36.2552 36.6489 35.8777 37.4038L33.9998 41.1596L33.6729 41.7961C31.3193 42.1458 29.4762 43.0389 28 44.3055V44.1596Z" fill="#64696E"/>
<path d="M36.6492 34.9601C36.6084 35.1824 36.2862 35.2019 36.2503 34.9787C36.2024 34.6813 36.1659 34.3849 36.1401 34.0897L36 34.1596C33.6667 35.4929 28.8 39.3596 28 44.1596V44.3055C29.4762 43.0389 31.3193 42.1458 33.6729 41.7961L33.9998 41.1596L35.8777 37.4038C36.2611 36.6371 36.4713 35.7999 36.6468 34.9601" stroke="#83878B" stroke-width="0.4"/>
<path d="M22.5 54.6596C20.9 60.2596 18.8333 65.9929 18 68.1596L22 68.1596C22 65.3596 26.6667 58.9929 29 56.1596C32.4676 51.625 36.0301 48.7032 39.3079 46.6349C39.3527 45.1453 38.8531 43.9025 38.2365 42.9923C37.5688 42.0066 36.3615 41.5951 35.1723 41.6516C27.1016 42.0349 24.3657 48.1297 22.5 54.6596Z" fill="#64696E" stroke="#83878B" stroke-width="0.4"/>
<path d="M46.9999 42.6596C50.9999 39.4793 52.6666 35.0011 52.9999 33.1596L53.1402 32.7803C51.0518 34.8421 48.2049 36.7334 44.5001 37.6596L38.5864 43.5731C39.0299 44.4057 39.3437 45.441 39.3078 46.6349C42.1742 44.8263 44.8228 43.6704 46.9999 42.6596Z" fill="#5A606A" stroke="#83878B" stroke-width="0.4"/>
<path d="M35 59.1596C43 54.3596 46.3333 46.1596 47 42.6596C42.3333 44.8263 35.5 47.6596 29 56.1596C26.6667 58.9929 22 65.3596 22 68.1596L23 68.6596L24 69.6596H25C26 67.6596 30.5 61.8596 35 59.1596Z" fill="#5A606A" stroke="#83878B" stroke-width="0.4"/>
<path d="M13.7532 89.7761H7.73539C6.20417 89.0105 7.54944 84.3183 9.17354 80.1596C9.81889 78.5071 10.5083 76.9388 11.0787 75.7346C10.1871 75.7346 7.86912 75.8683 5.72946 76.4032C3.05488 77.0719 3.05488 75.066 3.72352 74.3973C4.39217 73.7287 8.40404 73.06 10.41 71.0541C12.0147 69.4493 16.8735 68.1566 19.1024 67.7109C23.3817 67.1759 24.4515 68.8253 24.4515 69.7168C24.9864 70.2517 24.2286 74.8431 23.7829 77.0719C23.0782 78.4812 21.5741 80.5439 19.8822 82.6596C17.721 85.362 15.2533 88.151 13.7532 89.7761Z" fill="#5A606A"/>
<path d="M11.0787 75.7346C10.1871 75.7346 7.86912 75.8683 5.72946 76.4032C3.05488 77.0719 3.05488 75.066 3.72352 74.3973C4.39217 73.7287 8.40404 73.06 10.41 71.0541C12.0147 69.4493 16.8735 68.1566 19.1024 67.7109C23.3817 67.1759 24.4515 68.8253 24.4515 69.7168C24.9864 70.2517 24.2286 74.8431 23.7829 77.0719C23.0782 78.4812 21.5741 80.5439 19.8822 82.6596M11.0787 75.7346C11.9702 75.2888 14.2882 74.531 16.4279 75.066L19.7711 72.3914M11.0787 75.7346C10.5083 76.9388 9.81889 78.5071 9.17354 80.1596M9.17354 80.1596C7.54944 84.3183 6.20417 89.0105 7.73539 89.7761H13.7532C15.2533 88.151 17.721 85.362 19.8822 82.6596M9.17354 80.1596L10.41 80.6596L11.5 81.6596L13 82.1596L14 82.6596H19.8822" stroke="#8281A1" stroke-width="0.668645"/>
<path d="M89.5 -18.3404V-21.8404L87.3044 -26.5976C86.814 -27.66 85.7507 -28.3404 84.5805 -28.3404H83V-21.8404V36.1596C83 38.6596 92 50.1596 94.5 50.6596C96.8333 48.6596 101.7 43.4596 102.5 38.6596C103.5 32.6596 108 33.1596 108.5 26.1596C108.9 20.5596 109.667 16.1596 110 14.6596C108.167 13.1596 103.6 8.85959 100 3.65959C102 0.459591 106.833 -2.00707 109 -2.84041C108.2 -5.64041 95.6667 -14.3404 89.5 -18.3404Z" fill="#64696E"/>
<path d="M100 3.65959C102 0.459592 106.833 -2.00708 109 -2.84041C108.2 -5.64041 95.6667 -14.3404 89.5 -18.3404V-21.8404L87.3044 -26.5976C86.814 -27.66 85.7507 -28.3404 84.5805 -28.3404H83V-21.8404V36.1596M100 3.65959C97.5 7.65959 93.5 19.6596 91 22.6596M100 3.65959C103.6 8.85959 108.167 13.1596 110 14.6596M91 22.6596C88.5 25.6596 83 33.6596 83 36.1596M91 22.6596C92.3333 20.1596 98 15.0596 110 14.6596M83 36.1596C83 38.6596 92 50.1596 94.5 50.6596C96.8333 48.6596 101.7 43.4596 102.5 38.6596C103.5 32.6596 108 33.1596 108.5 26.1596C108.9 20.5596 109.667 16.1596 110 14.6596" stroke="#83878B" stroke-width="0.4"/>
<path d="M83 36.1596C83 33.6596 88.5 25.6596 91 22.6596C92.3333 20.1596 98 15.0596 110 14.6596C109.667 16.1596 108.9 20.5596 108.5 26.1596C108 33.1596 103.5 32.6596 102.5 38.6596C101.7 43.4596 96.8333 48.6596 94.5 50.6596C92 50.1596 83 38.6596 83 36.1596Z" fill="#E0FE10" stroke="#83878B" stroke-width="0.4"/>
<path d="M100 3.65959C97.7474 7.26381 94.2769 17.3632 91.7832 21.5212C91.4397 21.9362 91.1802 22.3216 91 22.6596C91.2474 22.3628 91.5094 21.9778 91.7832 21.5212C93.9811 18.8666 99.6222 15.0055 110 14.6596C108.167 13.1596 103.6 8.85959 100 3.65959Z" fill="#64696E" stroke="#83878B" stroke-width="0.4"/>
<path d="M110 14.6596C109.666 16.1596 108.9 20.5596 108.5 26.1596C109.5 29.1596 113.5 35.6596 121.5 37.6596C122.666 36.1596 124.5 31.7596 122.5 26.1596C120.5 20.5596 118.427 18.6365 116.224 17.4994C114.289 16.8839 112.136 15.9743 110 14.6596Z" fill="#5A606A" stroke="#83878B" stroke-width="0.4"/>
<path d="M99.9998 3.65959C102 0.459592 106.833 -2.00708 109 -2.84041C111.333 -2.84041 116.7 -2.04041 119.5 1.15959C123 5.15959 124 9.65959 122.5 18.6596C120.5 18.6596 115.2 17.8596 110 14.6596C108.166 13.1596 103.6 8.85959 99.9998 3.65959Z" fill="#64696E" stroke="#83878B" stroke-width="0.4"/>
<path d="M129.75 34.9787C130.901 27.8204 125.502 21.1877 122.5 18.6596C121.322 18.6596 118.998 18.3818 116.224 17.4994C118.427 18.6365 120.5 20.5596 122.5 26.1596C123.035 27.6592 123.296 29.0727 123.368 30.3675L123.5 30.6596C125.193 30.198 128.533 30.5035 129.351 34.9601C129.392 35.1824 129.714 35.2019 129.75 34.9787Z" fill="#64696E" stroke="#83878B" stroke-width="0.4"/>
<path d="M129.316 34.7801C128.443 30.4953 125.17 30.2043 123.5 30.6596L123.385 30.7866C123.47 34.1171 122.32 36.605 121.5 37.6596L127.414 43.5731C127.523 43.3668 127.641 43.173 127.764 42.9923C128.431 42.0066 129.639 41.5951 130.828 41.6516C131.35 41.6764 131.849 41.725 132.327 41.7961L132 41.1596L130.122 37.4038C129.712 36.5824 129.5 35.68 129.316 34.7801Z" fill="#64696E"/>
<path d="M127.5 43.6596L127.414 43.5731M127.414 43.5731C127.523 43.3668 127.641 43.173 127.764 42.9923C128.431 42.0066 129.639 41.5951 130.828 41.6516C131.35 41.6764 131.849 41.725 132.327 41.7961L132 41.1596L130.122 37.4038C129.712 36.5824 129.5 35.68 129.316 34.7801C128.443 30.4953 125.17 30.2043 123.5 30.6596L123.385 30.7866C123.47 34.1171 122.32 36.605 121.5 37.6596L127.414 43.5731Z" stroke="#83878B" stroke-width="0.4"/>
<path d="M138 44.1596C137.2 39.3596 132.333 35.4929 130 34.1596L129.86 34.0897C129.834 34.3849 129.798 34.6813 129.75 34.9787C129.716 35.1881 129.43 35.1839 129.361 34.9988C129.535 35.8257 129.745 36.6489 130.122 37.4038L132 41.1596L132.327 41.7961C134.681 42.1458 136.524 43.0389 138 44.3055V44.1596Z" fill="#64696E"/>
<path d="M129.351 34.9601C129.392 35.1824 129.714 35.2019 129.75 34.9787C129.798 34.6813 129.834 34.3849 129.86 34.0897L130 34.1596C132.333 35.4929 137.2 39.3596 138 44.1596V44.3055C136.524 43.0389 134.681 42.1458 132.327 41.7961L132 41.1596L130.122 37.4038C129.739 36.6371 129.529 35.7999 129.353 34.9601" stroke="#83878B" stroke-width="0.4"/>
<path d="M143.5 54.6596C145.1 60.2596 147.167 65.9929 148 68.1596L144 68.1596C144 65.3596 139.333 58.9929 137 56.1596C133.532 51.625 129.97 48.7032 126.692 46.6349C126.647 45.1453 127.147 43.9025 127.764 42.9923C128.431 42.0066 129.639 41.5951 130.828 41.6516C138.898 42.0349 141.634 48.1297 143.5 54.6596Z" fill="#64696E" stroke="#83878B" stroke-width="0.4"/>
<path d="M119 42.6596C115 39.4793 113.333 35.0011 113 33.1596L112.86 32.7803C114.948 34.8421 117.795 36.7334 121.5 37.6596L127.414 43.5731C126.97 44.4057 126.656 45.441 126.692 46.6349C123.826 44.8263 121.177 43.6704 119 42.6596Z" fill="#5A606A" stroke="#83878B" stroke-width="0.4"/>
<path d="M131 59.1596C123 54.3596 119.667 46.1596 119 42.6596C123.667 44.8263 130.5 47.6596 137 56.1596C139.333 58.9929 144 65.3596 144 68.1596L143 68.6596L142 69.6596H141C140 67.6596 135.5 61.8596 131 59.1596Z" fill="#5A606A" stroke="#83878B" stroke-width="0.4"/>
<path d="M152.247 89.7761H158.265C159.796 89.0105 158.451 84.3183 156.826 80.1596C156.181 78.5071 155.492 76.9388 154.921 75.7346C155.813 75.7346 158.131 75.8683 160.271 76.4032C162.945 77.0719 162.945 75.066 162.276 74.3973C161.608 73.7287 157.596 73.06 155.59 71.0541C153.985 69.4493 149.126 68.1566 146.898 67.7109C142.618 67.1759 141.548 68.8253 141.548 69.7168C141.014 70.2517 141.771 74.8431 142.217 77.0719C142.922 78.4812 144.426 80.5439 146.118 82.6596C148.279 85.362 150.747 88.151 152.247 89.7761Z" fill="#5A606A"/>
<path d="M154.921 75.7346C155.813 75.7346 158.131 75.8683 160.271 76.4032C162.945 77.0719 162.945 75.066 162.276 74.3973C161.608 73.7287 157.596 73.06 155.59 71.0541C153.985 69.4493 149.126 68.1566 146.898 67.7109C142.618 67.1759 141.548 68.8253 141.548 69.7168C141.014 70.2517 141.771 74.8431 142.217 77.0719C142.922 78.4812 144.426 80.5439 146.118 82.6596M154.921 75.7346C154.03 75.2888 151.712 74.531 149.572 75.066L146.229 72.3914M154.921 75.7346C155.492 76.9388 156.181 78.5071 156.826 80.1596M156.826 80.1596C158.451 84.3183 159.796 89.0105 158.265 89.7761H152.247C150.747 88.151 148.279 85.362 146.118 82.6596M156.826 80.1596L155.59 80.6596L154.5 81.6596L153 82.1596L152 82.6596H146.118" stroke="#8281A1" stroke-width="0.668645"/>
<path d="M71.5 50.6596C70.7 53.0596 65.5 55.9929 63 57.1596C61.4673 49.8793 63.4828 44.4649 64.8271 42.4107C66.6531 45.9407 69.7716 49.1781 71.5 50.6596Z" fill="#E0FE10" stroke="#83878B" stroke-width="0.4"/>
<path d="M59.4998 76.6596C57.8998 61.4596 64.4998 54.9929 67.9998 53.6596C68.9998 53.6596 71.3 53.9596 72.5 55.1596C74 56.6596 83 70.1596 83 77.6596C83 82.1342 80.4046 85.2184 78.1171 86.9121C76.811 87.8792 75.162 88.1596 73.5369 88.1596H69.668C64.481 88.1596 60.1551 84.1936 59.7056 79.0261L59.4998 76.6596Z" fill="#64696E" stroke="#83878B" stroke-width="0.4"/>
<path d="M106.754 76.6596C108.354 61.4596 101.754 54.9929 98.2541 53.6596C97.2541 53.6596 94.9539 53.9596 93.7539 55.1596C92.2539 56.6596 83.2539 70.1596 83.2539 77.6596C83.2539 82.1342 85.8493 85.2184 88.1368 86.9121C89.4429 87.8792 91.0919 88.1596 92.717 88.1596H96.5859C101.773 88.1596 106.099 84.1936 106.548 79.0261L106.754 76.6596Z" fill="#64696E" stroke="#83878B" stroke-width="0.4"/>
<path d="M94.5 50.6596C95.3 53.0596 100.5 55.9929 103 57.1596C104.533 49.8793 102.517 44.4649 101.173 42.4107C99.3469 45.9407 96.2284 49.1781 94.5 50.6596Z" fill="#E0FE10" stroke="#83878B" stroke-width="0.4"/>
<path d="M71.4998 50.6596C73.9998 50.1596 82.9998 38.6596 82.9998 36.1596C82.9998 38.6596 91.9998 50.1596 94.4998 50.6596C94.8263 51.6389 95.8853 52.707 97.1945 53.7076C96.0579 53.8311 94.4405 54.2187 93.4996 55.1596C91.9996 56.6596 83 70.1596 83 77.6596C83 70.1596 74 56.6596 72.5 55.1596C71.5591 54.2187 69.9418 53.8311 68.8052 53.7076C70.1144 52.707 71.1734 51.6389 71.4998 50.6596Z" fill="#5A606A"/>
<path d="M82.9998 36.1596C82.9998 38.6596 73.9998 50.1596 71.4998 50.6596C71.1734 51.6389 70.1144 52.707 68.8052 53.7076C69.9418 53.8311 71.5591 54.2187 72.5 55.1596C74 56.6596 83 70.1596 83 77.6596M82.9998 36.1596C82.9998 38.6596 91.9998 50.1596 94.4998 50.6596C94.8263 51.6389 95.8853 52.707 97.1945 53.7076C96.0579 53.8311 94.4405 54.2187 93.4996 55.1596C91.9996 56.6596 83 70.1596 83 77.6596M82.9998 36.1596L83 77.6596" stroke="#83878B" stroke-width="0.4"/>
</g>
<defs>
<clipPath id="clip0_198_452">
<rect width="168" height="168" rx="16" fill="white"/>
</clipPath>
</defs>
</svg>
