<svg width="168" height="168" viewBox="0 0 168 168" fill="none" xmlns="http://www.w3.org/2000/svg">
<g clip-path="url(#clip0_195_269)">
<rect width="168" height="168" rx="16" fill="#141A1E"/>
<path d="M44.5229 132V121.818H46.0591V130.678H50.6728V132H44.5229ZM55.5225 132.154C54.8066 132.154 54.1819 131.99 53.6483 131.662C53.1146 131.334 52.7003 130.875 52.4054 130.285C52.1104 129.695 51.9629 129.005 51.9629 128.217C51.9629 127.424 52.1104 126.732 52.4054 126.138C52.7003 125.545 53.1146 125.085 53.6483 124.756C54.1819 124.428 54.8066 124.264 55.5225 124.264C56.2385 124.264 56.8632 124.428 57.3968 124.756C57.9305 125.085 58.3448 125.545 58.6397 126.138C58.9347 126.732 59.0822 127.424 59.0822 128.217C59.0822 129.005 58.9347 129.695 58.6397 130.285C58.3448 130.875 57.9305 131.334 57.3968 131.662C56.8632 131.99 56.2385 132.154 55.5225 132.154ZM55.5275 130.906C55.9915 130.906 56.376 130.784 56.6809 130.538C56.9859 130.293 57.2112 129.967 57.3571 129.559C57.5062 129.151 57.5808 128.702 57.5808 128.212C57.5808 127.724 57.5062 127.277 57.3571 126.869C57.2112 126.458 56.9859 126.129 56.6809 125.88C56.376 125.631 55.9915 125.507 55.5275 125.507C55.0602 125.507 54.6724 125.631 54.3642 125.88C54.0592 126.129 53.8322 126.458 53.6831 126.869C53.5372 127.277 53.4643 127.724 53.4643 128.212C53.4643 128.702 53.5372 129.151 53.6831 129.559C53.8322 129.967 54.0592 130.293 54.3642 130.538C54.6724 130.784 55.0602 130.906 55.5275 130.906ZM62.1646 132L59.9174 124.364H61.4537L62.9501 129.972H63.0247L64.5261 124.364H66.0623L67.5538 129.947H67.6284L69.1149 124.364H70.6511L68.4089 132H66.8926L65.3414 126.487H65.2271L63.676 132H62.1646ZM75.1206 132.154C74.3682 132.154 73.7202 131.993 73.1767 131.672C72.6364 131.347 72.2188 130.891 71.9238 130.305C71.6322 129.715 71.4863 129.024 71.4863 128.232C71.4863 127.449 71.6322 126.76 71.9238 126.163C72.2188 125.567 72.6298 125.101 73.1568 124.766C73.6871 124.432 74.3069 124.264 75.0162 124.264C75.447 124.264 75.8646 124.335 76.269 124.478C76.6734 124.621 77.0363 124.844 77.3578 125.149C77.6793 125.454 77.9328 125.85 78.1184 126.337C78.304 126.821 78.3968 127.41 78.3968 128.102V128.629H72.3265V127.516H76.9402C76.9402 127.125 76.8606 126.778 76.7015 126.477C76.5424 126.172 76.3187 125.931 76.0304 125.756C75.7453 125.58 75.4106 125.492 75.0261 125.492C74.6085 125.492 74.2439 125.595 73.9324 125.8C73.6241 126.003 73.3855 126.268 73.2164 126.596C73.0507 126.921 72.9679 127.274 72.9679 127.655V128.525C72.9679 129.035 73.0574 129.469 73.2363 129.827C73.4186 130.185 73.6722 130.459 73.997 130.648C74.3218 130.833 74.7013 130.926 75.1355 130.926C75.4172 130.926 75.6741 130.886 75.9061 130.807C76.1381 130.724 76.3386 130.601 76.5076 130.439C76.6767 130.277 76.8059 130.076 76.8954 129.837L78.3024 130.091C78.1897 130.505 77.9875 130.868 77.6958 131.18C77.4075 131.488 77.0446 131.728 76.6071 131.901C76.1729 132.07 75.6774 132.154 75.1206 132.154ZM80.0462 132V124.364H81.483V125.577H81.5625C81.7017 125.166 81.947 124.843 82.2983 124.607C82.6529 124.369 83.054 124.249 83.5014 124.249C83.5942 124.249 83.7036 124.253 83.8295 124.259C83.9588 124.266 84.0599 124.274 84.1328 124.284V125.706C84.0732 125.689 83.9671 125.671 83.8146 125.651C83.6622 125.628 83.5097 125.616 83.3572 125.616C83.0059 125.616 82.6927 125.691 82.4176 125.84C82.1458 125.986 81.9304 126.19 81.7713 126.452C81.6122 126.71 81.5327 127.005 81.5327 127.337V132H80.0462ZM89.2436 132V121.818H90.7301V125.602H90.8196C90.9058 125.442 91.0301 125.259 91.1925 125.05C91.3549 124.841 91.5803 124.659 91.8686 124.503C92.157 124.344 92.5381 124.264 93.0121 124.264C93.6286 124.264 94.1787 124.42 94.6626 124.732C95.1465 125.043 95.526 125.492 95.8011 126.079C96.0795 126.665 96.2188 127.371 96.2188 128.197C96.2188 129.022 96.0812 129.73 95.8061 130.32C95.531 130.906 95.1532 131.359 94.6726 131.677C94.192 131.992 93.6435 132.149 93.027 132.149C92.563 132.149 92.1835 132.071 91.8885 131.915C91.5968 131.76 91.3681 131.577 91.2024 131.369C91.0367 131.16 90.9091 130.974 90.8196 130.812H90.6953V132H89.2436ZM90.7003 128.182C90.7003 128.719 90.7782 129.189 90.9339 129.594C91.0897 129.998 91.3151 130.315 91.6101 130.543C91.9051 130.769 92.2663 130.881 92.6939 130.881C93.138 130.881 93.5092 130.764 93.8075 130.528C94.1058 130.29 94.3312 129.967 94.4837 129.559C94.6394 129.151 94.7173 128.692 94.7173 128.182C94.7173 127.678 94.6411 127.226 94.4886 126.825C94.3395 126.424 94.1141 126.107 93.8125 125.875C93.5142 125.643 93.1413 125.527 92.6939 125.527C92.263 125.527 91.8984 125.638 91.6001 125.86C91.3052 126.082 91.0814 126.392 90.929 126.79C90.7765 127.187 90.7003 127.652 90.7003 128.182ZM100.11 132.169C99.6264 132.169 99.1889 132.08 98.7978 131.901C98.4067 131.718 98.0968 131.455 97.8681 131.11C97.6427 130.765 97.53 130.343 97.53 129.842C97.53 129.411 97.6129 129.057 97.7786 128.778C97.9443 128.5 98.168 128.28 98.4498 128.117C98.7315 127.955 99.0463 127.832 99.3944 127.749C99.7424 127.666 100.097 127.603 100.458 127.56C100.916 127.507 101.287 127.464 101.572 127.431C101.857 127.395 102.064 127.337 102.193 127.257C102.323 127.178 102.387 127.048 102.387 126.869V126.835C102.387 126.4 102.265 126.064 102.019 125.825C101.777 125.587 101.416 125.467 100.936 125.467C100.435 125.467 100.041 125.578 99.7523 125.8C99.4673 126.019 99.2701 126.263 99.1607 126.531L97.7637 126.213C97.9294 125.749 98.1713 125.375 98.4895 125.089C98.811 124.801 99.1806 124.592 99.5982 124.463C100.016 124.33 100.455 124.264 100.916 124.264C101.221 124.264 101.544 124.301 101.885 124.374C102.23 124.443 102.551 124.572 102.85 124.761C103.151 124.95 103.398 125.22 103.59 125.572C103.783 125.92 103.879 126.372 103.879 126.929V132H102.427V130.956H102.367C102.271 131.148 102.127 131.337 101.935 131.523C101.743 131.708 101.496 131.862 101.194 131.985C100.892 132.108 100.531 132.169 100.11 132.169ZM100.433 130.976C100.844 130.976 101.196 130.895 101.487 130.732C101.782 130.57 102.006 130.358 102.159 130.096C102.314 129.831 102.392 129.547 102.392 129.246V128.261C102.339 128.314 102.236 128.364 102.084 128.411C101.935 128.454 101.764 128.492 101.572 128.525C101.38 128.555 101.192 128.583 101.01 128.609C100.828 128.633 100.675 128.652 100.553 128.669C100.264 128.705 100.001 128.767 99.7623 128.853C99.5269 128.939 99.338 129.063 99.1955 129.226C99.0563 129.385 98.9867 129.597 98.9867 129.862C98.9867 130.23 99.1226 130.509 99.3944 130.697C99.6661 130.883 100.012 130.976 100.433 130.976ZM109.075 132.154C108.336 132.154 107.7 131.987 107.166 131.652C106.636 131.314 106.228 130.848 105.943 130.255C105.658 129.662 105.516 128.982 105.516 128.217C105.516 127.441 105.661 126.757 105.953 126.163C106.245 125.567 106.656 125.101 107.186 124.766C107.716 124.432 108.341 124.264 109.06 124.264C109.64 124.264 110.157 124.372 110.612 124.587C111.066 124.799 111.432 125.098 111.71 125.482C111.992 125.867 112.159 126.316 112.212 126.83H110.766C110.686 126.472 110.504 126.163 110.219 125.905C109.937 125.646 109.559 125.517 109.085 125.517C108.671 125.517 108.308 125.626 107.996 125.845C107.688 126.061 107.448 126.369 107.276 126.77C107.103 127.168 107.017 127.638 107.017 128.182C107.017 128.739 107.102 129.219 107.271 129.624C107.44 130.028 107.678 130.341 107.987 130.563C108.298 130.785 108.664 130.896 109.085 130.896C109.367 130.896 109.622 130.845 109.851 130.742C110.083 130.636 110.277 130.485 110.433 130.29C110.592 130.094 110.703 129.859 110.766 129.584H112.212C112.159 130.078 111.999 130.518 111.73 130.906C111.462 131.294 111.102 131.599 110.651 131.821C110.204 132.043 109.679 132.154 109.075 132.154ZM115.169 129.41L115.159 127.595H115.418L118.46 124.364H120.24L116.77 128.043H116.536L115.169 129.41ZM113.802 132V121.818H115.289V132H113.802ZM118.624 132L115.89 128.371L116.914 127.332L120.449 132H118.624Z" fill="white"/>
<circle cx="84" cy="24" r="55" fill="#22282C"/>
<path d="M76.5 -18.3404V-21.8404L78.6956 -26.5976C79.186 -27.66 80.2493 -28.3404 81.4195 -28.3404H83V-21.8404V36.1596C83 38.6596 74 50.1596 71.5 50.6596C69.1667 48.6596 64.3 43.4596 63.5 38.6596C62.5 32.6596 58 33.1596 57.5 26.1596C57.1 20.5596 56.3333 16.1596 56 14.6596C57.8333 13.1596 62.4 8.85961 66 3.65961C64 0.459606 59.1667 -2.00706 57 -2.84039C57.8 -5.64039 70.3333 -14.3404 76.5 -18.3404Z" fill="#64696E"/>
<path d="M66 3.65961C64 0.459607 59.1667 -2.00706 57 -2.84039C57.8 -5.64039 70.3333 -14.3404 76.5 -18.3404V-21.8404L78.6956 -26.5976C79.186 -27.66 80.2493 -28.3404 81.4195 -28.3404H83V-21.8404V36.1596M66 3.65961C68.5 7.65961 72.5 19.6596 75 22.6596M66 3.65961C62.4 8.85961 57.8333 13.1596 56 14.6596M75 22.6596C77.5 25.6596 83 33.6596 83 36.1596M75 22.6596C73.6667 20.1596 68 15.0596 56 14.6596M83 36.1596C83 38.6596 74 50.1596 71.5 50.6596C69.1667 48.6596 64.3 43.4596 63.5 38.6596C62.5 32.6596 58 33.1596 57.5 26.1596C57.1 20.5596 56.3333 16.1596 56 14.6596" stroke="#83878B" stroke-width="0.4"/>
<path d="M83 36.1596C83 33.6596 77.5 25.6596 75 22.6596C73.6667 20.1596 68 15.0596 56 14.6596C56.3333 16.1596 57.1 20.5596 57.5 26.1596C58 33.1596 62.5 32.6596 63.5 38.6596C64.3 43.4596 69.1667 48.6596 71.5 50.6596C74 50.1596 83 38.6596 83 36.1596Z" fill="#5A606A" stroke="#83878B" stroke-width="0.4"/>
<path d="M66 3.65961C68.2526 7.26383 71.7231 17.3632 74.2168 21.5212C74.5603 21.9362 74.8198 22.3216 75 22.6596C74.7526 22.3628 74.4906 21.9778 74.2168 21.5212C72.0189 18.8666 66.3778 15.0055 56 14.6596C57.8333 13.1596 62.4 8.85961 66 3.65961Z" fill="#64696E" stroke="#83878B" stroke-width="0.4"/>
<path d="M56.0002 14.6596C56.3336 16.1596 57.1002 20.5596 57.5002 26.1596C56.5002 29.1596 52.5002 35.6596 44.5002 37.6596C43.3336 36.1596 41.5002 31.7596 43.5002 26.1596C45.5002 20.5596 47.5729 18.6365 49.7761 17.4994C51.7105 16.8839 53.8639 15.9743 56.0002 14.6596Z" fill="#5A606A" stroke="#83878B" stroke-width="0.4"/>
<path d="M66.0002 3.65961C64.0002 0.459607 59.1669 -2.00706 57.0002 -2.84039C54.6669 -2.84039 49.3002 -2.04039 46.5002 1.15961C43.0002 5.15961 42.0002 9.65961 43.5002 18.6596C45.5003 18.6596 50.8004 17.8596 56.0002 14.6596C57.8335 13.1596 62.4002 8.85961 66.0002 3.65961Z" fill="#64696E" stroke="#83878B" stroke-width="0.4"/>
<path d="M36.2503 34.9787C35.0989 27.8204 40.4979 21.1877 43.5001 18.6596C44.6784 18.6596 47.0025 18.3818 49.7761 17.4994C47.573 18.6365 45.5003 20.5596 43.5003 26.1596C42.9647 27.6592 42.704 29.0727 42.6318 30.3675L42.5 30.6596C40.8074 30.198 37.4669 30.5035 36.6492 34.9601C36.6084 35.1825 36.2862 35.2019 36.2503 34.9787Z" fill="#64696E" stroke="#83878B" stroke-width="0.4"/>
<path d="M36.6839 34.7801C37.5574 30.4953 40.8303 30.2042 42.4998 30.6596L42.6146 30.7866C42.5301 34.1171 43.6798 36.605 44.5001 37.6596L38.5864 43.573C38.4765 43.3668 38.3587 43.173 38.2363 42.9922C37.5686 42.0066 36.3613 41.5951 35.1721 41.6516C34.6505 41.6763 34.1511 41.725 33.6729 41.796L33.9998 41.1596L35.8777 37.4038C36.2884 36.5823 36.5004 35.68 36.6839 34.7801Z" fill="#64696E"/>
<path d="M38.4998 43.6596L38.5864 43.573M38.5864 43.573C38.4765 43.3668 38.3587 43.173 38.2363 42.9922C37.5686 42.0066 36.3613 41.5951 35.1721 41.6516C34.6505 41.6763 34.1511 41.725 33.6729 41.796L33.9998 41.1596L35.8777 37.4038C36.2884 36.5823 36.5004 35.68 36.6839 34.7801C37.5574 30.4953 40.8303 30.2042 42.4998 30.6596L42.6146 30.7866C42.5301 34.1171 43.6798 36.605 44.5001 37.6596L38.5864 43.573Z" stroke="#83878B" stroke-width="0.4"/>
<path d="M28 44.1596C28.8 39.3596 33.6667 35.4929 36 34.1596L36.1401 34.0897C36.1659 34.3849 36.2024 34.6813 36.2503 34.9787C36.284 35.1881 36.5698 35.1839 36.6386 34.9988C36.4648 35.8257 36.2552 36.6489 35.8777 37.4038L33.9998 41.1596L33.6729 41.796C31.3193 42.1458 29.4762 43.0389 28 44.3055V44.1596Z" fill="#64696E"/>
<path d="M36.6492 34.9601C36.6084 35.1824 36.2862 35.2019 36.2503 34.9787C36.2024 34.6813 36.1659 34.3849 36.1401 34.0897L36 34.1596C33.6667 35.4929 28.8 39.3596 28 44.1596V44.3055C29.4762 43.0389 31.3193 42.1458 33.6729 41.796L33.9998 41.1596L35.8777 37.4038C36.2611 36.6371 36.4713 35.7999 36.6468 34.9601" stroke="#83878B" stroke-width="0.4"/>
<path d="M22.5 54.6596C20.9 60.2596 18.8333 65.9929 18 68.1596L22 68.1596C22 65.3596 26.6667 58.9929 29 56.1596C32.4676 51.625 36.0301 48.7031 39.3079 46.6349C39.3527 45.1453 38.8531 43.9025 38.2365 42.9922C37.5688 42.0066 36.3615 41.5951 35.1723 41.6516C27.1016 42.0349 24.3657 48.1297 22.5 54.6596Z" fill="#64696E" stroke="#83878B" stroke-width="0.4"/>
<path d="M46.9999 42.6596C50.9999 39.4793 52.6666 35.0012 52.9999 33.1596L53.1402 32.7803C51.0518 34.8421 48.2049 36.7334 44.5001 37.6596L38.5864 43.5731C39.0299 44.4057 39.3437 45.441 39.3078 46.6349C42.1742 44.8263 44.8228 43.6704 46.9999 42.6596Z" fill="#5A606A" stroke="#83878B" stroke-width="0.4"/>
<path d="M35 59.1596C43 54.3596 46.3333 46.1596 47 42.6596C42.3333 44.8263 35.5 47.6596 29 56.1596C26.6667 58.9929 22 65.3596 22 68.1596L23 68.6596L24 69.6596H25C26 67.6596 30.5 61.8596 35 59.1596Z" fill="#5A606A" stroke="#83878B" stroke-width="0.4"/>
<path d="M13.7532 89.7761H7.73539C6.20417 89.0105 7.54944 84.3183 9.17354 80.1596C9.81889 78.5071 10.5083 76.9388 11.0787 75.7346C10.1871 75.7346 7.86912 75.8683 5.72946 76.4032C3.05488 77.0719 3.05488 75.0659 3.72352 74.3973C4.39217 73.7286 8.40404 73.06 10.41 71.0541C12.0147 69.4493 16.8735 68.1566 19.1024 67.7108C23.3817 67.1759 24.4515 68.8252 24.4515 69.7168C24.9864 70.2517 24.2286 74.8431 23.7829 77.0719C23.0782 78.4812 21.5741 80.5438 19.8822 82.6596C17.721 85.362 15.2533 88.151 13.7532 89.7761Z" fill="#5A606A"/>
<path d="M11.0787 75.7346C10.1871 75.7346 7.86912 75.8683 5.72946 76.4032C3.05488 77.0719 3.05488 75.0659 3.72352 74.3973C4.39217 73.7286 8.40404 73.06 10.41 71.0541C12.0147 69.4493 16.8735 68.1566 19.1024 67.7108C23.3817 67.1759 24.4515 68.8252 24.4515 69.7168C24.9864 70.2517 24.2286 74.8431 23.7829 77.0719C23.0782 78.4812 21.5741 80.5438 19.8822 82.6596M11.0787 75.7346C11.9702 75.2888 14.2882 74.531 16.4279 75.0659L19.7711 72.3914M11.0787 75.7346C10.5083 76.9388 9.81889 78.5071 9.17354 80.1596M9.17354 80.1596C7.54944 84.3183 6.20417 89.0105 7.73539 89.7761H13.7532C15.2533 88.151 17.721 85.362 19.8822 82.6596M9.17354 80.1596L10.41 80.6596L11.5 81.6596L13 82.1596L14 82.6596H19.8822" stroke="#8281A1" stroke-width="0.668645"/>
<path d="M89.5 -18.3404V-21.8404L87.3044 -26.5976C86.814 -27.66 85.7507 -28.3404 84.5805 -28.3404H83V-21.8404V36.1596C83 38.6596 92 50.1596 94.5 50.6596C96.8333 48.6596 101.7 43.4596 102.5 38.6596C103.5 32.6596 108 33.1596 108.5 26.1596C108.9 20.5596 109.667 16.1596 110 14.6596C108.167 13.1596 103.6 8.85961 100 3.65961C102 0.459606 106.833 -2.00706 109 -2.84039C108.2 -5.64039 95.6667 -14.3404 89.5 -18.3404Z" fill="#64696E"/>
<path d="M100 3.65961C102 0.459607 106.833 -2.00706 109 -2.84039C108.2 -5.64039 95.6667 -14.3404 89.5 -18.3404V-21.8404L87.3044 -26.5976C86.814 -27.66 85.7507 -28.3404 84.5805 -28.3404H83V-21.8404V36.1596M100 3.65961C97.5 7.65961 93.5 19.6596 91 22.6596M100 3.65961C103.6 8.85961 108.167 13.1596 110 14.6596M91 22.6596C88.5 25.6596 83 33.6596 83 36.1596M91 22.6596C92.3333 20.1596 98 15.0596 110 14.6596M83 36.1596C83 38.6596 92 50.1596 94.5 50.6596C96.8333 48.6596 101.7 43.4596 102.5 38.6596C103.5 32.6596 108 33.1596 108.5 26.1596C108.9 20.5596 109.667 16.1596 110 14.6596" stroke="#83878B" stroke-width="0.4"/>
<path d="M83 36.1596C83 33.6596 88.5 25.6596 91 22.6596C92.3333 20.1596 98 15.0596 110 14.6596C109.667 16.1596 108.9 20.5596 108.5 26.1596C108 33.1596 103.5 32.6596 102.5 38.6596C101.7 43.4596 96.8333 48.6596 94.5 50.6596C92 50.1596 83 38.6596 83 36.1596Z" fill="#5A606A" stroke="#83878B" stroke-width="0.4"/>
<path d="M100 3.65961C97.7474 7.26383 94.2769 17.3632 91.7832 21.5212C91.4397 21.9362 91.1802 22.3216 91 22.6596C91.2474 22.3628 91.5094 21.9778 91.7832 21.5212C93.9811 18.8666 99.6222 15.0055 110 14.6596C108.167 13.1596 103.6 8.85961 100 3.65961Z" fill="#64696E" stroke="#83878B" stroke-width="0.4"/>
<path d="M110 14.6596C109.666 16.1596 108.9 20.5596 108.5 26.1596C109.5 29.1596 113.5 35.6596 121.5 37.6596C122.666 36.1596 124.5 31.7596 122.5 26.1596C120.5 20.5596 118.427 18.6365 116.224 17.4994C114.289 16.8839 112.136 15.9743 110 14.6596Z" fill="#5A606A" stroke="#83878B" stroke-width="0.4"/>
<path d="M99.9998 3.65961C102 0.459607 106.833 -2.00706 109 -2.84039C111.333 -2.84039 116.7 -2.04039 119.5 1.15961C123 5.15961 124 9.65961 122.5 18.6596C120.5 18.6596 115.2 17.8596 110 14.6596C108.166 13.1596 103.6 8.85961 99.9998 3.65961Z" fill="#64696E" stroke="#83878B" stroke-width="0.4"/>
<path d="M129.75 34.9787C130.901 27.8204 125.502 21.1877 122.5 18.6596C121.322 18.6596 118.998 18.3818 116.224 17.4994C118.427 18.6365 120.5 20.5596 122.5 26.1596C123.035 27.6592 123.296 29.0727 123.368 30.3675L123.5 30.6596C125.193 30.198 128.533 30.5035 129.351 34.9601C129.392 35.1825 129.714 35.2019 129.75 34.9787Z" fill="#64696E" stroke="#83878B" stroke-width="0.4"/>
<path d="M129.316 34.7801C128.443 30.4953 125.17 30.2042 123.5 30.6596L123.385 30.7866C123.47 34.1171 122.32 36.605 121.5 37.6596L127.414 43.573C127.523 43.3668 127.641 43.173 127.764 42.9922C128.431 42.0066 129.639 41.5951 130.828 41.6516C131.35 41.6763 131.849 41.725 132.327 41.796L132 41.1596L130.122 37.4038C129.712 36.5823 129.5 35.68 129.316 34.7801Z" fill="#64696E"/>
<path d="M127.5 43.6596L127.414 43.573M127.414 43.573C127.523 43.3668 127.641 43.173 127.764 42.9922C128.431 42.0066 129.639 41.5951 130.828 41.6516C131.35 41.6763 131.849 41.725 132.327 41.796L132 41.1596L130.122 37.4038C129.712 36.5823 129.5 35.68 129.316 34.7801C128.443 30.4953 125.17 30.2042 123.5 30.6596L123.385 30.7866C123.47 34.1171 122.32 36.605 121.5 37.6596L127.414 43.573Z" stroke="#83878B" stroke-width="0.4"/>
<path d="M138 44.1596C137.2 39.3596 132.333 35.4929 130 34.1596L129.86 34.0897C129.834 34.3849 129.798 34.6813 129.75 34.9787C129.716 35.1881 129.43 35.1839 129.361 34.9988C129.535 35.8257 129.745 36.6489 130.122 37.4038L132 41.1596L132.327 41.796C134.681 42.1458 136.524 43.0389 138 44.3055V44.1596Z" fill="#64696E"/>
<path d="M129.351 34.9601C129.392 35.1824 129.714 35.2019 129.75 34.9787C129.798 34.6813 129.834 34.3849 129.86 34.0897L130 34.1596C132.333 35.4929 137.2 39.3596 138 44.1596V44.3055C136.524 43.0389 134.681 42.1458 132.327 41.796L132 41.1596L130.122 37.4038C129.739 36.6371 129.529 35.7999 129.353 34.9601" stroke="#83878B" stroke-width="0.4"/>
<path d="M143.5 54.6596C145.1 60.2596 147.167 65.9929 148 68.1596L144 68.1596C144 65.3596 139.333 58.9929 137 56.1596C133.532 51.625 129.97 48.7031 126.692 46.6349C126.647 45.1453 127.147 43.9025 127.764 42.9922C128.431 42.0066 129.639 41.5951 130.828 41.6516C138.898 42.0349 141.634 48.1297 143.5 54.6596Z" fill="#64696E" stroke="#83878B" stroke-width="0.4"/>
<path d="M119 42.6596C115 39.4793 113.333 35.0012 113 33.1596L112.86 32.7803C114.948 34.8421 117.795 36.7334 121.5 37.6596L127.414 43.5731C126.97 44.4057 126.656 45.441 126.692 46.6349C123.826 44.8263 121.177 43.6704 119 42.6596Z" fill="#5A606A" stroke="#83878B" stroke-width="0.4"/>
<path d="M131 59.1596C123 54.3596 119.667 46.1596 119 42.6596C123.667 44.8263 130.5 47.6596 137 56.1596C139.333 58.9929 144 65.3596 144 68.1596L143 68.6596L142 69.6596H141C140 67.6596 135.5 61.8596 131 59.1596Z" fill="#5A606A" stroke="#83878B" stroke-width="0.4"/>
<path d="M152.247 89.7761H158.265C159.796 89.0105 158.451 84.3183 156.826 80.1596C156.181 78.5071 155.492 76.9388 154.921 75.7346C155.813 75.7346 158.131 75.8683 160.271 76.4032C162.945 77.0719 162.945 75.0659 162.276 74.3973C161.608 73.7286 157.596 73.06 155.59 71.0541C153.985 69.4493 149.126 68.1566 146.898 67.7108C142.618 67.1759 141.548 68.8252 141.548 69.7168C141.014 70.2517 141.771 74.8431 142.217 77.0719C142.922 78.4812 144.426 80.5438 146.118 82.6596C148.279 85.362 150.747 88.151 152.247 89.7761Z" fill="#5A606A"/>
<path d="M154.921 75.7346C155.813 75.7346 158.131 75.8683 160.271 76.4032C162.945 77.0719 162.945 75.0659 162.276 74.3973C161.608 73.7286 157.596 73.06 155.59 71.0541C153.985 69.4493 149.126 68.1566 146.898 67.7108C142.618 67.1759 141.548 68.8252 141.548 69.7168C141.014 70.2517 141.771 74.8431 142.217 77.0719C142.922 78.4812 144.426 80.5438 146.118 82.6596M154.921 75.7346C154.03 75.2888 151.712 74.531 149.572 75.0659L146.229 72.3914M154.921 75.7346C155.492 76.9388 156.181 78.5071 156.826 80.1596M156.826 80.1596C158.451 84.3183 159.796 89.0105 158.265 89.7761H152.247C150.747 88.151 148.279 85.362 146.118 82.6596M156.826 80.1596L155.59 80.6596L154.5 81.6596L153 82.1596L152 82.6596H146.118" stroke="#8281A1" stroke-width="0.668645"/>
<path d="M71.5 50.6596C70.7 53.0596 65.5 55.9929 63 57.1596C61.4673 49.8793 63.4828 44.4649 64.8271 42.4106C66.6531 45.9407 69.7716 49.1781 71.5 50.6596Z" fill="#64696E" stroke="#83878B" stroke-width="0.4"/>
<path d="M59.4998 76.6596C57.8998 61.4596 64.4998 54.9929 67.9998 53.6596C68.9998 53.6596 71.3 53.9596 72.5 55.1596C74 56.6596 83 70.1596 83 77.6596C83 82.1342 80.4046 85.2184 78.1171 86.9121C76.811 87.8792 75.162 88.1596 73.5369 88.1596H69.668C64.481 88.1596 60.1551 84.1936 59.7056 79.0261L59.4998 76.6596Z" fill="#64696E" stroke="#83878B" stroke-width="0.4"/>
<path d="M106.754 76.6596C108.354 61.4596 101.754 54.9929 98.2541 53.6596C97.2541 53.6596 94.9539 53.9596 93.7539 55.1596C92.2539 56.6596 83.2539 70.1596 83.2539 77.6596C83.2539 82.1342 85.8493 85.2184 88.1368 86.9121C89.4429 87.8792 91.0919 88.1596 92.717 88.1596H96.5859C101.773 88.1596 106.099 84.1936 106.548 79.0261L106.754 76.6596Z" fill="#64696E" stroke="#83878B" stroke-width="0.4"/>
<path d="M94.5 50.6596C95.3 53.0596 100.5 55.9929 103 57.1596C104.533 49.8793 102.517 44.4649 101.173 42.4106C99.3469 45.9407 96.2284 49.1781 94.5 50.6596Z" fill="#64696E" stroke="#83878B" stroke-width="0.4"/>
<path d="M71.4998 50.6596C73.9998 50.1596 82.9998 38.6596 82.9998 36.1596C82.9998 38.6596 91.9998 50.1596 94.4998 50.6596C94.8263 51.6389 95.8853 52.707 97.1945 53.7076C96.0579 53.8311 94.4405 54.2187 93.4996 55.1596C91.9996 56.6596 83 70.1596 83 77.6596C83 70.1596 74 56.6596 72.5 55.1596C71.5591 54.2187 69.9418 53.8311 68.8052 53.7076C70.1144 52.707 71.1734 51.6389 71.4998 50.6596Z" fill="#E0FE10"/>
<path d="M82.9998 36.1596C82.9998 38.6596 73.9998 50.1596 71.4998 50.6596C71.1734 51.6389 70.1144 52.707 68.8052 53.7076C69.9418 53.8311 71.5591 54.2187 72.5 55.1596C74 56.6596 83 70.1596 83 77.6596M82.9998 36.1596C82.9998 38.6596 91.9998 50.1596 94.4998 50.6596C94.8263 51.6389 95.8853 52.707 97.1945 53.7076C96.0579 53.8311 94.4405 54.2187 93.4996 55.1596C91.9996 56.6596 83 70.1596 83 77.6596M82.9998 36.1596L83 77.6596" stroke="#83878B" stroke-width="0.4"/>
</g>
<defs>
<clipPath id="clip0_195_269">
<rect width="168" height="168" rx="16" fill="white"/>
</clipPath>
</defs>
</svg>
