<svg width="168" height="168" viewBox="0 0 168 168" fill="none" xmlns="http://www.w3.org/2000/svg">
<g clip-path="url(#clip0_203_554)">
<rect width="168" height="168" rx="16" fill="#141A1E"/>
<circle cx="84" cy="24" r="55" fill="#22282C"/>
<path d="M67.0716 123.141V121.818H74.9515V123.141H71.7747V132H70.2434V123.141H67.0716ZM78.06 127.466V132H76.5735V121.818H78.0401V125.607H78.1346C78.3136 125.196 78.587 124.869 78.9549 124.627C79.3228 124.385 79.8034 124.264 80.3967 124.264C80.9203 124.264 81.3777 124.372 81.7688 124.587C82.1632 124.803 82.4682 125.124 82.6836 125.552C82.9023 125.976 83.0117 126.506 83.0117 127.143V132H81.5252V127.322C81.5252 126.762 81.381 126.327 81.0927 126.019C80.8043 125.708 80.4033 125.552 79.8896 125.552C79.5382 125.552 79.2234 125.626 78.945 125.776C78.6699 125.925 78.4528 126.143 78.2937 126.432C78.1379 126.717 78.06 127.062 78.06 127.466ZM84.9954 132V124.364H86.4819V132H84.9954ZM85.7461 123.185C85.4876 123.185 85.2655 123.099 85.0799 122.927C84.8976 122.751 84.8065 122.542 84.8065 122.3C84.8065 122.055 84.8976 121.846 85.0799 121.674C85.2655 121.498 85.4876 121.411 85.7461 121.411C86.0046 121.411 86.225 121.498 86.4073 121.674C86.5929 121.846 86.6857 122.055 86.6857 122.3C86.6857 122.542 86.5929 122.751 86.4073 122.927C86.225 123.099 86.0046 123.185 85.7461 123.185ZM91.6834 135.023C91.0769 135.023 90.5549 134.943 90.1174 134.784C89.6832 134.625 89.3285 134.415 89.0534 134.153C88.7783 133.891 88.5729 133.604 88.437 133.293L89.7147 132.766C89.8042 132.911 89.9235 133.066 90.0726 133.228C90.2251 133.394 90.4306 133.535 90.6891 133.651C90.9509 133.767 91.2873 133.825 91.6983 133.825C92.2618 133.825 92.7275 133.687 93.0953 133.412C93.4632 133.14 93.6472 132.706 93.6472 132.109V130.608H93.5527C93.4632 130.77 93.334 130.951 93.165 131.15C92.9992 131.349 92.7705 131.521 92.4789 131.667C92.1872 131.813 91.8077 131.886 91.3404 131.886C90.7372 131.886 90.1936 131.745 89.7097 131.463C89.2291 131.178 88.848 130.759 88.5662 130.205C88.2878 129.648 88.1486 128.964 88.1486 128.152C88.1486 127.34 88.2862 126.644 88.5613 126.064C88.8397 125.484 89.2208 125.04 89.7047 124.732C90.1886 124.42 90.7372 124.264 91.3503 124.264C91.8243 124.264 92.2071 124.344 92.4988 124.503C92.7904 124.659 93.0175 124.841 93.1799 125.05C93.3456 125.259 93.4732 125.442 93.5627 125.602H93.6721V124.364H95.1287V132.169C95.1287 132.825 94.9763 133.364 94.6713 133.785C94.3664 134.206 93.9538 134.517 93.4334 134.719C92.9164 134.922 92.333 135.023 91.6834 135.023ZM91.6685 130.653C92.0961 130.653 92.4573 130.553 92.7523 130.354C93.0506 130.152 93.276 129.864 93.4284 129.489C93.5842 129.112 93.6621 128.659 93.6621 128.132C93.6621 127.618 93.5859 127.166 93.4334 126.775C93.281 126.384 93.0572 126.079 92.7623 125.86C92.4673 125.638 92.1027 125.527 91.6685 125.527C91.2211 125.527 90.8482 125.643 90.5499 125.875C90.2516 126.104 90.0262 126.415 89.8738 126.81C89.7246 127.204 89.65 127.645 89.65 128.132C89.65 128.633 89.7263 129.072 89.8787 129.45C90.0312 129.827 90.2566 130.122 90.5549 130.335C90.8565 130.547 91.2277 130.653 91.6685 130.653ZM98.6088 127.466V132H97.1223V121.818H98.589V125.607H98.6834C98.8624 125.196 99.1358 124.869 99.5037 124.627C99.8716 124.385 100.352 124.264 100.945 124.264C101.469 124.264 101.927 124.372 102.318 124.587C102.712 124.803 103.017 125.124 103.232 125.552C103.451 125.976 103.561 126.506 103.561 127.143V132H102.074V127.322C102.074 126.762 101.93 126.327 101.642 126.019C101.353 125.708 100.952 125.552 100.438 125.552C100.087 125.552 99.7722 125.626 99.4938 125.776C99.2187 125.925 99.0016 126.143 98.8425 126.432C98.6867 126.717 98.6088 127.062 98.6088 127.466Z" fill="white"/>
<path d="M62.5002 13.5C60.1002 8.7 62.1669 4.5 63.5002 3L80.5 18L78 65C78.5 69 75.5 82.5 68.5 82.5C62.9 82.5 61.5 71.8333 61.5 66.5L62.5002 13.5Z" fill="#5A606A" stroke="#83878B" stroke-width="0.4"/>
<path d="M58.0002 25.5C58.8002 18.7 64.3335 10.6667 67.0002 7.5L76 16.5C73.6667 31.5 68.6 62.6 67.0002 67C65.0004 72.5 62.5 70.5 62 68C61.5 65.5 57.0002 51.5 56.5002 47.5C56.0002 43.5 57.0002 34 58.0002 25.5Z" fill="#5A606A" stroke="#83878B" stroke-width="0.4"/>
<path d="M73.5 34.5C69.5 25.7 69.5 16.5 70 13L83 25C83.3333 28.5 83.6 36.5 82 40.5C80.4 44.5 79 51.5 78.5 54.5C78.5 51.5 77.5 43.3 73.5 34.5Z" fill="#5A606A" stroke="#83878B" stroke-width="0.4"/>
<path d="M68.5 82.5C67.1753 82.5 66.0856 81.9031 65.1938 80.9211C64.9497 80.6522 64.7846 80.3247 64.6939 79.973C64.1327 77.7988 63.3832 72.9995 64 67.5C64.5402 62.6838 68.6894 62.0557 71.8846 62.5126C73.1686 62.6962 74 63.8772 74 65.1742V68.5C74 71.2486 73.4686 77.4021 71.4055 81.1975C71.1566 81.6554 70.7625 82.0235 70.271 82.1966C69.712 82.3935 69.1218 82.5 68.5 82.5Z" fill="#64696E" stroke="#83878B" stroke-width="0.4"/>
<path d="M78.5002 54.5C78.5002 51.5 77.5003 43.3 73.5003 34.5C72.6665 32.6656 72.0065 30.8139 71.4886 29C70.4925 38 68.7003 58.6 69.5003 69C70.0002 72.1667 72.3 76.5 77.5 68.5L77.9745 67.5C78.0707 66.4916 78.0786 65.6285 78 65L78.5283 55.068L78.5002 54.5Z" fill="#64696E" stroke="#83878B" stroke-width="0.4"/>
<path d="M60.5 26.5C62.9 21.3 65.8333 11.6667 67 7.5L76.5 18L71 64.5C69.4 68.1 67.6667 66.6667 67 65.5C57 45.5 57.5 33 60.5 26.5Z" fill="#64696E" stroke="#83878B" stroke-width="0.4"/>
<path d="M105.12 13.5C107.52 8.7 105.453 4.5 104.12 3L87.1201 18L89.6201 65C89.1201 69 92.1201 82.5 99.1201 82.5C104.72 82.5 106.12 71.8333 106.12 66.5L105.12 13.5Z" fill="#5A606A" stroke="#83878B" stroke-width="0.4"/>
<path d="M109.62 25.5C108.82 18.7 103.287 10.6667 100.62 7.5L91.6201 16.5C93.9535 31.5 99.0201 62.6 100.62 67C102.62 72.5 105.12 70.5 105.62 68C106.12 65.5 110.62 51.5 111.12 47.5C111.62 43.5 110.62 34 109.62 25.5Z" fill="#5A606A" stroke="#83878B" stroke-width="0.4"/>
<path d="M94.1201 34.5C98.1201 25.7 98.1201 16.5 97.6201 13L84.6201 25C84.2868 28.5 84.0201 36.5 85.6201 40.5C87.2201 44.5 88.6201 51.5 89.1201 54.5C89.1201 51.5 90.1201 43.3 94.1201 34.5Z" fill="#5A606A" stroke="#83878B" stroke-width="0.4"/>
<path d="M99.1201 82.5C100.445 82.5 101.535 81.9031 102.426 80.9211C102.67 80.6522 102.835 80.3247 102.926 79.973C103.487 77.7988 104.237 72.9995 103.62 67.5C103.08 62.6838 98.9307 62.0557 95.7355 62.5126C94.4515 62.6962 93.6201 63.8772 93.6201 65.1742V68.5C93.6201 71.2486 94.1515 77.4021 96.2146 81.1975C96.4635 81.6554 96.8577 82.0235 97.3492 82.1966C97.9081 82.3935 98.4983 82.5 99.1201 82.5Z" fill="#64696E" stroke="#83878B" stroke-width="0.4"/>
<path d="M89.1199 54.5C89.1199 51.5 90.1198 43.3 94.1198 34.5C94.9536 32.6656 95.6136 30.8139 96.1315 29C97.1276 38 98.9198 58.6 98.1198 69C97.6199 72.1667 95.3201 76.5 90.1201 68.5L89.6456 67.5C89.5494 66.4916 89.5416 65.6285 89.6201 65L89.0918 55.068L89.1199 54.5Z" fill="#64696E" stroke="#83878B" stroke-width="0.4"/>
<path d="M107.12 26.5C104.72 21.3 101.787 11.6667 100.62 7.5L91.1201 18L96.6201 64.5C98.2201 68.1 99.9535 66.6667 100.62 65.5C110.62 45.5 110.12 33 107.12 26.5Z" fill="#64696E" stroke="#83878B" stroke-width="0.4"/>
<path d="M58.0002 25.5C58.8002 18.7 64.3335 10.6667 67.0002 7.5L76 16.5C73.6667 31.5 68.6 62.6 67.0002 67C65.0004 72.5 62.5 70.5 62 68C61.5 65.5 57.0002 51.5 56.5002 47.5C56.0002 43.5 57.0002 34 58.0002 25.5Z" fill="#E0FE10" stroke="#83878B" stroke-width="0.4"/>
<path d="M73.5 34.5C69.5 25.7 69.5 16.5 70 13L83 25C83.3333 28.5 83.6 36.5 82 40.5C80.4 44.5 79 51.5 78.5 54.5C78.5 51.5 77.5 43.3 73.5 34.5Z" fill="#E0FE10" stroke="#83878B" stroke-width="0.4"/>
<path d="M78.5002 54.5C78.5002 51.5 77.5003 43.3 73.5003 34.5C72.6665 32.6656 72.0065 30.8139 71.4886 29C70.4925 38 68.7003 58.6 69.5003 69C70.0002 72.1667 72.3 76.5 77.5 68.5L77.9745 67.5C78.0707 66.4916 78.0786 65.6285 78 65L78.5283 55.068L78.5002 54.5Z" fill="#E0FE10" stroke="#83878B" stroke-width="0.4"/>
<path d="M60.5 26.5C62.9 21.3 65.8333 11.6667 67 7.5L76.5 18L71 64.5C69.4 68.1 67.6667 66.6667 67 65.5C57 45.5 57.5 33 60.5 26.5Z" fill="#E0FE10" stroke="#83878B" stroke-width="0.4"/>
<path d="M109.62 25.5C108.82 18.7 103.287 10.6667 100.62 7.5L91.6201 16.5C93.9535 31.5 99.0201 62.6 100.62 67C102.62 72.5 105.12 70.5 105.62 68C106.12 65.5 110.62 51.5 111.12 47.5C111.62 43.5 110.62 34 109.62 25.5Z" fill="#E0FE10" stroke="#83878B" stroke-width="0.4"/>
<path d="M94.1201 34.5C98.1201 25.7 98.1201 16.5 97.6201 13L84.6201 25C84.2868 28.5 84.0201 36.5 85.6201 40.5C87.2201 44.5 88.6201 51.5 89.1201 54.5C89.1201 51.5 90.1201 43.3 94.1201 34.5Z" fill="#E0FE10" stroke="#83878B" stroke-width="0.4"/>
<path d="M89.1199 54.5C89.1199 51.5 90.1198 43.3 94.1198 34.5C94.9536 32.6656 95.6136 30.8139 96.1315 29C97.1276 38 98.9198 58.6 98.1198 69C97.6199 72.1667 95.3201 76.5 90.1201 68.5L89.6456 67.5C89.5494 66.4916 89.5416 65.6285 89.6201 65L89.0918 55.068L89.1199 54.5Z" fill="#E0FE10" stroke="#83878B" stroke-width="0.4"/>
<path d="M107.12 26.5C104.72 21.3 101.787 11.6667 100.62 7.5L91.1201 18L96.6201 64.5C98.2201 68.1 99.9535 66.6667 100.62 65.5C110.62 45.5 110.12 33 107.12 26.5Z" fill="#E0FE10" stroke="#83878B" stroke-width="0.4"/>
<path d="M72.001 -59.5115L78.5041 -71.8673C78.6075 -72.0637 78.7732 -72.2201 78.9752 -72.312L85.153 -75.12C85.6427 -75.3426 86.2207 -75.138 86.4612 -74.6569L91.3879 -64.8036L98.0473 -46.1571C98.0723 -46.0872 98.0894 -46.0148 98.0983 -45.9411L100.748 -24.0829C100.758 -23.9959 100.757 -23.9079 100.745 -23.8211L96.1188 8.56219C96.0907 8.75861 96.0049 8.94225 95.8722 9.08973L84.7064 21.4961C84.3306 21.9136 83.6848 21.9399 83.2765 21.5542L72.1757 11.0701C72.039 10.9411 71.9415 10.7761 71.8943 10.5941L67.2966 -7.13998C67.2846 -7.18615 67.276 -7.23312 67.2707 -7.28052L65.281 -25.1879C65.2734 -25.2566 65.2729 -25.3259 65.2795 -25.3947L67.267 -45.9318C67.2747 -46.0116 67.292 -46.0902 67.3185 -46.1659L71.9421 -59.3761C71.9584 -59.4226 71.9781 -59.4679 72.001 -59.5115Z" fill="#5A606A"/>
<path d="M34.2069 17.9832L33.5831 17.3594C33.3036 17.08 33.215 16.6622 33.3568 16.2934L39.669 -0.118399C39.7659 -0.370253 39.9604 -0.57227 40.2085 -0.678565L48.3297 -4.15909C48.8164 -4.36766 49.3685 -4.14619 49.4042 -3.61791C49.5308 -1.73879 48.5261 1.72036 45.8478 3.50589C42.8782 5.48565 38.5369 12.9521 35.7806 17.7743C35.4534 18.3468 34.6731 18.4495 34.2069 17.9832Z" fill="#64696E" stroke="#83878B" stroke-width="0.4" stroke-linejoin="round"/>
<path d="M38.7659 -16.2386C31.8877 -8.91602 29.9274 7.44878 29.7841 15.9042C29.7747 16.4564 30.2231 16.8999 30.7754 16.8999H33.8453C34.224 16.8999 34.5651 16.6899 34.7149 16.3421C35.9058 13.5767 39.9906 3.1099 41.83 -1.18207C43.2629 -4.52549 41.6087 -11.6657 40.2838 -15.8647C40.0717 -16.537 39.2486 -16.7525 38.7659 -16.2386Z" fill="#64696E" stroke="#83878B" stroke-width="0.4" stroke-linejoin="round"/>
<path d="M133.639 17.9832L134.263 17.3594C134.542 17.08 134.631 16.6622 134.489 16.2934L128.177 -0.118399C128.08 -0.370253 127.885 -0.57227 127.637 -0.678565L119.516 -4.15909C119.029 -4.36766 118.477 -4.14619 118.442 -3.61791C118.315 -1.73879 119.32 1.72036 121.998 3.50589C124.967 5.48565 129.309 12.9521 132.065 17.7743C132.392 18.3468 133.173 18.4495 133.639 17.9832Z" fill="#64696E" stroke="#83878B" stroke-width="0.4" stroke-linejoin="round"/>
<path d="M129.08 -16.2386C135.958 -8.91602 137.918 7.44878 138.062 15.9042C138.071 16.4564 137.623 16.8999 137.07 16.8999H134C133.622 16.8999 133.281 16.6899 133.131 16.3421C131.94 13.5767 127.855 3.1099 126.016 -1.18207C124.583 -4.52549 126.237 -11.6657 127.562 -15.8647C127.774 -16.537 128.597 -16.7525 129.08 -16.2386Z" fill="#64696E" stroke="#83878B" stroke-width="0.4" stroke-linejoin="round"/>
<path d="M62.5903 -17.9246C63.26 -16.1387 64.4655 -11.6294 63.9297 -7.87905C63.26 -3.19114 62.5903 0.157361 63.26 3.50587C63.9197 6.80402 77.5736 24.3959 82.4636 27.4839C82.6108 27.5768 82.7729 27.6151 82.9469 27.6151H84.2905C84.5472 27.6151 84.7903 27.5205 84.9752 27.3424C89.7625 22.7338 99.6773 12.0043 103.393 3.61805C103.426 3.54259 103.449 3.46703 103.462 3.38557C103.901 0.684341 104.483 -5.09467 103.48 -7.77982C103.455 -7.84713 103.436 -7.91747 103.424 -7.9884C102.792 -11.8905 103.859 -11.5543 105.451 -17.9246C104.395 -13.1734 99.3516 -9.33253 96.8548 -7.93959C96.7807 -7.89822 96.7033 -7.86873 96.621 -7.84759C93.0938 -6.94106 89.9436 -5.08069 88.2231 -3.84571C87.7506 -3.50656 87.0811 -3.59459 86.743 -4.06786L84.8345 -6.73982C84.4357 -7.29817 83.6058 -7.29817 83.207 -6.73982L81.2985 -4.06786C80.9604 -3.59459 80.2909 -3.50656 79.8184 -3.84571C78.098 -5.0807 74.9477 -6.94106 71.4205 -7.84759C71.3383 -7.86873 71.2609 -7.89822 71.1867 -7.93959C68.69 -9.33253 63.6462 -13.1734 62.5903 -17.9246Z" stroke="#83878B" stroke-width="0.4" stroke-linejoin="round"/>
<path d="M87.3695 -3.19112C88.5552 -4.17924 91.6305 -6.25204 95.2942 -7.45807C95.9747 -7.6821 96.6208 -7.09824 96.4943 -6.39301C94.908 2.44894 90.5994 17.7332 84.0207 18.2393C75.8026 18.8715 70.5684 -0.785042 71.134 -6.93364C71.1834 -7.47069 71.7128 -7.77738 72.2292 -7.62168C76.1192 -6.44866 79.4312 -4.22553 80.6725 -3.19112L83.2073 -6.7398C83.6061 -7.29815 84.4359 -7.29815 84.8347 -6.7398L87.3695 -3.19112Z" fill="#64696E"/>
<path d="M87.3695 -3.19112C88.5552 -4.17924 91.6305 -6.25204 95.2942 -7.45807C95.9747 -7.6821 96.6208 -7.09824 96.4943 -6.39301C94.908 2.44894 90.5994 17.7332 84.0207 18.2393M87.3695 -3.19112L84.8347 -6.7398C84.4359 -7.29815 83.6061 -7.29815 83.2073 -6.7398L80.6725 -3.19112M87.3695 -3.19112L84.0207 0.157381M80.6725 -3.19112C79.4312 -4.22553 76.1192 -6.44866 72.2292 -7.62168C71.7128 -7.77738 71.1834 -7.47069 71.134 -6.93364C70.5684 -0.785042 75.8026 18.8715 84.0207 18.2393M80.6725 -3.19112L84.0207 0.157381M84.0207 18.2393V0.157381" stroke="#83878B" stroke-width="0.4" stroke-linejoin="round"/>
<path d="M62.5903 -17.9246C62.7432 -17.5169 62.924 -16.9674 63.1056 -16.3174C64.6401 -12.6466 68.3068 -9.69315 70.6062 -8.28043C71.0048 -8.03555 71.2045 -7.56831 71.1512 -7.10354C70.47 -1.15662 75.7254 18.8774 84.0208 18.2393C90.8567 17.7134 95.2411 1.23142 96.6676 -7.39911C96.7182 -7.70533 96.9041 -7.96369 97.1714 -8.12145C99.6532 -9.58614 104.072 -13.0767 105.315 -17.3897C105.36 -17.5626 105.405 -17.7408 105.451 -17.9246C105.411 -17.7449 105.366 -17.5666 105.315 -17.3897C103.798 -11.5702 102.81 -11.7779 103.424 -7.9884C103.436 -7.91747 103.455 -7.84713 103.48 -7.77982C104.483 -5.09467 103.901 0.684341 103.462 3.38557C103.449 3.46703 103.426 3.54259 103.393 3.61805C99.6773 12.0043 89.7626 22.7338 84.9752 27.3424C84.7903 27.5205 84.5472 27.6151 84.2905 27.6151H82.9469C82.7729 27.6151 82.6108 27.5768 82.4636 27.4839C77.5736 24.3959 63.9197 6.80402 63.26 3.50587C62.5903 0.157362 63.26 -3.19114 63.9297 -7.87905C64.3432 -10.7734 63.7196 -14.1197 63.1056 -16.3174C62.8874 -16.8394 62.7123 -17.3759 62.5903 -17.9246Z" fill="#5A606A" stroke="#83878B" stroke-width="0.4" stroke-linejoin="round"/>
<path d="M23.9797 39H18.6263C18.4711 39 18.3112 38.9708 18.1949 38.8681C16.4772 37.3515 19.7965 29.0367 21.7388 24.9363C20.8459 24.9363 18.5242 25.0702 16.3812 25.606C13.7024 26.2757 13.7024 24.2666 14.3721 23.5969C15.0418 22.9272 19.06 22.2575 21.0691 20.2484C22.6763 18.6411 27.5428 17.3463 29.7752 16.8998C33.468 16.4382 34.7746 17.6006 35.0655 18.5024C35.147 18.7548 35.2344 19.0296 35.2767 19.2914C35.478 20.5369 34.8803 24.1619 34.4889 26.1459C34.4717 26.2331 34.4447 26.3131 34.4038 26.3921C32.7792 29.5308 27.4639 35.6727 24.7128 38.6787C24.5244 38.8846 24.2588 39 23.9797 39Z" fill="#5A606A"/>
<path d="M21.7388 24.9363C20.8459 24.9363 18.5242 25.0702 16.3812 25.606C13.7024 26.2757 13.7024 24.2666 14.3721 23.5969C15.0418 22.9272 19.06 22.2575 21.0691 20.2484C22.6763 18.6411 27.5428 17.3463 29.7752 16.8998C33.468 16.4382 34.7746 17.6006 35.0655 18.5024C35.147 18.7548 35.2344 19.0296 35.2767 19.2914C35.478 20.5369 34.8803 24.1619 34.4889 26.1459C34.4717 26.2331 34.4447 26.3131 34.4038 26.3921C32.7792 29.5308 27.4639 35.6727 24.7128 38.6787C24.5244 38.8846 24.2588 39 23.9797 39H18.6263C18.4711 39 18.3112 38.9708 18.1949 38.8681C16.4772 37.3515 19.7965 29.0367 21.7388 24.9363ZM21.7388 24.9363C22.5647 24.5233 24.6128 23.843 26.6113 24.1671C26.9194 24.217 27.2395 24.1521 27.4832 23.9572L30.4449 21.5878" stroke="#83878B" stroke-width="0.4" stroke-linejoin="round"/>
<path d="M143.577 39H148.93C149.086 39 149.245 38.9708 149.362 38.8681C151.079 37.3515 147.76 29.0367 145.818 24.9363C146.711 24.9363 149.032 25.0702 151.175 25.606C153.854 26.2757 153.854 24.2666 153.185 23.5969C152.515 22.9272 148.497 22.2575 146.488 20.2484C144.88 18.6411 140.014 17.3463 137.781 16.8998C134.089 16.4382 132.782 17.6006 132.491 18.5024C132.41 18.7548 132.322 19.0296 132.28 19.2914C132.079 20.5369 132.676 24.1619 133.068 26.1459C133.085 26.2331 133.112 26.3131 133.153 26.3921C134.777 29.5308 140.093 35.6727 142.844 38.6787C143.032 38.8846 143.298 39 143.577 39Z" fill="#5A606A"/>
<path d="M145.818 24.9363C146.711 24.9363 149.032 25.0702 151.175 25.606C153.854 26.2757 153.854 24.2666 153.185 23.5969C152.515 22.9272 148.497 22.2575 146.488 20.2484C144.88 18.6411 140.014 17.3463 137.781 16.8998C134.089 16.4382 132.782 17.6006 132.491 18.5024C132.41 18.7548 132.322 19.0296 132.28 19.2914C132.079 20.5369 132.676 24.1619 133.068 26.1459C133.085 26.2331 133.112 26.3131 133.153 26.3921C134.777 29.5308 140.093 35.6727 142.844 38.6787C143.032 38.8846 143.298 39 143.577 39H148.93C149.086 39 149.245 38.9708 149.362 38.8681C151.079 37.3515 147.76 29.0367 145.818 24.9363ZM145.818 24.9363C144.992 24.5233 142.944 23.843 140.945 24.1671C140.637 24.217 140.317 24.1521 140.073 23.9572L137.112 21.5878" stroke="#83878B" stroke-width="0.4" stroke-linejoin="round"/>
<path d="M86.877 -3.88049L84.8346 -6.7398C84.4358 -7.29815 83.606 -7.29815 83.2071 -6.7398L81.1647 -3.88043C80.8806 -3.48266 80.9257 -2.93778 81.2713 -2.59211L83.3135 -0.549759C83.704 -0.159216 84.3372 -0.159187 84.7277 -0.549693L86.7703 -2.59211C87.116 -2.93777 87.1611 -3.48269 86.877 -3.88049Z" fill="#5A606A" stroke="#83878B" stroke-width="0.4" stroke-linejoin="round"/>
</g>
<defs>
<clipPath id="clip0_203_554">
<rect width="168" height="168" rx="16" fill="white"/>
</clipPath>
</defs>
</svg>
