<svg width="168" height="168" viewBox="0 0 168 168" fill="none" xmlns="http://www.w3.org/2000/svg">
<g clip-path="url(#clip0_236_222)">
<rect width="168" height="168" rx="16" fill="#141A1E"/>
<circle cx="84" cy="24" r="55" fill="#22282C"/>
<path d="M71.8956 -1.12081V2.19683C71.8956 2.94991 71.5192 3.65316 70.8926 4.07089C70.266 4.48862 69.8896 5.19188 69.8896 5.94495V7.62369C69.8896 8.78973 70.2678 9.92431 70.9675 10.8571L71.6463 11.7623C71.8123 11.9836 71.9938 12.1928 72.1893 12.3884L72.9198 13.1188C73.5484 13.7474 73.9015 14.6 73.9015 15.4889C73.9015 16.317 74.208 17.1157 74.762 17.7312L78.1375 21.4818C79.2717 22.742 80.8874 23.4616 82.5828 23.4616C84.2911 23.4616 85.9178 22.7311 87.0527 21.4543L89.1977 19.0412C90.1382 17.9832 90.9019 16.7805 91.4595 15.4794L92.153 13.8613C92.4653 13.1326 92.8746 12.4495 93.3698 11.8305L94.1405 10.8671C94.8899 9.93039 95.2982 8.7665 95.2982 7.56689V5.94495C95.2982 5.19187 94.9218 4.48862 94.2952 4.07089C93.6686 3.65316 93.2922 2.9499 93.2922 2.19683V-1.31187C93.2922 -3.44547 92.5178 -5.50655 91.1128 -7.11225L89.9452 -8.44669C89.0611 -9.45704 88.0494 -10.3686 86.846 -10.9639C83.977 -12.383 81.7921 -12.3564 78.7457 -10.8097C77.728 -10.293 76.8368 -9.56267 76.0297 -8.75562L74.3709 -7.09686C72.786 -5.51191 71.8956 -3.36226 71.8956 -1.12081Z" fill="#5A606A" stroke="#8281A1" stroke-width="0.668645" stroke-linejoin="round"/>
<path d="M76.5 21.6596V18.1596L78.6956 13.4024C79.186 12.34 80.2493 11.6596 81.4195 11.6596H83V18.1596V76.1596C83 78.6596 74 90.1596 71.5 90.6596C69.1667 88.6596 64.3 83.4596 63.5 78.6596C62.5 72.6596 58 73.1596 57.5 66.1596C57.1 60.5596 56.3333 56.1596 56 54.6596C57.8333 53.1596 62.4 48.8596 66 43.6596C64 40.4596 59.1667 37.9929 57 37.1596C57.8 34.3596 70.3333 25.6596 76.5 21.6596Z" fill="#64696E"/>
<path d="M66 43.6596C64 40.4596 59.1667 37.9929 57 37.1596C57.8 34.3596 70.3333 25.6596 76.5 21.6596V18.1596L78.6956 13.4024C79.186 12.34 80.2493 11.6596 81.4195 11.6596H83V18.1596V76.1596M66 43.6596C68.5 47.6596 72.5 59.6596 75 62.6596M66 43.6596C62.4 48.8596 57.8333 53.1596 56 54.6596M75 62.6596C77.5 65.6596 83 73.6596 83 76.1596M75 62.6596C73.6667 60.1596 68 55.0596 56 54.6596M83 76.1596C83 78.6596 74 90.1596 71.5 90.6596C69.1667 88.6596 64.3 83.4596 63.5 78.6596C62.5 72.6596 58 73.1596 57.5 66.1596C57.1 60.5596 56.3333 56.1596 56 54.6596" stroke="#83878B" stroke-width="0.4"/>
<path d="M83 76.1596C83 73.6596 77.5 65.6596 75 62.6596C73.6667 60.1596 68 55.0596 56 54.6596C56.3333 56.1596 57.1 60.5596 57.5 66.1596C58 73.1596 62.5 72.6596 63.5 78.6596C64.3 83.4596 69.1667 88.6596 71.5 90.6596C74 90.1596 83 78.6596 83 76.1596Z" fill="#5A606A" stroke="#83878B" stroke-width="0.4"/>
<path d="M66 43.6596C68.2526 47.2638 71.7231 57.3632 74.2168 61.5212C74.5603 61.9362 74.8198 62.3216 75 62.6596C74.7526 62.3628 74.4906 61.9778 74.2168 61.5212C72.0189 58.8666 66.3778 55.0055 56 54.6596C57.8333 53.1596 62.4 48.8596 66 43.6596Z" fill="#E0FE10" stroke="#83878B" stroke-width="0.4"/>
<path d="M56.0002 54.6596C56.3336 56.1596 57.1002 60.5596 57.5002 66.1596C56.5002 69.1596 52.5002 75.6596 44.5002 77.6596C43.3336 76.1596 41.5002 71.7596 43.5002 66.1596C45.5002 60.5596 47.5729 58.6365 49.7761 57.4994C51.7105 56.8839 53.8639 55.9743 56.0002 54.6596Z" fill="#5A606A" stroke="#83878B" stroke-width="0.4"/>
<path d="M66.0002 43.6596C64.0002 40.4596 59.1669 37.9929 57.0002 37.1596C54.6669 37.1596 49.3002 37.9596 46.5002 41.1596C43.0002 45.1596 42.0002 49.6596 43.5002 58.6596C45.5003 58.6596 50.8004 57.8596 56.0002 54.6596C57.8335 53.1596 62.4002 48.8596 66.0002 43.6596Z" fill="#64696E" stroke="#83878B" stroke-width="0.4"/>
<path d="M36.2503 74.9787C35.0989 67.8204 40.4979 61.1877 43.5001 58.6596C44.6784 58.6596 47.0025 58.3818 49.7761 57.4994C47.573 58.6365 45.5003 60.5596 43.5003 66.1596C42.9647 67.6592 42.704 69.0727 42.6318 70.3675L42.5 70.6596C40.8074 70.198 37.4669 70.5035 36.6492 74.9601C36.6084 75.1824 36.2862 75.2019 36.2503 74.9787Z" fill="#64696E" stroke="#83878B" stroke-width="0.4"/>
<path d="M36.6839 74.7801C37.5574 70.4953 40.8303 70.2043 42.4998 70.6596L42.6146 70.7866C42.5301 74.1171 43.6798 76.605 44.5001 77.6596L38.5864 83.5731C38.4765 83.3668 38.3587 83.173 38.2363 82.9923C37.5686 82.0066 36.3613 81.5951 35.1721 81.6516C34.6505 81.6764 34.1511 81.725 33.6729 81.7961L33.9998 81.1596L35.8777 77.4038C36.2884 76.5824 36.5004 75.68 36.6839 74.7801Z" fill="#64696E"/>
<path d="M38.4998 83.6596L38.5864 83.5731M38.5864 83.5731C38.4765 83.3668 38.3587 83.173 38.2363 82.9923C37.5686 82.0066 36.3613 81.5951 35.1721 81.6516C34.6505 81.6764 34.1511 81.725 33.6729 81.7961L33.9998 81.1596L35.8777 77.4038C36.2884 76.5824 36.5004 75.68 36.6839 74.7801C37.5574 70.4953 40.8303 70.2043 42.4998 70.6596L42.6146 70.7866C42.5301 74.1171 43.6798 76.605 44.5001 77.6596L38.5864 83.5731Z" stroke="#83878B" stroke-width="0.4"/>
<path d="M28 84.1596C28.8 79.3596 33.6667 75.4929 36 74.1596L36.1401 74.0897C36.1659 74.3849 36.2024 74.6813 36.2503 74.9787C36.284 75.1881 36.5698 75.1839 36.6386 74.9988C36.4648 75.8257 36.2552 76.6489 35.8777 77.4038L33.9998 81.1596L33.6729 81.7961C31.3193 82.1458 29.4762 83.0389 28 84.3055V84.1596Z" fill="#64696E"/>
<path d="M36.6492 74.9601C36.6084 75.1824 36.2862 75.2019 36.2503 74.9787C36.2024 74.6813 36.1659 74.3849 36.1401 74.0897L36 74.1596C33.6667 75.4929 28.8 79.3596 28 84.1596V84.3055C29.4762 83.0389 31.3193 82.1458 33.6729 81.7961L33.9998 81.1596L35.8777 77.4038C36.2611 76.6371 36.4713 75.7999 36.6468 74.9601" stroke="#83878B" stroke-width="0.4"/>
<path d="M22.5 94.6596C20.9 100.26 18.8333 105.993 18 108.16L22 108.16C22 105.36 26.6667 98.9929 29 96.1596C32.4676 91.625 36.0301 88.7032 39.3079 86.6349C39.3527 85.1453 38.8531 83.9025 38.2365 82.9923C37.5688 82.0066 36.3615 81.5951 35.1723 81.6516C27.1016 82.0349 24.3657 88.1297 22.5 94.6596Z" fill="#64696E" stroke="#83878B" stroke-width="0.4"/>
<path d="M46.9999 82.6596C50.9999 79.4793 52.6666 75.0011 52.9999 73.1596L53.1402 72.7803C51.0518 74.8421 48.2049 76.7334 44.5001 77.6596L38.5864 83.5731C39.0299 84.4057 39.3437 85.441 39.3078 86.6349C42.1742 84.8263 44.8228 83.6704 46.9999 82.6596Z" fill="#5A606A" stroke="#83878B" stroke-width="0.4"/>
<path d="M35 99.1596C43 94.3596 46.3333 86.1596 47 82.6596C42.3333 84.8263 35.5 87.6596 29 96.1596C26.6667 98.9929 22 105.36 22 108.16L23 108.66L24 109.66H25C26 107.66 30.5 101.86 35 99.1596Z" fill="#5A606A" stroke="#83878B" stroke-width="0.4"/>
<path d="M13.7532 129.776H7.73539C6.20417 129.011 7.54944 124.318 9.17354 120.16C9.81889 118.507 10.5083 116.939 11.0787 115.735C10.1871 115.735 7.86912 115.868 5.72946 116.403C3.05488 117.072 3.05488 115.066 3.72352 114.397C4.39217 113.729 8.40404 113.06 10.41 111.054C12.0147 109.449 16.8735 108.157 19.1024 107.711C23.3817 107.176 24.4515 108.825 24.4515 109.717C24.9864 110.252 24.2286 114.843 23.7829 117.072C23.0782 118.481 21.5741 120.544 19.8822 122.66C17.721 125.362 15.2533 128.151 13.7532 129.776Z" fill="#5A606A"/>
<path d="M11.0787 115.735C10.1871 115.735 7.86912 115.868 5.72946 116.403C3.05488 117.072 3.05488 115.066 3.72352 114.397C4.39217 113.729 8.40404 113.06 10.41 111.054C12.0147 109.449 16.8735 108.157 19.1024 107.711C23.3817 107.176 24.4515 108.825 24.4515 109.717C24.9864 110.252 24.2286 114.843 23.7829 117.072C23.0782 118.481 21.5741 120.544 19.8822 122.66M11.0787 115.735C11.9702 115.289 14.2882 114.531 16.4279 115.066L19.7711 112.391M11.0787 115.735C10.5083 116.939 9.81889 118.507 9.17354 120.16M9.17354 120.16C7.54944 124.318 6.20417 129.011 7.73539 129.776H13.7532C15.2533 128.151 17.721 125.362 19.8822 122.66M9.17354 120.16L10.41 120.66L11.5 121.66L13 122.16L14 122.66H19.8822" stroke="#8281A1" stroke-width="0.668645"/>
<path d="M89.5 21.6596V18.1596L87.3044 13.4024C86.814 12.34 85.7507 11.6596 84.5805 11.6596H83V18.1596V76.1596C83 78.6596 92 90.1596 94.5 90.6596C96.8333 88.6596 101.7 83.4596 102.5 78.6596C103.5 72.6596 108 73.1596 108.5 66.1596C108.9 60.5596 109.667 56.1596 110 54.6596C108.167 53.1596 103.6 48.8596 100 43.6596C102 40.4596 106.833 37.9929 109 37.1596C108.2 34.3596 95.6667 25.6596 89.5 21.6596Z" fill="#64696E"/>
<path d="M100 43.6596C102 40.4596 106.833 37.9929 109 37.1596C108.2 34.3596 95.6667 25.6596 89.5 21.6596V18.1596L87.3044 13.4024C86.814 12.34 85.7507 11.6596 84.5805 11.6596H83V18.1596V76.1596M100 43.6596C97.5 47.6596 93.5 59.6596 91 62.6596M100 43.6596C103.6 48.8596 108.167 53.1596 110 54.6596M91 62.6596C88.5 65.6596 83 73.6596 83 76.1596M91 62.6596C92.3333 60.1596 98 55.0596 110 54.6596M83 76.1596C83 78.6596 92 90.1596 94.5 90.6596C96.8333 88.6596 101.7 83.4596 102.5 78.6596C103.5 72.6596 108 73.1596 108.5 66.1596C108.9 60.5596 109.667 56.1596 110 54.6596" stroke="#83878B" stroke-width="0.4"/>
<path d="M83 76.1596C83 73.6596 88.5 65.6596 91 62.6596C92.3333 60.1596 98 55.0596 110 54.6596C109.667 56.1596 108.9 60.5596 108.5 66.1596C108 73.1596 103.5 72.6596 102.5 78.6596C101.7 83.4596 96.8333 88.6596 94.5 90.6596C92 90.1596 83 78.6596 83 76.1596Z" fill="#5A606A" stroke="#83878B" stroke-width="0.4"/>
<path d="M100 43.6596C97.7474 47.2638 94.2769 57.3632 91.7832 61.5212C91.4397 61.9362 91.1802 62.3216 91 62.6596C91.2474 62.3628 91.5094 61.9778 91.7832 61.5212C93.9811 58.8666 99.6222 55.0055 110 54.6596C108.167 53.1596 103.6 48.8596 100 43.6596Z" fill="#E0FE10" stroke="#83878B" stroke-width="0.4"/>
<path d="M110 54.6596C109.666 56.1596 108.9 60.5596 108.5 66.1596C109.5 69.1596 113.5 75.6596 121.5 77.6596C122.666 76.1596 124.5 71.7596 122.5 66.1596C120.5 60.5596 118.427 58.6365 116.224 57.4994C114.289 56.8839 112.136 55.9743 110 54.6596Z" fill="#5A606A" stroke="#83878B" stroke-width="0.4"/>
<path d="M99.9998 43.6596C102 40.4596 106.833 37.9929 109 37.1596C111.333 37.1596 116.7 37.9596 119.5 41.1596C123 45.1596 124 49.6596 122.5 58.6596C120.5 58.6596 115.2 57.8596 110 54.6596C108.166 53.1596 103.6 48.8596 99.9998 43.6596Z" fill="#64696E" stroke="#83878B" stroke-width="0.4"/>
<path d="M129.75 74.9787C130.901 67.8204 125.502 61.1877 122.5 58.6596C121.322 58.6596 118.998 58.3818 116.224 57.4994C118.427 58.6365 120.5 60.5596 122.5 66.1596C123.035 67.6592 123.296 69.0727 123.368 70.3675L123.5 70.6596C125.193 70.198 128.533 70.5035 129.351 74.9601C129.392 75.1824 129.714 75.2019 129.75 74.9787Z" fill="#64696E" stroke="#83878B" stroke-width="0.4"/>
<path d="M129.316 74.7801C128.443 70.4953 125.17 70.2043 123.5 70.6596L123.385 70.7866C123.47 74.1171 122.32 76.605 121.5 77.6596L127.414 83.5731C127.523 83.3668 127.641 83.173 127.764 82.9923C128.431 82.0066 129.639 81.5951 130.828 81.6516C131.35 81.6764 131.849 81.725 132.327 81.7961L132 81.1596L130.122 77.4038C129.712 76.5824 129.5 75.68 129.316 74.7801Z" fill="#64696E"/>
<path d="M127.5 83.6596L127.414 83.5731M127.414 83.5731C127.523 83.3668 127.641 83.173 127.764 82.9923C128.431 82.0066 129.639 81.5951 130.828 81.6516C131.35 81.6764 131.849 81.725 132.327 81.7961L132 81.1596L130.122 77.4038C129.712 76.5824 129.5 75.68 129.316 74.7801C128.443 70.4953 125.17 70.2043 123.5 70.6596L123.385 70.7866C123.47 74.1171 122.32 76.605 121.5 77.6596L127.414 83.5731Z" stroke="#83878B" stroke-width="0.4"/>
<path d="M138 84.1596C137.2 79.3596 132.333 75.4929 130 74.1596L129.86 74.0897C129.834 74.3849 129.798 74.6813 129.75 74.9787C129.716 75.1881 129.43 75.1839 129.361 74.9988C129.535 75.8257 129.745 76.6489 130.122 77.4038L132 81.1596L132.327 81.7961C134.681 82.1458 136.524 83.0389 138 84.3055V84.1596Z" fill="#64696E"/>
<path d="M129.351 74.9601C129.392 75.1824 129.714 75.2019 129.75 74.9787C129.798 74.6813 129.834 74.3849 129.86 74.0897L130 74.1596C132.333 75.4929 137.2 79.3596 138 84.1596V84.3055C136.524 83.0389 134.681 82.1458 132.327 81.7961L132 81.1596L130.122 77.4038C129.739 76.6371 129.529 75.7999 129.353 74.9601" stroke="#83878B" stroke-width="0.4"/>
<path d="M143.5 94.6596C145.1 100.26 147.167 105.993 148 108.16L144 108.16C144 105.36 139.333 98.9929 137 96.1596C133.532 91.625 129.97 88.7032 126.692 86.6349C126.647 85.1453 127.147 83.9025 127.764 82.9923C128.431 82.0066 129.639 81.5951 130.828 81.6516C138.898 82.0349 141.634 88.1297 143.5 94.6596Z" fill="#64696E" stroke="#83878B" stroke-width="0.4"/>
<path d="M119 82.6596C115 79.4793 113.333 75.0011 113 73.1596L112.86 72.7803C114.948 74.8421 117.795 76.7334 121.5 77.6596L127.414 83.5731C126.97 84.4057 126.656 85.441 126.692 86.6349C123.826 84.8263 121.177 83.6704 119 82.6596Z" fill="#5A606A" stroke="#83878B" stroke-width="0.4"/>
<path d="M131 99.1596C123 94.3596 119.667 86.1596 119 82.6596C123.667 84.8263 130.5 87.6596 137 96.1596C139.333 98.9929 144 105.36 144 108.16L143 108.66L142 109.66H141C140 107.66 135.5 101.86 131 99.1596Z" fill="#5A606A" stroke="#83878B" stroke-width="0.4"/>
<path d="M152.247 129.776H158.265C159.796 129.011 158.451 124.318 156.826 120.16C156.181 118.507 155.492 116.939 154.921 115.735C155.813 115.735 158.131 115.868 160.271 116.403C162.945 117.072 162.945 115.066 162.276 114.397C161.608 113.729 157.596 113.06 155.59 111.054C153.985 109.449 149.126 108.157 146.898 107.711C142.618 107.176 141.548 108.825 141.548 109.717C141.014 110.252 141.771 114.843 142.217 117.072C142.922 118.481 144.426 120.544 146.118 122.66C148.279 125.362 150.747 128.151 152.247 129.776Z" fill="#5A606A"/>
<path d="M154.921 115.735C155.813 115.735 158.131 115.868 160.271 116.403C162.945 117.072 162.945 115.066 162.276 114.397C161.608 113.729 157.596 113.06 155.59 111.054C153.985 109.449 149.126 108.157 146.898 107.711C142.618 107.176 141.548 108.825 141.548 109.717C141.014 110.252 141.771 114.843 142.217 117.072C142.922 118.481 144.426 120.544 146.118 122.66M154.921 115.735C154.03 115.289 151.712 114.531 149.572 115.066L146.229 112.391M154.921 115.735C155.492 116.939 156.181 118.507 156.826 120.16M156.826 120.16C158.451 124.318 159.796 129.011 158.265 129.776H152.247C150.747 128.151 148.279 125.362 146.118 122.66M156.826 120.16L155.59 120.66L154.5 121.66L153 122.16L152 122.66H146.118" stroke="#8281A1" stroke-width="0.668645"/>
<path d="M71.5 90.6596C71.0621 91.9732 69.3062 93.4465 67.3963 94.7025C65.2438 96.118 62.4687 94.733 62.4503 92.1569C62.4165 87.4232 63.8129 83.9605 64.8271 82.4107C66.6531 85.9407 69.7716 89.1781 71.5 90.6596Z" fill="#64696E" stroke="#83878B" stroke-width="0.4"/>
<path d="M94.5 90.6596C94.9379 91.9732 96.6938 93.4465 98.6037 94.7025C100.756 96.118 103.531 94.733 103.55 92.1569C103.583 87.4232 102.187 83.9605 101.173 82.4107C99.3469 85.9407 96.2284 89.1781 94.5 90.6596Z" fill="#64696E" stroke="#83878B" stroke-width="0.4"/>
<path d="M71.4998 90.6596C73.9998 90.1596 82.9998 78.6596 82.9998 76.1596C82.9998 78.6596 91.9998 90.1596 94.4998 90.6596C94.8263 91.6389 95.8853 92.707 97.1945 93.7076C96.0579 93.8311 94.4405 94.2187 93.4996 95.1596C90.4294 97.6351 82.2202 101.071 73.3379 95.6922C72.7734 95.3503 72.281 94.8941 71.7084 94.5661C70.7994 94.0454 69.6648 93.801 68.8052 93.7076C70.1144 92.707 71.1734 91.6389 71.4998 90.6596Z" fill="#5A606A" stroke="#83878B" stroke-width="0.4"/>
<path d="M48.5141 132V121.818H52.1434C52.9322 121.818 53.5868 121.954 54.1072 122.226C54.6308 122.498 55.0219 122.874 55.2805 123.354C55.539 123.832 55.6682 124.384 55.6682 125.01C55.6682 125.633 55.5373 126.182 55.2755 126.656C55.017 127.126 54.6259 127.492 54.1022 127.754C53.5818 128.016 52.9272 128.147 52.1384 128.147H49.3891V126.825H51.9992C52.4964 126.825 52.9007 126.753 53.2123 126.611C53.5271 126.468 53.7575 126.261 53.9033 125.989C54.0492 125.718 54.1221 125.391 54.1221 125.01C54.1221 124.625 54.0475 124.292 53.8983 124.011C53.7525 123.729 53.5222 123.513 53.2073 123.364C52.8957 123.212 52.4864 123.136 51.9793 123.136H50.0503V132H48.5141ZM53.5404 127.406L56.056 132H54.306L51.8401 127.406H53.5404ZM58.9047 127.466V132H57.4182V121.818H58.8849V125.607H58.9793C59.1583 125.196 59.4317 124.869 59.7996 124.627C60.1675 124.385 60.6481 124.264 61.2414 124.264C61.7651 124.264 62.2224 124.372 62.6135 124.587C63.008 124.803 63.3129 125.124 63.5283 125.552C63.7471 125.976 63.8564 126.506 63.8564 127.143V132H62.3699V127.322C62.3699 126.762 62.2258 126.327 61.9374 126.019C61.6491 125.708 61.248 125.552 60.7343 125.552C60.383 125.552 60.0681 125.626 59.7897 125.776C59.5146 125.925 59.2975 126.143 59.1384 126.432C58.9826 126.717 58.9047 127.062 58.9047 127.466ZM69.0567 132.154C68.3408 132.154 67.7161 131.99 67.1824 131.662C66.6488 131.334 66.2345 130.875 65.9395 130.285C65.6446 129.695 65.4971 129.005 65.4971 128.217C65.4971 127.424 65.6446 126.732 65.9395 126.138C66.2345 125.545 66.6488 125.085 67.1824 124.756C67.7161 124.428 68.3408 124.264 69.0567 124.264C69.7726 124.264 70.3974 124.428 70.931 124.756C71.4646 125.085 71.8789 125.545 72.1739 126.138C72.4689 126.732 72.6164 127.424 72.6164 128.217C72.6164 129.005 72.4689 129.695 72.1739 130.285C71.8789 130.875 71.4646 131.334 70.931 131.662C70.3974 131.99 69.7726 132.154 69.0567 132.154ZM69.0617 130.906C69.5257 130.906 69.9102 130.784 70.2151 130.538C70.52 130.293 70.7454 129.967 70.8912 129.559C71.0404 129.151 71.115 128.702 71.115 128.212C71.115 127.724 71.0404 127.277 70.8912 126.869C70.7454 126.458 70.52 126.129 70.2151 125.88C69.9102 125.631 69.5257 125.507 69.0617 125.507C68.5944 125.507 68.2066 125.631 67.8983 125.88C67.5934 126.129 67.3664 126.458 67.2172 126.869C67.0714 127.277 66.9985 127.724 66.9985 128.212C66.9985 128.702 67.0714 129.151 67.2172 129.559C67.3664 129.967 67.5934 130.293 67.8983 130.538C68.2066 130.784 68.5944 130.906 69.0617 130.906ZM74.2757 132V124.364H75.7025V125.607H75.797C75.9561 125.186 76.2162 124.857 76.5775 124.622C76.9388 124.384 77.3713 124.264 77.8751 124.264C78.3855 124.264 78.8131 124.384 79.1578 124.622C79.5058 124.861 79.7626 125.189 79.9284 125.607H80.0079C80.1902 125.199 80.4802 124.874 80.8779 124.632C81.2757 124.387 81.7496 124.264 82.2998 124.264C82.9925 124.264 83.5576 124.481 83.9951 124.915C84.4359 125.35 84.6563 126.004 84.6563 126.879V132H83.1698V127.018C83.1698 126.501 83.029 126.127 82.7472 125.895C82.4655 125.663 82.1291 125.547 81.738 125.547C81.2541 125.547 80.8779 125.696 80.6095 125.994C80.341 126.289 80.2068 126.669 80.2068 127.133V132H78.7252V126.924C78.7252 126.51 78.596 126.177 78.3374 125.925C78.0789 125.673 77.7425 125.547 77.3282 125.547C77.0465 125.547 76.7863 125.621 76.5477 125.771C76.3124 125.916 76.1218 126.12 75.9759 126.382C75.8334 126.644 75.7622 126.947 75.7622 127.292V132H74.2757ZM86.768 132V121.818H88.2545V125.602H88.344C88.4302 125.442 88.5545 125.259 88.7169 125.05C88.8793 124.841 89.1047 124.659 89.393 124.503C89.6814 124.344 90.0625 124.264 90.5365 124.264C91.153 124.264 91.7032 124.42 92.1871 124.732C92.671 125.043 93.0505 125.492 93.3256 126.079C93.604 126.665 93.7432 127.371 93.7432 128.197C93.7432 129.022 93.6056 129.73 93.3305 130.32C93.0554 130.906 92.6776 131.359 92.197 131.677C91.7164 131.992 91.1679 132.149 90.5514 132.149C90.0874 132.149 89.7079 132.071 89.4129 131.915C89.1212 131.76 88.8925 131.577 88.7268 131.369C88.5611 131.16 88.4335 130.974 88.344 130.812H88.2197V132H86.768ZM88.2247 128.182C88.2247 128.719 88.3026 129.189 88.4584 129.594C88.6141 129.998 88.8395 130.315 89.1345 130.543C89.4295 130.769 89.7907 130.881 90.2183 130.881C90.6624 130.881 91.0336 130.764 91.3319 130.528C91.6302 130.29 91.8556 129.967 92.0081 129.559C92.1639 129.151 92.2417 128.692 92.2417 128.182C92.2417 127.678 92.1655 127.226 92.0131 126.825C91.8639 126.424 91.6385 126.107 91.3369 125.875C91.0386 125.643 90.6657 125.527 90.2183 125.527C89.7874 125.527 89.4229 125.638 89.1246 125.86C88.8296 126.082 88.6059 126.392 88.4534 126.79C88.3009 127.187 88.2247 127.652 88.2247 128.182ZM98.629 132.154C97.9131 132.154 97.2883 131.99 96.7547 131.662C96.2211 131.334 95.8068 130.875 95.5118 130.285C95.2168 129.695 95.0693 129.005 95.0693 128.217C95.0693 127.424 95.2168 126.732 95.5118 126.138C95.8068 125.545 96.2211 125.085 96.7547 124.756C97.2883 124.428 97.9131 124.264 98.629 124.264C99.3449 124.264 99.9697 124.428 100.503 124.756C101.037 125.085 101.451 125.545 101.746 126.138C102.041 126.732 102.189 127.424 102.189 128.217C102.189 129.005 102.041 129.695 101.746 130.285C101.451 130.875 101.037 131.334 100.503 131.662C99.9697 131.99 99.3449 132.154 98.629 132.154ZM98.634 130.906C99.098 130.906 99.4825 130.784 99.7874 130.538C100.092 130.293 100.318 129.967 100.464 129.559C100.613 129.151 100.687 128.702 100.687 128.212C100.687 127.724 100.613 127.277 100.464 126.869C100.318 126.458 100.092 126.129 99.7874 125.88C99.4825 125.631 99.098 125.507 98.634 125.507C98.1666 125.507 97.7789 125.631 97.4706 125.88C97.1657 126.129 96.9387 126.458 96.7895 126.869C96.6437 127.277 96.5708 127.724 96.5708 128.212C96.5708 128.702 96.6437 129.151 96.7895 129.559C96.9387 129.967 97.1657 130.293 97.4706 130.538C97.7789 130.784 98.1666 130.906 98.634 130.906ZM103.848 132V124.364H105.334V132H103.848ZM104.599 123.185C104.34 123.185 104.118 123.099 103.932 122.927C103.75 122.751 103.659 122.542 103.659 122.3C103.659 122.055 103.75 121.846 103.932 121.674C104.118 121.498 104.34 121.411 104.599 121.411C104.857 121.411 105.078 121.498 105.26 121.674C105.445 121.846 105.538 122.055 105.538 122.3C105.538 122.542 105.445 122.751 105.26 122.927C105.078 123.099 104.857 123.185 104.599 123.185ZM110.193 132.149C109.576 132.149 109.026 131.992 108.542 131.677C108.062 131.359 107.684 130.906 107.409 130.32C107.137 129.73 107.001 129.022 107.001 128.197C107.001 127.371 107.139 126.665 107.414 126.079C107.692 125.492 108.073 125.043 108.557 124.732C109.041 124.42 109.59 124.264 110.203 124.264C110.677 124.264 111.058 124.344 111.346 124.503C111.638 124.659 111.863 124.841 112.022 125.05C112.185 125.259 112.311 125.442 112.4 125.602H112.49V121.818H113.976V132H112.525V130.812H112.4C112.311 130.974 112.182 131.16 112.013 131.369C111.847 131.577 111.618 131.76 111.326 131.915C111.035 132.071 110.657 132.149 110.193 132.149ZM110.521 130.881C110.949 130.881 111.31 130.769 111.605 130.543C111.903 130.315 112.129 129.998 112.281 129.594C112.437 129.189 112.515 128.719 112.515 128.182C112.515 127.652 112.438 127.187 112.286 126.79C112.133 126.392 111.91 126.082 111.615 125.86C111.32 125.638 110.955 125.527 110.521 125.527C110.074 125.527 109.701 125.643 109.402 125.875C109.104 126.107 108.879 126.424 108.726 126.825C108.577 127.226 108.503 127.678 108.503 128.182C108.503 128.692 108.579 129.151 108.731 129.559C108.884 129.967 109.109 130.29 109.407 130.528C109.709 130.764 110.08 130.881 110.521 130.881ZM121.82 126.228L120.473 126.467C120.417 126.294 120.327 126.13 120.204 125.974C120.085 125.819 119.923 125.691 119.717 125.592C119.512 125.492 119.255 125.442 118.947 125.442C118.526 125.442 118.174 125.537 117.893 125.726C117.611 125.911 117.47 126.152 117.47 126.447C117.47 126.702 117.565 126.907 117.753 127.063C117.942 127.219 118.247 127.347 118.668 127.446L119.881 127.724C120.584 127.887 121.108 128.137 121.452 128.475C121.797 128.813 121.969 129.252 121.969 129.793C121.969 130.25 121.837 130.658 121.572 131.016C121.31 131.37 120.944 131.649 120.473 131.851C120.006 132.053 119.464 132.154 118.847 132.154C117.992 132.154 117.294 131.972 116.754 131.607C116.214 131.239 115.882 130.717 115.76 130.041L117.197 129.822C117.286 130.197 117.47 130.48 117.748 130.673C118.027 130.862 118.39 130.956 118.837 130.956C119.324 130.956 119.714 130.855 120.006 130.653C120.297 130.447 120.443 130.197 120.443 129.902C120.443 129.663 120.354 129.463 120.175 129.3C119.999 129.138 119.729 129.015 119.364 128.933L118.072 128.649C117.359 128.487 116.832 128.228 116.491 127.874C116.153 127.519 115.984 127.07 115.984 126.526C115.984 126.076 116.11 125.681 116.361 125.343C116.613 125.005 116.961 124.741 117.405 124.553C117.85 124.36 118.358 124.264 118.932 124.264C119.757 124.264 120.407 124.443 120.881 124.801C121.355 125.156 121.668 125.631 121.82 126.228Z" fill="white"/>
</g>
<defs>
<clipPath id="clip0_236_222">
<rect width="168" height="168" rx="16" fill="white"/>
</clipPath>
</defs>
</svg>
