<svg width="168" height="168" viewBox="0 0 168 168" fill="none" xmlns="http://www.w3.org/2000/svg">
<g clip-path="url(#clip0_203_693)">
<rect width="168" height="168" rx="16" fill="#141A1E"/>
<path d="M57.8704 123.141V121.818H65.7504V123.141H62.5735V132H61.0423V123.141H57.8704ZM66.5794 132V124.364H68.0162V125.577H68.0957C68.2349 125.166 68.4802 124.843 68.8315 124.607C69.1861 124.369 69.5872 124.249 70.0346 124.249C70.1274 124.249 70.2368 124.253 70.3627 124.259C70.492 124.266 70.5931 124.274 70.666 124.284V125.706C70.6064 125.689 70.5003 125.671 70.3478 125.651C70.1954 125.628 70.0429 125.616 69.8904 125.616C69.5391 125.616 69.2259 125.691 68.9508 125.84C68.679 125.986 68.4636 126.19 68.3045 126.452C68.1454 126.71 68.0659 127.005 68.0659 127.337V132H66.5794ZM71.9524 132V124.364H73.4389V132H71.9524ZM72.7031 123.185C72.4446 123.185 72.2225 123.099 72.0369 122.927C71.8546 122.751 71.7635 122.542 71.7635 122.3C71.7635 122.055 71.8546 121.846 72.0369 121.674C72.2225 121.498 72.4446 121.411 72.7031 121.411C72.9616 121.411 73.1821 121.498 73.3643 121.674C73.55 121.846 73.6428 122.055 73.6428 122.3C73.6428 122.542 73.55 122.751 73.3643 122.927C73.1821 123.099 72.9616 123.185 72.7031 123.185ZM78.6554 132.154C77.9163 132.154 77.2799 131.987 76.7463 131.652C76.216 131.314 75.8083 130.848 75.5233 130.255C75.2382 129.662 75.0957 128.982 75.0957 128.217C75.0957 127.441 75.2415 126.757 75.5332 126.163C75.8249 125.567 76.2359 125.101 76.7662 124.766C77.2965 124.432 77.9212 124.264 78.6404 124.264C79.2205 124.264 79.7375 124.372 80.1916 124.587C80.6457 124.799 81.0119 125.098 81.2903 125.482C81.572 125.867 81.7394 126.316 81.7924 126.83H80.3457C80.2662 126.472 80.0839 126.163 79.7988 125.905C79.5171 125.646 79.1393 125.517 78.6653 125.517C78.251 125.517 77.8881 125.626 77.5765 125.845C77.2683 126.061 77.028 126.369 76.8556 126.77C76.6833 127.168 76.5971 127.638 76.5971 128.182C76.5971 128.739 76.6816 129.219 76.8507 129.624C77.0197 130.028 77.2583 130.341 77.5666 130.563C77.8781 130.785 78.2444 130.896 78.6653 130.896C78.947 130.896 79.2022 130.845 79.4309 130.742C79.6629 130.636 79.8568 130.485 80.0126 130.29C80.1717 130.094 80.2827 129.859 80.3457 129.584H81.7924C81.7394 130.078 81.5787 130.518 81.3102 130.906C81.0417 131.294 80.6821 131.599 80.2314 131.821C79.7839 132.043 79.2586 132.154 78.6554 132.154ZM86.6733 132.154C85.9209 132.154 85.273 131.993 84.7294 131.672C84.1892 131.347 83.7715 130.891 83.4766 130.305C83.1849 129.715 83.0391 129.024 83.0391 128.232C83.0391 127.449 83.1849 126.76 83.4766 126.163C83.7715 125.567 84.1825 125.101 84.7095 124.766C85.2398 124.432 85.8596 124.264 86.5689 124.264C86.9998 124.264 87.4174 124.335 87.8217 124.478C88.2261 124.621 88.589 124.844 88.9105 125.149C89.232 125.454 89.4856 125.85 89.6712 126.337C89.8568 126.821 89.9496 127.41 89.9496 128.102V128.629H83.8793V127.516H88.4929C88.4929 127.125 88.4134 126.778 88.2543 126.477C88.0952 126.172 87.8714 125.931 87.5831 125.756C87.2981 125.58 86.9633 125.492 86.5788 125.492C86.1612 125.492 85.7966 125.595 85.4851 125.8C85.1768 126.003 84.9382 126.268 84.7692 126.596C84.6035 126.921 84.5206 127.274 84.5206 127.655V128.525C84.5206 129.035 84.6101 129.469 84.7891 129.827C84.9714 130.185 85.2249 130.459 85.5497 130.648C85.8745 130.833 86.254 130.926 86.6882 130.926C86.9699 130.926 87.2268 130.886 87.4588 130.807C87.6908 130.724 87.8913 130.601 88.0604 130.439C88.2294 130.277 88.3587 130.076 88.4482 129.837L89.8551 130.091C89.7424 130.505 89.5402 130.868 89.2486 131.18C88.9602 131.488 88.5973 131.728 88.1598 131.901C87.7256 132.07 87.2301 132.154 86.6733 132.154ZM91.5989 134.864V124.364H93.0506V125.602H93.1749C93.2611 125.442 93.3854 125.259 93.5478 125.05C93.7102 124.841 93.9355 124.659 94.2239 124.503C94.5123 124.344 94.8934 124.264 95.3674 124.264C95.9838 124.264 96.534 124.42 97.0179 124.732C97.5018 125.043 97.8813 125.492 98.1564 126.079C98.4348 126.665 98.574 127.371 98.574 128.197C98.574 129.022 98.4365 129.73 98.1614 130.32C97.8863 130.906 97.5085 131.359 97.0279 131.677C96.5473 131.992 95.9988 132.149 95.3823 132.149C94.9183 132.149 94.5388 132.071 94.2438 131.915C93.9521 131.76 93.7234 131.577 93.5577 131.369C93.392 131.16 93.2644 130.974 93.1749 130.812H93.0854V134.864H91.5989ZM93.0556 128.182C93.0556 128.719 93.1335 129.189 93.2892 129.594C93.445 129.998 93.6704 130.315 93.9654 130.543C94.2604 130.769 94.6216 130.881 95.0492 130.881C95.4933 130.881 95.8645 130.764 96.1628 130.528C96.4611 130.29 96.6865 129.967 96.839 129.559C96.9947 129.151 97.0726 128.692 97.0726 128.182C97.0726 127.678 96.9964 127.226 96.8439 126.825C96.6948 126.424 96.4694 126.107 96.1678 125.875C95.8695 125.643 95.4966 125.527 95.0492 125.527C94.6183 125.527 94.2537 125.638 93.9554 125.86C93.6605 126.082 93.4367 126.392 93.2843 126.79C93.1318 127.187 93.0556 127.652 93.0556 128.182ZM105.962 126.228L104.615 126.467C104.558 126.294 104.469 126.13 104.346 125.974C104.227 125.819 104.064 125.691 103.859 125.592C103.653 125.492 103.396 125.442 103.088 125.442C102.667 125.442 102.316 125.537 102.034 125.726C101.753 125.911 101.612 126.152 101.612 126.447C101.612 126.702 101.706 126.907 101.895 127.063C102.084 127.219 102.389 127.347 102.81 127.446L104.023 127.724C104.726 127.887 105.249 128.137 105.594 128.475C105.939 128.813 106.111 129.252 106.111 129.793C106.111 130.25 105.978 130.658 105.713 131.016C105.451 131.37 105.085 131.649 104.615 131.851C104.147 132.053 103.605 132.154 102.989 132.154C102.134 132.154 101.436 131.972 100.896 131.607C100.356 131.239 100.024 130.717 99.9015 130.041L101.338 129.822C101.428 130.197 101.612 130.48 101.89 130.673C102.169 130.862 102.531 130.956 102.979 130.956C103.466 130.956 103.856 130.855 104.147 130.653C104.439 130.447 104.585 130.197 104.585 129.902C104.585 129.663 104.495 129.463 104.316 129.3C104.141 129.138 103.87 129.015 103.506 128.933L102.213 128.649C101.501 128.487 100.974 128.228 100.632 127.874C100.294 127.519 100.125 127.07 100.125 126.526C100.125 126.076 100.251 125.681 100.503 125.343C100.755 125.005 101.103 124.741 101.547 124.553C101.991 124.36 102.5 124.264 103.073 124.264C103.899 124.264 104.548 124.443 105.022 124.801C105.496 125.156 105.809 125.631 105.962 126.228Z" fill="white"/>
<circle cx="84" cy="24" r="55" fill="#22282C"/>
<path d="M76.5 -18.3405V-21.8405L78.6956 -26.5976C79.186 -27.6601 80.2493 -28.3405 81.4195 -28.3405H83V-21.8405V36.1595C83 38.6595 74 50.1595 71.5 50.6595C69.1667 48.6595 64.3 43.4595 63.5 38.6595C62.5 32.6595 58 33.1595 57.5 26.1595C57.1 20.5595 56.3333 16.1595 56 14.6595C57.8333 13.1595 62.4 8.85955 66 3.65955C64 0.459545 59.1667 -2.00712 57 -2.84045C57.8 -5.64045 70.3333 -14.3405 76.5 -18.3405Z" fill="#64696E"/>
<path d="M66 3.65955C64 0.459546 59.1667 -2.00712 57 -2.84045C57.8 -5.64045 70.3333 -14.3405 76.5 -18.3405V-21.8405L78.6956 -26.5976C79.186 -27.6601 80.2493 -28.3405 81.4195 -28.3405H83V-21.8405V36.1595M66 3.65955C68.5 7.65955 72.5 19.6595 75 22.6595M66 3.65955C62.4 8.85955 57.8333 13.1595 56 14.6595M75 22.6595C77.5 25.6595 83 33.6595 83 36.1595M75 22.6595C73.6667 20.1595 68 15.0595 56 14.6595M83 36.1595C83 38.6595 74 50.1595 71.5 50.6595C69.1667 48.6595 64.3 43.4595 63.5 38.6595C62.5 32.6595 58 33.1595 57.5 26.1595C57.1 20.5595 56.3333 16.1595 56 14.6595" stroke="#83878B" stroke-width="0.4"/>
<path d="M83 36.1595C83 33.6595 77.5 25.6595 75 22.6595C73.6667 20.1595 68 15.0595 56 14.6595C56.3333 16.1595 57.1 20.5595 57.5 26.1595C58 33.1595 62.5 32.6595 63.5 38.6595C64.3 43.4595 69.1667 48.6595 71.5 50.6595C74 50.1595 83 38.6595 83 36.1595Z" fill="#5A606A" stroke="#83878B" stroke-width="0.4"/>
<path d="M66 3.65955C68.2526 7.26376 71.7231 17.3632 74.2168 21.5212C74.5603 21.9361 74.8198 22.3216 75 22.6595C74.7526 22.3627 74.4906 21.9778 74.2168 21.5212C72.0189 18.8666 66.3778 15.0055 56 14.6595C57.8333 13.1595 62.4 8.85955 66 3.65955Z" fill="#64696E" stroke="#83878B" stroke-width="0.4"/>
<path d="M56.0002 14.6595C56.3336 16.1595 57.1002 20.5595 57.5002 26.1595C56.5002 29.1595 52.5002 35.6595 44.5002 37.6595C43.3336 36.1595 41.5002 31.7595 43.5002 26.1595C45.5002 20.5595 47.5729 18.6365 49.7761 17.4993C51.7105 16.8839 53.8639 15.9743 56.0002 14.6595Z" fill="#E0FE10" stroke="#83878B" stroke-width="0.4"/>
<path d="M66.0002 3.65955C64.0002 0.459546 59.1669 -2.00712 57.0002 -2.84045C54.6669 -2.84045 49.3002 -2.04045 46.5002 1.15955C43.0002 5.15955 42.0002 9.65955 43.5002 18.6595C45.5003 18.6595 50.8004 17.8595 56.0002 14.6595C57.8335 13.1595 62.4002 8.85955 66.0002 3.65955Z" fill="#64696E" stroke="#83878B" stroke-width="0.4"/>
<path d="M36.2503 34.9787C35.0989 27.8204 40.4979 21.1877 43.5001 18.6596C44.6784 18.6596 47.0025 18.3818 49.7761 17.4994C47.573 18.6365 45.5003 20.5596 43.5003 26.1596C42.9647 27.6592 42.704 29.0727 42.6318 30.3675L42.5 30.6596C40.8074 30.198 37.4669 30.5035 36.6492 34.9601C36.6084 35.1825 36.2862 35.2019 36.2503 34.9787Z" fill="#E0FE10" stroke="#83878B" stroke-width="0.4"/>
<path d="M36.6839 34.7801C37.5574 30.4953 40.8303 30.2043 42.4998 30.6596L42.6146 30.7866C42.5301 34.1172 43.6798 36.6051 44.5001 37.6596L38.5864 43.5731C38.4765 43.3668 38.3587 43.173 38.2363 42.9923C37.5686 42.0066 36.3613 41.5952 35.1721 41.6516C34.6505 41.6764 34.1511 41.725 33.6729 41.7961L33.9998 41.1596L35.8777 37.4038C36.2884 36.5824 36.5004 35.68 36.6839 34.7801Z" fill="#64696E"/>
<path d="M38.4998 43.6596L38.5864 43.5731M38.5864 43.5731C38.4765 43.3668 38.3587 43.173 38.2363 42.9923C37.5686 42.0066 36.3613 41.5952 35.1721 41.6516C34.6505 41.6764 34.1511 41.725 33.6729 41.7961L33.9998 41.1596L35.8777 37.4038C36.2884 36.5824 36.5004 35.68 36.6839 34.7801C37.5574 30.4953 40.8303 30.2043 42.4998 30.6596L42.6146 30.7866C42.5301 34.1172 43.6798 36.6051 44.5001 37.6596L38.5864 43.5731Z" stroke="#83878B" stroke-width="0.4"/>
<path d="M28 44.1596C28.8 39.3596 33.6667 35.493 36 34.1596L36.1401 34.0897C36.1659 34.385 36.2024 34.6814 36.2503 34.9787C36.284 35.1882 36.5698 35.184 36.6386 34.9989C36.4648 35.8257 36.2552 36.649 35.8777 37.4038L33.9998 41.1596L33.6729 41.7961C31.3193 42.1459 29.4762 43.039 28 44.3055V44.1596Z" fill="#64696E"/>
<path d="M36.6492 34.9601C36.6084 35.1825 36.2862 35.2019 36.2503 34.9787C36.2024 34.6814 36.1659 34.385 36.1401 34.0897L36 34.1596C33.6667 35.493 28.8 39.3596 28 44.1596V44.3055C29.4762 43.039 31.3193 42.1459 33.6729 41.7961L33.9998 41.1596L35.8777 37.4038C36.2611 36.6372 36.4713 35.8 36.6468 34.9601" stroke="#83878B" stroke-width="0.4"/>
<path d="M22.5 54.6596C20.9 60.2596 18.8333 65.9929 18 68.1596L22 68.1596C22 65.3596 26.6667 58.9929 29 56.1596C32.4676 51.625 36.0301 48.7031 39.3079 46.6349C39.3527 45.1453 38.8531 43.9025 38.2365 42.9922C37.5688 42.0066 36.3615 41.5951 35.1723 41.6516C27.1016 42.0349 24.3657 48.1297 22.5 54.6596Z" fill="#64696E" stroke="#83878B" stroke-width="0.4"/>
<path d="M46.9999 42.6596C50.9999 39.4793 52.6666 35.0012 52.9999 33.1596L53.1402 32.7803C51.0518 34.8421 48.2049 36.7334 44.5001 37.6596L38.5864 43.5731C39.0299 44.4057 39.3437 45.441 39.3078 46.6349C42.1742 44.8263 44.8228 43.6704 46.9999 42.6596Z" fill="#5A606A" stroke="#83878B" stroke-width="0.4"/>
<path d="M35 59.1595C43 54.3595 46.3333 46.1595 47 42.6595C42.3333 44.8262 35.5 47.6595 29 56.1595C26.6667 58.9929 22 65.3595 22 68.1595L23 68.6595L24 69.6595H25C26 67.6595 30.5 61.8595 35 59.1595Z" fill="#5A606A" stroke="#83878B" stroke-width="0.4"/>
<path d="M13.7532 89.7762H7.73539C6.20417 89.0106 7.54944 84.3184 9.17354 80.1596C9.81889 78.5071 10.5083 76.9389 11.0787 75.7346C10.1871 75.7346 7.86912 75.8684 5.72946 76.4033C3.05488 77.0719 3.05488 75.066 3.72352 74.3974C4.39217 73.7287 8.40404 73.0601 10.41 71.0541C12.0147 69.4494 16.8735 68.1567 19.1024 67.7109C23.3817 67.176 24.4515 68.8253 24.4515 69.7168C24.9864 70.2518 24.2286 74.8431 23.7829 77.0719C23.0782 78.4813 21.5741 80.5439 19.8822 82.6596C17.721 85.362 15.2533 88.1511 13.7532 89.7762Z" fill="#5A606A"/>
<path d="M11.0787 75.7346C10.1871 75.7346 7.86912 75.8684 5.72946 76.4033C3.05488 77.0719 3.05488 75.066 3.72352 74.3974C4.39217 73.7287 8.40404 73.0601 10.41 71.0541C12.0147 69.4494 16.8735 68.1567 19.1024 67.7109C23.3817 67.176 24.4515 68.8253 24.4515 69.7168C24.9864 70.2518 24.2286 74.8431 23.7829 77.0719C23.0782 78.4813 21.5741 80.5439 19.8822 82.6596M11.0787 75.7346C11.9702 75.2889 14.2882 74.5311 16.4279 75.066L19.7711 72.3914M11.0787 75.7346C10.5083 76.9389 9.81889 78.5071 9.17354 80.1596M9.17354 80.1596C7.54944 84.3184 6.20417 89.0106 7.73539 89.7762H13.7532C15.2533 88.1511 17.721 85.362 19.8822 82.6596M9.17354 80.1596L10.41 80.6596L11.5 81.6596L13 82.1596L14 82.6596H19.8822" stroke="#8281A1" stroke-width="0.668645"/>
<path d="M89.5 -18.3405V-21.8405L87.3044 -26.5976C86.814 -27.6601 85.7507 -28.3405 84.5805 -28.3405H83V-21.8405V36.1595C83 38.6595 92 50.1595 94.5 50.6595C96.8333 48.6595 101.7 43.4595 102.5 38.6595C103.5 32.6595 108 33.1595 108.5 26.1595C108.9 20.5595 109.667 16.1595 110 14.6595C108.167 13.1595 103.6 8.85955 100 3.65955C102 0.459545 106.833 -2.00712 109 -2.84045C108.2 -5.64045 95.6667 -14.3405 89.5 -18.3405Z" fill="#64696E"/>
<path d="M100 3.65955C102 0.459546 106.833 -2.00712 109 -2.84045C108.2 -5.64045 95.6667 -14.3405 89.5 -18.3405V-21.8405L87.3044 -26.5976C86.814 -27.6601 85.7507 -28.3405 84.5805 -28.3405H83V-21.8405V36.1595M100 3.65955C97.5 7.65955 93.5 19.6595 91 22.6595M100 3.65955C103.6 8.85955 108.167 13.1595 110 14.6595M91 22.6595C88.5 25.6595 83 33.6595 83 36.1595M91 22.6595C92.3333 20.1595 98 15.0595 110 14.6595M83 36.1595C83 38.6595 92 50.1595 94.5 50.6595C96.8333 48.6595 101.7 43.4595 102.5 38.6595C103.5 32.6595 108 33.1595 108.5 26.1595C108.9 20.5595 109.667 16.1595 110 14.6595" stroke="#83878B" stroke-width="0.4"/>
<path d="M83 36.1595C83 33.6595 88.5 25.6595 91 22.6595C92.3333 20.1595 98 15.0595 110 14.6595C109.667 16.1595 108.9 20.5595 108.5 26.1595C108 33.1595 103.5 32.6595 102.5 38.6595C101.7 43.4595 96.8333 48.6595 94.5 50.6595C92 50.1595 83 38.6595 83 36.1595Z" fill="#5A606A" stroke="#83878B" stroke-width="0.4"/>
<path d="M100 3.65955C97.7474 7.26376 94.2769 17.3632 91.7832 21.5212C91.4397 21.9361 91.1802 22.3216 91 22.6595C91.2474 22.3627 91.5094 21.9778 91.7832 21.5212C93.9811 18.8666 99.6222 15.0055 110 14.6595C108.167 13.1595 103.6 8.85955 100 3.65955Z" fill="#64696E" stroke="#83878B" stroke-width="0.4"/>
<path d="M110 14.6595C109.666 16.1595 108.9 20.5595 108.5 26.1595C109.5 29.1595 113.5 35.6595 121.5 37.6595C122.666 36.1595 124.5 31.7595 122.5 26.1595C120.5 20.5595 118.427 18.6365 116.224 17.4993C114.289 16.8839 112.136 15.9743 110 14.6595Z" fill="#E0FE10" stroke="#83878B" stroke-width="0.4"/>
<path d="M99.9998 3.65955C102 0.459546 106.833 -2.00712 109 -2.84045C111.333 -2.84045 116.7 -2.04045 119.5 1.15955C123 5.15955 124 9.65955 122.5 18.6595C120.5 18.6595 115.2 17.8595 110 14.6595C108.166 13.1595 103.6 8.85955 99.9998 3.65955Z" fill="#64696E" stroke="#83878B" stroke-width="0.4"/>
<path d="M129.75 34.9787C130.901 27.8204 125.502 21.1877 122.5 18.6596C121.322 18.6596 118.998 18.3818 116.224 17.4994C118.427 18.6365 120.5 20.5596 122.5 26.1596C123.035 27.6592 123.296 29.0727 123.368 30.3675L123.5 30.6596C125.193 30.198 128.533 30.5035 129.351 34.9601C129.392 35.1825 129.714 35.2019 129.75 34.9787Z" fill="#E0FE10" stroke="#83878B" stroke-width="0.4"/>
<path d="M129.316 34.7801C128.443 30.4953 125.17 30.2043 123.5 30.6596L123.385 30.7866C123.47 34.1172 122.32 36.6051 121.5 37.6596L127.414 43.5731C127.523 43.3668 127.641 43.173 127.764 42.9923C128.431 42.0066 129.639 41.5952 130.828 41.6516C131.35 41.6764 131.849 41.725 132.327 41.7961L132 41.1596L130.122 37.4038C129.712 36.5824 129.5 35.68 129.316 34.7801Z" fill="#64696E"/>
<path d="M127.5 43.6596L127.414 43.5731M127.414 43.5731C127.523 43.3668 127.641 43.173 127.764 42.9923C128.431 42.0066 129.639 41.5952 130.828 41.6516C131.35 41.6764 131.849 41.725 132.327 41.7961L132 41.1596L130.122 37.4038C129.712 36.5824 129.5 35.68 129.316 34.7801C128.443 30.4953 125.17 30.2043 123.5 30.6596L123.385 30.7866C123.47 34.1172 122.32 36.6051 121.5 37.6596L127.414 43.5731Z" stroke="#83878B" stroke-width="0.4"/>
<path d="M138 44.1596C137.2 39.3596 132.333 35.493 130 34.1596L129.86 34.0897C129.834 34.385 129.798 34.6814 129.75 34.9787C129.716 35.1882 129.43 35.184 129.361 34.9989C129.535 35.8257 129.745 36.649 130.122 37.4038L132 41.1596L132.327 41.7961C134.681 42.1459 136.524 43.039 138 44.3055V44.1596Z" fill="#64696E"/>
<path d="M129.351 34.9601C129.392 35.1825 129.714 35.2019 129.75 34.9787C129.798 34.6814 129.834 34.385 129.86 34.0897L130 34.1596C132.333 35.493 137.2 39.3596 138 44.1596V44.3055C136.524 43.039 134.681 42.1459 132.327 41.7961L132 41.1596L130.122 37.4038C129.739 36.6372 129.529 35.8 129.353 34.9601" stroke="#83878B" stroke-width="0.4"/>
<path d="M143.5 54.6596C145.1 60.2596 147.167 65.9929 148 68.1596L144 68.1596C144 65.3596 139.333 58.9929 137 56.1596C133.532 51.625 129.97 48.7031 126.692 46.6349C126.647 45.1453 127.147 43.9025 127.764 42.9922C128.431 42.0066 129.639 41.5951 130.828 41.6516C138.898 42.0349 141.634 48.1297 143.5 54.6596Z" fill="#64696E" stroke="#83878B" stroke-width="0.4"/>
<path d="M119 42.6596C115 39.4793 113.333 35.0012 113 33.1596L112.86 32.7803C114.948 34.8421 117.795 36.7334 121.5 37.6596L127.414 43.5731C126.97 44.4057 126.656 45.441 126.692 46.6349C123.826 44.8263 121.177 43.6704 119 42.6596Z" fill="#5A606A" stroke="#83878B" stroke-width="0.4"/>
<path d="M131 59.1595C123 54.3595 119.667 46.1595 119 42.6595C123.667 44.8262 130.5 47.6595 137 56.1595C139.333 58.9929 144 65.3595 144 68.1595L143 68.6595L142 69.6595H141C140 67.6595 135.5 61.8595 131 59.1595Z" fill="#5A606A" stroke="#83878B" stroke-width="0.4"/>
<path d="M152.247 89.7762H158.265C159.796 89.0106 158.451 84.3184 156.826 80.1596C156.181 78.5071 155.492 76.9389 154.921 75.7346C155.813 75.7346 158.131 75.8684 160.271 76.4033C162.945 77.0719 162.945 75.066 162.276 74.3974C161.608 73.7287 157.596 73.0601 155.59 71.0541C153.985 69.4494 149.126 68.1567 146.898 67.7109C142.618 67.176 141.548 68.8253 141.548 69.7168C141.014 70.2518 141.771 74.8431 142.217 77.0719C142.922 78.4813 144.426 80.5439 146.118 82.6596C148.279 85.362 150.747 88.1511 152.247 89.7762Z" fill="#5A606A"/>
<path d="M154.921 75.7346C155.813 75.7346 158.131 75.8684 160.271 76.4033C162.945 77.0719 162.945 75.066 162.276 74.3974C161.608 73.7287 157.596 73.0601 155.59 71.0541C153.985 69.4494 149.126 68.1567 146.898 67.7109C142.618 67.176 141.548 68.8253 141.548 69.7168C141.014 70.2518 141.771 74.8431 142.217 77.0719C142.922 78.4813 144.426 80.5439 146.118 82.6596M154.921 75.7346C154.03 75.2889 151.712 74.5311 149.572 75.066L146.229 72.3914M154.921 75.7346C155.492 76.9389 156.181 78.5071 156.826 80.1596M156.826 80.1596C158.451 84.3184 159.796 89.0106 158.265 89.7762H152.247C150.747 88.1511 148.279 85.362 146.118 82.6596M156.826 80.1596L155.59 80.6596L154.5 81.6596L153 82.1596L152 82.6596H146.118" stroke="#8281A1" stroke-width="0.668645"/>
<path d="M71.5 50.6596C70.7 53.0596 65.5 55.9929 63 57.1596C61.4673 49.8793 63.4828 44.4649 64.8271 42.4106C66.6531 45.9407 69.7716 49.1781 71.5 50.6596Z" fill="#64696E" stroke="#83878B" stroke-width="0.4"/>
<path d="M59.4998 76.6595C57.8998 61.4595 64.4998 54.9929 67.9998 53.6595C68.9998 53.6595 71.3 53.9595 72.5 55.1595C74 56.6595 83 70.1595 83 77.6595C83 82.1341 80.4046 85.2183 78.1171 86.9121C76.811 87.8791 75.162 88.1595 73.5369 88.1595H69.668C64.481 88.1595 60.1551 84.1935 59.7056 79.026L59.4998 76.6595Z" fill="#64696E" stroke="#83878B" stroke-width="0.4"/>
<path d="M106.754 76.6597C108.354 61.4597 101.754 54.993 98.2541 53.6597C97.2541 53.6597 94.9539 53.9597 93.7539 55.1597C92.2539 56.6597 83.2539 70.1597 83.2539 77.6597C83.2539 82.1343 85.8493 85.2184 88.1368 86.9122C89.4429 87.8793 91.0919 88.1597 92.717 88.1597H96.5859C101.773 88.1597 106.099 84.1937 106.548 79.0262L106.754 76.6597Z" fill="#64696E" stroke="#83878B" stroke-width="0.4"/>
<path d="M94.5 50.6596C95.3 53.0596 100.5 55.9929 103 57.1596C104.533 49.8793 102.517 44.4649 101.173 42.4106C99.3469 45.9407 96.2284 49.1781 94.5 50.6596Z" fill="#64696E" stroke="#83878B" stroke-width="0.4"/>
<path d="M71.4998 50.6595C73.9998 50.1595 82.9998 38.6595 82.9998 36.1595C82.9998 38.6595 91.9998 50.1595 94.4998 50.6595C94.8263 51.6388 95.8853 52.7069 97.1945 53.7075C96.0579 53.831 94.4405 54.2186 93.4996 55.1595C91.9996 56.6595 83 70.1595 83 77.6595C83 70.1595 74 56.6595 72.5 55.1595C71.5591 54.2186 69.9418 53.831 68.8052 53.7075C70.1144 52.7069 71.1734 51.6388 71.4998 50.6595Z" fill="#5A606A"/>
<path d="M82.9998 36.1595C82.9998 38.6595 73.9998 50.1595 71.4998 50.6595C71.1734 51.6388 70.1144 52.7069 68.8052 53.7075C69.9418 53.831 71.5591 54.2186 72.5 55.1595C74 56.6595 83 70.1595 83 77.6595M82.9998 36.1595C82.9998 38.6595 91.9998 50.1595 94.4998 50.6595C94.8263 51.6388 95.8853 52.7069 97.1945 53.7075C96.0579 53.831 94.4405 54.2186 93.4996 55.1595C91.9996 56.6595 83 70.1595 83 77.6595M82.9998 36.1595L83 77.6595" stroke="#83878B" stroke-width="0.4"/>
</g>
<defs>
<clipPath id="clip0_203_693">
<rect width="168" height="168" rx="16" fill="white"/>
</clipPath>
</defs>
</svg>
