<svg viewBox="0 0 724 1448" xmlns="http://www.w3.org/2000/svg" data-w="724" data-h="1448"><path d="M272.9,422.8L269.9,419.8L267.2,416.3L264.7,412.5L262.6,408.5L260.7,404.1L259.1,399.6L257.8,394.9L256.8,390.1L256.0,385.2L255.5,380.2L255.2,375.3L255.2,370.3L255.4,365.5L255.9,360.8L256.6,356.3L257.6,351.9L258.8,347.8L260.3,344.0L261.3,341.9L262.7,339.8L264.2,337.7L266.0,335.7L268.0,333.8L270.1,331.9L272.4,330.1L274.8,328.4L277.3,326.8L279.9,325.3L282.5,323.9L285.1,322.7L287.8,321.5L290.4,320.6L293.0,319.7L295.5,319.0L297.9,318.5L300.2,318.2L303.1,317.9L306.0,317.6L308.8,317.5L311.6,317.3L314.3,317.2L317.0,317.2L319.7,317.2L322.3,317.3L324.9,317.5L327.4,317.6L330.0,317.9L332.4,318.2L334.9,318.5L337.3,318.9L338.9,319.3L340.4,319.9L341.8,320.7L343.2,321.7L344.6,322.8L345.9,324.1L347.1,325.5L348.2,327.0L349.3,328.6L350.3,330.2L351.2,331.9L352.0,333.7L352.8,335.5L353.5,337.2L354.2,339.0L354.8,340.7L355.3,342.4L355.7,344.0L356.3,346.7L356.8,349.4L357.3,352.1L357.7,354.8L358.0,357.4L358.2,360.0L358.4,362.7L358.5,365.3L358.6,367.9L358.6,370.5L358.6,373.2L358.5,375.8L358.4,378.5L358.2,381.1L358.0,383.8L357.8,386.5L357.6,389.3L357.3,392.0L357.2,394.0L357.0,395.9L356.8,397.6L356.6,399.3L356.3,402.2L356.0,404.6L355.7,406.5L355.4,408.5L354.0,412.7L352.2,416.1L350.1,419.2L347.6,422.0L344.8,424.5L341.8,426.8L338.5,428.7L335.0,430.4L331.3,431.8L327.5,432.9L323.6,433.8L319.6,434.4L315.7,434.8L311.8,435.0L307.9,434.9L304.1,434.6L300.5,434.1L297.0,433.4L294.0,432.7L291.1,432.0L288.2,431.1L285.5,430.2L282.8,429.1L280.2,427.9L277.7,426.4L275.2,424.8L272.9,422.8L272.9,422.8ZM416.0,435.0L413.5,435.0L410.9,434.8L408.2,434.5L405.5,434.0L402.8,433.5L400.1,432.7L397.5,431.9L394.8,430.9L392.3,429.8L389.8,428.6L387.4,427.2L385.1,425.6L382.9,424.0L380.9,422.2L379.1,420.2L377.4,418.1L375.9,415.9L374.7,413.5L373.9,411.6L373.2,409.3L372.8,407.6L372.5,405.7L372.1,403.6L371.8,401.3L371.4,397.2L370.9,393.0L370.5,388.8L370.1,384.5L369.8,380.2L369.5,375.8L369.4,371.4L369.4,367.1L369.6,362.7L369.9,358.4L370.4,354.1L371.1,349.9L372.0,345.8L373.1,341.7L374.5,337.7L376.1,333.9L378.0,330.1L380.3,326.5L381.8,324.6L383.4,323.0L385.2,321.7L387.1,320.6L389.1,319.8L391.3,319.1L393.6,318.6L396.1,318.2L398.6,318.0L400.3,317.9L402.0,317.8L403.6,317.7L405.3,317.6L407.0,317.5L408.6,317.5L410.3,317.4L412.0,317.4L413.6,317.4L415.3,317.4L417.0,317.5L418.6,317.5L420.3,317.6L422.0,317.6L423.7,317.7L425.4,317.9L427.0,318.1L428.6,318.3L431.6,318.8L434.6,319.5L437.4,320.3L440.2,321.3L443.0,322.5L445.7,323.9L447.1,324.7L448.6,325.5L450.7,326.8L452.6,328.0L454.5,329.3L456.3,330.6L457.9,331.9L459.5,333.2L461.0,334.6L462.3,336.1L463.6,337.5L464.8,339.1L465.9,340.7L466.9,342.5L467.8,344.3L468.7,346.2L469.4,348.3L470.1,350.5L470.7,352.8L471.2,355.3L472.0,359.6L472.5,364.2L472.8,368.9L473.0,373.8L472.8,378.7L472.4,383.7L471.8,388.6L470.9,393.5L469.7,398.3L468.1,402.9L466.3,407.4L464.1,411.7L461.5,415.7L458.6,419.3L455.3,422.7L451.7,425.6L447.6,428.2L443.0,430.2L441.3,430.9L439.5,431.5L437.7,432.0L435.8,432.5L434.0,433.0L432.1,433.4L430.2,433.8L428.2,434.1L426.2,434.3L424.3,434.6L422.2,434.7L420.2,434.9L418.1,435.0L416.0,435.0L416.0,435.0Z" fill="rgb(255,134,70)" stroke="rgba(0,0,0,0.32)" stroke-width="0.8"/><path d="M264.2,435.5L262.7,434.3L261.5,432.7L260.6,430.8L259.8,428.7L259.3,426.5L259.0,424.3L258.8,422.1L258.7,420.0L258.8,418.2L260.1,417.2L261.8,417.5L264.2,419.7L265.7,421.2L267.2,422.6L268.7,423.9L270.3,425.2L271.8,426.5L273.4,427.7L275.1,428.9L276.7,430.1L278.4,431.2L280.1,432.2L281.8,433.2L283.6,434.2L285.3,435.2L287.0,436.1L288.4,437.1L289.6,438.6L290.2,440.5L290.2,442.3L289.7,444.1L288.2,444.9L285.5,444.5L283.8,444.0L282.0,443.6L280.3,443.1L278.6,442.5L277.0,441.9L275.3,441.3L273.7,440.6L272.0,439.8L270.4,439.1L268.9,438.3L267.3,437.4L265.7,436.5L264.2,435.5L264.2,435.5ZM287.3,452.4L285.9,454.0L284.3,455.7L282.6,457.5L280.8,459.3L278.9,461.0L277.0,462.7L275.0,464.3L273.0,465.6L271.0,466.7L269.1,465.7L267.0,463.4L266.0,462.1L265.0,460.7L264.0,459.2L263.1,457.7L262.2,456.1L261.3,454.5L260.5,452.8L259.7,451.2L259.0,449.6L258.3,448.1L257.7,446.6L256.7,443.9L255.9,441.6L255.6,439.5L255.7,437.7L256.0,435.7L256.6,433.5L258.3,434.5L259.6,436.4L260.8,438.2L262.3,439.8L263.9,441.3L265.8,442.4L267.3,443.2L268.7,443.9L270.2,444.6L271.7,445.2L273.2,445.9L274.7,446.6L276.2,447.2L277.7,447.9L279.3,448.5L280.8,449.1L282.4,449.7L283.9,450.3L285.5,450.9L287.1,451.5L287.3,452.4ZM297.3,487.8L294.8,486.3L292.2,484.6L289.6,482.8L288.3,481.8L287.0,480.8L285.7,479.8L284.5,478.7L282.2,476.6L280.1,474.5L278.2,472.3L276.8,470.2L278.1,468.0L279.4,466.8L280.7,465.5L282.0,464.2L283.4,462.9L284.8,461.6L286.2,460.3L287.6,459.1L289.0,457.8L290.5,456.5L292.0,455.3L293.6,454.0L295.1,452.7L296.7,451.5L298.1,450.5L299.6,449.8L300.0,451.9L300.0,453.6L300.0,455.3L299.9,457.0L299.9,458.7L299.9,460.4L299.9,462.1L299.9,463.8L299.9,465.5L299.9,467.2L300.0,468.9L300.0,470.6L300.1,472.2L300.2,473.9L300.3,475.6L300.4,477.3L300.6,479.0L300.7,480.6L300.8,482.5L300.7,484.3L300.3,486.0L299.6,487.5L298.1,488.1L297.3,487.8ZM257.4,456.2L271.0,472.8L271.5,474.7L271.5,476.6L271.3,478.6L270.9,480.7L270.4,482.7L269.8,484.8L269.2,486.8L268.6,488.7L267.9,490.5L265.2,489.2L263.7,486.9L262.4,484.6L261.2,482.2L260.1,479.8L259.2,477.4L258.4,474.9L257.8,472.3L257.3,469.8L257.0,467.2L256.8,464.5L256.7,461.8L256.8,459.1L257.0,456.3L257.4,456.2ZM271.7,494.1L271.2,492.5L275.4,478.9L277.6,478.8L279.6,480.2L282.4,482.1L284.0,483.1L285.7,484.2L287.4,485.4L289.1,486.6L290.8,487.8L292.4,488.9L293.9,490.1L295.3,491.1L297.6,493.1L298.9,494.5L299.3,496.2L299.6,498.6L299.8,501.0L299.9,503.4L300.0,505.8L300.0,508.2L299.9,510.6L299.7,512.3L296.5,511.4L294.5,510.2L292.5,509.0L290.5,507.8L288.5,506.5L286.6,505.2L284.7,503.9L282.8,502.6L280.9,501.2L279.0,499.8L277.1,498.4L275.3,497.0L273.5,495.6L271.7,494.1L271.7,494.1ZM299.4,544.6L298.1,543.6L296.8,542.6L295.5,541.5L294.2,540.4L292.9,539.3L291.5,538.2L290.2,537.0L288.8,535.9L287.4,534.7L286.1,533.5L284.7,532.2L283.3,531.0L281.9,529.8L280.6,528.5L279.2,527.2L277.8,526.0L276.5,524.7L275.1,523.4L273.1,521.0L271.6,518.4L270.5,515.6L269.9,512.7L269.5,509.6L269.5,506.5L269.6,503.4L269.9,500.3L270.2,497.3L272.9,498.7L274.8,500.4L276.7,502.0L278.7,503.6L280.7,505.2L282.7,506.8L284.7,508.3L286.8,509.8L288.8,511.3L290.9,512.8L293.0,514.2L295.1,515.7L297.2,517.1L299.4,518.4L300.3,520.3L300.8,522.8L301.1,525.6L301.2,528.6L301.2,531.6L301.0,534.7L300.7,537.7L300.4,540.6L300.1,543.2L299.6,544.8L299.4,544.6ZM299.1,575.5L296.0,574.0L294.3,573.0L292.4,571.9L290.4,570.7L288.4,569.4L286.3,568.0L284.3,566.5L282.3,564.9L280.3,563.3L278.5,561.6L276.7,559.9L275.2,558.2L273.8,556.4L272.7,554.6L271.9,552.8L271.3,551.1L271.0,549.3L271.0,547.6L270.9,545.9L270.9,544.2L270.8,542.5L270.8,540.8L270.8,539.0L270.9,537.3L270.9,535.6L271.0,533.8L271.0,532.1L271.1,530.3L271.2,528.6L271.4,526.8L271.5,525.0L273.0,526.0L274.1,527.3L275.8,528.8L277.4,530.1L278.9,531.4L280.4,532.8L282.0,534.1L283.5,535.4L285.0,536.7L286.6,538.0L288.2,539.3L289.7,540.6L291.3,541.9L292.9,543.2L294.4,544.5L296.0,545.7L297.3,546.9L298.7,548.6L299.6,550.3L300.1,552.2L300.2,554.3L300.2,556.6L300.1,558.7L300.0,561.2L300.0,563.8L299.9,566.3L299.9,568.8L299.8,571.3L299.8,573.8L299.7,575.5L299.1,575.5ZM308.2,657.6L305.8,657.4L303.6,656.9L301.5,656.3L299.5,655.3L297.7,654.2L295.9,652.9L294.2,651.5L292.6,649.9L291.0,648.2L289.3,646.3L287.6,644.4L285.9,642.5L284.2,640.6L282.5,638.8L280.8,636.9L279.1,635.0L277.4,633.1L275.7,631.2L274.0,629.3L272.3,627.5L270.6,625.6L268.8,623.7L267.1,621.8L266.8,617.7L266.8,614.4L266.9,611.0L267.0,607.7L267.1,604.4L267.2,601.1L267.3,597.8L267.4,594.5L267.6,591.2L267.7,587.9L267.9,584.6L268.1,581.3L268.4,578.0L268.6,574.8L268.8,572.7L269.0,570.7L269.3,568.6L269.7,566.6L270.1,564.5L270.5,562.4L271.1,560.3L273.9,561.7L275.6,563.4L277.4,565.1L279.1,566.7L280.9,568.3L282.7,569.8L284.5,571.3L286.4,572.8L288.2,574.3L290.2,575.7L292.1,577.1L294.1,578.5L296.1,579.8L298.1,581.1L299.4,582.1L300.7,583.5L301.5,585.0L302.0,589.7L302.3,593.1L302.6,596.5L302.9,599.8L303.2,603.2L303.4,606.6L303.7,610.0L304.0,613.4L304.3,616.8L304.5,620.1L304.8,623.5L305.1,626.9L305.3,630.3L305.6,633.7L305.8,636.1L306.1,638.5L306.5,640.8L307.0,643.0L307.5,645.2L308.0,647.5L308.7,649.7L309.3,652.1L310.0,654.5L309.9,656.2L308.8,657.4L308.2,657.6ZM438.7,444.4L438.0,442.4L437.9,440.7L438.3,439.2L439.3,437.8L440.6,436.6L442.3,435.6L444.0,434.7L445.6,433.8L447.2,432.8L448.7,431.9L450.1,431.0L451.5,430.1L452.9,429.1L454.2,428.1L455.5,427.2L456.8,426.2L458.0,425.1L459.2,424.1L460.5,423.1L461.7,422.0L462.9,420.9L464.1,419.8L465.3,418.6L466.6,417.5L468.2,417.1L469.4,418.3L469.5,420.3L469.4,422.4L469.2,424.5L468.8,426.8L468.3,429.0L467.5,431.2L466.6,433.1L465.4,434.6L463.9,435.8L462.0,436.9L459.6,438.2L456.8,439.6L455.3,440.4L453.7,441.1L452.1,441.8L450.5,442.4L448.9,443.1L447.3,443.6L444.3,444.5L441.7,445.0L439.5,445.0L438.7,444.4ZM457.4,466.7L455.1,465.6L453.2,464.3L451.1,462.6L449.0,460.7L446.8,458.7L444.8,456.6L443.0,454.7L441.5,453.0L442.7,450.9L444.2,450.3L445.8,449.8L447.3,449.2L448.9,448.6L450.4,447.9L451.9,447.3L453.4,446.7L455.0,446.0L456.5,445.3L458.0,444.6L459.5,443.9L461.0,443.2L462.4,442.4L464.3,441.3L465.9,439.9L467.4,438.2L468.7,436.5L469.9,434.7L471.0,432.9L472.0,434.6L472.3,436.1L472.5,438.2L472.5,440.3L472.1,442.0L471.5,443.8L470.5,446.5L469.3,449.4L468.6,450.9L467.9,452.4L467.2,453.9L466.4,455.4L465.6,456.8L464.8,458.2L463.9,459.6L463.1,461.0L461.2,463.5L459.3,465.6L458.0,466.7L457.4,466.7ZM428.4,487.2L427.8,485.5L427.6,483.6L427.7,481.6L427.8,478.3L427.9,476.2L428.0,474.0L428.1,471.9L428.1,469.7L428.2,467.6L428.2,465.4L428.3,463.2L428.3,461.1L428.3,458.9L428.3,456.7L428.3,454.6L428.2,452.4L428.2,450.2L429.9,450.3L431.4,451.2L433.4,452.8L435.0,454.1L436.5,455.4L438.0,456.7L439.5,457.9L440.9,459.2L442.3,460.4L443.6,461.6L444.9,462.8L446.1,463.9L447.3,465.1L448.4,466.2L450.6,468.4L451.0,470.1L450.1,472.3L448.0,474.8L446.6,476.2L445.1,477.5L443.5,478.9L441.8,480.3L440.1,481.6L438.5,482.8L436.8,484.0L435.3,485.1L433.9,486.0L431.7,487.5L430.2,488.2L428.6,487.5L428.4,487.2ZM470.8,456.3L471.4,459.2L471.5,461.9L471.4,464.7L471.2,467.3L470.9,469.9L470.4,472.5L469.8,475.0L469.0,477.5L468.1,480.0L467.0,482.4L465.8,484.8L464.5,487.1L463.0,489.4L461.4,491.6L460.2,490.1L459.5,488.2L458.8,485.8L458.0,483.2L457.3,480.6L456.9,478.0L456.6,475.8L456.7,473.9L458.2,471.6L460.0,469.4L461.9,467.1L463.8,464.8L465.7,462.4L467.7,460.0L469.7,457.5L470.8,456.3L470.8,456.3ZM452.3,478.5L453.3,480.3L453.9,482.0L454.6,484.1L455.2,486.3L455.8,488.4L456.4,490.4L456.8,491.9L457.0,493.5L455.7,494.9L454.4,496.0L452.7,497.3L451.2,498.5L449.7,499.6L448.1,500.7L446.6,501.8L445.1,502.9L443.5,504.0L442.0,505.0L440.4,506.1L438.8,507.1L437.2,508.1L435.6,509.2L434.0,510.2L432.4,511.1L430.9,511.9L429.4,512.5L428.4,510.5L428.2,508.1L428.2,505.6L428.3,503.2L428.4,500.7L428.6,498.3L428.9,495.8L429.2,494.2L430.8,492.8L433.0,491.2L434.5,490.2L436.0,489.0L437.7,487.8L439.5,486.6L441.2,485.4L443.0,484.2L444.7,483.0L446.3,481.9L447.8,480.9L450.2,479.3L451.7,478.4L452.3,478.5ZM428.2,519.1L430.8,517.2L433.0,515.8L435.1,514.3L437.2,512.9L439.4,511.4L441.4,509.9L443.5,508.3L445.6,506.8L447.6,505.2L449.6,503.6L451.6,501.9L453.6,500.3L455.5,498.6L457.5,496.9L458.3,498.6L458.5,501.5L458.7,504.4L458.8,507.4L458.7,510.5L458.3,513.4L457.6,516.2L456.4,518.9L454.8,521.4L452.0,524.3L450.3,525.9L448.6,527.6L446.9,529.2L445.1,530.8L443.4,532.4L441.6,534.0L439.8,535.6L438.0,537.1L436.1,538.7L434.3,540.2L432.5,541.7L430.6,543.2L428.7,544.7L427.9,542.0L427.7,539.3L427.4,536.3L427.3,533.2L427.2,530.1L427.2,527.0L427.3,524.1L427.7,521.5L428.2,519.1L428.2,519.1ZM456.5,524.5L456.8,526.5L457.0,528.5L457.1,530.4L457.3,532.4L457.4,534.3L457.4,536.3L457.5,538.3L457.5,540.2L457.5,542.2L457.4,544.1L457.4,546.1L457.3,548.0L457.2,550.0L457.0,552.0L455.8,554.3L454.8,555.7L453.6,557.2L452.3,558.7L450.9,560.2L449.4,561.7L447.9,563.2L446.2,564.7L444.6,566.1L442.8,567.5L441.1,568.9L439.3,570.1L437.5,571.3L435.7,572.4L433.9,573.3L432.2,574.2L430.5,574.9L428.9,575.5L428.3,573.6L428.3,570.6L428.2,567.7L428.2,564.8L428.1,561.8L428.1,558.9L428.0,556.0L428.0,553.8L428.2,552.0L428.6,550.3L429.6,548.5L432.1,546.2L433.5,545.0L435.0,543.8L436.5,542.6L438.0,541.4L439.5,540.2L441.0,538.9L442.5,537.7L444.0,536.4L445.5,535.1L447.0,533.9L448.5,532.6L449.9,531.3L451.3,529.9L452.7,528.6L454.0,527.3L455.3,525.9L456.5,524.5L456.5,524.5ZM418.9,657.1L418.3,655.6L418.4,653.8L418.9,652.1L419.7,649.5L420.5,646.8L421.1,644.2L421.6,641.6L422.1,639.1L422.4,636.5L422.8,632.0L423.1,628.7L423.3,625.5L423.6,622.2L423.9,619.0L424.1,615.7L424.4,612.4L424.6,609.2L424.9,605.9L425.1,602.6L425.4,599.4L425.6,596.1L425.8,592.9L426.1,589.6L426.3,587.8L426.6,585.9L427.3,584.0L428.3,582.4L431.0,580.6L433.1,579.2L435.2,577.8L437.2,576.3L439.3,574.9L441.2,573.3L443.2,571.8L445.1,570.2L447.0,568.6L448.9,566.9L450.7,565.2L452.5,563.5L454.3,561.8L456.1,560.0L457.4,561.3L458.0,562.8L458.8,568.2L459.2,572.2L459.6,576.2L459.9,580.2L460.2,584.2L460.5,588.3L460.7,592.3L460.9,596.4L461.1,600.5L461.2,604.5L461.3,608.6L461.4,612.8L461.4,616.9L461.4,621.0L459.3,623.9L457.5,625.9L455.7,627.9L453.8,629.9L452.0,631.8L450.2,633.8L448.4,635.8L446.5,637.8L444.7,639.8L442.9,641.7L441.1,643.7L439.2,645.7L437.4,647.7L435.6,649.7L434.0,651.3L432.4,652.7L430.8,654.0L429.2,655.1L427.6,656.0L425.8,656.7L423.9,657.2L422.0,657.5L419.8,657.6L418.9,657.1Z" fill="rgb(230,239,25)" stroke="rgba(0,0,0,0.32)" stroke-width="0.8"/><path d="M311.0,531.7L310.8,530.0L310.8,527.0L310.9,524.0L311.1,521.1L311.4,518.1L311.9,515.2L312.4,512.2L313.0,509.8L313.8,508.0L314.8,506.3L316.2,504.8L317.7,503.3L319.4,501.9L321.2,500.6L323.1,499.4L324.9,498.4L327.4,497.0L328.9,496.1L330.4,495.3L332.0,494.4L333.6,493.5L335.1,492.6L336.7,491.7L338.3,490.8L339.9,489.9L341.5,489.0L343.1,488.2L344.7,487.4L346.3,486.5L347.9,485.7L349.6,485.0L351.2,484.3L352.8,483.6L354.4,482.9L356.4,483.5L357.7,484.4L359.0,485.9L359.8,487.8L360.1,489.4L360.2,492.5L360.2,494.4L360.2,496.3L360.2,498.1L360.2,500.0L360.2,501.9L360.2,503.8L360.2,505.7L360.1,507.5L360.1,509.4L360.1,511.3L360.1,513.2L360.0,515.1L360.0,516.9L360.0,518.9L360.1,521.0L360.2,523.2L360.1,525.4L359.8,527.7L359.4,529.3L358.6,530.7L357.1,531.6L355.6,532.3L351.2,532.9L348.2,533.1L345.2,533.3L342.1,533.4L339.1,533.5L336.0,533.5L332.9,533.5L329.8,533.4L326.7,533.2L323.6,533.0L320.5,532.8L317.3,532.5L314.2,532.1L311.0,531.7L311.0,531.7ZM321.0,577.8L319.3,577.7L317.1,577.4L315.1,576.9L313.5,576.0L312.2,574.6L311.2,572.4L310.6,569.4L310.2,567.4L309.9,565.4L309.6,563.3L309.5,561.3L309.3,559.3L309.3,557.3L309.2,555.3L309.3,553.4L309.4,551.4L309.6,549.5L309.8,547.5L310.1,545.6L310.4,543.7L312.3,542.8L314.7,542.3L317.1,541.9L319.4,541.5L321.8,541.0L324.2,540.5L326.7,540.0L329.3,539.5L332.1,538.8L335.1,538.1L336.8,537.8L338.5,537.5L340.1,537.2L341.8,537.0L343.5,536.8L345.2,536.6L346.9,536.5L348.7,536.4L350.4,536.4L352.2,536.4L353.9,536.4L355.7,536.5L357.4,536.6L359.3,537.2L360.5,538.8L360.8,540.5L360.8,542.3L360.9,544.6L360.9,546.4L361.0,548.3L361.0,550.1L361.0,552.0L361.0,553.9L361.0,555.8L361.0,557.8L360.9,559.7L360.9,561.7L360.8,563.7L360.7,565.7L360.6,567.7L360.5,569.8L360.3,571.6L360.1,573.4L359.6,575.1L359.1,576.8L358.4,578.2L356.7,578.6L355.0,578.7L352.3,578.7L349.9,578.7L347.5,578.7L345.1,578.7L342.7,578.7L340.3,578.6L337.9,578.6L335.5,578.5L333.0,578.4L330.6,578.3L328.2,578.2L325.8,578.0L323.4,577.9L321.0,577.8L321.0,577.8ZM347.7,429.2L350.1,428.5L352.1,428.6L353.8,429.5L355.2,430.8L356.4,432.6L357.3,434.6L358.0,436.8L358.5,438.9L358.7,440.8L359.0,443.2L359.1,444.8L359.3,446.7L359.4,448.8L359.6,451.0L359.7,453.4L359.8,455.8L359.9,458.3L359.8,460.7L359.7,463.0L359.5,465.3L359.3,467.3L358.9,469.2L358.3,470.8L356.9,473.1L355.4,473.9L353.7,474.6L352.1,475.3L350.3,476.3L346.5,478.7L344.0,480.3L341.5,481.9L339.0,483.5L336.4,485.1L333.9,486.6L331.3,488.2L328.7,489.7L326.2,491.2L323.6,492.7L321.0,494.2L318.4,495.6L315.8,497.1L313.2,498.5L311.6,498.4L310.4,495.6L309.8,493.3L309.1,490.6L308.5,487.7L307.9,484.5L307.3,481.2L306.8,477.8L306.3,474.3L306.0,470.8L305.9,467.3L305.8,463.8L306.0,460.6L306.4,457.5L307.0,454.6L308.0,452.0L309.2,449.8L310.7,448.0L312.5,446.6L314.4,445.5L316.3,444.4L318.3,443.4L320.2,442.4L322.2,441.4L324.2,440.4L326.2,439.4L328.2,438.5L330.2,437.5L332.1,436.6L334.1,435.7L336.1,434.7L338.1,433.8L340.1,432.9L342.0,432.0L343.9,431.1L345.8,430.2L347.7,429.2L347.7,429.2ZM350.4,712.8L345.7,710.4L341.4,706.7L337.4,701.8L333.8,695.8L330.5,688.9L327.5,681.3L324.8,673.1L322.4,664.5L320.2,655.5L318.4,646.4L316.7,637.3L315.3,628.3L314.1,619.7L313.1,611.5L312.3,603.9L311.7,597.0L311.2,591.1L310.9,586.2L312.0,584.9L314.5,584.2L316.2,583.9L318.1,583.7L320.2,583.6L322.5,583.5L324.8,583.5L327.2,583.5L329.7,583.6L332.1,583.6L334.5,583.7L336.9,583.9L339.0,584.0L341.1,584.1L342.9,584.3L344.5,584.4L346.6,584.5L348.5,584.7L350.6,585.0L352.9,585.4L355.1,586.0L357.2,586.9L359.0,587.9L360.3,589.3L361.0,591.0L361.1,598.8L361.1,605.6L361.1,612.4L361.1,619.2L361.1,626.1L361.1,632.9L361.1,639.7L361.1,646.6L361.1,653.4L361.0,660.2L360.9,667.1L360.8,673.9L360.6,680.7L360.4,687.5L360.2,694.3L359.9,701.1L359.5,707.9L359.1,714.7L358.0,715.9L356.2,715.2L354.4,714.4L352.9,713.8L351.2,713.1L350.4,712.8ZM371.9,473.3L370.4,471.8L369.4,469.1L369.0,467.5L368.8,465.7L368.6,463.7L368.5,461.7L368.4,459.5L368.4,457.4L368.5,455.3L368.6,453.2L368.7,451.2L368.8,449.3L368.9,447.6L369.1,444.8L369.2,442.6L369.5,440.0L370.0,437.4L370.7,434.8L371.7,432.5L373.2,430.6L375.0,429.3L377.3,428.8L380.2,429.3L381.8,429.9L384.1,431.0L386.5,432.1L388.8,433.3L391.1,434.4L393.4,435.5L395.7,436.6L398.0,437.7L400.3,438.8L402.6,440.0L404.9,441.1L407.3,442.2L409.6,443.4L411.9,444.5L414.1,445.7L415.8,446.6L417.3,447.8L418.5,449.0L419.5,450.5L420.3,452.1L420.9,453.8L421.3,455.7L421.6,457.8L421.9,460.0L422.1,462.1L422.3,464.2L422.4,466.3L422.3,468.4L422.2,470.2L422.1,472.1L421.9,473.9L421.7,475.7L421.4,477.6L421.1,479.5L420.8,481.4L420.5,483.3L420.2,485.2L419.8,487.1L419.4,489.1L419.0,491.0L418.5,493.0L418.0,495.0L417.6,496.7L417.0,498.3L413.5,497.5L410.9,496.2L408.3,494.8L405.7,493.3L403.2,491.8L400.6,490.3L398.1,488.8L395.6,487.2L393.1,485.7L390.7,484.1L388.2,482.6L385.8,481.1L383.4,479.7L381.1,478.2L378.8,476.9L376.5,475.6L374.2,474.4L371.9,473.3L371.9,473.3ZM382.6,533.3L380.4,533.2L378.1,533.0L375.8,532.8L373.5,532.3L371.4,531.6L369.4,530.6L368.7,528.4L368.3,526.6L368.1,524.7L368.1,522.9L368.1,521.2L368.1,519.4L368.2,517.8L368.2,516.1L368.2,513.2L368.1,510.4L368.0,507.5L367.9,504.6L367.9,501.7L367.8,498.8L367.9,496.0L368.0,493.1L368.2,490.3L368.3,488.4L368.8,486.8L369.9,485.2L371.4,483.8L372.7,483.0L374.5,483.2L376.1,483.7L378.3,484.9L380.1,485.8L381.9,486.7L383.7,487.7L385.4,488.6L387.2,489.5L389.0,490.5L390.7,491.4L392.5,492.4L394.3,493.3L396.0,494.3L397.8,495.3L399.5,496.2L401.3,497.2L403.0,498.2L404.9,499.3L406.7,500.5L408.6,501.7L410.3,503.1L411.9,504.6L413.3,506.2L414.3,507.9L415.0,509.6L415.8,512.6L416.4,515.7L416.9,518.7L417.2,521.8L417.4,524.9L417.5,528.0L417.4,531.1L414.3,532.1L411.9,532.4L409.5,532.6L407.1,532.8L404.6,533.0L402.2,533.2L399.8,533.3L397.3,533.4L394.9,533.4L392.4,533.4L390.0,533.4L387.5,533.4L385.0,533.4L382.6,533.3L382.6,533.3ZM373.8,578.7L371.8,578.7L370.0,578.2L369.0,576.9L368.5,574.5L368.2,572.8L367.9,570.8L367.7,568.5L367.5,566.1L367.3,563.5L367.1,560.8L367.0,558.1L366.9,555.4L366.9,552.7L366.9,550.1L366.9,547.5L367.1,545.2L367.2,543.0L367.5,541.1L367.8,539.4L368.6,537.2L371.2,536.6L373.1,536.4L374.9,536.4L376.8,536.4L378.7,536.4L380.5,536.4L382.3,536.5L384.2,536.7L386.0,536.9L387.8,537.1L389.7,537.4L391.5,537.8L393.3,538.1L395.1,538.5L397.8,539.2L400.4,539.8L402.9,540.3L405.3,540.8L407.6,541.2L409.9,541.6L412.2,542.0L414.5,542.5L416.9,542.9L418.3,546.0L418.5,548.0L418.7,550.0L418.8,552.0L418.9,554.0L418.9,556.0L418.9,558.0L418.8,560.1L418.7,562.1L418.5,564.1L418.3,566.1L418.0,568.1L417.7,570.0L417.3,572.0L416.8,573.6L415.7,575.3L414.2,576.4L412.3,577.1L410.2,577.4L407.8,577.6L404.8,577.8L402.7,577.9L400.6,578.1L398.4,578.2L396.1,578.3L393.8,578.4L391.5,578.4L389.1,578.5L386.7,578.6L384.2,578.6L381.6,578.6L379.1,578.7L376.4,578.7L373.8,578.7L373.8,578.7ZM416.3,584.7L417.4,586.0L417.1,591.3L416.6,597.3L415.9,604.2L415.1,611.8L414.2,620.1L413.0,628.7L411.5,637.7L409.9,646.8L408.0,655.9L405.8,664.8L403.4,673.4L400.6,681.6L397.6,689.2L394.2,696.1L390.4,702.0L386.3,707.0L381.8,710.7L377.0,713.1L375.1,713.8L373.4,714.7L371.7,715.5L370.0,715.9L369.2,713.6L369.0,711.0L368.8,708.4L368.6,705.9L368.5,703.4L368.4,700.9L368.3,698.4L368.1,691.2L368.0,685.3L367.9,679.4L367.8,673.4L367.7,667.5L367.6,661.5L367.6,655.6L367.5,649.7L367.5,643.7L367.4,637.8L367.4,631.9L367.4,625.9L367.3,620.0L367.3,614.1L367.3,608.1L367.3,602.2L367.3,596.2L367.2,590.3L368.7,588.4L370.3,587.5L372.4,586.6L374.9,585.9L377.7,585.3L380.8,584.8L384.1,584.3L387.6,584.0L391.1,583.7L394.7,583.5L398.2,583.4L401.6,583.4L404.9,583.4L407.9,583.5L410.6,583.7L412.9,584.0L414.9,584.3L416.3,584.7Z" fill="rgb(230,239,25)" stroke="rgba(0,0,0,0.32)" stroke-width="0.8"/><path d="M189.5,492.5L187.6,492.8L186.0,492.8L184.4,492.4L182.7,491.4L182.0,489.4L181.9,486.7L181.9,484.0L181.8,481.2L181.8,478.3L181.8,475.5L181.9,472.6L182.0,469.7L182.1,466.7L182.3,463.8L182.5,460.9L182.8,458.1L183.2,455.2L183.7,452.4L184.2,449.6L184.8,446.9L185.5,444.3L186.2,441.7L187.1,439.2L187.7,437.6L188.4,435.9L189.3,434.0L190.3,431.9L191.3,429.7L192.5,427.4L193.7,425.1L195.0,422.8L196.4,420.5L197.9,418.3L199.4,416.2L200.9,414.1L202.5,412.3L204.0,410.6L205.6,409.1L207.2,407.9L208.8,407.0L210.4,406.5L212.0,406.2L214.8,406.8L217.2,408.5L219.0,411.2L219.8,412.8L220.5,414.5L221.1,416.3L221.6,418.1L222.0,420.0L222.3,421.8L222.6,423.6L222.8,425.2L223.0,428.1L222.9,431.9L222.7,434.7L222.3,437.4L221.9,440.2L221.3,443.1L220.7,445.9L219.9,448.7L219.1,451.6L218.2,454.4L217.2,457.2L216.2,460.0L215.1,462.7L214.0,465.4L212.9,468.0L211.7,470.6L210.4,473.1L209.2,475.6L207.9,478.0L206.5,480.5L204.9,482.7L203.1,484.8L201.3,486.6L199.3,488.2L197.1,489.5L194.8,490.7L192.2,491.7L189.5,492.5L189.5,492.5ZM526.7,486.3L525.1,484.7L523.5,482.9L521.9,480.8L520.4,478.5L519.0,476.0L517.6,473.3L516.2,470.5L515.0,467.6L513.7,464.7L512.6,461.6L511.5,458.6L510.5,455.5L509.5,452.5L508.7,449.5L507.9,446.6L507.2,443.8L506.6,441.1L506.0,438.6L505.6,435.7L505.5,433.9L505.4,432.0L505.4,429.9L505.4,427.7L505.6,425.4L505.8,423.1L506.1,420.8L506.5,418.6L507.0,416.4L507.7,414.3L508.5,412.4L509.4,410.7L510.4,409.2L511.7,408.0L513.1,407.0L514.6,406.4L516.4,406.3L518.2,406.6L520.0,407.4L521.8,408.6L523.7,410.2L525.5,412.1L527.3,414.2L529.0,416.6L530.7,419.0L532.4,421.6L533.9,424.2L535.4,426.8L536.7,429.4L537.9,431.8L539.0,434.1L539.9,436.1L540.7,437.9L541.6,440.3L542.3,442.4L542.9,444.6L543.4,446.9L543.9,449.2L544.3,451.7L544.7,454.2L545.0,457.6L545.3,459.7L545.4,461.9L545.6,464.1L545.8,466.3L545.9,468.6L546.0,470.9L546.2,473.2L546.2,475.5L546.3,477.9L546.4,480.3L546.4,482.8L546.5,485.2L546.5,487.7L546.3,489.4L545.3,491.7L543.3,492.8L540.8,492.9L537.8,492.3L536.3,491.7L534.8,491.1L533.3,490.4L531.9,489.7L529.3,488.2L527.4,486.9L526.7,486.3Z" fill="rgb(255,160,65)" stroke="rgba(0,0,0,0.32)" stroke-width="0.8"/><path d="M206.2,514.2L204.6,513.8L202.7,512.4L201.4,510.5L200.8,508.2L200.7,506.6L200.8,505.0L201.5,502.8L203.4,498.7L205.2,494.5L207.1,490.4L208.9,486.2L210.8,482.0L212.6,477.8L214.5,473.6L216.3,469.4L218.0,465.2L219.8,460.9L221.5,456.7L223.2,452.5L224.8,448.2L226.4,444.0L227.9,439.8L229.3,435.6L230.7,431.4L232.0,427.3L232.8,425.1L233.5,422.9L234.2,420.8L234.9,418.8L235.5,416.8L236.0,414.8L236.4,412.9L236.8,411.1L237.3,409.2L237.7,407.3L238.1,405.4L238.5,403.6L238.9,401.7L239.3,399.8L239.7,397.9L240.2,396.1L240.6,394.2L241.0,392.3L241.4,390.4L241.8,388.6L242.3,387.0L243.2,385.6L244.9,386.0L245.6,387.6L246.2,389.4L247.0,391.9L247.6,393.9L248.2,395.9L248.7,397.8L249.1,399.7L249.6,401.6L250.0,403.4L250.3,405.1L250.6,406.9L250.9,408.5L251.1,410.1L251.4,413.3L251.5,416.7L251.5,418.6L251.3,420.6L251.1,422.5L250.7,424.6L250.3,426.6L249.8,428.6L249.3,430.6L248.7,432.7L248.1,434.7L247.5,436.7L246.8,438.7L246.1,440.7L245.4,442.7L244.8,444.6L244.1,446.5L243.5,448.4L242.9,450.3L241.7,453.6L240.6,457.0L239.3,460.3L238.1,463.7L236.7,467.0L235.4,470.2L234.0,473.5L232.5,476.7L231.0,479.9L229.4,483.1L227.8,486.3L226.1,489.4L224.4,492.5L222.6,495.6L221.6,497.4L220.1,499.8L218.4,502.5L217.4,503.9L216.4,505.3L215.3,506.7L214.3,508.1L213.2,509.4L212.1,510.6L210.0,512.6L208.0,513.9L206.2,514.2L206.2,514.2ZM517.7,512.1L514.4,508.3L511.4,504.4L508.5,500.4L505.8,496.3L503.3,492.1L500.9,487.8L498.7,483.4L496.6,479.0L494.6,474.5L492.7,469.9L490.8,465.4L489.1,460.7L487.4,456.1L485.8,451.5L484.2,446.8L482.7,442.2L481.2,437.6L479.7,433.0L479.2,431.4L478.7,429.8L478.3,428.1L477.9,426.5L477.6,424.9L477.4,423.3L477.2,421.7L477.0,420.1L476.9,418.5L476.9,416.8L476.9,415.2L477.0,413.6L477.1,412.0L477.2,410.3L477.4,408.7L477.7,407.0L478.0,405.3L478.3,403.6L478.8,401.6L479.2,399.6L479.7,397.5L480.2,395.3L480.8,393.2L481.4,391.1L482.1,389.0L483.0,387.0L484.0,385.1L485.4,386.1L486.1,387.6L486.9,390.8L487.3,392.9L487.8,394.9L488.2,397.0L488.7,399.0L489.1,401.0L489.6,403.1L490.0,405.1L490.5,407.1L491.0,409.2L491.5,411.2L492.0,413.2L492.6,415.2L493.1,417.2L493.7,419.3L494.3,421.3L494.9,423.3L495.5,425.3L496.9,429.5L498.4,433.7L499.8,437.9L501.3,442.1L502.9,446.2L504.5,450.4L506.1,454.6L507.8,458.9L509.5,463.1L511.2,467.3L513.0,471.6L514.8,475.9L516.7,480.2L518.6,484.6L520.6,489.0L522.5,493.4L524.6,497.9L526.6,502.5L527.3,504.2L527.7,505.7L527.7,507.5L527.3,509.4L526.6,510.9L525.2,512.8L523.5,514.0L521.4,514.2L519.2,513.4L517.7,512.1L517.7,512.1Z" fill="rgb(255,160,65)" stroke="rgba(0,0,0,0.32)" stroke-width="0.8"/><path d="M354.0,315.1L352.6,313.5L351.2,311.8L350.0,310.0L348.8,308.1L347.1,304.8L346.0,302.7L345.0,300.6L344.1,298.5L343.1,296.4L342.2,294.3L341.3,292.2L340.4,290.0L339.5,287.8L338.7,285.7L337.8,283.5L337.0,281.3L336.2,279.1L335.3,276.9L334.5,274.7L333.7,272.5L332.8,270.3L332.0,268.1L331.2,265.4L330.6,262.4L330.2,259.3L330.1,257.7L330.0,256.1L330.0,254.5L329.9,252.8L330.0,251.2L330.0,249.6L330.0,247.9L330.2,244.8L330.3,241.9L330.4,240.3L332.3,241.5L333.6,242.8L334.9,244.2L336.0,245.6L337.0,247.0L338.0,248.4L338.9,249.9L339.7,251.5L340.5,253.0L341.2,254.6L341.9,256.2L342.5,257.8L343.2,259.5L343.8,261.1L344.5,262.8L345.1,264.5L345.8,266.2L346.5,267.9L347.5,270.1L348.5,272.4L349.5,274.8L350.6,277.3L351.6,279.9L352.7,282.6L353.7,285.4L354.6,288.2L355.5,291.0L356.2,293.8L356.8,296.6L357.3,299.4L357.5,302.1L357.6,304.8L357.5,307.5L357.2,310.0L356.5,312.5L355.6,314.8L354.0,315.1L354.0,315.1ZM345.8,316.0L344.2,315.2L342.5,314.3L340.5,313.2L338.5,312.0L336.6,310.6L334.7,309.2L333.1,307.7L331.7,306.2L330.7,304.6L329.5,301.8L328.6,299.0L328.1,296.3L327.8,293.6L327.8,290.9L327.9,288.1L328.0,285.3L328.2,282.4L328.4,279.4L329.7,278.5L331.1,281.2L331.9,283.2L332.7,285.3L333.5,287.3L334.3,289.4L335.2,291.4L336.1,293.4L337.0,295.4L337.9,297.5L338.8,299.5L339.7,301.5L340.6,303.5L341.6,305.6L342.5,307.6L343.4,309.6L344.3,311.6L345.2,313.7L346.1,315.7L345.8,316.0ZM372.8,314.7L371.9,313.0L371.3,311.1L370.9,309.0L370.7,306.8L370.7,304.4L370.8,302.0L371.1,299.5L371.5,296.9L372.0,294.3L372.6,291.7L373.3,289.2L374.1,286.7L374.9,284.2L375.7,281.9L376.5,279.7L377.3,277.6L378.2,275.7L378.9,274.0L379.9,271.9L380.8,269.8L381.6,267.8L382.5,265.7L383.3,263.7L384.1,261.7L384.9,259.7L385.7,257.7L386.5,255.8L387.4,253.9L388.3,252.0L389.3,250.2L390.4,248.4L391.6,246.7L392.8,245.0L394.2,243.3L395.7,241.7L397.3,240.1L398.1,241.9L398.2,245.0L398.3,248.1L398.3,251.3L398.3,252.9L398.3,254.5L398.2,256.1L397.9,259.2L397.5,262.3L396.9,265.3L396.1,268.2L395.2,270.8L394.3,273.5L393.4,276.1L392.5,278.9L391.5,281.6L390.5,284.3L389.4,287.0L388.3,289.7L387.2,292.4L386.0,295.1L384.8,297.7L383.5,300.3L382.2,302.9L380.8,305.4L379.4,307.9L377.9,310.3L376.3,312.6L374.7,314.8L373.1,315.1L372.8,314.7ZM398.0,278.5L399.5,279.5L400.1,281.8L400.3,283.6L400.4,285.6L400.5,287.6L400.5,289.5L400.5,291.3L400.5,293.5L400.4,295.5L400.2,297.4L399.8,299.1L399.3,300.7L398.7,302.3L398.0,303.7L396.2,306.3L394.0,308.6L392.8,309.7L391.5,310.7L390.2,311.6L388.8,312.6L387.3,313.5L385.8,314.3L384.2,315.2L382.6,316.1L383.0,313.6L384.0,311.6L384.9,309.6L385.9,307.5L386.8,305.5L387.8,303.4L388.7,301.4L389.7,299.3L390.6,297.3L391.5,295.2L392.4,293.1L393.3,291.1L394.2,289.0L395.0,286.9L395.8,284.8L396.6,282.7L397.3,280.6L398.0,278.5L398.0,278.5ZM362.6,290.5L361.6,289.0L360.9,287.4L360.0,284.9L359.2,282.8L358.4,280.6L357.6,278.5L356.8,276.4L355.9,274.2L355.1,272.1L354.2,270.0L353.3,267.9L352.4,265.7L351.5,263.6L350.6,261.5L349.6,259.4L348.6,257.4L348.0,255.7L347.5,254.2L346.9,252.0L346.1,250.1L344.8,248.4L342.7,247.1L340.7,246.4L342.9,245.6L345.2,245.6L347.6,245.7L350.1,245.9L352.7,246.3L355.2,246.7L357.6,247.1L359.9,247.5L362.1,247.9L363.8,248.1L365.5,248.0L368.3,247.5L371.2,247.0L374.1,246.6L377.0,246.2L380.0,246.0L382.9,245.8L385.9,245.7L387.5,245.7L385.6,247.0L384.2,247.8L382.7,249.2L381.8,251.0L381.1,253.0L380.5,255.1L379.8,256.6L379.0,258.5L378.1,260.4L377.3,262.3L376.5,264.2L375.6,266.0L374.8,267.9L374.0,269.9L373.3,271.8L372.5,273.7L371.7,275.6L371.0,277.5L370.3,279.4L369.6,281.4L368.8,283.3L368.3,284.9L367.7,286.3L366.8,288.3L365.9,290.1L364.6,291.2L362.9,290.8L362.6,290.5Z" fill="rgba(255,255,255,0.08)" stroke="rgba(0,0,0,0.32)" stroke-width="0.8"/><path d="M285.0,307.0L284.8,305.4L287.7,304.0L290.4,302.5L293.1,301.0L295.7,299.4L298.4,297.8L301.0,296.1L303.5,294.4L306.1,292.6L308.6,290.7L311.0,288.8L313.5,286.8L315.9,284.8L318.2,282.7L320.5,280.6L322.0,279.7L323.6,280.1L324.5,282.9L324.6,284.7L324.7,286.5L324.7,288.3L324.7,290.1L324.6,291.9L324.5,293.7L324.4,295.6L324.2,297.4L324.0,299.2L323.8,301.0L323.5,302.8L323.1,304.7L322.7,306.5L322.1,308.4L321.1,309.6L319.3,310.6L317.4,310.9L314.6,311.1L312.3,311.2L310.0,311.2L307.7,311.2L305.4,311.0L303.1,310.9L300.9,310.6L298.6,310.3L296.3,309.9L294.1,309.5L291.8,308.9L289.5,308.4L287.3,307.7L285.0,307.0L285.0,307.0ZM414.0,311.2L412.4,311.1L410.2,310.9L408.5,310.4L407.1,309.4L406.1,308.0L405.3,305.8L404.8,303.2L404.5,301.5L404.3,299.7L404.1,298.0L403.9,296.3L403.7,294.6L403.6,292.9L403.6,291.2L403.5,289.5L403.6,287.8L403.6,286.1L403.7,284.4L403.8,282.7L403.9,281.0L405.3,279.8L407.1,280.2L410.5,283.2L412.8,285.2L415.2,287.2L417.5,289.1L419.9,290.9L422.3,292.7L424.7,294.4L427.2,296.1L429.6,297.7L432.1,299.2L434.6,300.7L437.1,302.1L439.6,303.4L442.2,304.7L443.6,305.7L442.9,307.3L439.9,308.1L437.9,308.6L435.9,309.1L433.9,309.5L432.0,309.9L430.0,310.2L428.0,310.5L426.0,310.7L424.0,310.9L422.0,311.0L420.0,311.1L418.0,311.2L416.0,311.2L414.0,311.2L414.0,311.2Z" fill="rgb(255,178,62)" stroke="rgba(0,0,0,0.32)" stroke-width="0.8"/><path d="M274.1,311.7L275.6,313.0L276.8,314.5L277.7,316.3L278.2,318.3L278.4,320.0L276.3,321.5L274.5,322.4L272.7,323.2L270.9,324.0L269.0,324.8L267.1,325.6L265.2,326.3L263.4,327.2L261.5,328.0L259.8,328.9L258.1,329.9L256.4,331.0L254.9,332.2L253.5,333.5L252.2,335.0L251.0,336.6L250.0,338.4L249.2,340.3L248.5,342.6L248.1,345.1L247.9,347.9L247.8,350.7L247.8,353.6L247.8,356.5L247.9,359.2L247.9,361.7L247.8,364.0L247.5,366.1L247.1,368.2L246.4,370.3L245.6,372.3L244.6,374.2L243.4,376.2L242.0,378.1L240.6,379.9L239.2,381.6L237.9,383.2L236.7,384.8L235.5,386.2L234.4,387.5L233.4,388.8L231.6,391.0L230.0,392.8L228.7,394.2L227.1,395.7L225.4,396.5L223.6,396.7L221.9,396.4L220.1,395.6L218.2,394.6L215.0,392.7L212.6,391.0L210.3,389.2L208.2,387.3L206.2,385.2L204.3,383.1L202.6,380.8L201.0,378.4L199.6,376.0L198.3,373.5L197.2,370.8L196.3,368.2L195.6,365.4L195.1,362.6L194.8,359.8L194.6,356.9L194.7,354.0L195.0,351.0L195.4,348.6L196.0,346.2L196.7,343.9L197.6,341.7L198.5,339.5L199.6,337.4L200.8,335.3L202.2,333.3L203.6,331.4L205.0,329.5L206.6,327.7L208.2,325.9L209.9,324.1L211.7,322.4L213.5,320.8L215.3,319.2L217.2,317.6L219.1,316.0L221.9,313.8L224.8,311.8L227.7,310.0L230.6,308.3L233.6,306.9L236.6,305.7L239.6,304.8L242.6,304.0L245.7,303.6L248.7,303.3L251.8,303.4L255.0,303.7L258.1,304.3L261.3,305.1L264.4,306.3L267.6,307.8L270.8,309.6L274.1,311.7L274.1,311.7ZM450.4,320.8L449.7,319.3L450.3,317.1L451.1,315.3L452.1,313.8L453.3,312.4L454.7,311.2L456.2,310.1L457.9,309.1L459.8,308.2L461.8,307.3L465.9,305.7L469.9,304.5L473.8,303.8L477.6,303.4L481.3,303.5L484.9,303.9L488.4,304.6L491.8,305.6L495.1,307.0L498.4,308.6L501.6,310.4L504.7,312.4L507.7,314.7L510.7,317.1L513.6,319.7L516.4,322.4L519.2,325.1L522.0,328.0L525.2,331.8L527.8,335.8L529.9,339.9L531.6,344.1L532.7,348.5L533.3,352.9L533.4,357.3L533.1,361.6L532.4,365.9L531.1,370.2L529.5,374.3L527.5,378.2L525.0,381.9L522.2,385.4L519.0,388.6L515.4,391.5L511.5,394.0L507.2,396.2L505.1,396.8L503.3,396.7L501.8,396.0L500.3,394.8L498.8,393.4L497.4,391.7L495.4,389.4L493.3,387.1L491.2,384.7L489.1,382.3L488.1,381.0L486.2,378.5L484.5,375.8L483.0,373.1L481.8,370.3L480.8,366.6L480.5,364.4L480.3,362.1L480.2,359.9L480.2,357.6L480.2,355.4L480.3,353.2L480.3,351.0L480.3,348.8L480.2,346.7L480.0,344.6L479.6,342.5L479.0,340.5L478.1,338.5L477.0,336.6L475.6,334.8L473.9,333.0L471.7,331.3L469.4,329.6L466.9,328.1L464.4,326.7L461.8,325.4L459.2,324.2L456.5,323.1L453.8,322.2L452.2,321.6L450.6,320.9L450.4,320.8Z" fill="rgb(252,186,57)" stroke="rgba(0,0,0,0.32)" stroke-width="0.8"/><path d="M280.3,647.4L282.2,649.2L284.1,651.0L286.0,652.7L287.9,654.5L289.7,656.3L291.5,658.1L293.3,659.9L295.1,661.8L296.8,663.6L298.5,665.5L300.2,667.4L301.9,669.3L303.5,671.3L305.1,673.3L306.7,675.3L308.3,677.4L309.8,679.5L311.3,681.7L313.9,685.7L316.4,689.7L318.8,693.7L321.2,697.8L323.5,702.0L325.7,706.2L327.8,710.4L329.8,714.6L331.8,718.9L333.7,723.3L335.4,727.6L337.1,732.1L338.7,736.5L340.2,741.0L341.6,745.5L342.9,750.1L344.2,754.7L345.3,759.3L345.4,761.5L345.0,764.2L344.1,767.1L343.4,768.6L342.7,770.1L341.9,771.6L341.0,773.0L340.1,774.4L338.1,776.7L335.9,778.4L333.8,779.4L332.1,779.3L331.4,777.7L330.8,776.1L328.3,769.0L325.9,762.1L323.5,755.3L321.1,748.6L318.7,741.9L316.3,735.3L313.8,728.7L311.4,722.2L308.9,715.7L306.4,709.3L303.8,702.9L301.2,696.5L298.5,690.2L295.7,683.9L292.9,677.6L290.0,671.3L287.0,665.1L283.9,658.9L283.0,657.0L282.2,655.2L281.5,653.3L280.9,651.5L280.3,649.6L279.8,647.7L280.3,647.4ZM331.6,898.3L331.0,894.1L330.5,890.0L330.0,885.8L329.4,881.6L328.7,877.5L328.0,873.3L327.3,869.1L326.5,865.0L325.6,860.8L324.7,856.7L323.8,852.5L322.9,848.4L322.0,844.3L321.0,840.2L320.1,836.0L319.1,831.9L318.1,827.8L317.2,823.8L314.4,812.0L311.5,800.3L308.7,788.6L305.8,776.9L302.8,765.2L299.9,753.5L296.8,741.8L293.8,730.1L290.7,718.4L287.6,706.7L284.4,695.1L281.2,683.4L278.0,671.7L274.7,660.1L278.3,667.1L281.6,674.2L284.9,681.3L288.1,688.5L291.3,695.7L294.4,703.0L297.5,710.2L300.6,717.5L303.5,724.8L306.5,732.2L309.3,739.6L312.1,747.0L314.7,754.4L317.3,761.9L319.8,769.4L322.2,776.9L324.5,784.4L326.7,792.0L328.2,797.7L329.7,803.5L331.1,809.3L332.3,815.2L333.5,821.1L334.5,827.0L335.4,833.0L336.1,839.0L336.7,845.0L337.1,851.0L337.2,857.0L337.2,862.9L336.9,868.9L336.4,874.9L335.6,880.8L334.6,886.7L333.3,892.5L331.6,898.3L331.6,898.3ZM334.5,789.2L335.4,787.8L336.9,785.5L337.9,784.2L339.0,782.7L340.1,781.2L341.3,779.6L342.5,778.0L343.7,776.4L344.9,774.9L346.0,773.5L347.1,772.2L348.9,770.1L350.3,769.0L351.9,769.3L352.2,775.5L351.9,780.5L351.6,785.5L351.3,790.4L350.9,795.4L350.5,800.3L349.9,805.2L349.4,810.2L348.8,815.1L348.1,820.0L347.4,824.9L346.6,829.8L345.8,834.6L345.0,839.5L344.5,841.3L343.9,843.0L343.2,844.7L341.9,842.1L341.4,838.4L340.8,834.8L340.3,831.2L339.7,827.5L339.1,823.9L338.5,820.3L337.9,816.7L337.3,813.1L336.7,809.4L336.0,805.8L335.4,802.2L334.7,798.6L334.0,795.0L333.7,793.1L333.8,791.4L334.2,789.8L334.5,789.2ZM395.5,779.4L393.6,779.3L391.7,778.4L390.0,776.8L388.3,774.6L386.8,772.2L385.5,769.7L384.4,767.3L383.5,765.2L383.0,763.5L382.7,761.9L382.8,760.3L384.5,752.8L386.2,746.8L388.0,740.9L390.0,735.1L392.1,729.3L394.4,723.5L396.8,717.9L399.4,712.3L402.1,706.7L405.0,701.3L408.1,695.9L411.2,690.5L414.6,685.3L418.1,680.1L419.6,677.8L421.2,675.7L422.8,673.6L424.4,671.6L426.0,669.7L427.5,667.8L429.2,666.0L430.8,664.2L432.4,662.5L434.0,660.8L435.7,659.1L437.4,657.4L439.1,655.8L440.8,654.2L442.5,652.5L444.3,650.9L446.1,649.2L447.9,647.5L447.9,649.4L447.5,651.0L447.1,652.5L446.5,654.1L445.9,655.6L445.3,657.1L444.6,658.6L441.4,665.0L438.3,671.4L435.3,678.0L432.4,684.5L429.5,691.1L426.8,697.7L424.1,704.3L421.4,710.9L418.8,717.6L416.3,724.3L413.8,731.0L411.3,737.8L408.8,744.5L406.4,751.2L404.0,758.0L401.6,764.7L399.2,771.5L396.8,778.2L395.6,779.4L395.5,779.4ZM453.6,659.0L450.1,672.5L446.3,685.9L442.6,699.4L439.0,712.8L435.4,726.3L431.9,739.8L428.4,753.4L424.9,767.0L421.5,780.5L418.2,794.2L414.9,807.8L411.6,821.4L408.4,835.1L405.2,848.8L404.6,851.7L404.0,854.7L403.4,857.7L402.8,860.6L402.2,863.7L401.6,866.7L401.0,869.7L400.4,872.7L399.8,875.7L399.5,877.2L399.2,878.8L398.9,880.4L398.7,882.0L398.4,883.6L398.2,885.2L398.0,886.8L397.8,888.4L397.7,890.0L397.5,891.6L397.4,893.2L397.2,894.8L397.1,896.5L397.0,898.1L395.5,894.0L394.4,889.9L393.4,885.7L392.6,881.4L392.0,877.2L391.5,872.9L391.2,868.5L391.0,864.2L390.9,859.8L390.9,855.5L391.1,851.2L391.4,846.8L391.7,842.5L392.2,838.2L392.7,833.9L393.4,829.7L394.1,825.4L394.9,821.3L396.8,811.9L399.0,802.5L401.4,793.2L403.9,784.0L406.7,774.8L409.6,765.6L412.7,756.5L415.9,747.4L419.3,738.4L422.8,729.4L426.4,720.5L430.0,711.6L433.8,702.7L437.7,693.9L441.6,685.1L445.6,676.4L449.6,667.7L453.7,659.0L453.6,659.0ZM377.9,768.7L379.3,769.7L380.4,771.1L381.4,772.5L383.2,774.8L385.0,777.1L386.7,779.4L388.5,781.7L390.2,784.0L391.9,786.3L393.1,787.9L394.0,789.4L394.5,791.3L394.5,792.9L394.2,794.9L393.5,798.5L392.9,802.1L392.3,805.7L391.6,809.3L391.0,812.9L390.4,816.6L389.8,820.2L389.2,823.8L388.6,827.4L388.0,831.0L387.4,834.6L386.9,838.2L386.3,841.9L385.8,845.5L384.6,843.7L384.0,841.9L383.4,840.2L383.0,838.5L382.0,832.8L381.3,828.2L380.6,823.6L380.0,819.0L379.4,814.3L378.8,809.7L378.3,805.0L377.8,800.4L377.4,795.8L377.0,791.1L376.6,786.4L376.3,781.8L376.1,777.1L375.8,772.4L375.9,770.8L376.5,769.2L377.9,768.7Z" fill="rgb(227,246,21)" stroke="rgba(0,0,0,0.32)" stroke-width="0.8"/><path d="M292.4,935.6L291.1,934.6L289.7,932.5L288.6,930.7L287.6,928.9L286.6,926.9L285.6,924.9L284.7,922.8L283.9,920.7L282.7,917.7L281.7,914.7L280.6,911.7L279.6,908.7L278.6,905.7L277.6,902.7L276.6,899.7L275.7,896.7L274.8,893.6L273.9,890.6L273.0,887.5L272.2,884.5L271.3,881.4L270.6,878.3L269.0,872.4L267.5,866.5L265.9,860.5L264.4,854.6L262.8,848.7L261.3,842.7L259.8,836.7L258.3,830.8L256.8,824.8L255.3,818.8L253.9,812.8L252.5,806.9L251.2,800.9L249.9,794.8L248.7,788.8L247.6,782.8L246.5,776.8L245.5,770.8L244.8,765.0L244.3,759.2L244.0,753.4L244.1,747.4L244.3,741.4L244.8,735.4L245.5,729.3L246.5,723.3L247.6,717.3L249.0,711.3L250.5,705.4L252.2,699.6L254.2,693.9L256.3,688.3L258.5,682.8L260.9,677.5L263.5,672.3L266.2,667.4L269.2,676.7L271.9,685.9L274.7,695.0L277.5,704.1L280.4,713.2L283.4,722.3L286.3,731.3L289.2,740.4L292.0,749.4L294.7,758.5L297.2,767.6L299.6,776.8L301.7,785.9L303.7,795.2L305.3,804.5L306.6,813.8L307.6,823.3L308.2,832.8L308.4,837.2L308.5,841.6L308.6,846.0L308.7,850.4L308.7,854.8L308.7,859.2L308.7,863.6L308.6,868.0L308.4,872.4L308.2,876.8L308.0,881.2L307.7,885.6L307.3,890.0L306.9,894.4L306.4,898.7L305.9,903.1L305.3,907.5L304.6,911.8L304.3,913.8L303.7,916.8L303.3,918.6L302.8,920.6L302.3,922.6L301.7,924.6L301.1,926.7L300.4,928.6L299.6,930.4L298.7,932.1L297.9,933.5L295.9,935.5L293.6,936.0L292.4,935.6ZM275.1,942.9L273.8,941.6L272.8,940.2L271.9,938.5L270.9,935.9L270.2,934.2L269.6,932.4L268.9,930.6L268.3,928.9L267.6,927.1L266.9,925.4L266.2,923.7L265.6,921.9L264.9,920.2L264.2,918.4L263.4,916.7L262.7,915.0L262.0,913.3L261.2,911.5L260.4,909.8L259.6,908.1L258.7,906.4L257.5,903.7L256.3,901.0L255.2,898.3L254.2,895.5L253.2,892.6L252.4,889.8L251.5,886.9L250.8,884.0L250.1,881.1L249.5,878.1L248.8,875.2L248.3,872.3L247.8,869.3L247.3,866.4L246.8,863.5L246.4,860.6L245.9,857.7L245.5,854.9L245.2,852.5L244.9,850.0L244.6,847.4L244.4,844.9L244.1,842.3L243.9,839.7L243.7,837.0L243.6,834.4L243.4,831.7L243.2,829.1L243.0,826.4L242.9,823.7L242.7,821.0L242.5,818.3L242.3,815.7L242.1,813.0L241.9,810.4L241.6,807.7L241.5,806.0L241.3,804.4L241.2,802.4L241.2,800.4L241.2,798.4L241.3,796.6L241.6,794.6L242.9,793.6L244.4,795.0L245.1,796.5L245.9,798.1L246.5,799.7L247.1,801.3L247.6,802.9L249.0,811.5L250.3,819.0L251.8,826.4L253.3,833.8L254.9,841.2L256.7,848.5L258.5,855.8L260.4,863.1L262.5,870.3L264.6,877.6L266.8,884.8L269.2,891.9L271.6,899.1L274.2,906.2L275.2,909.3L275.9,911.2L276.5,913.3L277.1,915.5L277.7,917.9L278.3,920.3L278.8,922.7L279.2,925.2L279.5,927.7L279.7,930.1L279.8,932.4L279.7,934.6L279.4,936.7L278.9,938.6L278.2,940.3L277.2,941.8L276.0,943.0L275.1,942.9ZM322.7,945.7L321.3,947.2L319.8,947.9L318.2,947.7L316.5,947.0L314.9,945.8L313.3,944.3L312.0,942.8L310.9,941.3L309.6,939.2L308.8,937.1L308.2,934.8L307.9,932.4L307.7,929.9L307.7,927.3L307.8,924.9L307.9,922.5L308.2,920.3L309.0,914.7L309.6,910.1L310.1,905.5L310.6,901.0L311.1,896.5L311.5,892.1L311.8,887.7L312.1,883.3L312.4,878.9L312.5,874.5L312.7,870.1L312.7,865.7L312.7,861.2L312.7,856.8L312.5,852.3L312.4,847.7L312.1,843.2L311.8,838.5L314.2,843.2L316.2,847.9L318.0,852.7L319.7,857.5L321.1,862.3L322.4,867.2L323.5,872.1L324.5,877.0L325.2,882.0L325.8,887.0L326.2,892.0L326.4,897.1L326.5,902.2L326.3,907.4L326.2,909.0L326.1,910.6L326.0,912.4L325.8,914.2L325.6,916.0L325.4,917.8L325.2,919.7L324.9,921.7L324.7,923.6L324.5,925.6L324.3,927.6L324.1,929.6L323.9,931.6L323.7,933.6L323.6,935.6L323.5,937.6L323.4,939.5L323.4,941.5L323.3,943.4L323.0,945.1L322.7,945.7ZM437.8,933.5L436.4,935.4L435.0,936.3L432.3,935.8L431.1,934.6L429.9,932.8L428.8,930.6L427.8,928.0L426.9,925.2L426.0,922.2L425.2,919.1L424.5,916.1L423.9,913.2L423.4,910.6L423.0,908.3L422.7,906.4L422.4,904.3L421.7,898.1L421.0,892.0L420.5,885.8L420.1,879.7L419.8,873.5L419.6,867.4L419.4,861.2L419.4,855.1L419.5,848.9L419.6,842.8L419.9,836.6L420.2,830.5L420.6,824.3L421.2,818.2L422.1,809.6L423.4,801.1L424.9,792.6L426.7,784.2L428.7,775.8L430.8,767.5L433.1,759.2L435.6,750.9L438.1,742.7L440.8,734.4L443.5,726.1L446.2,717.8L448.9,709.5L451.6,701.2L454.2,692.8L456.8,684.3L459.2,675.8L461.6,667.3L464.8,672.5L467.5,677.9L469.9,683.4L472.2,689.0L474.2,694.6L476.1,700.3L477.8,706.1L479.3,711.9L480.6,717.7L481.7,723.6L482.6,729.6L483.3,735.5L483.7,741.5L483.9,747.5L484.0,753.5L483.7,759.5L483.3,765.6L482.6,771.6L482.2,774.0L481.9,776.6L481.4,779.3L480.9,782.0L480.4,784.8L479.9,787.8L479.3,790.8L478.6,793.9L477.9,797.1L477.2,800.3L476.4,803.7L475.6,807.2L474.8,810.7L473.9,814.3L472.8,818.7L471.7,823.0L470.6,827.3L469.6,831.6L468.5,835.9L467.4,840.3L466.3,844.6L465.2,848.9L464.1,853.2L463.0,857.5L462.0,861.8L460.9,866.2L459.8,870.5L458.7,874.8L457.8,878.3L456.9,881.7L455.9,885.2L454.9,888.6L453.9,892.0L452.9,895.4L451.9,898.8L450.8,902.2L449.6,905.6L448.5,909.0L447.3,912.4L446.1,915.7L444.9,919.1L443.6,922.4L442.7,924.5L442.0,926.0L441.3,927.6L440.4,929.2L439.4,930.9L438.4,932.6L437.8,933.5ZM451.8,942.6L450.4,940.7L449.3,938.5L448.7,935.9L448.4,933.0L448.5,929.9L448.8,926.6L449.4,923.1L450.1,919.5L451.0,915.8L452.1,912.1L453.2,908.5L454.4,904.9L455.7,901.4L456.9,898.1L458.0,894.9L459.1,892.1L460.0,889.5L460.7,887.2L462.5,881.5L464.2,875.9L465.8,870.2L467.4,864.5L469.0,858.8L470.4,853.0L471.8,847.3L473.2,841.6L474.5,835.8L475.7,830.0L476.9,824.2L478.0,818.4L479.0,812.6L480.0,806.7L480.4,804.8L480.8,803.1L481.3,801.2L481.8,799.3L482.5,797.5L483.3,795.9L484.5,794.0L486.1,793.5L486.7,795.2L486.9,796.9L487.0,798.6L487.0,800.3L486.9,802.0L486.6,806.5L486.3,811.0L486.0,815.7L485.6,820.5L485.3,825.3L484.9,830.1L484.5,835.1L484.1,840.0L483.6,845.0L483.0,850.0L482.4,855.1L481.7,860.1L481.0,865.1L480.2,870.1L479.3,875.1L478.3,880.0L477.2,884.9L475.9,889.7L475.2,892.4L474.3,895.1L473.3,897.8L472.3,900.5L471.1,903.2L469.8,905.9L468.5,908.5L467.1,911.3L465.8,914.1L464.6,916.8L463.5,919.6L462.4,922.5L461.4,925.3L460.4,928.1L459.4,931.0L458.4,933.8L457.6,935.7L456.8,937.6L455.8,939.5L454.7,941.3L453.7,942.6L452.1,942.8L451.8,942.6ZM406.7,946.8L405.5,945.0L404.8,942.7L404.7,940.9L404.7,939.0L404.7,937.1L404.8,935.3L404.8,933.6L404.4,929.7L404.1,927.4L403.8,925.3L403.6,923.3L403.3,921.4L403.1,919.6L402.9,918.0L402.6,915.1L402.3,912.6L402.2,910.7L401.9,905.8L401.8,901.6L401.8,897.5L402.0,893.4L402.3,889.3L402.7,885.2L403.2,881.2L403.8,877.1L404.6,873.1L405.4,869.1L406.4,865.2L407.5,861.2L408.7,857.3L409.9,853.4L411.3,849.5L412.8,845.7L414.4,841.8L416.1,838.0L416.1,841.3L415.9,844.4L415.8,847.6L415.7,850.8L415.6,854.0L415.5,857.2L415.5,860.4L415.4,863.6L415.5,866.7L415.5,869.9L415.6,873.1L415.7,876.3L415.8,879.5L416.0,882.7L416.2,885.9L416.5,889.1L416.8,892.3L417.1,895.4L417.4,897.6L417.6,899.9L417.8,902.0L418.1,904.2L418.3,906.4L418.6,908.6L418.8,910.8L419.0,913.0L419.3,915.2L419.5,917.4L419.8,919.6L420.0,921.8L420.3,924.0L420.5,926.2L420.6,928.3L420.6,930.6L420.3,933.0L420.0,934.6L419.5,936.9L418.7,939.0L417.7,940.8L416.8,942.2L415.6,943.7L414.2,945.1L412.8,946.3L411.2,947.2L409.7,947.7L407.4,947.3L406.7,946.8Z" fill="rgb(227,246,21)" stroke="rgba(0,0,0,0.32)" stroke-width="0.8"/><path d="M297.7,1008.4L296.5,1009.5L293.9,1011.1L291.4,1012.0L288.8,1012.2L286.4,1011.7L284.1,1010.7L282.0,1009.1L280.1,1007.1L278.7,1004.6L277.2,1000.9L276.3,998.6L275.5,996.4L274.7,994.1L274.0,991.9L273.3,989.7L272.6,987.5L271.9,985.3L271.3,983.1L270.6,981.0L270.1,978.8L269.5,976.7L269.0,974.6L268.5,972.5L267.9,969.6L267.5,966.6L267.5,963.6L267.8,960.7L268.6,958.2L269.9,956.0L271.9,954.2L274.7,953.1L276.3,952.7L278.2,952.6L280.1,952.6L281.9,952.6L283.8,952.6L285.7,952.7L287.5,952.8L289.4,952.9L291.3,953.0L293.1,953.2L295.0,953.4L296.8,953.6L298.7,953.8L300.6,954.1L302.4,954.4L304.3,954.8L305.9,955.2L307.5,955.8L308.7,958.2L309.1,960.0L309.4,961.8L309.7,963.7L310.0,965.6L310.1,967.5L310.2,969.4L310.3,971.4L310.3,973.3L310.3,975.3L310.1,977.2L310.0,979.1L309.8,981.1L309.6,982.9L309.3,984.8L309.0,986.6L308.6,988.4L308.2,990.2L307.4,993.0L306.4,995.8L305.1,998.4L303.6,1001.0L301.9,1003.5L299.9,1006.0L298.8,1007.2L297.7,1008.4L297.7,1008.4ZM288.0,1059.5L286.7,1056.4L286.6,1054.0L287.0,1051.3L287.7,1048.1L288.6,1044.6L289.8,1041.0L291.2,1037.1L292.7,1033.2L294.4,1029.3L296.0,1025.4L297.7,1021.6L299.4,1018.1L300.9,1014.8L302.3,1011.8L303.6,1009.3L304.6,1007.2L305.3,1005.6L306.4,1003.4L307.3,1001.2L308.3,999.0L309.2,996.7L310.1,994.5L310.9,992.2L311.7,989.9L312.5,987.6L313.2,985.3L313.9,983.0L314.5,980.7L315.1,978.3L315.7,976.0L316.2,973.6L316.6,972.0L317.2,970.4L317.8,968.9L318.8,967.1L320.1,965.4L321.5,964.6L323.2,966.8L324.1,969.6L324.6,972.2L324.7,974.6L324.5,977.1L324.1,979.6L323.4,982.2L322.5,985.1L322.0,986.6L321.5,988.3L321.0,990.0L319.5,994.7L317.9,999.4L316.3,1004.1L314.6,1008.8L312.8,1013.4L311.0,1018.0L309.1,1022.5L307.1,1027.0L305.0,1031.5L302.9,1036.0L300.7,1040.4L298.5,1044.9L296.2,1049.2L293.8,1053.6L292.7,1055.4L291.5,1057.1L290.2,1058.7L289.0,1059.8L288.0,1059.5ZM430.4,1008.3L428.4,1006.1L426.6,1003.8L424.9,1001.4L423.5,998.8L422.2,996.1L421.1,993.4L420.2,990.6L419.4,987.7L418.9,984.7L418.4,981.7L418.1,978.7L418.0,975.7L417.9,972.7L418.0,969.7L418.2,966.7L418.6,963.7L419.0,960.8L419.5,958.0L420.1,956.5L421.5,955.4L423.9,954.8L425.5,954.5L427.2,954.3L428.8,954.0L430.4,953.8L432.1,953.6L433.7,953.4L435.4,953.2L437.0,953.0L438.7,952.9L440.4,952.8L442.0,952.7L443.7,952.6L445.3,952.5L447.6,952.5L449.6,952.7L451.5,952.9L453.2,953.2L456.0,954.3L458.1,955.9L459.6,957.9L460.5,960.5L460.8,963.6L460.7,965.3L460.6,967.1L460.3,969.1L459.9,971.2L459.4,973.3L458.9,975.4L458.4,977.5L457.8,979.7L457.3,981.8L456.7,984.0L456.0,986.1L455.4,988.3L454.7,990.5L453.9,992.7L453.2,994.9L452.4,997.1L451.6,999.3L450.8,1001.5L450.1,1003.0L448.7,1005.8L446.9,1008.2L444.8,1010.1L442.6,1011.5L440.1,1012.2L437.5,1012.2L434.7,1011.4L433.3,1010.6L431.9,1009.6L430.4,1008.3L430.4,1008.3ZM439.0,1059.5L437.7,1058.4L436.6,1057.1L435.6,1055.6L432.3,1049.7L429.6,1044.5L426.9,1039.3L424.4,1034.0L421.9,1028.7L419.6,1023.4L417.3,1018.0L415.1,1012.6L413.1,1007.1L411.1,1001.6L409.2,996.1L407.4,990.5L405.7,984.9L404.1,979.2L403.6,977.1L403.4,974.9L403.4,972.9L403.7,970.8L404.2,968.9L405.0,966.9L406.0,965.1L407.6,964.7L408.7,966.0L409.6,967.4L410.4,968.8L411.0,970.3L411.6,971.9L412.1,973.7L412.9,977.4L413.7,980.4L414.5,983.3L415.3,986.1L416.2,988.9L417.2,991.7L418.2,994.5L419.2,997.2L420.3,999.9L421.5,1002.6L422.7,1005.3L423.9,1008.1L425.2,1010.8L426.5,1013.6L427.9,1016.5L429.3,1019.4L430.8,1022.4L432.3,1025.4L433.6,1028.2L434.3,1029.9L435.1,1031.7L435.9,1033.6L436.7,1035.7L437.5,1037.8L438.2,1039.9L438.9,1042.1L439.6,1044.3L440.2,1046.5L440.6,1048.6L441.0,1050.7L441.3,1052.6L441.4,1054.5L441.4,1056.2L440.8,1059.0L439.3,1059.7L439.0,1059.5Z" fill="rgba(255,255,255,0.08)" stroke="rgba(0,0,0,0.32)" stroke-width="0.8"/><path d="M263.5,973.6L265.2,974.4L265.9,976.2L266.4,978.1L267.8,986.8L269.1,995.2L270.5,1003.5L272.0,1011.8L273.4,1020.1L274.9,1028.4L276.3,1036.7L277.8,1045.0L279.3,1053.3L280.7,1061.6L282.2,1069.9L283.6,1078.2L285.0,1086.5L286.4,1094.9L287.7,1103.2L289.0,1111.5L290.2,1119.8L291.4,1128.2L292.1,1132.9L292.7,1137.7L293.2,1142.5L293.7,1147.3L294.1,1152.0L294.5,1156.9L294.8,1161.7L295.1,1166.5L295.3,1171.3L295.5,1176.2L295.7,1181.1L295.7,1185.9L295.8,1190.8L295.7,1195.7L295.6,1197.6L295.0,1199.3L294.2,1200.8L292.6,1201.1L291.6,1199.6L290.7,1198.0L289.9,1196.4L287.9,1191.2L286.0,1186.4L284.2,1181.6L282.5,1176.8L280.8,1171.9L279.2,1167.0L277.6,1162.2L276.1,1157.3L274.7,1152.4L273.4,1147.4L272.1,1142.5L270.9,1137.5L269.8,1132.5L268.8,1127.5L267.8,1122.5L267.0,1117.4L266.2,1112.4L265.5,1107.3L264.8,1101.6L264.2,1096.1L263.6,1090.6L263.0,1085.3L262.5,1080.1L262.0,1074.9L261.6,1069.9L261.2,1065.0L260.9,1060.2L260.6,1055.5L260.3,1050.9L260.1,1046.4L259.9,1042.0L259.8,1037.8L259.8,1035.9L259.7,1034.0L259.7,1031.9L259.7,1029.8L259.7,1027.6L259.8,1025.4L259.9,1023.1L260.0,1020.9L260.1,1018.8L260.4,1015.8L260.6,1012.8L260.8,1009.9L261.0,1006.9L261.2,1003.9L261.4,1001.0L261.6,998.0L261.8,995.0L262.0,992.0L262.1,989.1L262.3,986.1L262.4,983.1L262.5,980.1L262.7,977.2L262.9,975.6L263.4,974.0L263.5,973.6ZM463.4,973.7L464.9,974.2L465.5,978.5L465.7,981.5L465.9,984.5L466.0,987.4L466.2,990.4L466.4,993.4L466.6,996.4L466.8,999.4L466.9,1002.4L467.1,1005.3L467.3,1008.3L467.5,1011.3L467.7,1014.3L467.8,1017.3L468.0,1020.3L468.2,1023.3L468.2,1026.2L468.3,1029.1L468.3,1031.9L468.3,1034.6L468.2,1037.2L468.0,1043.1L467.8,1048.9L467.5,1054.8L467.1,1060.6L466.7,1066.5L466.3,1072.3L465.7,1078.2L465.2,1084.1L464.6,1090.0L463.9,1095.9L463.2,1101.8L462.4,1107.7L461.6,1113.6L460.7,1119.5L460.0,1123.8L459.3,1128.1L458.4,1132.4L457.5,1136.7L456.5,1141.0L455.5,1145.3L454.4,1149.5L453.2,1153.8L451.9,1158.0L450.7,1162.2L449.3,1166.4L447.9,1170.6L446.5,1174.8L445.0,1178.9L443.5,1183.0L442.0,1187.1L440.4,1191.2L438.8,1195.3L438.0,1196.9L437.1,1198.6L436.1,1200.4L435.0,1201.6L433.7,1200.3L433.0,1198.7L432.6,1196.9L432.5,1195.0L432.5,1193.1L432.5,1191.2L432.6,1186.1L432.7,1181.1L432.8,1176.1L433.0,1171.3L433.3,1166.5L433.5,1161.7L433.9,1156.9L434.3,1152.1L434.7,1147.3L435.2,1142.5L435.8,1137.5L436.4,1132.5L437.0,1127.4L437.7,1122.2L438.5,1116.9L439.4,1111.4L440.3,1105.7L441.3,1099.8L442.6,1091.9L443.9,1084.1L445.3,1076.2L446.6,1068.3L447.9,1060.5L449.3,1052.6L450.6,1044.7L452.0,1036.9L453.3,1029.0L454.7,1021.2L456.1,1013.3L457.4,1005.5L458.8,997.6L460.2,989.7L460.6,987.4L460.8,985.7L461.0,983.9L461.3,982.1L461.6,980.2L462.0,978.4L462.4,976.5L463.0,974.6L463.4,973.7Z" fill="rgb(236,224,34)" stroke="rgba(0,0,0,0.32)" stroke-width="0.8"/><path d="M252.1,1032.6L252.2,1030.8L252.5,1028.3L252.8,1025.1L253.1,1023.4L253.3,1021.6L253.6,1019.8L253.8,1018.1L254.1,1016.4L254.5,1014.7L255.2,1011.8L255.9,1009.6L256.9,1008.3L258.4,1008.9L258.3,1010.6L258.1,1013.2L258.0,1015.8L257.8,1018.5L257.6,1021.1L257.4,1023.8L257.2,1026.3L257.1,1028.9L256.9,1031.4L256.8,1035.4L256.7,1038.1L256.7,1040.8L256.6,1043.5L256.6,1046.2L256.5,1048.9L256.5,1051.6L256.4,1054.3L256.4,1057.0L256.3,1059.7L256.3,1062.4L256.3,1065.2L256.3,1067.9L256.2,1070.6L256.3,1072.6L256.3,1074.6L256.5,1076.5L256.9,1080.5L257.3,1083.7L257.7,1086.8L258.2,1089.9L258.6,1093.0L259.1,1096.1L259.6,1099.2L260.1,1102.3L260.6,1105.4L261.1,1108.5L261.7,1111.6L262.3,1114.7L262.8,1117.8L263.4,1120.9L264.0,1124.0L264.6,1127.1L265.3,1130.1L265.9,1133.2L266.5,1136.4L267.2,1139.5L267.9,1142.6L268.6,1145.8L269.3,1148.9L270.1,1152.1L270.8,1155.2L271.6,1158.3L272.4,1161.5L273.1,1164.6L273.9,1167.8L274.7,1170.9L275.4,1174.1L276.2,1177.2L276.9,1180.4L277.6,1183.5L278.3,1186.7L279.0,1189.9L279.3,1191.5L279.6,1193.1L280.2,1196.1L280.6,1198.9L280.9,1201.4L281.0,1203.8L281.1,1205.9L281.1,1207.8L280.9,1210.0L280.5,1212.7L279.9,1215.8L279.6,1217.4L279.2,1219.0L278.7,1220.6L278.2,1222.2L277.7,1223.8L277.1,1225.3L275.8,1228.0L274.3,1230.2L272.6,1231.7L271.2,1230.6L270.7,1228.8L270.9,1226.8L271.2,1224.4L271.4,1222.0L271.6,1219.7L271.6,1217.3L271.6,1214.9L271.4,1212.5L271.2,1210.1L270.7,1207.7L269.3,1201.6L268.2,1196.8L267.1,1192.1L266.0,1187.5L264.9,1183.0L263.9,1178.6L262.9,1174.4L262.0,1170.2L261.1,1166.1L260.2,1162.2L259.3,1158.3L258.4,1154.6L257.6,1151.0L256.9,1147.4L256.3,1144.6L255.7,1141.8L255.2,1138.9L254.7,1136.0L254.3,1133.1L253.9,1130.1L253.5,1127.2L253.2,1124.2L252.9,1121.1L252.4,1114.8L252.0,1108.5L251.6,1102.2L251.3,1095.8L251.1,1089.5L251.0,1083.2L250.9,1076.9L250.8,1070.5L250.9,1064.2L251.0,1057.9L251.2,1051.6L251.4,1045.2L251.7,1038.9L252.1,1032.6L252.1,1032.6ZM315.0,1025.2L316.0,1029.5L316.7,1033.8L317.4,1038.2L318.1,1042.5L318.8,1046.9L319.5,1051.2L320.1,1055.6L320.7,1060.0L321.3,1064.3L321.9,1068.7L322.4,1073.1L322.8,1077.4L323.2,1081.7L323.5,1086.0L323.8,1090.3L323.9,1094.6L324.0,1098.8L324.0,1103.0L324.0,1104.7L323.9,1106.5L323.7,1108.3L323.5,1110.1L323.2,1111.9L322.9,1113.7L322.5,1115.6L322.1,1117.5L321.6,1119.4L321.1,1121.3L320.5,1123.3L319.8,1125.3L319.1,1127.3L318.3,1129.3L317.1,1132.4L316.1,1135.5L315.1,1138.6L314.2,1141.8L313.3,1144.9L312.5,1148.1L311.7,1151.3L311.0,1154.5L310.3,1157.8L309.5,1161.0L308.8,1164.2L308.0,1167.4L307.2,1170.6L306.4,1173.8L305.5,1176.9L304.5,1180.1L303.5,1183.2L302.3,1186.2L301.8,1180.5L301.4,1174.8L301.1,1169.2L300.6,1163.6L300.2,1158.0L299.7,1152.4L299.2,1146.8L298.8,1141.3L298.2,1135.7L297.7,1130.0L297.2,1124.4L296.7,1118.7L296.1,1112.9L295.6,1107.1L295.1,1101.2L294.6,1095.2L294.1,1089.1L293.6,1082.9L293.5,1081.2L293.4,1079.4L293.5,1077.7L293.5,1075.9L293.7,1074.2L293.9,1072.6L294.2,1070.9L294.6,1069.3L295.0,1067.6L295.4,1066.0L296.0,1064.4L296.6,1062.9L297.3,1061.3L298.0,1059.8L299.1,1057.7L300.2,1055.6L301.2,1053.5L302.3,1051.4L303.4,1049.3L304.5,1047.2L305.5,1045.1L306.6,1043.0L307.7,1040.9L308.8,1038.9L309.9,1036.8L311.0,1034.7L312.1,1032.6L313.2,1030.5L313.9,1028.8L314.4,1027.3L314.9,1025.5L315.0,1025.2ZM455.5,1231.7L453.3,1229.3L452.3,1227.8L451.5,1226.2L450.7,1224.4L450.0,1222.5L449.4,1220.5L448.8,1218.5L448.3,1216.4L447.9,1214.3L447.6,1212.2L447.4,1210.1L447.2,1208.1L447.1,1206.2L447.1,1204.4L447.1,1202.7L447.3,1199.8L447.6,1198.1L447.8,1196.3L448.1,1194.5L448.5,1192.6L448.9,1190.7L449.3,1188.7L449.7,1186.8L450.1,1184.8L450.6,1182.7L451.0,1180.7L451.5,1178.6L452.0,1176.5L452.6,1174.3L453.1,1172.2L453.6,1170.0L454.2,1167.9L454.7,1165.7L455.3,1163.5L456.6,1158.1L457.9,1152.8L459.2,1147.4L460.4,1142.0L461.6,1136.6L462.7,1131.2L463.8,1125.8L464.9,1120.4L465.9,1115.0L466.9,1109.5L467.8,1104.1L468.7,1098.7L469.6,1093.2L470.4,1087.7L470.9,1084.5L471.2,1081.2L471.5,1077.9L471.8,1074.6L471.9,1071.3L472.1,1067.9L472.1,1064.6L472.2,1061.2L472.2,1057.9L472.1,1054.5L472.1,1051.2L472.0,1047.8L471.9,1044.5L471.7,1041.2L471.6,1037.8L471.5,1034.5L471.3,1031.2L471.2,1027.9L471.1,1026.0L471.0,1024.0L470.8,1021.9L470.7,1019.8L470.5,1017.7L470.3,1015.6L470.2,1013.4L470.1,1011.3L469.9,1009.2L471.3,1008.2L472.2,1009.7L472.9,1011.2L473.3,1013.5L473.7,1015.4L474.1,1017.2L474.4,1019.0L474.7,1020.7L475.0,1022.2L475.5,1025.2L475.8,1027.8L476.1,1030.1L476.2,1032.0L476.6,1038.2L476.8,1044.3L477.0,1050.5L477.2,1056.6L477.3,1062.7L477.3,1068.8L477.3,1074.8L477.3,1080.9L477.1,1086.9L477.0,1092.9L476.7,1098.9L476.5,1104.9L476.1,1110.8L475.8,1116.8L475.6,1119.2L475.4,1121.7L475.1,1124.3L474.8,1126.8L474.5,1129.3L474.2,1131.9L473.8,1134.4L473.4,1137.0L473.0,1139.5L472.5,1142.1L472.0,1144.7L471.5,1147.3L470.9,1149.9L470.3,1152.5L469.4,1156.4L468.5,1160.4L467.6,1164.3L466.7,1168.2L465.8,1172.2L464.9,1176.1L464.0,1180.0L463.0,1183.9L462.1,1187.9L461.2,1191.8L460.3,1195.7L459.3,1199.7L458.4,1203.6L457.5,1207.5L457.0,1210.0L456.7,1212.5L456.5,1215.0L456.5,1217.7L456.6,1220.3L456.9,1223.1L457.4,1225.9L457.5,1227.5L457.4,1229.1L456.9,1230.9L455.6,1231.7L455.5,1231.7ZM412.8,1025.4L413.9,1027.3L414.7,1029.2L415.6,1031.1L416.5,1033.0L417.4,1034.9L418.3,1036.7L419.2,1038.6L420.2,1040.5L421.1,1042.4L422.1,1044.2L423.1,1046.1L424.1,1048.1L425.1,1050.0L426.1,1052.0L427.2,1054.0L428.2,1056.0L429.3,1058.1L430.3,1060.2L431.6,1062.8L432.5,1065.4L433.3,1067.9L433.9,1070.4L434.3,1073.0L434.5,1075.6L434.6,1078.3L434.6,1081.3L434.4,1084.4L434.0,1090.1L433.6,1095.9L433.2,1101.6L432.7,1107.3L432.3,1113.0L431.8,1118.7L431.3,1124.4L430.7,1130.1L430.2,1135.8L429.7,1141.5L429.2,1147.1L428.7,1152.8L428.2,1158.4L427.7,1163.9L427.2,1169.5L426.8,1175.0L426.4,1180.5L426.0,1186.0L425.1,1184.5L424.4,1182.5L423.8,1180.7L422.7,1176.5L421.9,1173.6L421.2,1170.6L420.4,1167.5L419.7,1164.4L418.9,1161.2L418.1,1158.0L417.3,1154.7L416.4,1151.4L415.5,1148.1L414.6,1144.8L413.7,1141.5L412.7,1138.1L411.6,1134.8L410.5,1131.5L409.4,1128.2L408.2,1125.0L407.0,1121.8L406.4,1120.1L405.9,1118.2L405.4,1115.9L405.2,1114.3L404.9,1112.6L404.5,1109.2L404.3,1106.7L404.2,1104.1L404.1,1101.6L404.0,1099.0L404.0,1096.5L404.1,1093.9L404.2,1091.3L404.3,1088.7L404.5,1086.1L404.7,1083.5L404.9,1080.9L405.2,1078.3L405.5,1075.8L405.8,1073.2L406.1,1070.7L406.5,1068.2L406.8,1065.8L407.3,1062.9L407.7,1060.0L408.1,1057.2L408.6,1054.3L409.0,1051.4L409.4,1048.5L409.8,1045.7L410.3,1042.8L410.7,1039.9L411.1,1037.0L411.5,1034.1L411.9,1031.2L412.4,1028.3L412.8,1025.4L412.8,1025.4Z" fill="rgb(236,224,34)" stroke="rgba(0,0,0,0.32)" stroke-width="0.8"/><path d="M127.2,683.0L126.2,681.6L125.8,678.7L125.7,676.9L125.8,674.9L125.9,672.8L126.2,670.5L126.5,668.2L126.8,665.8L127.2,663.5L127.6,661.2L127.9,659.0L128.3,657.0L128.7,655.2L129.3,652.4L130.3,647.6L131.1,643.8L131.9,640.0L132.7,636.1L133.5,632.3L134.2,628.4L135.0,624.6L135.8,620.7L136.5,616.9L137.3,613.0L138.0,609.2L138.8,605.3L139.5,601.5L140.3,597.6L141.1,593.8L141.8,589.9L142.6,586.1L143.4,582.2L143.8,580.1L144.2,577.9L144.5,575.8L144.8,573.6L145.1,571.5L145.3,569.3L145.5,567.1L145.7,565.1L145.8,563.1L145.9,561.2L146.1,559.3L146.2,557.5L146.3,555.6L146.5,553.8L146.7,552.1L147.0,550.3L147.2,548.6L147.6,546.9L147.9,545.2L148.4,543.6L148.9,541.9L149.5,540.3L150.1,538.7L150.9,537.1L151.8,535.5L152.9,533.4L154.1,531.3L155.3,529.0L156.5,526.8L157.7,524.5L158.9,522.2L160.1,519.9L161.4,517.6L162.8,515.4L164.1,513.2L165.6,511.0L167.1,508.9L168.7,506.9L170.3,505.0L172.0,503.3L173.9,501.6L175.8,500.1L177.8,498.8L179.5,498.6L180.7,499.7L181.5,501.9L182.0,504.0L182.4,506.2L182.6,508.6L182.7,510.2L182.7,512.0L182.8,513.8L182.8,517.1L182.8,520.5L182.8,523.8L182.7,527.2L182.5,530.6L182.3,534.0L182.1,537.3L181.7,540.7L181.3,544.1L180.9,547.5L180.3,550.8L179.7,554.2L179.0,557.5L178.2,560.7L177.3,564.0L176.3,567.2L175.2,570.4L174.0,573.5L172.2,578.1L170.4,582.7L168.5,587.3L166.7,591.9L164.8,596.5L163.0,601.1L161.2,605.7L159.3,610.3L157.5,614.9L155.7,619.5L153.9,624.1L152.0,628.8L150.2,633.4L148.5,638.0L146.7,642.6L144.9,647.2L143.2,651.8L141.4,656.4L140.7,658.2L140.1,660.0L139.4,661.7L138.8,663.4L138.1,665.1L137.5,666.8L136.8,668.4L136.1,670.0L135.5,671.5L134.8,673.0L133.4,675.8L131.9,678.4L130.3,680.8L128.6,682.8L127.2,683.0ZM201.5,527.4L202.7,531.0L203.1,533.9L203.3,537.0L203.3,540.1L203.2,543.3L202.9,546.4L202.4,549.6L201.9,552.8L201.2,556.0L200.4,559.2L199.5,562.4L198.5,565.5L197.4,568.5L196.3,571.5L195.1,574.4L193.8,577.2L192.5,579.9L191.2,582.5L190.4,583.9L189.6,585.4L188.6,587.0L187.7,588.6L186.6,590.3L185.6,592.0L184.5,593.7L183.4,595.5L182.3,597.3L181.2,599.1L180.1,600.9L179.0,602.7L177.9,604.6L176.9,606.4L175.8,608.3L174.8,610.1L173.9,612.0L173.0,613.8L171.1,617.8L169.3,621.8L167.4,625.8L165.6,629.8L163.8,633.8L162.0,637.9L160.3,641.9L158.5,646.0L156.8,650.0L155.1,654.1L153.4,658.2L151.7,662.2L150.1,666.3L148.4,670.4L147.7,672.2L146.9,673.9L146.0,675.6L145.0,677.1L144.0,678.6L143.0,680.1L141.8,681.4L140.2,681.8L139.3,680.1L139.3,678.0L139.5,675.9L140.0,674.0L141.6,669.3L143.1,665.1L144.6,661.0L146.1,656.8L147.6,652.7L149.2,648.5L150.7,644.4L152.3,640.2L153.8,636.1L155.4,632.0L156.9,627.8L158.5,623.7L160.1,619.6L161.7,615.5L162.8,612.8L163.9,610.1L165.0,607.4L166.2,604.8L167.4,602.1L168.5,599.5L169.7,596.8L170.9,594.2L172.1,591.6L173.3,588.9L174.5,586.3L175.7,583.6L176.9,581.0L178.0,578.3L179.2,575.7L180.3,573.0L181.4,570.3L182.4,567.6L183.0,565.9L183.5,564.2L184.1,562.5L184.6,560.7L185.0,558.9L185.5,557.1L185.9,555.3L186.3,553.5L186.7,551.7L187.1,549.9L187.4,548.2L187.8,546.4L188.1,544.7L188.4,543.1L188.7,541.4L189.4,538.4L190.0,536.0L190.6,534.0L191.3,532.2L192.2,530.6L193.3,529.3L194.6,528.2L196.2,527.5L198.1,527.2L200.3,527.2L201.5,527.4ZM207.3,540.4L213.7,546.1L214.0,547.7L213.7,549.8L213.3,551.4L212.8,553.0L211.8,555.2L210.8,557.5L209.8,559.7L208.8,561.9L207.9,564.2L206.9,566.4L205.9,568.6L204.9,570.9L203.9,573.1L203.0,575.4L202.0,577.6L201.0,579.8L200.1,582.1L199.1,584.3L198.1,586.4L197.1,588.6L196.0,590.9L194.8,593.1L193.5,595.5L192.2,597.9L190.8,600.3L189.4,602.8L188.0,605.3L186.6,607.8L185.1,610.4L183.7,613.0L182.2,615.7L180.8,618.3L179.4,621.0L178.1,623.8L176.8,626.5L175.6,629.2L174.2,632.4L172.8,635.6L171.5,638.8L170.1,642.1L168.7,645.3L167.3,648.6L165.9,651.8L164.5,655.0L163.1,658.3L161.7,661.5L160.2,664.7L158.7,667.9L157.1,671.0L155.6,674.2L154.0,677.3L152.3,680.3L150.6,683.4L148.8,686.4L149.4,681.2L150.9,676.9L152.4,672.7L154.0,668.5L155.5,664.3L157.1,660.0L158.8,655.9L160.4,651.7L162.1,647.5L163.8,643.3L165.6,639.2L167.4,635.1L169.2,630.9L171.0,626.8L171.8,625.0L172.6,623.3L173.4,621.6L174.2,620.0L175.0,618.5L175.7,617.0L177.3,614.2L178.1,612.8L178.9,611.4L179.8,610.0L180.6,608.7L182.4,606.0L184.1,603.4L185.8,600.9L187.5,598.5L189.0,596.1L190.5,593.7L192.9,589.1L194.7,585.6L196.3,582.1L197.8,578.5L199.2,574.9L200.6,571.2L201.8,567.5L202.9,563.7L203.9,559.9L204.8,556.1L205.6,552.2L206.3,548.3L206.8,544.4L207.3,540.4L207.3,540.4ZM600.1,683.0L598.5,681.4L596.9,679.4L595.4,677.0L594.1,674.4L592.8,671.6L591.6,668.9L590.6,666.2L589.6,663.7L588.8,661.5L587.8,658.9L586.9,656.4L585.9,653.9L584.9,651.3L584.0,648.8L583.0,646.2L582.1,643.7L581.1,641.1L580.1,638.6L579.2,636.1L578.2,633.5L577.2,631.0L576.2,628.4L575.3,625.9L574.3,623.4L573.3,620.8L572.2,618.3L571.2,615.8L569.9,612.6L568.6,609.4L567.3,606.2L566.0,603.0L564.7,599.8L563.4,596.6L562.1,593.4L560.8,590.2L559.6,586.9L558.3,583.7L557.0,580.5L555.7,577.3L554.5,574.1L553.2,570.9L552.3,568.5L551.5,566.1L550.7,563.6L550.0,561.0L549.4,558.5L548.8,555.9L548.3,553.3L547.8,550.6L547.4,548.0L547.0,545.3L546.6,542.6L546.3,540.0L546.1,537.3L545.8,534.7L545.6,532.0L545.5,529.4L545.3,526.9L545.2,524.3L545.1,521.9L545.0,519.2L545.0,516.2L545.1,513.1L545.3,509.9L545.6,506.8L546.1,504.0L546.9,501.4L547.9,499.3L549.3,498.5L551.2,499.3L553.3,500.7L555.2,502.2L557.1,503.9L558.7,505.8L560.3,507.8L561.8,509.8L563.1,511.9L564.4,514.1L565.9,516.8L566.8,518.4L567.7,520.0L568.6,521.7L569.5,523.3L570.4,524.9L571.3,526.5L572.2,528.1L573.1,529.8L574.0,531.4L574.9,533.0L575.8,534.6L576.8,536.2L577.7,537.8L578.6,539.6L579.3,541.5L579.9,543.5L580.4,545.6L580.8,547.7L581.1,549.9L581.3,551.7L581.4,553.4L581.6,555.2L581.8,557.0L581.9,558.7L582.1,560.5L582.2,562.3L582.4,564.0L582.6,565.8L582.7,567.6L582.9,569.3L583.1,571.1L583.3,572.8L583.6,574.6L583.8,576.3L584.1,578.1L584.4,579.8L584.7,581.5L585.4,584.8L586.0,588.0L586.7,591.2L587.3,594.4L587.9,597.6L588.6,600.8L589.2,604.1L589.8,607.3L590.4,610.5L591.0,613.7L591.7,616.9L592.3,620.2L592.9,623.4L593.6,626.6L594.2,629.8L594.9,633.0L595.5,636.2L596.2,639.5L596.9,642.7L597.4,644.8L597.9,647.3L598.5,650.0L599.1,652.9L599.7,655.9L600.3,659.1L600.9,662.2L601.4,665.3L601.8,668.4L602.2,671.3L602.4,674.0L602.5,676.5L602.5,678.7L602.3,680.5L601.3,683.0L600.1,683.0ZM586.6,681.5L585.4,680.1L584.3,678.8L583.2,677.3L582.2,675.8L581.4,674.2L580.6,672.6L579.8,670.9L578.2,666.7L576.5,662.6L574.9,658.5L573.2,654.4L571.5,650.3L569.8,646.2L568.0,642.1L566.2,638.1L564.5,634.0L562.7,630.0L560.8,625.9L559.0,621.9L557.1,617.9L555.2,613.8L554.3,611.8L553.2,609.8L552.2,607.9L551.1,605.9L549.9,604.0L548.8,602.1L547.6,600.2L546.4,598.2L545.2,596.3L544.0,594.4L542.9,592.5L541.7,590.6L540.5,588.7L539.4,586.7L538.3,584.7L537.3,582.8L536.2,580.8L535.3,578.7L534.1,576.2L533.0,573.5L531.9,570.9L530.8,568.2L529.8,565.4L528.9,562.6L528.1,559.9L527.3,557.0L526.6,554.2L526.0,551.3L525.6,548.5L525.2,545.6L525.0,542.7L524.9,539.9L524.9,537.0L525.1,534.1L525.5,531.3L526.0,528.4L527.2,527.3L529.5,527.2L531.4,527.4L533.0,527.9L534.9,529.2L536.3,531.1L537.0,532.7L537.7,534.5L538.2,536.5L538.8,538.6L539.3,540.7L539.8,542.8L540.3,544.9L540.7,547.0L541.2,549.1L541.6,551.3L542.1,553.4L542.5,555.5L543.0,557.6L543.5,559.6L544.0,561.7L544.6,563.7L545.1,565.7L545.8,567.6L546.5,569.5L547.2,571.4L548.0,573.2L550.6,578.8L553.1,584.3L555.5,589.9L557.9,595.3L560.2,600.8L562.5,606.2L564.7,611.7L566.9,617.1L569.1,622.5L571.2,627.9L573.3,633.3L575.4,638.7L577.4,644.1L579.4,649.6L581.4,655.1L583.4,660.5L585.4,666.1L587.3,671.6L587.9,673.2L588.5,675.1L588.9,677.0L589.0,679.0L588.9,680.7L587.8,681.9L586.6,681.5ZM579.6,686.4L578.5,684.8L577.4,683.1L576.4,681.4L575.4,679.6L574.5,677.9L573.6,676.1L572.7,674.3L571.5,671.8L570.3,669.1L569.1,666.4L567.8,663.6L566.5,660.7L565.1,657.6L563.7,654.5L562.3,651.3L560.9,647.9L559.3,644.5L557.8,641.0L556.2,637.4L554.6,633.6L553.0,629.8L552.2,628.0L551.3,626.1L550.5,624.2L549.5,622.3L548.6,620.3L547.6,618.3L546.5,616.2L545.6,614.5L544.7,612.8L543.7,611.0L542.7,609.2L541.7,607.4L540.7,605.6L539.6,603.7L538.5,601.9L537.5,600.0L536.4,598.2L535.4,596.4L534.4,594.6L533.4,592.8L532.4,591.0L531.5,589.3L530.7,587.6L529.9,585.9L529.2,584.3L527.8,581.3L526.5,578.4L525.3,575.6L524.1,572.9L523.0,570.4L522.0,568.0L521.0,565.6L520.0,563.5L519.1,561.4L518.3,559.5L517.5,557.7L516.8,556.0L516.1,554.4L515.3,552.6L514.8,551.0L514.4,549.4L514.2,547.6L519.8,540.2L521.4,544.4L522.0,548.2L522.6,552.0L523.4,555.8L524.2,559.5L525.2,563.2L526.2,566.8L527.4,570.4L528.6,574.0L530.0,577.5L531.5,581.0L533.0,584.5L534.7,587.9L536.5,591.3L537.4,593.0L538.3,594.4L539.4,596.1L540.7,598.1L542.1,600.3L543.8,602.8L544.7,604.2L545.7,605.7L546.7,607.2L547.7,608.7L548.6,610.2L549.5,611.8L550.4,613.3L551.3,614.9L552.1,616.4L553.0,618.0L553.8,619.6L554.6,621.2L555.4,622.8L556.2,624.4L556.9,626.1L558.2,628.9L559.5,631.8L560.8,634.9L562.1,638.1L563.5,641.4L564.9,644.8L566.3,648.3L567.8,651.9L569.3,655.7L570.8,659.6L572.3,663.5L573.9,667.6L575.5,671.8L577.1,676.2L577.7,677.8L578.3,679.4L579.0,681.6L579.6,683.7L580.1,685.6L579.6,686.4Z" fill="rgb(255,160,65)" stroke="rgba(0,0,0,0.32)" stroke-width="0.8"/><path d="M101.0,745.9L99.5,744.7L98.1,743.6L96.7,742.5L95.4,741.4L94.1,740.2L93.0,739.1L91.9,737.9L90.0,735.4L88.6,732.7L87.6,729.8L87.2,726.6L87.2,724.9L87.4,723.1L87.7,721.3L88.2,719.2L88.9,717.3L89.8,715.4L90.8,713.6L91.9,711.9L93.1,710.2L94.5,708.7L95.9,707.1L97.5,705.7L99.1,704.2L100.8,702.9L102.5,701.6L104.2,700.4L106.0,699.2L107.8,698.1L109.5,697.0L111.3,696.0L113.1,695.0L115.7,693.9L118.6,693.2L121.5,692.8L124.5,692.8L127.6,693.1L130.6,693.7L133.6,694.3L136.5,695.2L139.2,696.0L141.5,696.9L143.5,697.8L145.3,699.0L146.8,700.2L148.0,701.7L149.0,703.4L149.7,705.3L150.2,707.5L150.3,709.9L150.3,712.5L150.2,715.2L150.1,717.8L149.9,720.4L149.7,723.0L149.4,725.6L149.1,728.2L148.7,730.8L148.3,733.4L147.9,736.0L147.4,738.6L146.8,741.1L146.2,743.7L145.6,746.2L144.4,749.4L142.9,751.9L141.0,753.9L138.9,755.4L136.5,756.4L133.8,757.0L131.0,757.2L128.0,757.1L125.0,756.6L121.9,755.9L118.8,755.0L115.8,753.9L112.9,752.6L110.0,751.3L107.4,749.9L105.0,748.5L102.8,747.1L101.0,745.9L101.0,745.9ZM53.8,746.3L53.1,744.5L53.2,742.6L53.4,740.6L54.1,738.9L55.3,737.6L56.9,736.7L58.7,735.7L60.4,734.8L62.2,733.7L64.0,732.6L65.6,731.5L67.1,730.2L68.4,728.8L69.5,727.3L70.4,725.7L71.4,724.2L72.4,722.7L73.4,721.2L74.5,719.7L75.6,718.2L76.8,716.8L78.0,715.3L79.2,713.9L80.5,712.5L81.8,711.1L83.2,709.7L84.6,708.3L86.0,707.0L86.2,708.6L85.5,710.5L84.8,712.3L84.1,714.2L83.5,716.2L83.0,718.3L82.3,721.0L81.6,723.2L80.7,725.3L79.7,727.6L78.5,729.8L77.3,732.0L75.8,734.1L74.3,736.2L72.7,738.1L70.9,739.9L69.0,741.6L67.1,743.1L65.1,744.3L62.9,745.3L60.8,746.1L58.5,746.5L56.2,746.6L53.8,746.3L53.8,746.3ZM87.2,745.0L88.8,745.6L90.6,746.3L92.5,747.1L94.2,748.0L95.7,749.3L96.0,751.2L95.5,753.5L94.3,755.6L93.2,756.9L92.1,758.2L90.9,759.4L89.8,760.6L87.5,763.7L86.3,765.6L85.0,767.5L83.7,769.4L82.4,771.3L81.1,773.2L79.8,775.1L78.5,777.0L77.2,778.9L75.9,780.8L74.6,782.7L73.2,784.6L71.8,786.4L70.4,788.2L69.0,790.0L67.6,791.7L66.1,793.5L64.6,795.1L62.9,795.2L62.5,793.6L62.6,791.8L62.8,790.0L63.1,788.2L63.6,786.5L64.3,784.8L66.4,781.1L67.8,778.5L69.2,776.0L70.7,773.4L72.1,770.9L73.5,768.3L74.9,765.7L76.2,763.2L77.6,760.6L78.9,758.0L80.3,755.4L81.6,752.8L82.9,750.1L84.2,747.5L85.2,746.3L86.4,745.2L87.2,745.0ZM108.1,758.1L109.2,759.3L109.2,761.0L107.7,764.2L106.2,767.4L104.7,770.7L103.3,773.9L101.8,777.2L100.4,780.4L99.0,783.7L97.5,787.0L96.1,790.3L94.7,793.6L93.4,796.9L92.0,800.2L90.6,803.5L89.3,806.8L88.4,808.4L87.4,809.8L86.1,810.8L84.7,811.7L83.1,812.3L81.4,812.8L79.9,812.2L79.7,810.6L79.8,808.6L80.1,806.6L80.6,804.7L81.3,802.7L82.5,799.8L83.6,796.9L84.8,794.0L85.9,791.1L87.0,788.1L88.1,785.2L89.2,782.3L90.2,779.4L91.3,776.4L92.4,773.5L93.4,770.6L94.4,767.6L95.5,764.7L96.5,761.7L96.9,760.0L97.5,758.2L98.2,756.8L100.4,756.4L102.4,756.5L104.3,756.8L106.2,757.4L108.1,758.1L108.1,758.1ZM134.1,799.9L133.3,798.4L132.8,796.7L132.4,793.7L132.1,791.3L131.9,788.8L131.7,786.4L131.6,784.0L131.4,781.5L131.3,779.1L131.3,776.6L131.2,774.2L131.2,771.7L131.2,769.3L131.3,766.8L131.4,764.3L131.5,761.9L139.0,759.3L139.6,761.4L139.5,764.5L139.3,767.6L139.2,770.7L139.1,773.8L139.0,776.9L138.9,780.0L138.8,782.9L138.7,785.5L138.6,787.7L138.5,789.8L138.3,791.8L137.9,793.6L137.3,795.4L136.4,797.1L135.3,799.0L134.1,799.9ZM108.1,814.6L106.7,813.9L106.5,812.2L106.5,810.3L106.5,808.5L106.6,806.6L106.8,804.6L107.2,802.1L107.7,799.6L108.1,797.0L108.5,794.5L108.9,791.9L109.2,789.4L109.6,786.8L110.0,784.3L110.4,781.7L110.8,779.2L111.1,776.7L111.5,774.1L111.9,771.6L112.2,769.0L112.5,767.4L112.8,765.7L113.1,764.1L113.5,762.5L114.2,761.0L121.8,762.2L121.9,766.8L121.3,770.2L120.6,773.5L119.9,776.9L119.3,780.2L118.6,783.6L118.0,786.9L117.3,790.2L116.7,793.5L116.0,796.7L115.4,800.0L114.8,803.2L114.1,806.4L113.5,809.6L113.0,811.4L112.1,812.8L110.4,814.1L108.8,814.6L108.1,814.6ZM591.3,756.0L588.9,754.9L586.9,753.5L585.4,751.9L584.2,750.1L583.3,748.1L582.6,745.9L582.1,743.7L581.5,741.3L581.0,738.9L580.6,736.9L580.2,734.8L579.8,732.7L579.5,730.7L579.2,728.6L578.9,726.5L578.6,724.4L578.4,722.3L578.3,720.2L578.1,718.1L578.0,716.0L578.0,713.9L577.9,711.8L577.9,709.6L578.0,708.0L578.3,706.0L578.8,704.2L580.2,701.9L582.3,699.7L584.9,697.9L586.3,697.1L587.8,696.4L589.4,695.8L591.0,695.2L592.7,694.7L594.4,694.3L596.0,693.9L597.7,693.6L599.3,693.3L602.3,693.0L605.0,692.7L608.0,692.8L610.9,693.5L613.9,694.5L615.4,695.2L616.9,695.9L618.3,696.7L619.7,697.5L621.2,698.4L622.5,699.3L623.9,700.3L625.2,701.3L627.7,703.2L630.0,705.0L631.2,706.0L633.5,708.2L635.5,710.5L637.2,713.0L638.5,715.5L639.6,718.2L640.5,721.1L641.0,724.8L641.0,727.0L640.7,729.1L640.1,731.1L639.3,733.1L638.3,735.0L637.1,736.8L635.8,738.5L634.3,740.1L632.7,741.7L631.0,743.2L629.2,744.6L627.3,746.0L625.5,747.2L623.6,748.4L621.7,749.5L619.8,750.6L618.0,751.6L615.6,752.8L612.8,753.9L609.8,755.0L608.3,755.5L606.7,755.9L605.1,756.3L603.5,756.6L601.9,756.8L600.3,757.0L597.2,757.0L594.1,756.7L591.3,756.0L591.3,756.0ZM642.0,706.8L643.5,708.2L645.0,709.6L646.4,711.0L647.8,712.5L649.2,714.0L650.5,715.5L651.8,717.1L653.0,718.7L654.2,720.3L655.4,721.9L656.5,723.6L657.6,725.2L658.6,727.0L659.6,728.7L660.9,730.2L662.2,731.3L663.7,732.4L665.5,733.4L667.2,734.4L668.9,735.4L670.5,736.2L672.5,737.3L674.0,738.6L674.9,740.3L675.2,742.3L675.2,744.0L675.0,745.8L673.2,746.4L670.8,746.6L668.6,746.4L666.6,745.9L664.7,745.1L663.0,744.1L661.3,742.9L659.5,741.5L657.7,739.9L655.2,737.4L653.7,735.8L652.4,734.2L651.2,732.5L650.2,730.8L649.3,729.1L648.5,727.4L647.7,725.6L647.1,723.8L646.4,722.1L645.9,720.2L645.3,718.4L644.7,716.6L644.2,714.7L643.6,712.9L642.9,711.0L642.2,709.1L641.5,707.1L642.0,706.8ZM638.0,760.1L636.6,758.4L635.0,756.8L633.5,755.1L632.5,753.3L632.1,751.3L632.6,749.0L640.6,745.0L642.3,745.2L643.6,747.1L644.5,748.6L645.3,750.1L646.1,751.5L646.9,752.9L648.0,755.0L649.3,757.7L650.3,759.7L651.3,761.6L652.3,763.6L653.3,765.6L654.4,767.5L655.4,769.5L656.5,771.4L657.5,773.4L658.6,775.3L659.7,777.3L660.8,779.2L661.9,781.1L663.0,783.0L663.8,784.6L664.7,786.7L665.2,788.4L665.6,790.0L665.9,791.6L665.9,793.7L665.2,795.2L663.6,795.1L662.0,793.2L660.4,791.3L658.9,789.5L657.5,787.5L656.0,785.6L654.6,783.7L653.2,781.7L651.8,779.8L650.5,777.8L649.1,775.8L647.7,773.8L646.4,771.9L645.0,769.9L643.6,767.9L642.2,765.9L640.8,764.0L639.4,762.0L638.0,760.1L638.0,760.1ZM647.8,812.7L645.9,812.5L644.0,811.9L642.3,810.9L640.8,809.6L639.6,808.0L638.7,806.3L637.4,803.0L636.0,799.7L634.7,796.4L633.3,793.1L631.9,789.8L630.5,786.6L629.1,783.3L627.7,780.1L626.3,776.9L624.9,773.7L623.4,770.5L621.9,767.3L620.5,764.1L619.0,761.0L618.9,759.3L620.5,757.9L622.5,757.2L624.6,756.7L626.6,756.5L628.8,756.5L630.3,757.1L631.5,760.6L632.6,763.9L633.7,767.1L634.8,770.4L636.0,773.7L637.1,776.9L638.3,780.2L639.5,783.4L640.7,786.7L641.9,789.9L643.2,793.1L644.4,796.4L645.7,799.6L647.0,802.8L647.7,804.7L648.1,806.7L648.4,808.7L648.5,810.7L648.4,812.3L647.8,812.7ZM596.2,761.2L596.8,763.0L596.8,766.3L596.9,768.4L596.9,770.8L596.9,773.4L596.9,776.1L596.9,778.9L596.8,781.8L596.7,784.6L596.6,787.3L596.4,789.9L596.2,792.3L595.9,794.5L595.6,796.4L594.6,799.0L592.8,798.8L592.0,797.3L590.9,795.4L590.2,793.6L589.8,792.0L589.7,788.8L589.6,786.5L589.5,784.3L589.5,782.1L589.4,779.8L589.3,777.6L589.2,775.4L589.2,773.2L589.1,770.9L589.0,768.7L588.9,766.5L588.8,764.2L588.7,762.0L588.6,759.8L596.2,761.2L596.2,761.2ZM621.1,814.3L619.1,814.7L617.6,814.0L616.4,812.8L615.6,811.1L615.0,809.3L614.6,807.7L613.9,804.6L613.3,801.5L612.7,798.3L612.0,795.2L611.4,792.1L610.7,788.9L610.1,785.8L609.5,782.6L608.8,779.5L608.2,776.4L607.6,773.2L607.0,770.1L606.3,766.9L605.7,763.8L606.4,762.3L613.6,760.9L615.1,764.0L615.5,766.4L615.9,768.7L616.3,771.0L616.6,773.4L617.0,775.7L617.4,778.1L617.7,780.4L618.1,782.8L618.4,785.1L618.8,787.5L619.1,789.9L619.5,792.2L619.8,794.6L620.1,796.7L620.4,798.7L620.7,800.8L621.0,802.8L621.3,804.9L621.5,807.0L621.6,809.2L621.7,811.3L621.6,813.6L621.1,814.3Z" fill="rgba(255,255,255,0.08)" stroke="rgba(0,0,0,0.32)" stroke-width="0.8"/><path d="M291.9,1208.1L293.7,1208.0L295.6,1208.4L297.4,1209.3L299.2,1210.4L300.9,1211.8L302.3,1213.4L303.6,1215.1L304.6,1216.8L305.3,1218.5L305.9,1220.7L306.4,1223.0L306.7,1225.4L306.9,1227.8L307.0,1230.2L306.9,1232.7L306.7,1235.3L305.6,1233.9L304.9,1232.4L304.2,1231.0L303.5,1229.5L302.0,1226.7L300.5,1224.0L298.9,1221.3L297.2,1218.8L295.3,1216.3L293.2,1213.8L292.1,1212.7L290.9,1211.5L290.3,1209.9L291.2,1208.4L291.9,1208.1ZM275.9,1270.9L274.5,1269.7L273.2,1268.4L272.1,1267.1L270.8,1265.1L270.2,1262.9L270.1,1261.3L270.3,1259.5L271.0,1257.6L271.6,1255.9L272.3,1254.2L272.8,1252.6L273.4,1251.0L273.9,1249.4L274.3,1247.8L275.1,1244.8L275.7,1241.8L276.2,1239.0L276.5,1236.3L276.7,1234.0L277.2,1231.8L277.9,1229.8L278.8,1228.0L279.9,1226.3L281.2,1224.8L282.7,1223.4L284.2,1222.5L285.8,1222.0L289.0,1222.4L290.6,1223.2L292.2,1224.3L293.7,1225.7L295.3,1227.3L296.7,1229.0L298.2,1231.0L299.5,1233.0L300.8,1235.0L301.9,1237.0L303.0,1239.0L303.9,1240.9L304.7,1242.6L305.3,1244.2L306.2,1246.8L307.0,1249.5L307.8,1252.2L308.5,1254.9L309.1,1257.7L309.6,1260.4L310.0,1263.2L310.2,1265.9L310.3,1268.7L310.2,1271.2L310.0,1273.8L309.7,1276.5L309.2,1279.3L308.6,1282.1L307.8,1284.8L306.9,1287.5L305.8,1289.9L304.5,1292.1L302.2,1291.3L301.1,1289.7L299.9,1288.2L298.5,1286.8L297.1,1285.5L295.6,1284.3L294.0,1283.1L292.4,1282.0L290.7,1280.9L289.0,1279.8L287.3,1278.8L285.6,1277.7L283.9,1276.7L282.2,1275.6L280.6,1274.5L278.9,1273.4L277.4,1272.2L275.9,1270.9L275.9,1270.9ZM430.9,1209.1L432.5,1208.5L434.5,1208.2L436.5,1208.2L438.1,1209.0L437.6,1211.0L435.5,1213.3L434.2,1214.8L432.9,1216.3L431.7,1217.9L430.5,1219.5L429.3,1221.2L428.2,1222.9L427.2,1224.6L426.2,1226.3L425.3,1228.1L424.4,1229.9L423.6,1231.8L422.8,1233.7L422.1,1235.6L421.5,1233.8L421.4,1232.1L421.4,1230.4L421.4,1228.7L421.5,1227.0L421.6,1225.4L421.8,1223.8L422.4,1220.7L423.4,1217.7L424.8,1215.0L426.8,1212.4L428.0,1211.2L429.4,1210.1L430.9,1209.1L430.9,1209.1ZM445.0,1223.3L446.3,1224.4L447.5,1225.6L449.3,1228.1L450.5,1230.8L451.4,1233.7L452.1,1236.7L452.5,1239.7L453.0,1242.8L453.6,1245.8L454.4,1248.8L454.9,1250.4L455.4,1252.0L455.9,1253.5L456.4,1255.1L456.8,1256.6L457.3,1258.2L457.8,1259.7L458.2,1261.7L457.9,1263.7L457.1,1265.6L455.8,1267.5L454.2,1269.3L452.2,1271.2L449.9,1272.9L447.4,1274.7L444.8,1276.4L442.2,1278.2L439.5,1279.9L436.8,1281.6L434.3,1283.3L431.9,1285.1L429.8,1286.8L428.0,1288.6L426.6,1290.3L425.6,1292.2L424.6,1293.4L423.5,1292.2L422.4,1289.7L421.4,1287.3L420.6,1284.8L419.9,1282.4L419.3,1279.9L418.8,1277.4L418.5,1275.0L418.2,1272.5L418.1,1270.1L418.1,1267.6L418.2,1265.1L418.4,1262.6L418.7,1260.2L419.1,1257.7L419.6,1255.2L420.2,1252.7L420.9,1250.2L421.7,1247.6L422.5,1245.2L423.5,1242.8L424.5,1240.5L425.7,1238.2L426.9,1235.9L428.3,1233.7L429.7,1231.6L430.8,1230.0L432.2,1228.3L433.7,1226.5L435.4,1224.9L437.3,1223.5L439.2,1222.5L441.1,1222.0L443.1,1222.2L445.0,1223.3L445.0,1223.3Z" fill="rgba(255,255,255,0.08)" stroke="rgba(0,0,0,0.32)" stroke-width="0.8"/><path d="M264.5,1334.5L262.8,1334.3L260.5,1333.8L257.9,1333.1L255.1,1332.1L252.3,1331.0L249.7,1329.7L247.6,1328.3L246.1,1326.7L245.5,1325.1L247.4,1322.0L249.0,1319.8L250.7,1317.6L252.3,1315.5L254.0,1313.3L255.7,1311.2L257.4,1309.0L259.1,1306.9L260.8,1304.7L262.4,1302.5L264.1,1300.3L265.7,1298.1L267.2,1295.9L268.8,1293.6L270.2,1291.3L271.7,1289.0L273.1,1286.7L274.4,1284.3L276.5,1284.2L279.3,1284.9L281.9,1285.8L284.5,1286.8L287.0,1287.9L289.4,1289.3L291.7,1290.8L293.1,1291.8L293.0,1293.4L292.0,1294.7L291.6,1296.4L292.3,1299.3L292.8,1302.1L292.9,1304.9L292.7,1307.6L292.1,1310.4L291.2,1313.2L290.2,1316.0L289.0,1318.8L287.7,1321.7L286.8,1323.9L286.1,1326.0L285.7,1328.2L285.3,1330.5L285.0,1332.9L284.6,1335.2L284.3,1336.9L283.0,1338.0L281.1,1337.6L278.7,1336.9L276.2,1336.3L273.7,1335.8L271.1,1335.3L268.5,1334.9L265.8,1334.6L264.5,1334.5ZM291.9,1340.1L290.9,1338.7L290.3,1336.8L290.2,1334.7L290.4,1333.0L290.9,1331.3L291.6,1329.5L292.4,1326.9L293.1,1324.4L293.8,1321.7L294.3,1319.1L294.7,1316.5L295.0,1313.8L295.2,1311.6L295.4,1309.2L295.6,1307.2L295.9,1305.5L296.4,1303.7L297.0,1301.8L297.6,1300.0L298.4,1298.3L299.2,1296.6L300.1,1295.2L301.3,1297.0L302.0,1299.6L302.7,1302.1L303.6,1304.6L304.5,1307.1L305.6,1309.4L306.7,1311.8L307.7,1313.8L308.1,1315.5L308.2,1317.3L308.0,1319.2L307.6,1321.1L307.0,1323.0L306.3,1324.8L305.5,1326.6L304.7,1328.3L304.2,1329.8L304.3,1331.8L304.1,1333.6L303.6,1335.3L302.9,1336.9L302.0,1338.3L292.9,1340.5L291.9,1340.1ZM444.7,1337.7L443.8,1336.2L443.4,1334.6L443.1,1332.4L442.9,1330.2L442.6,1328.2L442.1,1326.1L441.5,1324.0L440.6,1321.9L439.4,1319.4L438.3,1316.8L437.3,1314.2L436.5,1311.5L435.8,1308.8L435.4,1306.1L435.3,1303.6L435.5,1301.1L436.2,1298.7L436.7,1297.1L436.6,1295.4L435.7,1293.8L435.0,1292.4L436.6,1290.8L438.9,1289.3L441.4,1287.9L443.8,1286.8L446.4,1285.8L449.0,1284.9L451.7,1284.2L453.3,1283.9L455.0,1286.4L456.3,1288.6L457.6,1290.7L458.9,1292.8L460.3,1294.9L461.8,1296.9L463.2,1299.0L464.7,1301.0L466.2,1303.0L467.7,1305.0L469.3,1307.0L470.8,1309.0L472.4,1311.0L474.0,1313.0L475.5,1314.9L477.1,1316.9L478.6,1318.8L480.2,1320.8L481.2,1322.2L482.1,1323.6L482.8,1325.1L481.9,1327.1L480.4,1328.6L478.5,1329.8L476.3,1331.0L473.8,1331.9L471.4,1332.7L469.0,1333.3L466.8,1333.8L465.0,1334.1L462.2,1334.5L459.4,1335.0L456.6,1335.5L453.8,1336.0L451.0,1336.6L448.2,1337.2L445.5,1337.9L444.7,1337.7ZM426.9,1338.5L425.5,1337.3L424.7,1335.5L424.3,1333.9L424.0,1332.1L423.9,1330.4L423.4,1328.4L422.8,1326.5L421.9,1324.5L421.1,1322.6L420.4,1320.6L420.0,1318.6L419.9,1316.6L420.4,1314.6L421.4,1312.3L422.6,1309.9L423.6,1307.4L424.6,1304.8L425.4,1302.3L426.2,1299.7L426.9,1297.1L427.3,1295.5L429.0,1296.4L429.7,1297.9L430.3,1299.4L431.0,1300.9L431.5,1302.5L432.0,1304.1L432.4,1305.7L432.7,1307.4L432.9,1309.1L433.0,1311.4L433.3,1314.4L433.6,1317.3L434.1,1320.2L434.8,1323.1L435.5,1326.0L436.4,1328.8L437.1,1330.7L437.6,1332.3L438.0,1334.2L438.0,1336.1L437.7,1338.0L437.1,1339.5L435.6,1340.4L434.0,1340.2L431.9,1339.6L430.3,1339.2L428.7,1338.9L426.9,1338.5L426.9,1338.5Z" fill="rgba(255,255,255,0.08)" stroke="rgba(0,0,0,0.32)" stroke-width="0.8"/><path d="M418.9,167.7L420.8,167.1L422.4,167.2L424.1,168.0L425.3,169.7L425.9,171.4L426.1,174.0L426.2,176.1L426.1,178.2L425.9,180.3L425.5,182.4L425.1,184.6L424.6,186.7L423.9,188.9L423.2,191.0L422.4,193.2L421.6,195.2L420.6,197.3L419.7,199.3L418.6,201.3L417.6,203.2L416.5,205.0L415.4,206.8L414.2,208.4L412.8,209.7L411.1,209.3L410.0,207.7L408.9,206.6L408.8,208.2L408.8,211.0L408.9,213.8L408.8,216.6L408.7,219.4L408.4,222.2L407.9,224.9L407.2,227.5L406.1,230.1L405.2,231.6L403.9,232.9L402.3,234.4L401.0,235.6L399.4,237.0L397.6,238.5L395.6,240.1L390.7,243.7L386.9,246.2L383.2,248.3L379.6,250.0L376.1,251.4L372.6,252.5L369.2,253.2L365.8,253.6L362.5,253.6L359.2,253.3L355.9,252.7L352.7,251.8L349.4,250.6L346.2,249.1L343.0,247.3L339.7,245.2L336.4,242.8L333.1,240.1L331.7,239.0L329.9,237.5L328.5,236.3L327.2,235.1L326.1,234.1L324.8,232.9L323.5,231.6L322.0,229.4L320.9,226.8L320.1,224.0L319.7,220.9L319.5,217.8L319.4,214.7L319.5,211.7L319.7,208.8L319.8,207.2L318.2,208.1L317.3,209.4L315.4,209.6L313.4,207.2L312.3,205.5L311.2,203.6L310.0,201.5L308.9,199.3L307.8,197.1L306.7,194.7L305.7,192.3L304.8,189.9L304.0,187.4L303.3,185.0L302.7,182.6L302.3,180.2L302.1,177.9L302.0,175.7L302.2,173.6L302.6,171.6L303.3,169.8L304.2,168.2L305.4,167.0L307.2,167.0L308.7,168.0L309.7,169.9L310.1,171.8L310.5,173.7L310.9,175.6L311.2,177.6L311.6,179.5L311.9,181.5L312.2,183.4L312.5,185.4L312.7,187.3L313.0,189.3L313.2,191.2L313.5,192.8L315.3,192.5L316.0,190.9L316.5,188.5L316.9,185.5L317.1,183.9L317.2,182.2L317.3,180.5L317.3,178.7L317.4,177.0L317.4,175.3L317.4,172.3L317.4,169.7L317.5,168.0L317.6,165.7L318.0,163.5L318.6,161.3L319.4,159.2L320.4,157.0L321.2,155.7L322.6,153.5L323.6,151.4L324.5,149.4L325.1,147.3L325.6,145.3L326.0,143.2L326.3,140.9L326.6,138.5L326.8,135.8L327.1,134.1L327.6,132.6L328.8,130.7L330.4,129.3L332.5,128.3L334.0,127.9L335.7,127.7L337.7,127.6L339.8,127.6L341.9,127.5L344.0,127.5L346.1,127.4L348.2,127.3L350.3,127.2L352.4,127.0L354.5,126.8L356.3,126.6L358.2,126.3L360.1,126.0L361.9,125.8L363.8,125.7L365.8,125.8L368.2,126.1L370.5,126.4L372.7,126.7L375.0,127.0L377.2,127.2L379.4,127.3L381.7,127.4L384.0,127.5L386.2,127.6L388.1,127.6L390.2,127.6L391.9,127.7L393.9,127.8L395.6,128.1L397.9,129.2L399.2,130.5L400.2,132.1L400.9,133.8L401.4,135.7L401.7,137.6L401.9,139.6L402.0,141.6L402.2,143.5L402.5,145.7L403.0,147.8L403.8,149.8L404.7,151.9L405.8,153.9L407.2,155.8L408.2,157.4L409.0,159.1L409.6,160.8L410.1,162.8L410.5,164.7L410.8,166.8L411.0,168.9L411.1,171.1L411.2,173.3L411.2,175.5L411.2,177.7L411.3,179.9L411.3,182.1L411.5,184.3L411.7,186.4L411.9,188.4L412.3,190.3L412.8,192.2L414.3,192.9L415.2,190.6L415.5,187.8L415.9,185.0L416.2,182.3L416.7,179.6L417.1,176.9L417.6,174.3L418.1,171.6L418.6,169.0L418.9,167.7Z" fill="rgba(255,255,255,0.08)" stroke="rgba(0,0,0,0.32)" stroke-width="0.8"/><path d="M418.9,167.7L418.6,169.4L418.2,171.0L417.9,172.7L417.6,174.4L417.2,176.2L416.9,177.9L416.7,179.6L416.4,181.4L416.1,183.1L415.9,184.9L415.7,186.6L415.4,188.4L415.2,190.2L415.0,192.0L413.8,193.0L412.3,190.3L411.9,188.4L411.7,186.4L411.5,184.3L411.3,182.1L411.3,179.9L411.2,177.7L411.2,175.5L411.2,173.3L411.1,171.1L411.0,168.9L410.8,166.8L410.5,164.7L410.1,162.8L409.6,160.8L409.0,159.1L408.2,157.4L407.2,155.8L406.0,154.1L405.0,152.4L404.1,150.7L403.4,149.0L402.9,147.2L402.5,145.3L402.2,143.5L402.0,141.6L401.9,139.6L401.7,137.6L401.4,135.7L400.9,133.8L400.2,132.1L399.2,130.5L397.9,129.2L396.1,128.3L394.1,127.8L392.3,127.7L390.1,127.6L388.3,127.6L385.9,127.6L383.0,127.5L380.1,127.4L377.2,127.2L374.3,126.9L371.4,126.6L368.6,126.2L366.4,125.8L364.5,125.7L362.6,125.7L360.7,125.9L358.8,126.2L356.9,126.5L354.5,126.8L352.4,127.0L350.3,127.2L348.2,127.3L346.1,127.4L344.0,127.5L341.9,127.5L339.8,127.6L337.7,127.6L335.7,127.7L334.0,127.9L332.5,128.3L330.4,129.3L328.8,130.7L327.6,132.6L327.1,134.1L326.8,135.8L326.6,138.5L326.3,140.9L326.0,143.2L325.6,145.3L325.1,147.3L324.5,149.4L323.6,151.4L322.6,153.5L321.3,155.7L320.4,157.0L319.4,159.2L318.6,161.3L318.0,163.5L317.6,165.7L317.5,168.0L317.4,169.7L317.4,172.3L317.4,175.3L317.4,177.0L317.3,178.7L317.3,180.5L317.2,182.2L317.1,183.9L316.9,185.5L316.5,188.5L316.0,190.9L315.3,192.5L313.7,192.9L313.1,190.5L312.9,188.8L312.7,187.2L312.5,185.5L312.3,183.8L312.0,182.2L311.7,180.5L311.5,178.8L311.2,177.2L310.9,175.5L310.5,173.9L310.2,172.2L309.8,170.6L309.5,168.9L309.1,167.0L308.7,165.3L308.3,163.0L307.9,161.1L307.6,159.2L307.2,156.5L306.9,153.6L306.8,150.7L306.7,147.6L306.8,144.5L307.0,141.3L307.3,138.1L307.8,134.9L308.4,131.8L309.1,128.7L310.0,125.6L311.1,122.7L312.3,119.8L313.7,117.1L315.3,114.6L317.0,112.2L319.0,110.0L321.1,108.1L322.8,106.8L324.6,105.6L326.5,104.5L328.6,103.5L330.8,102.5L333.1,101.6L335.5,100.8L337.9,100.0L340.4,99.4L342.9,98.8L345.4,98.2L347.8,97.8L350.3,97.4L352.7,97.1L355.0,96.8L357.3,96.7L359.4,96.6L361.5,96.5L363.6,96.5L365.8,96.5L367.9,96.5L370.1,96.5L372.1,96.6L374.2,96.8L376.5,97.1L378.9,97.5L381.3,97.9L383.8,98.4L386.3,98.9L388.8,99.6L391.3,100.3L393.7,101.1L396.1,102.0L398.5,103.0L400.8,104.1L403.0,105.4L405.1,106.7L407.1,108.2L408.9,109.9L410.6,111.7L412.2,113.6L413.6,115.7L415.0,118.3L416.3,120.9L417.4,123.7L418.4,126.4L419.3,129.3L420.0,132.2L420.6,135.1L421.0,138.1L421.3,141.1L421.5,144.1L421.6,147.1L421.6,150.1L421.4,153.1L421.1,156.1L420.7,159.0L420.2,162.0L419.6,164.8L418.9,167.7L418.9,167.7Z" fill="rgba(255,255,255,0.08)" stroke="rgba(0,0,0,0.32)" stroke-width="0.8"/></svg>