<svg width="220" height="220" viewBox="0 0 220 220" fill="none" xmlns="http://www.w3.org/2000/svg">
<path fill-rule="evenodd" clip-rule="evenodd" d="M110 220C170.751 220 220 170.751 220 110C220 49.2487 170.751 0 110 0C49.2487 0 0 49.2487 0 110C0 170.751 49.2487 220 110 220ZM179.051 118.682L175.356 128.533L177.358 129.284C180.334 130.4 181.841 133.717 180.725 136.693C179.609 139.668 176.292 141.176 173.316 140.06L171.314 139.309L167.619 149.16C166.456 152.262 162.997 153.834 159.894 152.671C156.792 151.507 155.22 148.048 156.384 144.946L167.815 114.467C168.979 111.365 172.438 109.793 175.54 110.957C178.643 112.12 180.215 115.579 179.051 118.682ZM46.6405 79.2777C43.6649 78.1616 40.3479 79.669 39.2318 82.6446C38.1157 85.6203 39.6231 88.9373 42.5987 90.0534L44.6006 90.8042L40.9054 100.656C39.7416 103.759 41.3134 107.217 44.4161 108.381C47.5187 109.545 50.9773 107.973 52.141 104.87L63.5729 74.392C64.7366 71.2894 63.1648 67.8308 60.0622 66.6671C56.9595 65.5033 53.501 67.0751 52.3372 70.1777L48.6424 80.0285L46.6405 79.2777ZM86.9088 70.107C88.0725 67.0044 86.5007 63.5458 83.3981 62.3821C80.2954 61.2183 76.8369 62.7901 75.6731 65.8928L55.6674 119.23C54.5037 122.332 56.0755 125.791 59.1781 126.955C62.2807 128.118 65.7393 126.547 66.9031 123.444L86.9088 70.107ZM160.778 92.3821C163.881 93.5458 165.453 97.0044 164.289 100.107L144.283 153.444C143.12 156.547 139.661 158.118 136.558 156.955C133.456 155.791 131.884 152.332 133.048 149.23L153.053 95.8928C154.217 92.7901 157.676 91.2183 160.778 92.3821ZM140.422 49.6096C141.78 45.9899 139.946 41.9548 136.326 40.5971C132.706 39.2395 128.671 41.0732 127.314 44.6929L78.9152 173.727C77.5575 177.347 79.3913 181.382 83.011 182.74C86.6307 184.097 90.6658 182.264 92.0235 178.644L140.422 49.6096Z" fill="white"/>
</svg>
